999
"DXF R12 Output" (www.mydxf.blogspot.com)
 0 
SECTION
 2 
HEADER
 9 
$ACADVER
 1 
AC1009
 9 
$EXTMIN
 10 
 0 
 20 
 0 
 9 
$EXTMAX
 10 
 8.5 
 20 
 11 
 0 
ENDSEC
 0 
SECTION
 2 
ENTITIES
0
LINE
8
BLACK
10
256.499460
20
-35.490873
11
220.125383
21
-31.855502
0
LINE
8
BLACK
10
83.290382
20
-32.539033
11
81.811756
21
-32.602386
0
LINE
8
BLACK
10
259.155640
20
-37.958086
11
258.830604
21
-37.032847
0
LINE
8
BLACK
10
258.830604
20
-37.032847
11
258.242030
21
-36.278593
0
LINE
8
BLACK
10
258.242030
20
-36.278593
11
257.446203
21
-35.747577
0
LINE
8
BLACK
10
257.446203
20
-35.747577
11
256.499407
21
-35.492054
0
LINE
8
BLACK
10
147.062314
20
-80.370726
11
146.708739
21
-80.517137
0
LINE
8
BLACK
10
146.708739
20
-80.517137
11
146.562316
21
-80.870707
0
LINE
8
BLACK
10
220.125287
20
-31.854643
11
218.018938
21
-31.755724
0
LINE
8
BLACK
10
155.062307
20
-80.869503
11
155.062307
21
-100.062354
0
LINE
8
BLACK
10
268.705203
20
-92.320655
11
259.155609
21
-37.956786
0
LINE
8
BLACK
10
34.448971
20
-96.273525
11
82.883535
21
-122.297909
0
LINE
8
BLACK
10
152.416212
20
-134.934393
11
152.350860
21
-134.944977
0
LINE
8
BLACK
10
88.902269
20
-124.380177
11
149.224812
21
-134.937039
0
LINE
8
BLACK
10
152.416212
20
-134.934393
11
152.399808
21
-134.937039
0
LINE
8
BLACK
10
155.062325
20
-80.870704
11
154.915866
21
-80.517150
0
LINE
8
BLACK
10
154.915866
20
-80.517150
11
154.562306
21
-80.370705
0
LINE
8
BLACK
10
32.913114
20
-93.118262
11
32.900047
21
-94.062174
0
LINE
8
BLACK
10
32.900047
20
-94.062174
11
33.171708
21
-94.943773
0
LINE
8
BLACK
10
33.171708
20
-94.943773
11
33.698069
21
-95.701376
0
LINE
8
BLACK
10
33.698069
20
-95.701376
11
34.449100
21
-96.273298
0
LINE
8
BLACK
10
32.913067
20
-93.117050
11
42.465042
21
-38.009703
0
LINE
8
BLACK
10
45.181781
20
-35.533206
11
81.811709
21
-32.601626
0
LINE
8
BLACK
10
154.562245
20
-80.369441
11
147.062375
21
-80.369441
0
LINE
8
BLACK
10
146.562316
20
-100.061998
11
146.708762
21
-100.415552
0
LINE
8
BLACK
10
146.708762
20
-100.415552
11
147.062316
21
-100.561998
0
LINE
8
BLACK
10
267.170622
20
-95.482422
11
217.265770
21
-122.297909
0
LINE
8
BLACK
10
214.375521
20
-123.316509
11
215.859956
21
-122.918001
0
LINE
8
BLACK
10
215.859956
20
-122.918001
11
217.265788
21
-122.296718
0
LINE
8
BLACK
10
149.269791
20
-134.944977
11
149.224812
21
-134.937039
0
LINE
8
BLACK
10
45.181757
20
-35.532786
11
44.214304
21
-35.776318
0
LINE
8
BLACK
10
44.214304
20
-35.776318
11
43.399241
21
-36.306812
0
LINE
8
BLACK
10
43.399241
20
-36.306812
11
42.796265
21
-37.069814
0
LINE
8
BLACK
10
42.796265
20
-37.069814
11
42.465072
21
-38.010869
0
LINE
8
BLACK
10
83.290464
20
-32.538127
11
218.019038
21
-31.754961
0
LINE
8
BLACK
10
214.375465
20
-123.316554
11
152.399808
21
-134.937039
0
LINE
8
BLACK
10
82.883503
20
-122.297737
11
85.809411
21
-123.580230
0
LINE
8
BLACK
10
85.809411
20
-123.580230
11
88.902193
21
-124.380497
0
LINE
8
BLACK
10
154.562305
20
-100.562000
11
154.915830
21
-100.415524
0
LINE
8
BLACK
10
154.915830
20
-100.415524
11
155.062306
21
-100.062000
0
LINE
8
BLACK
10
147.062375
20
-100.562416
11
154.562245
21
-100.562416
0
LINE
8
BLACK
10
146.562313
20
-80.869503
11
146.562313
21
-100.062354
0
LINE
8
BLACK
10
267.170952
20
-95.482004
11
267.923194
21
-94.908805
0
LINE
8
BLACK
10
267.923194
20
-94.908805
11
268.449824
21
-94.149409
0
LINE
8
BLACK
10
268.449824
20
-94.149409
11
268.720718
21
-93.265873
0
LINE
8
BLACK
10
268.720718
20
-93.265873
11
268.705755
21
-92.320251
0
LINE
8
BLACK
10
149.269742
20
-134.943969
11
150.810353
21
-135.063397
0
LINE
8
BLACK
10
150.810353
20
-135.063397
11
152.350969
21
-134.944048
0
LINE
8
BLACK
10
127.244050
20
-108.536947
11
123.935969
21
-127.298528
0
LINE
8
BLACK
10
123.935969
20
-127.298528
11
105.175447
21
-123.991240
0
LINE
8
BLACK
10
105.175447
20
-123.991240
11
108.483263
21
-105.229660
0
LINE
8
BLACK
10
108.483263
20
-105.229660
11
127.244050
21
-108.536947
0
LINE
8
BLACK
10
187.133206
20
-125.549634
11
168.372684
21
-128.859568
0
LINE
8
BLACK
10
168.372684
20
-128.859568
11
165.064602
21
-110.097987
0
LINE
8
BLACK
10
165.064602
20
-110.097987
11
183.825125
21
-106.790700
0
LINE
8
BLACK
10
183.825125
20
-106.790700
11
187.133206
21
-125.549634
0
LINE
8
BLACK
10
208.245871
20
-80.731920
11
189.485084
21
-84.039207
0
LINE
8
BLACK
10
189.485084
20
-84.039207
11
186.177268
21
-65.280273
0
LINE
8
BLACK
10
186.177268
20
-65.280273
11
204.937790
21
-61.970339
0
LINE
8
BLACK
10
204.937790
20
-61.970339
11
208.245871
21
-80.731920
0
LINE
8
BLACK
10
229.126232
20
-89.436701
11
210.365710
21
-92.743988
0
LINE
8
BLACK
10
210.365710
20
-92.743988
11
207.057629
21
-73.985053
0
LINE
8
BLACK
10
207.057629
20
-73.985053
11
225.818151
21
-70.675120
0
LINE
8
BLACK
10
225.818151
20
-70.675120
11
229.126232
21
-89.436701
0
LINE
8
BLACK
10
130.968585
20
-87.420578
11
127.660504
21
-106.179513
0
LINE
8
BLACK
10
127.660504
20
-106.179513
11
108.899982
21
-102.872225
0
LINE
8
BLACK
10
108.899982
20
-102.872225
11
112.208063
21
-84.110645
0
LINE
8
BLACK
10
112.208063
20
-84.110645
11
130.968585
21
-87.420578
0
LINE
8
BLACK
10
265.323832
20
-75.315906
11
246.563575
21
-78.623193
0
LINE
8
BLACK
10
246.563575
20
-78.623193
11
243.255494
21
-59.864259
0
LINE
8
BLACK
10
243.255494
20
-59.864259
11
262.016280
21
-56.554325
0
LINE
8
BLACK
10
262.016280
20
-56.554325
11
265.323832
21
-75.315906
0
LINE
8
BLACK
10
215.277958
20
-120.604578
11
196.517436
21
-123.911866
0
LINE
8
BLACK
10
196.517436
20
-123.911866
11
193.209355
21
-105.150285
0
LINE
8
BLACK
10
193.209355
20
-105.150285
11
211.970141
21
-101.842998
0
LINE
8
BLACK
10
211.970141
20
-101.842998
11
215.277958
21
-120.604578
0
LINE
8
BLACK
10
242.428672
20
-55.173202
11
223.668149
21
-58.480490
0
LINE
8
BLACK
10
223.668149
20
-58.480490
11
220.360068
21
-39.721555
0
LINE
8
BLACK
10
220.360068
20
-39.721555
11
239.120590
21
-36.411622
0
LINE
8
BLACK
10
239.120590
20
-36.411622
11
242.428672
21
-55.173202
0
LINE
8
BLACK
10
222.510334
20
-51.916185
11
203.749547
21
-55.223473
0
LINE
8
BLACK
10
203.749547
20
-55.223473
11
200.441731
21
-36.461892
0
LINE
8
BLACK
10
200.441731
20
-36.461892
11
219.202253
21
-33.154605
0
LINE
8
BLACK
10
219.202253
20
-33.154605
11
222.510334
21
-51.916185
0
LINE
8
BLACK
10
112.208063
20
-84.110645
11
108.899982
21
-102.872225
0
LINE
8
BLACK
10
108.899982
20
-102.872225
11
90.139459
21
-99.564938
0
LINE
8
BLACK
10
90.139459
20
-99.564938
11
93.447276
21
-80.803357
0
LINE
8
BLACK
10
93.447276
20
-80.803357
11
112.208063
21
-84.110645
0
LINE
8
BLACK
10
177.334375
20
-124.856427
11
158.573588
21
-128.163714
0
LINE
8
BLACK
10
158.573588
20
-128.163714
11
155.265771
21
-109.404780
0
LINE
8
BLACK
10
155.265771
20
-109.404780
11
174.026293
21
-106.094846
0
LINE
8
BLACK
10
174.026293
20
-106.094846
11
177.334375
21
-124.856427
0
LINE
8
BLACK
10
58.407226
20
-60.118258
11
55.099145
21
-78.877193
0
LINE
8
BLACK
10
55.099145
20
-78.877193
11
36.338623
21
-75.569906
0
LINE
8
BLACK
10
36.338623
20
-75.569906
11
39.646704
21
-56.808325
0
LINE
8
BLACK
10
39.646704
20
-56.808325
11
58.407226
21
-60.118258
0
LINE
8
BLACK
10
134.276402
20
-68.658998
11
130.968585
21
-87.420578
0
LINE
8
BLACK
10
130.968585
20
-87.420578
11
112.208063
21
-84.110645
0
LINE
8
BLACK
10
112.208063
20
-84.110645
11
115.515879
21
-65.351710
0
LINE
8
BLACK
10
115.515879
20
-65.351710
11
134.276402
21
-68.658998
0
LINE
8
BLACK
10
192.796076
20
-102.806080
11
174.035289
21
-106.113367
0
LINE
8
BLACK
10
174.035289
20
-106.113367
11
170.727472
21
-87.354432
0
LINE
8
BLACK
10
170.727472
20
-87.354432
11
189.487995
21
-84.044499
0
LINE
8
BLACK
10
189.487995
20
-84.044499
11
192.796076
21
-102.806080
0
LINE
8
BLACK
10
245.736488
20
-73.934783
11
226.975966
21
-77.242070
0
LINE
8
BLACK
10
226.975966
20
-77.242070
11
223.668149
21
-58.480490
0
LINE
8
BLACK
10
223.668149
20
-58.480490
11
242.428672
21
-55.173202
0
LINE
8
BLACK
10
242.428672
20
-55.173202
11
245.736488
21
-73.934783
0
LINE
8
BLACK
10
146.402505
20
-109.523842
11
143.094688
21
-128.285423
0
LINE
8
BLACK
10
143.094688
20
-128.285423
11
124.333902
21
-124.978135
0
LINE
8
BLACK
10
124.333902
20
-124.978135
11
127.641983
21
-106.216555
0
LINE
8
BLACK
10
127.641983
20
-106.216555
11
146.402505
21
-109.523842
0
LINE
8
BLACK
10
186.179913
20
-65.285564
11
167.419391
21
-68.592852
0
LINE
8
BLACK
10
167.419391
20
-68.592852
11
164.111310
21
-49.831271
0
LINE
8
BLACK
10
164.111310
20
-49.831271
11
182.872097
21
-46.523984
0
LINE
8
BLACK
10
182.872097
20
-46.523984
11
186.179913
21
-65.285564
0
LINE
8
BLACK
10
137.584483
20
-49.897417
11
134.276402
21
-68.658998
0
LINE
8
BLACK
10
134.276402
20
-68.658998
11
115.515879
21
-65.351710
0
LINE
8
BLACK
10
115.515879
20
-65.351710
11
118.823961
21
-46.590130
0
LINE
8
BLACK
10
118.823961
20
-46.590130
11
137.584483
21
-49.897417
0
LINE
8
BLACK
10
77.994835
20
-58.734489
11
74.686754
21
-77.496070
0
LINE
8
BLACK
10
74.686754
20
-77.496070
11
55.926232
21
-74.188782
0
LINE
8
BLACK
10
55.926232
20
-74.188782
11
59.234313
21
-55.427202
0
LINE
8
BLACK
10
59.234313
20
-55.427202
11
77.994835
21
-58.734489
0
LINE
8
BLACK
10
94.605091
20
-74.236407
11
91.297275
21
-92.997988
0
LINE
8
BLACK
10
91.297275
20
-92.997988
11
72.536752
21
-89.690700
0
LINE
8
BLACK
10
72.536752
20
-89.690700
11
75.844569
21
-70.929120
0
LINE
8
BLACK
10
75.844569
20
-70.929120
11
94.605091
21
-74.236407
0
LINE
8
BLACK
10
249.036368
20
-92.696363
11
230.275845
21
-96.003651
0
LINE
8
BLACK
10
230.275845
20
-96.003651
11
226.967764
21
-77.244716
0
LINE
8
BLACK
10
226.967764
20
-77.244716
11
245.728286
21
-73.934783
0
LINE
8
BLACK
10
245.728286
20
-73.934783
11
249.036368
21
-92.696363
0
LINE
8
BLACK
10
115.515879
20
-65.351710
11
112.208063
21
-84.110645
0
LINE
8
BLACK
10
112.208063
20
-84.110645
11
93.447276
21
-80.803357
0
LINE
8
BLACK
10
93.447276
20
-80.803357
11
96.755357
21
-62.041777
0
LINE
8
BLACK
10
96.755357
20
-62.041777
11
115.515879
21
-65.351710
0
LINE
8
BLACK
10
81.302916
20
-39.975555
11
77.994835
21
-58.734489
0
LINE
8
BLACK
10
77.994835
20
-58.734489
11
59.234313
21
-55.427202
0
LINE
8
BLACK
10
59.234313
20
-55.427202
11
62.542130
21
-36.665621
0
LINE
8
BLACK
10
62.542130
20
-36.665621
11
81.302916
21
-39.975555
0
LINE
8
BLACK
10
101.221254
20
-36.715892
11
97.913172
21
-55.477473
0
LINE
8
BLACK
10
97.913172
20
-55.477473
11
79.152650
21
-52.167539
0
LINE
8
BLACK
10
79.152650
20
-52.167539
11
82.460732
21
-33.408605
0
LINE
8
BLACK
10
82.460732
20
-33.408605
11
101.221254
21
-36.715892
0
LINE
8
BLACK
10
268.623182
20
-94.080132
11
249.863454
21
-97.387420
0
LINE
8
BLACK
10
249.863454
20
-97.387420
11
246.555637
21
-78.625839
0
LINE
8
BLACK
10
246.555637
20
-78.625839
11
265.315895
21
-75.318552
0
LINE
8
BLACK
10
265.315895
20
-75.318552
11
268.623182
21
-94.080132
0
LINE
8
BLACK
10
204.939642
20
-61.965048
11
186.179120
21
-65.272335
0
LINE
8
BLACK
10
186.179120
20
-65.272335
11
182.871038
21
-46.510755
0
LINE
8
BLACK
10
182.871038
20
-46.510755
11
201.631561
21
-43.203467
0
LINE
8
BLACK
10
201.631561
20
-43.203467
11
204.939642
21
-61.965048
0
LINE
8
BLACK
10
74.686754
20
-77.496070
11
71.378937
21
-96.255005
0
LINE
8
BLACK
10
71.378937
20
-96.255005
11
52.618150
21
-92.947717
0
LINE
8
BLACK
10
52.618150
20
-92.947717
11
55.926232
21
-74.188782
0
LINE
8
BLACK
10
55.926232
20
-74.188782
11
74.686754
21
-77.496070
0
LINE
8
BLACK
10
232.814519
20
-110.354633
11
214.053997
21
-113.661920
0
LINE
8
BLACK
10
214.053997
20
-113.661920
11
210.746180
21
-94.902985
0
LINE
8
BLACK
10
210.746180
20
-94.902985
11
229.506703
21
-91.593052
0
LINE
8
BLACK
10
229.506703
20
-91.593052
11
232.814519
21
-110.354633
0
LINE
8
BLACK
10
90.883731
20
-95.342193
11
87.575650
21
-114.103774
0
LINE
8
BLACK
10
87.575650
20
-114.103774
11
68.815128
21
-110.796486
0
LINE
8
BLACK
10
68.815128
20
-110.796486
11
72.123209
21
-92.034906
0
LINE
8
BLACK
10
72.123209
20
-92.034906
11
90.883731
21
-95.342193
0
LINE
8
BLACK
10
55.099145
20
-78.877193
11
51.791329
21
-97.638774
0
LINE
8
BLACK
10
51.791329
20
-97.638774
11
33.030806
21
-94.331486
0
LINE
8
BLACK
10
33.030806
20
-94.331486
11
36.338623
21
-75.569906
0
LINE
8
BLACK
10
36.338623
20
-75.569906
11
55.099145
21
-78.877193
0
LINE
8
BLACK
10
262.016280
20
-56.554325
11
243.255494
21
-59.864259
0
LINE
8
BLACK
10
243.255494
20
-59.864259
11
239.947677
21
-41.102678
0
LINE
8
BLACK
10
239.947677
20
-41.102678
11
258.708199
21
-37.795391
0
LINE
8
BLACK
10
258.708199
20
-37.795391
11
262.016280
21
-56.554325
0
LINE
8
BLACK
10
136.617167
20
-110.193237
11
133.309086
21
-128.954818
0
LINE
8
BLACK
10
133.309086
20
-128.954818
11
114.548564
21
-125.644884
0
LINE
8
BLACK
10
114.548564
20
-125.644884
11
117.856645
21
-106.885950
0
LINE
8
BLACK
10
117.856645
20
-106.885950
11
136.617167
21
-110.193237
0
LINE
8
BLACK
10
118.823961
20
-46.590130
11
115.515879
21
-65.351710
0
LINE
8
BLACK
10
115.515879
20
-65.351710
11
96.755357
21
-62.041777
0
LINE
8
BLACK
10
96.755357
20
-62.041777
11
100.063439
21
-43.282842
0
LINE
8
BLACK
10
100.063439
20
-43.282842
11
118.823961
21
-46.590130
0
LINE
8
BLACK
10
108.486438
20
-105.216431
11
105.178357
21
-123.978011
0
LINE
8
BLACK
10
105.178357
20
-123.978011
11
86.417835
21
-120.670724
0
LINE
8
BLACK
10
86.417835
20
-120.670724
11
89.725916
21
-101.909143
0
LINE
8
BLACK
10
89.725916
20
-101.909143
11
108.486438
21
-105.216431
0
LINE
8
BLACK
10
97.913172
20
-55.477473
11
94.605091
21
-74.236407
0
LINE
8
BLACK
10
94.605091
20
-74.236407
11
75.844569
21
-70.929120
0
LINE
8
BLACK
10
75.844569
20
-70.929120
11
79.152650
21
-52.167539
0
LINE
8
BLACK
10
79.152650
20
-52.167539
11
97.913172
21
-55.477473
0
LINE
8
BLACK
10
196.508440
20
-123.893345
11
177.747653
21
-127.200632
0
LINE
8
BLACK
10
177.747653
20
-127.200632
11
174.439836
21
-108.441698
0
LINE
8
BLACK
10
174.439836
20
-108.441698
11
193.200359
21
-105.131764
0
LINE
8
BLACK
10
193.200359
20
-105.131764
11
196.508440
21
-123.893345
0
LINE
8
BLACK
10
189.487995
20
-84.044499
11
170.727472
21
-87.354432
0
LINE
8
BLACK
10
170.727472
20
-87.354432
11
167.419391
21
-68.592852
0
LINE
8
BLACK
10
167.419391
20
-68.592852
11
186.179913
21
-65.285564
0
LINE
8
BLACK
10
186.179913
20
-65.285564
11
189.487995
21
-84.044499
0
LINE
8
BLACK
10
61.715308
20
-41.356678
11
58.407226
21
-60.118258
0
LINE
8
BLACK
10
58.407226
20
-60.118258
11
39.646704
21
-56.808325
0
LINE
8
BLACK
10
39.646704
20
-56.808325
11
42.954785
21
-38.049390
0
LINE
8
BLACK
10
42.954785
20
-38.049390
11
61.715308
21
-41.356678
0
LINE
8
BLACK
10
225.818151
20
-70.675120
11
207.057629
21
-73.985053
0
LINE
8
BLACK
10
207.057629
20
-73.985053
11
203.749547
21
-55.223473
0
LINE
8
BLACK
10
203.749547
20
-55.223473
11
222.510334
21
-51.916185
0
LINE
8
BLACK
10
222.510334
20
-51.916185
11
225.818151
21
-70.675120
0
LINE
8
BLACK
10
211.556598
20
-99.498792
11
192.796076
21
-102.806080
0
LINE
8
BLACK
10
192.796076
20
-102.806080
11
189.487995
21
-84.044499
0
LINE
8
BLACK
10
189.487995
20
-84.044499
11
208.248517
21
-80.737212
0
LINE
8
BLACK
10
208.248517
20
-80.737212
11
211.556598
21
-99.498792
0
LINE
8
BLACK
10
159.137300
20
-47.812065
11
159.074800
21
-47.703812
0
LINE
8
BLACK
10
159.074800
20
-47.703812
11
158.949800
21
-47.703812
0
LINE
8
BLACK
10
158.949800
20
-47.703812
11
158.887300
21
-47.812065
0
LINE
8
BLACK
10
158.887300
20
-47.812065
11
158.949800
21
-47.920319
0
LINE
8
BLACK
10
158.949800
20
-47.920319
11
159.074800
21
-47.920319
0
LINE
8
BLACK
10
159.074800
20
-47.920319
11
159.137300
21
-47.812065
0
LINE
8
BLACK
10
159.137300
20
-47.812065
11
159.137300
21
-47.812065
0
LINE
8
BLACK
10
146.550142
20
-97.204858
11
146.550142
21
-81.454232
0
LINE
8
BLACK
10
147.049940
20
-80.954170
11
154.550074
21
-80.954170
0
LINE
8
BLACK
10
147.049940
20
-97.704919
11
154.550074
21
-97.704919
0
LINE
8
BLACK
10
155.050136
20
-81.454232
11
155.050136
21
-97.204858
0
LINE
8
BLACK
10
147.050058
20
-80.953962
11
146.696505
21
-81.100408
0
LINE
8
BLACK
10
146.696505
20
-81.100408
11
146.550058
21
-81.453961
0
LINE
8
BLACK
10
146.550058
20
-97.203941
11
146.696505
21
-97.557494
0
LINE
8
BLACK
10
146.696505
20
-97.557494
11
147.050058
21
-97.703941
0
LINE
8
BLACK
10
155.050048
20
-81.453961
11
154.903602
21
-81.100408
0
LINE
8
BLACK
10
154.903602
20
-81.100408
11
154.550048
21
-80.953962
0
LINE
8
BLACK
10
154.550048
20
-97.703941
11
154.903601
21
-97.557494
0
LINE
8
BLACK
10
154.903601
20
-97.557494
11
155.050048
21
-97.203941
0
LINE
8
BLACK
10
124.232036
20
-111.078756
11
124.149209
21
-110.705144
0
LINE
8
BLACK
10
124.149209
20
-110.705144
11
123.826457
21
-110.499529
0
LINE
8
BLACK
10
121.392848
20
-124.285292
11
121.766472
21
-124.202437
0
LINE
8
BLACK
10
121.766472
20
-124.202437
11
121.972084
21
-123.879662
0
LINE
8
BLACK
10
111.023972
20
-108.242105
11
110.650361
21
-108.324933
0
LINE
8
BLACK
10
110.650361
20
-108.324933
11
110.444745
21
-108.647684
0
LINE
8
BLACK
10
108.187321
20
-121.450169
11
108.270149
21
-121.823780
0
LINE
8
BLACK
10
108.270149
20
-121.823780
11
108.592900
21
-122.029396
0
LINE
8
BLACK
10
124.232037
20
-111.079590
11
121.974615
21
-123.880116
0
LINE
8
BLACK
10
121.395443
20
-124.287573
11
108.592801
21
-122.030680
0
LINE
8
BLACK
10
111.024054
20
-108.243260
11
123.826431
21
-110.500153
0
LINE
8
BLACK
10
108.187195
20
-121.451244
11
110.444617
21
-108.648072
0
LINE
8
BLACK
10
168.482221
20
-112.058547
11
181.284599
21
-109.801654
0
LINE
8
BLACK
10
170.334037
20
-125.441155
11
168.076615
21
-112.637984
0
LINE
8
BLACK
10
181.863771
20
-110.206466
11
184.121193
21
-123.009638
0
LINE
8
BLACK
10
183.715587
20
-123.589074
11
170.913210
21
-125.845967
0
LINE
8
BLACK
10
168.485024
20
-112.059761
11
168.162269
21
-112.265407
0
LINE
8
BLACK
10
168.162269
20
-112.265407
11
168.079453
21
-112.639040
0
LINE
8
BLACK
10
170.333962
20
-125.440906
11
170.539577
21
-125.763657
0
LINE
8
BLACK
10
170.539577
20
-125.763657
11
170.913189
21
-125.846484
0
LINE
8
BLACK
10
181.863828
20
-110.207349
11
181.658213
21
-109.884599
0
LINE
8
BLACK
10
181.658213
20
-109.884599
11
181.284602
21
-109.801771
0
LINE
8
BLACK
10
183.715674
20
-123.589061
11
184.038424
21
-123.383445
0
LINE
8
BLACK
10
184.038424
20
-123.383445
11
184.121252
21
-123.009834
0
LINE
8
BLACK
10
189.594622
20
-67.240833
11
202.397264
21
-64.983940
0
LINE
8
BLACK
10
191.446438
20
-80.623441
11
189.189016
21
-67.820270
0
LINE
8
BLACK
10
202.976436
20
-65.388752
11
205.233858
21
-78.191923
0
LINE
8
BLACK
10
204.828252
20
-78.771360
11
192.025875
21
-81.028253
0
LINE
8
BLACK
10
189.594717
20
-67.240906
11
189.271967
21
-67.446521
0
LINE
8
BLACK
10
189.271967
20
-67.446521
11
189.189139
21
-67.820132
0
LINE
8
BLACK
10
191.446562
20
-80.622617
11
191.652178
21
-80.945368
0
LINE
8
BLACK
10
191.652178
20
-80.945368
11
192.025789
21
-81.028196
0
LINE
8
BLACK
10
202.976428
20
-65.389061
11
202.770813
21
-65.066310
0
LINE
8
BLACK
10
202.770813
20
-65.066310
11
202.397202
21
-64.983482
0
LINE
8
BLACK
10
204.825367
20
-78.770205
11
205.148121
21
-78.564560
0
LINE
8
BLACK
10
205.148121
20
-78.564560
11
205.230937
21
-78.190926
0
LINE
8
BLACK
10
210.475247
20
-75.945613
11
223.277625
21
-73.688720
0
LINE
8
BLACK
10
212.327064
20
-89.325576
11
210.069642
21
-76.525050
0
LINE
8
BLACK
10
223.856797
20
-74.093532
11
226.114219
21
-86.896704
0
LINE
8
BLACK
10
225.708614
20
-87.476141
11
212.906236
21
-89.733034
0
LINE
8
BLACK
10
210.475168
20
-75.945144
11
210.152417
21
-76.150759
0
LINE
8
BLACK
10
210.152417
20
-76.150759
11
210.069589
21
-76.524371
0
LINE
8
BLACK
10
212.327013
20
-89.326855
11
212.532629
21
-89.649606
0
LINE
8
BLACK
10
212.532629
20
-89.649606
11
212.906240
21
-89.732434
0
LINE
8
BLACK
10
223.856879
20
-74.093299
11
223.651264
21
-73.770548
0
LINE
8
BLACK
10
223.651264
20
-73.770548
11
223.277653
21
-73.687720
0
LINE
8
BLACK
10
225.705818
20
-87.474443
11
226.028572
21
-87.268798
0
LINE
8
BLACK
10
226.028572
20
-87.268798
11
226.111388
21
-86.895164
0
LINE
8
BLACK
10
111.911994
20
-100.332229
11
114.169417
21
-87.529057
0
LINE
8
BLACK
10
114.748589
20
-87.124245
11
127.550966
21
-89.381138
0
LINE
8
BLACK
10
125.119978
20
-103.168558
11
112.317600
21
-100.911665
0
LINE
8
BLACK
10
127.956572
20
-89.960575
11
125.699150
21
-102.763746
0
LINE
8
BLACK
10
111.911893
20
-100.331568
11
111.994721
21
-100.705180
0
LINE
8
BLACK
10
111.994721
20
-100.705180
11
112.317472
21
-100.910796
0
LINE
8
BLACK
10
114.748544
20
-87.123505
11
114.374932
21
-87.206333
0
LINE
8
BLACK
10
114.374932
20
-87.206333
11
114.169316
21
-87.529084
0
LINE
8
BLACK
10
125.117419
20
-103.166691
11
125.491044
21
-103.083837
0
LINE
8
BLACK
10
125.491044
20
-103.083837
11
125.696656
21
-102.761061
0
LINE
8
BLACK
10
127.956608
20
-89.960156
11
127.873780
21
-89.586544
0
LINE
8
BLACK
10
127.873780
20
-89.586544
11
127.551028
21
-89.380928
0
LINE
8
BLACK
10
246.673112
20
-61.824819
11
259.475490
21
-59.567926
0
LINE
8
BLACK
10
248.524929
20
-75.207427
11
246.267506
21
-62.404256
0
LINE
8
BLACK
10
260.054927
20
-59.972738
11
262.312349
21
-72.775909
0
LINE
8
BLACK
10
261.906743
20
-73.355346
11
249.104101
21
-75.612239
0
LINE
8
BLACK
10
246.673098
20
-61.824931
11
246.350348
21
-62.030547
0
LINE
8
BLACK
10
246.350348
20
-62.030547
11
246.267520
21
-62.404158
0
LINE
8
BLACK
10
248.524943
20
-75.206643
11
248.730559
21
-75.529393
0
LINE
8
BLACK
10
248.730559
20
-75.529393
11
249.104170
21
-75.612221
0
LINE
8
BLACK
10
260.054809
20
-59.973086
11
259.849194
21
-59.650335
0
LINE
8
BLACK
10
259.849194
20
-59.650335
11
259.475583
21
-59.567508
0
LINE
8
BLACK
10
261.903748
20
-73.354231
11
262.226502
21
-73.148586
0
LINE
8
BLACK
10
262.226502
20
-73.148586
11
262.309318
21
-72.774952
0
LINE
8
BLACK
10
196.626973
20
-107.113491
11
209.429351
21
-104.853952
0
LINE
8
BLACK
10
198.478790
20
-120.493453
11
196.221367
21
-107.692928
0
LINE
8
BLACK
10
210.008788
20
-105.261410
11
212.266210
21
-118.061935
0
LINE
8
BLACK
10
211.860604
20
-118.641372
11
199.057962
21
-120.900911
0
LINE
8
BLACK
10
196.626974
20
-107.112575
11
196.304224
21
-107.318191
0
LINE
8
BLACK
10
196.304224
20
-107.318191
11
196.221396
21
-107.691802
0
LINE
8
BLACK
10
198.478819
20
-120.494287
11
198.684435
21
-120.817038
0
LINE
8
BLACK
10
198.684435
20
-120.817038
11
199.058046
21
-120.899866
0
LINE
8
BLACK
10
210.008685
20
-105.260730
11
209.803070
21
-104.937979
0
LINE
8
BLACK
10
209.803070
20
-104.937979
11
209.429459
21
-104.855152
0
LINE
8
BLACK
10
211.857624
20
-118.641875
11
212.180378
21
-118.436229
0
LINE
8
BLACK
10
212.180378
20
-118.436229
11
212.263194
21
-118.062596
0
LINE
8
BLACK
10
223.777422
20
-41.682115
11
236.580064
21
-39.425222
0
LINE
8
BLACK
10
225.629503
20
-55.064723
11
223.372081
21
-42.261552
0
LINE
8
BLACK
10
237.159237
20
-39.830034
11
239.416659
21
-52.633205
0
LINE
8
BLACK
10
239.011053
20
-53.212642
11
226.208675
21
-55.469535
0
LINE
8
BLACK
10
223.777542
20
-41.682220
11
223.454791
21
-41.887835
0
LINE
8
BLACK
10
223.454791
20
-41.887835
11
223.371964
21
-42.261447
0
LINE
8
BLACK
10
225.629387
20
-55.063931
11
225.835003
21
-55.386682
0
LINE
8
BLACK
10
225.835003
20
-55.386682
11
226.208614
21
-55.469510
0
LINE
8
BLACK
10
237.159253
20
-39.830375
11
236.953638
21
-39.507624
0
LINE
8
BLACK
10
236.953638
20
-39.507624
11
236.580027
21
-39.424796
0
LINE
8
BLACK
10
239.008192
20
-53.211519
11
239.330946
21
-53.005874
0
LINE
8
BLACK
10
239.330946
20
-53.005874
11
239.413762
21
-52.632240
0
LINE
8
BLACK
10
203.859085
20
-38.425098
11
216.661727
21
-36.165559
0
LINE
8
BLACK
10
205.710901
20
-51.805061
11
203.453479
21
-39.004535
0
LINE
8
BLACK
10
217.240899
20
-36.573017
11
219.498321
21
-49.373543
0
LINE
8
BLACK
10
219.092716
20
-49.952980
11
206.290338
21
-52.212518
0
LINE
8
BLACK
10
203.859181
20
-38.424016
11
203.536431
21
-38.629632
0
LINE
8
BLACK
10
203.536431
20
-38.629632
11
203.453603
21
-39.003243
0
LINE
8
BLACK
10
205.711026
20
-51.805728
11
205.916642
21
-52.128478
0
LINE
8
BLACK
10
205.916642
20
-52.128478
11
206.290253
21
-52.211306
0
LINE
8
BLACK
10
217.240892
20
-36.572171
11
217.035277
21
-36.249420
0
LINE
8
BLACK
10
217.035277
20
-36.249420
11
216.661666
21
-36.166592
0
LINE
8
BLACK
10
219.089831
20
-49.953315
11
219.412585
21
-49.747670
0
LINE
8
BLACK
10
219.412585
20
-49.747670
11
219.495401
21
-49.374037
0
LINE
8
BLACK
10
93.151208
20
-97.022295
11
95.408630
21
-84.221770
0
LINE
8
BLACK
10
95.988067
20
-83.814312
11
108.790444
21
-86.073851
0
LINE
8
BLACK
10
106.359456
20
-99.861271
11
93.556813
21
-97.601732
0
LINE
8
BLACK
10
109.196050
20
-86.653287
11
106.938628
21
-99.453813
0
LINE
8
BLACK
10
93.151328
20
-97.023575
11
93.234156
21
-97.397186
0
LINE
8
BLACK
10
93.234156
20
-97.397186
11
93.556907
21
-97.602802
0
LINE
8
BLACK
10
95.987979
20
-83.815511
11
95.614368
21
-83.898339
0
LINE
8
BLACK
10
95.614368
20
-83.898339
11
95.408752
21
-84.221090
0
LINE
8
BLACK
10
106.356855
20
-99.858698
11
106.730479
21
-99.775843
0
LINE
8
BLACK
10
106.730479
20
-99.775843
11
106.936091
21
-99.453067
0
LINE
8
BLACK
10
109.196043
20
-86.652162
11
109.113216
21
-86.278550
0
LINE
8
BLACK
10
109.113216
20
-86.278550
11
108.790464
21
-86.072934
0
LINE
8
BLACK
10
158.683125
20
-111.365340
11
171.485767
21
-109.108447
0
LINE
8
BLACK
10
160.534942
20
-124.747948
11
158.277519
21
-111.944776
0
LINE
8
BLACK
10
172.064939
20
-109.513259
11
174.322362
21
-122.316430
0
LINE
8
BLACK
10
173.916756
20
-122.895867
11
161.114378
21
-125.152760
0
LINE
8
BLACK
10
158.683193
20
-111.365204
11
158.360442
21
-111.570820
0
LINE
8
BLACK
10
158.360442
20
-111.570820
11
158.277615
21
-111.944431
0
LINE
8
BLACK
10
160.535038
20
-124.746916
11
160.740654
21
-125.069666
0
LINE
8
BLACK
10
160.740654
20
-125.069666
11
161.114265
21
-125.152494
0
LINE
8
BLACK
10
172.064904
20
-109.513359
11
171.859289
21
-109.190608
0
LINE
8
BLACK
10
171.859289
20
-109.190608
11
171.485678
21
-109.107780
0
LINE
8
BLACK
10
173.913843
20
-122.894503
11
174.236597
21
-122.688858
0
LINE
8
BLACK
10
174.236597
20
-122.688858
11
174.319413
21
-122.315225
0
LINE
8
BLACK
10
39.350636
20
-73.029909
11
41.608058
21
-60.226737
0
LINE
8
BLACK
10
42.187230
20
-59.821925
11
54.989872
21
-62.078818
0
LINE
8
BLACK
10
52.558619
20
-75.866239
11
39.756242
21
-73.609346
0
LINE
8
BLACK
10
55.395214
20
-62.658255
11
53.137791
21
-75.461427
0
LINE
8
BLACK
10
39.350631
20
-73.029171
11
39.433459
21
-73.402782
0
LINE
8
BLACK
10
39.433459
20
-73.402782
11
39.756210
21
-73.608398
0
LINE
8
BLACK
10
42.187282
20
-59.821107
11
41.813670
21
-59.903935
0
LINE
8
BLACK
10
41.813670
20
-59.903935
11
41.608055
21
-60.226686
0
LINE
8
BLACK
10
52.556158
20
-75.864294
11
52.929782
21
-75.781439
0
LINE
8
BLACK
10
52.929782
20
-75.781439
11
53.135394
21
-75.458664
0
LINE
8
BLACK
10
55.395346
20
-62.657758
11
55.312518
21
-62.284146
0
LINE
8
BLACK
10
55.312518
20
-62.284146
11
54.989767
21
-62.078531
0
LINE
8
BLACK
10
115.219811
20
-81.570648
11
117.477233
21
-68.767477
0
LINE
8
BLACK
10
118.056405
20
-68.362665
11
130.859048
21
-70.619558
0
LINE
8
BLACK
10
128.428059
20
-84.406978
11
115.625417
21
-82.150085
0
LINE
8
BLACK
10
131.264653
20
-71.198994
11
129.007231
21
-84.002166
0
LINE
8
BLACK
10
115.219886
20
-81.571004
11
115.302714
21
-81.944616
0
LINE
8
BLACK
10
115.302714
20
-81.944616
11
115.625465
21
-82.150231
0
LINE
8
BLACK
10
118.056537
20
-68.362940
11
117.682926
21
-68.445768
0
LINE
8
BLACK
10
117.682926
20
-68.445768
11
117.477310
21
-68.768519
0
LINE
8
BLACK
10
128.425413
20
-84.406127
11
128.799038
21
-84.323272
0
LINE
8
BLACK
10
128.799038
20
-84.323272
11
129.004649
21
-84.000497
0
LINE
8
BLACK
10
131.264602
20
-71.199591
11
131.181774
21
-70.825979
0
LINE
8
BLACK
10
131.181774
20
-70.825979
11
130.859022
21
-70.620364
0
LINE
8
BLACK
10
174.144826
20
-89.314992
11
186.947469
21
-87.058099
0
LINE
8
BLACK
10
175.996643
20
-102.697601
11
173.739221
21
-89.894429
0
LINE
8
BLACK
10
187.526641
20
-87.462911
11
189.784063
21
-100.266083
0
LINE
8
BLACK
10
189.378457
20
-100.845520
11
176.576080
21
-103.102413
0
LINE
8
BLACK
10
174.144918
20
-89.314935
11
173.822167
21
-89.520550
0
LINE
8
BLACK
10
173.822167
20
-89.520550
11
173.739339
21
-89.894161
0
LINE
8
BLACK
10
175.996763
20
-102.696646
11
176.202378
21
-103.019397
0
LINE
8
BLACK
10
176.202378
20
-103.019397
11
176.575990
21
-103.102225
0
LINE
8
BLACK
10
187.526629
20
-87.463090
11
187.321014
21
-87.140339
0
LINE
8
BLACK
10
187.321014
20
-87.140339
11
186.947402
21
-87.057511
0
LINE
8
BLACK
10
189.375567
20
-100.844234
11
189.698322
21
-100.638589
0
LINE
8
BLACK
10
189.698322
20
-100.638589
11
189.781138
21
-100.264955
0
LINE
8
BLACK
10
227.085503
20
-60.443696
11
239.888146
21
-58.184157
0
LINE
8
BLACK
10
228.937320
20
-73.823658
11
226.679898
21
-61.023132
0
LINE
8
BLACK
10
240.467318
20
-58.591615
11
242.724740
21
-71.392140
0
LINE
8
BLACK
10
242.319134
20
-71.971577
11
229.516492
21
-74.231116
0
LINE
8
BLACK
10
227.085536
20
-60.442784
11
226.762786
21
-60.648400
0
LINE
8
BLACK
10
226.762786
20
-60.648400
11
226.679958
21
-61.022011
0
LINE
8
BLACK
10
228.937381
20
-73.824496
11
229.142997
21
-74.147246
0
LINE
8
BLACK
10
229.142997
20
-74.147246
11
229.516608
21
-74.230074
0
LINE
8
BLACK
10
240.467247
20
-58.590939
11
240.261632
21
-58.268188
0
LINE
8
BLACK
10
240.261632
20
-58.268188
11
239.888021
21
-58.185361
0
LINE
8
BLACK
10
242.316186
20
-71.972083
11
242.638940
21
-71.766438
0
LINE
8
BLACK
10
242.638940
20
-71.766438
11
242.721756
21
-71.392805
0
LINE
8
BLACK
10
127.345915
20
-122.435492
11
129.603337
21
-109.634967
0
LINE
8
BLACK
10
130.182509
20
-109.227509
11
142.985151
21
-111.484402
0
LINE
8
BLACK
10
140.553898
20
-125.271822
11
127.751520
21
-123.014929
0
LINE
8
BLACK
10
143.390757
20
-112.063839
11
141.133335
21
-124.867010
0
LINE
8
BLACK
10
127.345947
20
-122.436246
11
127.428775
21
-122.809858
0
LINE
8
BLACK
10
127.428775
20
-122.809858
11
127.751526
21
-123.015474
0
LINE
8
BLACK
10
130.182598
20
-109.228183
11
129.808987
21
-109.311011
0
LINE
8
BLACK
10
129.808987
20
-109.311011
11
129.603371
21
-109.633762
0
LINE
8
BLACK
10
140.551474
20
-125.271369
11
140.925098
21
-125.188515
0
LINE
8
BLACK
10
140.925098
20
-125.188515
11
141.130710
21
-124.865739
0
LINE
8
BLACK
10
143.390662
20
-112.064834
11
143.307835
21
-111.691222
0
LINE
8
BLACK
10
143.307835
20
-111.691222
11
142.985083
21
-111.485606
0
LINE
8
BLACK
10
167.528929
20
-51.794477
11
180.331306
21
-49.537584
0
LINE
8
BLACK
10
169.380745
20
-65.174440
11
167.123323
21
-52.373914
0
LINE
8
BLACK
10
180.910743
20
-49.942396
11
183.168165
21
-62.745568
0
LINE
8
BLACK
10
182.762559
20
-63.322359
11
169.959917
21
-65.581897
0
LINE
8
BLACK
10
167.528930
20
-51.793807
11
167.206179
21
-51.999423
0
LINE
8
BLACK
10
167.206179
20
-51.999423
11
167.123351
21
-52.373034
0
LINE
8
BLACK
10
169.380775
20
-65.175519
11
169.586391
21
-65.498269
0
LINE
8
BLACK
10
169.586391
20
-65.498269
11
169.960002
21
-65.581097
0
LINE
8
BLACK
10
180.910641
20
-49.941962
11
180.705026
21
-49.619211
0
LINE
8
BLACK
10
180.705026
20
-49.619211
11
180.331415
21
-49.536383
0
LINE
8
BLACK
10
182.759580
20
-63.323107
11
183.082334
21
-63.117461
0
LINE
8
BLACK
10
183.082334
20
-63.117461
11
183.165150
21
-62.743828
0
LINE
8
BLACK
10
118.527892
20
-62.811713
11
120.785314
21
-50.008542
0
LINE
8
BLACK
10
121.364487
20
-49.601084
11
134.167129
21
-51.860623
0
LINE
8
BLACK
10
131.735876
20
-65.648043
11
118.933498
21
-63.388504
0
LINE
8
BLACK
10
134.572470
20
-52.440060
11
132.315048
21
-65.240585
0
LINE
8
BLACK
10
118.527879
20
-62.810441
11
118.610707
21
-63.184052
0
LINE
8
BLACK
10
118.610707
20
-63.184052
11
118.933458
21
-63.389668
0
LINE
8
BLACK
10
121.364530
20
-49.602377
11
120.990919
21
-49.685205
0
LINE
8
BLACK
10
120.990919
20
-49.685205
11
120.785303
21
-50.007956
0
LINE
8
BLACK
10
131.733406
20
-65.645564
11
132.107030
21
-65.562709
0
LINE
8
BLACK
10
132.107030
20
-65.562709
11
132.312642
21
-65.239934
0
LINE
8
BLACK
10
134.572594
20
-52.439028
11
134.489767
21
-52.065416
0
LINE
8
BLACK
10
134.489767
20
-52.065416
11
134.167015
21
-51.859800
0
LINE
8
BLACK
10
58.938244
20
-71.646140
11
61.195667
21
-58.845614
0
LINE
8
BLACK
10
61.774839
20
-58.438156
11
74.577216
21
-60.697695
0
LINE
8
BLACK
10
72.146228
20
-74.482469
11
59.343850
21
-72.225577
0
LINE
8
BLACK
10
74.982822
20
-61.274486
11
72.725400
21
-74.077658
0
LINE
8
BLACK
10
58.938193
20
-71.647023
11
59.021021
21
-72.020635
0
LINE
8
BLACK
10
59.021021
20
-72.020635
11
59.343772
21
-72.226251
0
LINE
8
BLACK
10
61.774844
20
-58.438960
11
61.401233
21
-58.521788
0
LINE
8
BLACK
10
61.401233
20
-58.521788
11
61.195617
21
-58.844539
0
LINE
8
BLACK
10
72.143720
20
-74.482146
11
72.517344
21
-74.399292
0
LINE
8
BLACK
10
72.517344
20
-74.399292
11
72.722956
21
-74.076517
0
LINE
8
BLACK
10
74.982908
20
-61.275611
11
74.900081
21
-60.901999
0
LINE
8
BLACK
10
74.900081
20
-60.901999
11
74.577329
21
-60.696383
0
LINE
8
BLACK
10
75.548501
20
-87.150704
11
77.805923
21
-74.347532
0
LINE
8
BLACK
10
78.385095
20
-73.940074
11
91.187737
21
-76.199613
0
LINE
8
BLACK
10
88.756749
20
-89.987033
11
75.954106
21
-87.727494
0
LINE
8
BLACK
10
91.593343
20
-76.779050
11
89.335921
21
-89.579575
0
LINE
8
BLACK
10
75.548562
20
-87.149384
11
75.631390
21
-87.522995
0
LINE
8
BLACK
10
75.631390
20
-87.522995
11
75.954141
21
-87.728611
0
LINE
8
BLACK
10
78.385213
20
-73.941320
11
78.011602
21
-74.024148
0
LINE
8
BLACK
10
78.011602
20
-74.024148
11
77.805986
21
-74.346899
0
LINE
8
BLACK
10
88.754089
20
-89.984507
11
89.127714
21
-89.901652
0
LINE
8
BLACK
10
89.127714
20
-89.901652
11
89.333325
21
-89.578877
0
LINE
8
BLACK
10
91.593278
20
-76.777971
11
91.510450
21
-76.404359
0
LINE
8
BLACK
10
91.510450
20
-76.404359
11
91.187698
21
-76.198744
0
LINE
8
BLACK
10
230.385383
20
-79.205276
11
243.187760
21
-76.948383
0
LINE
8
BLACK
10
232.237199
20
-92.587884
11
229.979777
21
-79.784713
0
LINE
8
BLACK
10
243.766932
20
-77.353195
11
246.024355
21
-90.156366
0
LINE
8
BLACK
10
245.618749
20
-90.735803
11
232.816371
21
-92.992696
0
LINE
8
BLACK
10
230.385291
20
-79.205022
11
230.062540
21
-79.410637
0
LINE
8
BLACK
10
230.062540
20
-79.410637
11
229.979712
21
-79.784248
0
LINE
8
BLACK
10
232.237136
20
-92.586733
11
232.442752
21
-92.909484
0
LINE
8
BLACK
10
232.442752
20
-92.909484
11
232.816363
21
-92.992312
0
LINE
8
BLACK
10
243.767002
20
-77.353177
11
243.561387
21
-77.030425
0
LINE
8
BLACK
10
243.561387
20
-77.030425
11
243.187776
21
-76.947598
0
LINE
8
BLACK
10
245.615941
20
-90.734321
11
245.938695
21
-90.528676
0
LINE
8
BLACK
10
245.938695
20
-90.528676
11
246.021511
21
-90.155042
0
LINE
8
BLACK
10
96.459289
20
-78.263361
11
98.716711
21
-65.460189
0
LINE
8
BLACK
10
99.295883
20
-65.055377
11
112.098525
21
-67.312270
0
LINE
8
BLACK
10
109.667272
20
-81.099690
11
96.864895
21
-78.842797
0
LINE
8
BLACK
10
112.504131
20
-67.891707
11
110.246709
21
-80.694878
0
LINE
8
BLACK
10
96.459322
20
-78.263011
11
96.542150
21
-78.636623
0
LINE
8
BLACK
10
96.542150
20
-78.636623
11
96.864901
21
-78.842239
0
LINE
8
BLACK
10
99.295973
20
-65.054947
11
98.922362
21
-65.137775
0
LINE
8
BLACK
10
98.922362
20
-65.137775
11
98.716746
21
-65.460526
0
LINE
8
BLACK
10
109.664849
20
-81.098134
11
110.038473
21
-81.015279
0
LINE
8
BLACK
10
110.038473
20
-81.015279
11
110.244085
21
-80.692504
0
LINE
8
BLACK
10
112.504037
20
-67.891598
11
112.421209
21
-67.517986
0
LINE
8
BLACK
10
112.421209
20
-67.517986
11
112.098458
21
-67.312371
0
LINE
8
BLACK
10
62.246061
20
-52.887205
11
64.503483
21
-40.084034
0
LINE
8
BLACK
10
65.082920
20
-39.679222
11
77.885298
21
-41.936115
0
LINE
8
BLACK
10
75.454309
20
-55.723535
11
62.651667
21
-53.466642
0
LINE
8
BLACK
10
78.290903
20
-42.515551
11
76.033481
21
-55.318723
0
LINE
8
BLACK
10
62.246187
20
-52.886459
11
62.329015
21
-53.260071
0
LINE
8
BLACK
10
62.329015
20
-53.260071
11
62.651766
21
-53.465686
0
LINE
8
BLACK
10
65.082838
20
-39.678395
11
64.709227
21
-39.761224
0
LINE
8
BLACK
10
64.709227
20
-39.761224
11
64.503611
21
-40.083974
0
LINE
8
BLACK
10
75.451714
20
-55.721582
11
75.825338
21
-55.638728
0
LINE
8
BLACK
10
75.825338
20
-55.638728
11
76.030950
21
-55.315952
0
LINE
8
BLACK
10
78.290902
20
-42.515046
11
78.208075
21
-42.141434
0
LINE
8
BLACK
10
78.208075
20
-42.141434
11
77.885323
21
-41.935819
0
LINE
8
BLACK
10
82.164663
20
-49.627542
11
84.422085
21
-36.827017
0
LINE
8
BLACK
10
85.001257
20
-36.419559
11
97.803635
21
-38.676452
0
LINE
8
BLACK
10
95.372647
20
-52.463872
11
82.570004
21
-50.206979
0
LINE
8
BLACK
10
98.209241
20
-39.255889
11
95.951819
21
-52.059060
0
LINE
8
BLACK
10
82.164549
20
-49.628256
11
82.247377
21
-50.001868
0
LINE
8
BLACK
10
82.247377
20
-50.001868
11
82.570128
21
-50.207484
0
LINE
8
BLACK
10
85.001200
20
-36.420193
11
84.627588
21
-36.503021
0
LINE
8
BLACK
10
84.627588
20
-36.503021
11
84.421973
21
-36.825772
0
LINE
8
BLACK
10
95.370076
20
-52.463379
11
95.743700
21
-52.380525
0
LINE
8
BLACK
10
95.743700
20
-52.380525
11
95.949312
21
-52.057749
0
LINE
8
BLACK
10
98.209264
20
-39.256843
11
98.126436
21
-38.883232
0
LINE
8
BLACK
10
98.126436
20
-38.883232
11
97.803685
21
-38.677616
0
LINE
8
BLACK
10
249.972991
20
-80.589045
11
262.775634
21
-78.329506
0
LINE
8
BLACK
10
251.824808
20
-93.969007
11
249.567386
21
-81.168482
0
LINE
8
BLACK
10
263.354806
20
-78.736964
11
265.612228
21
-91.537490
0
LINE
8
BLACK
10
265.207416
20
-92.116926
11
252.404245
21
-94.376465
0
LINE
8
BLACK
10
249.973054
20
-80.588071
11
249.650304
21
-80.793686
0
LINE
8
BLACK
10
249.650304
20
-80.793686
11
249.567476
21
-81.167298
0
LINE
8
BLACK
10
251.824899
20
-93.969782
11
252.030515
21
-94.292533
0
LINE
8
BLACK
10
252.030515
20
-94.292533
11
252.404126
21
-94.375361
0
LINE
8
BLACK
10
263.354765
20
-78.736226
11
263.149150
21
-78.413475
0
LINE
8
BLACK
10
263.149150
20
-78.413475
11
262.775539
21
-78.330647
0
LINE
8
BLACK
10
265.203704
20
-92.117370
11
265.526458
21
-91.911725
0
LINE
8
BLACK
10
265.526458
20
-91.911725
11
265.609274
21
-91.538092
0
LINE
8
BLACK
10
186.288657
20
-48.473961
11
199.091035
21
-46.214422
0
LINE
8
BLACK
10
188.140473
20
-61.853923
11
185.883051
21
-49.053397
0
LINE
8
BLACK
10
199.670207
20
-46.621880
11
201.927629
21
-59.422405
0
LINE
8
BLACK
10
201.522288
20
-60.001842
11
188.719646
21
-62.261381
0
LINE
8
BLACK
10
186.288614
20
-48.473005
11
185.965864
21
-48.678621
0
LINE
8
BLACK
10
185.965864
20
-48.678621
11
185.883036
21
-49.052232
0
LINE
8
BLACK
10
188.140459
20
-61.854717
11
188.346075
21
-62.177468
0
LINE
8
BLACK
10
188.346075
20
-62.177468
11
188.719686
21
-62.260295
0
LINE
8
BLACK
10
199.670326
20
-46.621160
11
199.464710
21
-46.298409
0
LINE
8
BLACK
10
199.464710
20
-46.298409
11
199.091099
21
-46.215582
0
LINE
8
BLACK
10
201.519264
20
-60.002305
11
201.842019
21
-59.796659
0
LINE
8
BLACK
10
201.842019
20
-59.796659
11
201.924835
21
-59.423026
0
LINE
8
BLACK
10
55.630163
20
-90.407720
11
57.887585
21
-77.604549
0
LINE
8
BLACK
10
58.466758
20
-77.199737
11
71.269400
21
-79.456630
0
LINE
8
BLACK
10
68.838147
20
-93.244050
11
56.035769
21
-90.987157
0
LINE
8
BLACK
10
71.675006
20
-80.036067
11
69.417583
21
-92.839238
0
LINE
8
BLACK
10
55.630200
20
-90.407588
11
55.713028
21
-90.781199
0
LINE
8
BLACK
10
55.713028
20
-90.781199
11
56.035779
21
-90.986815
0
LINE
8
BLACK
10
58.466852
20
-77.199524
11
58.093240
21
-77.282352
0
LINE
8
BLACK
10
58.093240
20
-77.282352
11
57.887624
21
-77.605103
0
LINE
8
BLACK
10
68.835727
20
-93.242711
11
69.209352
21
-93.159856
0
LINE
8
BLACK
10
69.209352
20
-93.159856
11
69.414963
21
-92.837081
0
LINE
8
BLACK
10
71.674916
20
-80.036175
11
71.592088
21
-79.662563
0
LINE
8
BLACK
10
71.592088
20
-79.662563
11
71.269336
21
-79.456948
0
LINE
8
BLACK
10
214.163534
20
-96.863545
11
226.966177
21
-94.606652
0
LINE
8
BLACK
10
216.015351
20
-110.246154
11
213.757929
21
-97.442982
0
LINE
8
BLACK
10
227.545349
20
-95.011464
11
229.802771
21
-107.814636
0
LINE
8
BLACK
10
229.397165
20
-108.394073
11
216.594523
21
-110.650966
0
LINE
8
BLACK
10
214.163581
20
-96.863173
11
213.840831
21
-97.068789
0
LINE
8
BLACK
10
213.840831
20
-97.068789
11
213.758003
21
-97.442400
0
LINE
8
BLACK
10
216.015426
20
-110.244885
11
216.221042
21
-110.567635
0
LINE
8
BLACK
10
216.221042
20
-110.567635
11
216.594653
21
-110.650463
0
LINE
8
BLACK
10
227.545292
20
-95.011328
11
227.339677
21
-94.688577
0
LINE
8
BLACK
10
227.339677
20
-94.688577
11
226.966066
21
-94.605750
0
LINE
8
BLACK
10
229.394231
20
-108.392473
11
229.716985
21
-108.186827
0
LINE
8
BLACK
10
229.716985
20
-108.186827
11
229.799801
21
-107.813194
0
LINE
8
BLACK
10
71.827141
20
-108.253844
11
74.084563
21
-95.453318
0
LINE
8
BLACK
10
74.663735
20
-95.045860
11
87.466113
21
-97.305399
0
LINE
8
BLACK
10
85.035124
20
-111.092819
11
72.232746
21
-108.833280
0
LINE
8
BLACK
10
87.871718
20
-97.884836
11
85.614296
21
-110.685361
0
LINE
8
BLACK
10
71.827069
20
-108.255018
11
71.909897
21
-108.628630
0
LINE
8
BLACK
10
71.909897
20
-108.628630
11
72.232648
21
-108.834246
0
LINE
8
BLACK
10
74.663720
20
-95.046955
11
74.290108
21
-95.129783
0
LINE
8
BLACK
10
74.290108
20
-95.129783
11
74.084493
21
-95.452534
0
LINE
8
BLACK
10
85.032596
20
-111.090141
11
85.406220
21
-111.007287
0
LINE
8
BLACK
10
85.406220
20
-111.007287
11
85.611832
21
-110.684511
0
LINE
8
BLACK
10
87.871784
20
-97.883606
11
87.788957
21
-97.509994
0
LINE
8
BLACK
10
87.788957
20
-97.509994
11
87.466205
21
-97.304378
0
LINE
8
BLACK
10
36.042555
20
-91.788844
11
38.299977
21
-78.988318
0
LINE
8
BLACK
10
38.879414
20
-78.580860
11
51.681791
21
-80.840399
0
LINE
8
BLACK
10
49.250803
20
-94.625173
11
36.448160
21
-92.368280
0
LINE
8
BLACK
10
52.087397
20
-81.417190
11
49.829975
21
-94.220361
0
LINE
8
BLACK
10
36.042637
20
-91.789735
11
36.125465
21
-92.163347
0
LINE
8
BLACK
10
36.125465
20
-92.163347
11
36.448216
21
-92.368962
0
LINE
8
BLACK
10
38.879288
20
-78.581671
11
38.505677
21
-78.664499
0
LINE
8
BLACK
10
38.505677
20
-78.664499
11
38.300061
21
-78.987250
0
LINE
8
BLACK
10
49.248164
20
-94.624858
11
49.621788
21
-94.542004
0
LINE
8
BLACK
10
49.621788
20
-94.542004
11
49.827400
21
-94.219228
0
LINE
8
BLACK
10
52.087352
20
-81.418322
11
52.004525
21
-81.044710
0
LINE
8
BLACK
10
52.004525
20
-81.044710
11
51.681773
21
-80.839095
0
LINE
8
BLACK
10
243.365031
20
-43.063238
11
256.167673
21
-40.806345
0
LINE
8
BLACK
10
245.216847
20
-56.445846
11
242.959425
21
-43.642675
0
LINE
8
BLACK
10
256.746845
20
-41.213803
11
259.004267
21
-54.014329
0
LINE
8
BLACK
10
258.598662
20
-54.593765
11
245.796284
21
-56.850658
0
LINE
8
BLACK
10
243.365106
20
-43.064368
11
243.042355
21
-43.269984
0
LINE
8
BLACK
10
243.042355
20
-43.269984
11
242.959527
21
-43.643595
0
LINE
8
BLACK
10
245.216951
20
-56.446080
11
245.422566
21
-56.768830
0
LINE
8
BLACK
10
245.422566
20
-56.768830
11
245.796177
21
-56.851658
0
LINE
8
BLACK
10
256.746816
20
-41.212523
11
256.541201
21
-40.889772
0
LINE
8
BLACK
10
256.541201
20
-40.889772
11
256.167590
21
-40.806945
0
LINE
8
BLACK
10
258.595755
20
-54.593667
11
258.918510
21
-54.388022
0
LINE
8
BLACK
10
258.918510
20
-54.388022
11
259.001326
21
-54.014389
0
LINE
8
BLACK
10
117.560577
20
-123.104887
11
119.817999
21
-110.304362
0
LINE
8
BLACK
10
120.397171
20
-109.896904
11
133.199549
21
-112.153797
0
LINE
8
BLACK
10
130.768560
20
-125.941217
11
117.966183
21
-123.684324
0
LINE
8
BLACK
10
133.605155
20
-112.733234
11
131.347732
21
-125.536405
0
LINE
8
BLACK
10
117.560520
20
-123.105541
11
117.643348
21
-123.479152
0
LINE
8
BLACK
10
117.643348
20
-123.479152
11
117.966099
21
-123.684768
0
LINE
8
BLACK
10
120.399708
20
-109.899005
11
120.026084
21
-109.981860
0
LINE
8
BLACK
10
120.026084
20
-109.981860
11
119.820472
21
-110.304635
0
LINE
8
BLACK
10
130.768584
20
-125.942192
11
131.142196
21
-125.859364
0
LINE
8
BLACK
10
131.142196
20
-125.859364
11
131.347812
21
-125.536613
0
LINE
8
BLACK
10
133.605235
20
-112.734128
11
133.522407
21
-112.360516
0
LINE
8
BLACK
10
133.522407
20
-112.360516
11
133.199656
21
-112.154901
0
LINE
8
BLACK
10
99.767370
20
-59.501780
11
102.024792
21
-46.701254
0
LINE
8
BLACK
10
102.603964
20
-46.293797
11
115.406342
21
-48.550690
0
LINE
8
BLACK
10
112.975354
20
-62.338110
11
100.172976
21
-60.081217
0
LINE
8
BLACK
10
115.811948
20
-49.130126
11
113.554526
21
-61.933298
0
LINE
8
BLACK
10
99.767316
20
-59.502447
11
99.850144
21
-59.876058
0
LINE
8
BLACK
10
99.850144
20
-59.876058
11
100.172895
21
-60.081674
0
LINE
8
BLACK
10
102.603967
20
-46.294383
11
102.230355
21
-46.377211
0
LINE
8
BLACK
10
102.230355
20
-46.377211
11
102.024739
21
-46.699962
0
LINE
8
BLACK
10
112.972843
20
-62.337570
11
113.346467
21
-62.254715
0
LINE
8
BLACK
10
113.346467
20
-62.254715
11
113.552079
21
-61.931940
0
LINE
8
BLACK
10
115.812031
20
-49.131034
11
115.729203
21
-48.757422
0
LINE
8
BLACK
10
115.729203
20
-48.757422
11
115.406452
21
-48.551807
0
LINE
8
BLACK
10
89.429848
20
-118.128081
11
91.687270
21
-105.327556
0
LINE
8
BLACK
10
92.266442
20
-104.920098
11
105.069084
21
-107.179637
0
LINE
8
BLACK
10
102.637831
20
-120.967057
11
89.835453
21
-118.707518
0
LINE
8
BLACK
10
105.474425
20
-107.759073
11
103.217003
21
-120.559599
0
LINE
8
BLACK
10
89.429836
20
-118.129210
11
89.512664
21
-118.502821
0
LINE
8
BLACK
10
89.512664
20
-118.502821
11
89.835415
21
-118.708437
0
LINE
8
BLACK
10
92.266487
20
-104.921146
11
91.892875
21
-105.003974
0
LINE
8
BLACK
10
91.892875
20
-105.003974
11
91.687260
21
-105.326725
0
LINE
8
BLACK
10
102.635363
20
-120.964333
11
103.008987
21
-120.881478
0
LINE
8
BLACK
10
103.008987
20
-120.881478
11
103.214599
21
-120.558703
0
LINE
8
BLACK
10
105.474551
20
-107.757797
11
105.391723
21
-107.384185
0
LINE
8
BLACK
10
105.391723
20
-107.384185
11
105.068972
21
-107.178570
0
LINE
8
BLACK
10
78.856582
20
-68.389123
11
81.114004
21
-55.585952
0
LINE
8
BLACK
10
81.693176
20
-55.181140
11
94.495818
21
-57.438033
0
LINE
8
BLACK
10
92.064565
20
-71.225453
11
79.262188
21
-68.968560
0
LINE
8
BLACK
10
94.901160
20
-58.017469
11
92.643737
21
-70.820641
0
LINE
8
BLACK
10
78.856555
20
-68.388820
11
78.939383
21
-68.762431
0
LINE
8
BLACK
10
78.939383
20
-68.762431
11
79.262134
21
-68.968047
0
LINE
8
BLACK
10
81.693206
20
-55.180756
11
81.319595
21
-55.263584
0
LINE
8
BLACK
10
81.319595
20
-55.263584
11
81.113979
21
-55.586335
0
LINE
8
BLACK
10
92.062082
20
-71.223943
11
92.435706
21
-71.141088
0
LINE
8
BLACK
10
92.435706
20
-71.141088
11
92.641318
21
-70.818313
0
LINE
8
BLACK
10
94.901270
20
-58.017407
11
94.818443
21
-57.643795
0
LINE
8
BLACK
10
94.818443
20
-57.643795
11
94.495691
21
-57.438179
0
LINE
8
BLACK
10
177.857191
20
-110.402258
11
190.659833
21
-108.145365
0
LINE
8
BLACK
10
179.709007
20
-123.784866
11
177.451585
21
-110.981694
0
LINE
8
BLACK
10
191.239005
20
-108.550177
11
193.496427
21
-121.353348
0
LINE
8
BLACK
10
193.090821
20
-121.932785
11
180.288444
21
-124.189678
0
LINE
8
BLACK
10
177.857256
20
-110.402281
11
177.534505
21
-110.607897
0
LINE
8
BLACK
10
177.534505
20
-110.607897
11
177.451677
21
-110.981508
0
LINE
8
BLACK
10
179.709101
20
-123.783993
11
179.914717
21
-124.106743
0
LINE
8
BLACK
10
179.914717
20
-124.106743
11
180.288328
21
-124.189571
0
LINE
8
BLACK
10
191.238967
20
-108.550436
11
191.033352
21
-108.227685
0
LINE
8
BLACK
10
191.033352
20
-108.227685
11
190.659741
21
-108.144858
0
LINE
8
BLACK
10
193.087906
20
-121.931581
11
193.410660
21
-121.725935
0
LINE
8
BLACK
10
193.410660
20
-121.725935
11
193.493476
21
-121.352302
0
LINE
8
BLACK
10
170.837010
20
-70.553412
11
183.639387
21
-68.296519
0
LINE
8
BLACK
10
172.688826
20
-83.936020
11
170.431404
21
-71.132849
0
LINE
8
BLACK
10
184.218560
20
-68.701331
11
186.475982
21
-81.504502
0
LINE
8
BLACK
10
186.070376
20
-82.083939
11
173.267998
21
-84.340832
0
LINE
8
BLACK
10
170.836924
20
-70.554371
11
170.514173
21
-70.759986
0
LINE
8
BLACK
10
170.514173
20
-70.759986
11
170.431345
21
-71.133597
0
LINE
8
BLACK
10
172.688769
20
-83.936082
11
172.894385
21
-84.258833
0
LINE
8
BLACK
10
172.894385
20
-84.258833
11
173.267996
21
-84.341660
0
LINE
8
BLACK
10
184.218635
20
-68.702526
11
184.013020
21
-68.379774
0
LINE
8
BLACK
10
184.013020
20
-68.379774
11
183.639409
21
-68.296947
0
LINE
8
BLACK
10
186.067574
20
-82.083670
11
186.390328
21
-81.878025
0
LINE
8
BLACK
10
186.390328
20
-81.878025
11
186.473144
21
-81.504391
0
LINE
8
BLACK
10
42.658717
20
-54.268328
11
44.916139
21
-41.465157
0
LINE
8
BLACK
10
45.495311
20
-41.060345
11
58.297689
21
-43.317238
0
LINE
8
BLACK
10
55.866700
20
-57.104658
11
43.064323
21
-54.847765
0
LINE
8
BLACK
10
58.703295
20
-43.896675
11
56.445873
21
-56.699846
0
LINE
8
BLACK
10
42.658625
20
-54.268607
11
42.741453
21
-54.642219
0
LINE
8
BLACK
10
42.741453
20
-54.642219
11
43.064204
21
-54.847835
0
LINE
8
BLACK
10
45.495276
20
-41.060544
11
45.121664
21
-41.143372
0
LINE
8
BLACK
10
45.121664
20
-41.143372
11
44.916048
21
-41.466123
0
LINE
8
BLACK
10
55.864151
20
-57.103730
11
56.237776
21
-57.020876
0
LINE
8
BLACK
10
56.237776
20
-57.020876
11
56.443388
21
-56.698100
0
LINE
8
BLACK
10
58.703340
20
-43.897195
11
58.620512
21
-43.523583
0
LINE
8
BLACK
10
58.620512
20
-43.523583
11
58.297760
21
-43.317967
0
LINE
8
BLACK
10
207.167166
20
-57.184033
11
219.969544
21
-54.927140
0
LINE
8
BLACK
10
209.018983
20
-70.566641
11
206.761560
21
-57.763470
0
LINE
8
BLACK
10
220.548980
20
-55.331952
11
222.806403
21
-68.135123
0
LINE
8
BLACK
10
222.400797
20
-68.714560
11
209.598155
21
-70.971453
0
LINE
8
BLACK
10
207.167174
20
-57.184579
11
206.844424
21
-57.390195
0
LINE
8
BLACK
10
206.844424
20
-57.390195
11
206.761596
21
-57.763806
0
LINE
8
BLACK
10
209.019019
20
-70.566291
11
209.224635
21
-70.889041
0
LINE
8
BLACK
10
209.224635
20
-70.889041
11
209.598246
21
-70.971870
0
LINE
8
BLACK
10
220.548885
20
-55.332734
11
220.343270
21
-55.009983
0
LINE
8
BLACK
10
220.343270
20
-55.009983
11
219.969659
21
-54.927156
0
LINE
8
BLACK
10
222.397824
20
-68.713879
11
222.720578
21
-68.508233
0
LINE
8
BLACK
10
222.720578
20
-68.508233
11
222.803394
21
-68.134600
0
LINE
8
BLACK
10
192.905613
20
-86.007705
11
205.707991
21
-83.750812
0
LINE
8
BLACK
10
194.757430
20
-99.387667
11
192.500007
21
-86.587142
0
LINE
8
BLACK
10
206.287163
20
-84.155624
11
208.544585
21
-96.958795
0
LINE
8
BLACK
10
208.138979
20
-97.535586
11
195.336602
21
-99.795125
0
LINE
8
BLACK
10
192.905482
20
-86.006941
11
192.582731
21
-86.212557
0
LINE
8
BLACK
10
192.582731
20
-86.212557
11
192.499903
21
-86.586168
0
LINE
8
BLACK
10
194.757327
20
-99.388653
11
194.962943
21
-99.711403
0
LINE
8
BLACK
10
194.962943
20
-99.711403
11
195.336554
21
-99.794231
0
LINE
8
BLACK
10
206.287193
20
-84.155096
11
206.081578
21
-83.832345
0
LINE
8
BLACK
10
206.081578
20
-83.832345
11
205.707967
21
-83.749517
0
LINE
8
BLACK
10
208.136132
20
-97.536240
11
208.458886
21
-97.330595
0
LINE
8
BLACK
10
208.458886
20
-97.330595
11
208.541702
21
-96.956962
 0 
ENDSEC
 0 
EOF