  0
SECTION
  2
HEADER
  9
$ANGBASE
  50
0.0
  9
$ANGDIR
  70
1
  9
$MEASUREMENT
  70
1
  0
ENDSEC
  0
SECTION
  2
TABLES
  0
TABLE
  2
LTYPE
  70
4
  0
LTYPE
  5
40F
  2
CONTINUOUS
  70
0
  3
Solid line
  72
65
  73
0
  40
0.0
  0
LTYPE
  5
410
  2
DASHDOT
 70
0
  3
Dash Dot ____ _ ____ _
 72
65
 73
4
 40
2.0
 49
1.25
 49
-0.25
 49
0.25
 49
-0.25
  0
LTYPE
  5
411
  2
DASHED
 70
0
  3
Dashed __ __ __ __ __
 72
65
 73
2
 40
0.75
 49
0.5
 49
-0.25
  0
LTYPE
  5
43B
  2
DOTTED
 70
0
  3
Dotted .  .  .  .
 72
65
 73
2
 40
0.2
 49
0.0
 49
-0.2
  0
ENDTAB
  0
TABLE
  2
STYLE
  70
4
  0
STYLE
  2
KICAD
  70
0
  40
0
  41
1
  42
1
  50
0
  71
0
  3
isocp.shx
  0
STYLE
  2
KICADB
  70
0
  40
0
  41
1
  42
1
  50
0
  71
0
  3
isocp.shx
  0
STYLE
  2
KICADI
  70
0
  40
0
  41
1
  42
1
  50
15
  71
0
  3
isocp.shx
  0
STYLE
  2
KICADBI
  70
0
  40
0
  41
1
  42
1
  50
15
  71
0
  3
isocp.shx
  0
ENDTAB
  0
TABLE
  2
LAYER
  70
1
  0
LAYER
  2
BLACK
  70
0
  62
7
  6
CONTINUOUS
  0
ENDTAB
  0
ENDSEC
  0
SECTION
  2
ENTITIES
0
CIRCLE
8
BLACK
10
150.8125
20
-54.7687499999999972
40
8.
0
ARC
8
BLACK
10
87.5065000000000026
20
-120.9505999999999943
40
2.9999669273820335
50
-118.20174214
51
-99.72748443
0
ARC
8
BLACK
10
214.1184999999999832
20
-120.950499999999991
40
3.000054939485775
50
-80.27283826
51
-61.79916040
0
ARC
8
BLACK
10
159.2883999999999958
20
-130.3490999999999929
40
3.0008988766516271
50
-89.99868259
51
-80.27403553
0
ARC
8
BLACK
10
220.5097999999999843
20
-34.7515000000000001
40
3.0015000002040644
50
84.17590040
51
89.99933188
0
ARC
8
BLACK
10
256.9941000000000031
20
-38.4728999999999957
40
3.0000159730276437
50
9.96386469
51
84.17284563
0
ARC
8
BLACK
10
142.3365000000000009
20
-130.349899999999991
40
3.0001000001601614
50
-99.72666320
51
-89.99940796
0
LINE
8
BLACK
6
CONTINUOUS
10
259.9488959999999906
20
-37.9538110000000017
11
269.4995109999999841
21
-92.3188519999999926
0
LINE
8
BLACK
6
CONTINUOUS
10
86.0887829999999923
20
-123.5944379999999967
11
33.662512999999997
21
-95.4818009999999902
0
LINE
8
BLACK
6
CONTINUOUS
10
220.8143759999999816
20
-31.7654979999999973
11
257.2986849999999777
21
-35.4883859999999984
0
LINE
8
BLACK
6
CONTINUOUS
10
44.326315000000001
20
-35.4883859999999984
11
80.81062399999999
21
-31.7654979999999973
0
ARC
8
BLACK
10
81.1152000000000015
20
-34.7498999999999967
40
2.999903638015728
50
90.00066847
51
95.82720054
0
LINE
8
BLACK
6
CONTINUOUS
10
150.8125
20
-31.75
11
220.5098349999999812
21
-31.75
0
LINE
8
BLACK
6
CONTINUOUS
10
159.2884689999999921
20
-133.3499999999999943
11
150.8125
21
-133.3499999999999943
0
ARC
8
BLACK
10
44.6308999999999969
20
-38.4728999999999957
40
3.0000454649116568
50
95.82715437
51
170.03613531
0
LINE
8
BLACK
6
CONTINUOUS
10
150.8125
20
-133.3499999999999943
11
142.3365309999999795
21
-133.3499999999999943
0
ARC
8
BLACK
10
35.0801999999999978
20
-92.8378999999999905
40
3.0000081546172503
50
-189.96337434
51
-118.20066859
0
LINE
8
BLACK
6
CONTINUOUS
10
81.1151649999999904
20
-31.75
11
150.8125
21
-31.75
0
LINE
8
BLACK
6
CONTINUOUS
10
214.6253810000000044
20
-123.9074349999999924
11
159.7953599999999881
21
-133.3068669999999827
0
LINE
8
BLACK
6
CONTINUOUS
10
32.1254890000000017
20
-92.3188519999999926
11
41.6761039999999952
21
-37.9538110000000017
0
LINE
8
BLACK
6
CONTINUOUS
10
267.9624870000000101
20
-95.4818009999999902
11
215.5362169999999935
21
-123.5944379999999967
0
LINE
8
BLACK
6
CONTINUOUS
10
141.8296399999999835
20
-133.3068669999999827
11
86.9996189999999956
21
-123.9074349999999924
0
ARC
8
BLACK
10
266.5448000000000093
20
-92.8378999999999905
40
2.9999546529614407
50
-61.79933141
51
9.96337434
0
LINE
8
BLACK
6
CONTINUOUS
10
146.5502429999999947
20
-76.4958170000000024
11
146.5502429999999947
21
-93.3708170000000024
0
LINE
8
BLACK
6
CONTINUOUS
10
154.5502429999999947
20
-75.9958170000000024
11
147.0502429999999947
21
-75.9958170000000024
0
LINE
8
BLACK
6
CONTINUOUS
10
154.5502429999999947
20
-93.8708170000000024
11
147.0502429999999947
21
-93.8708170000000024
0
LINE
8
BLACK
6
CONTINUOUS
10
155.0502429999999947
20
-76.4958170000000024
11
155.0502429999999947
21
-93.3708170000000024
0
ARC
8
BLACK
10
147.0502429999999947
20
-76.4958170000000024
40
0.5
50
90.00000000
51
180.00000000
0
ARC
8
BLACK
10
147.0502429999999947
20
-93.3708170000000024
40
0.5
50
-180.00000000
51
-90.00000000
0
ARC
8
BLACK
10
154.5502419999999972
20
-76.4958179999999999
40
0.500001000001
50
0.00011459
51
89.99988541
0
ARC
8
BLACK
10
154.5502419999999972
20
-93.3708159999999907
40
0.500001000001
50
-89.99988541
51
-0.00011459
0
LINE
8
BLACK
6
CONTINUOUS
10
208.5951939999999922
20
-80.1580139999999943
11
189.8346059999999795
21
-83.4660119999999921
0
LINE
8
BLACK
6
CONTINUOUS
10
189.8346059999999795
20
-83.4660119999999921
11
186.5266079999999818
21
-64.7054239999999936
0
LINE
8
BLACK
6
CONTINUOUS
10
186.5266079999999818
20
-64.7054239999999936
11
205.2871959999999945
21
-61.3974259999999958
0
LINE
8
BLACK
6
CONTINUOUS
10
205.2871959999999945
20
-61.3974259999999958
11
208.5951939999999922
21
-80.1580139999999943
0
LINE
8
BLACK
6
CONTINUOUS
10
229.8367799999999761
20
-90.920456999999999
11
211.0761919999999918
21
-94.2284549999999967
0
LINE
8
BLACK
6
CONTINUOUS
10
211.0761919999999918
20
-94.2284549999999967
11
207.768193999999994
21
-75.4678669999999983
0
LINE
8
BLACK
6
CONTINUOUS
10
207.768193999999994
20
-75.4678669999999983
11
226.5287819999999783
21
-72.1598690000000005
0
LINE
8
BLACK
6
CONTINUOUS
10
226.5287819999999783
20
-72.1598690000000005
11
229.8367799999999761
21
-90.920456999999999
0
LINE
8
BLACK
6
CONTINUOUS
10
154.7930690000000027
20
-104.1304760000000016
11
173.553656999999987
21
-100.8224779999999896
0
LINE
8
BLACK
6
CONTINUOUS
10
159.7550659999999993
20
-132.2713569999999947
11
154.7930690000000027
21
-104.1304760000000016
0
LINE
8
BLACK
6
CONTINUOUS
10
168.3389629999999784
20
-111.559874999999991
11
168.6862600000000043
21
-113.5294899999999956
0
LINE
8
BLACK
6
CONTINUOUS
10
170.3085789999999804
20
-111.212578999999991
11
168.3389629999999784
21
-111.559874999999991
0
LINE
8
BLACK
6
CONTINUOUS
10
170.7700379999999996
20
-125.3471839999999986
11
170.4227419999999995
21
-123.3775679999999966
0
LINE
8
BLACK
6
CONTINUOUS
10
172.7396530000000041
20
-124.9998870000000011
11
170.7700379999999996
21
-125.3471839999999986
0
LINE
8
BLACK
6
CONTINUOUS
10
173.553656999999987
20
-100.8224779999999896
11
174.3806559999999877
21
-105.5126249999999999
0
LINE
8
BLACK
6
CONTINUOUS
10
174.3806559999999877
20
-105.5126249999999999
11
193.1412440000000004
21
-102.2046270000000021
0
LINE
8
BLACK
6
CONTINUOUS
10
182.1262720000000002
20
-109.1287999999999982
11
180.1566569999999956
21
-109.4760969999999958
0
LINE
8
BLACK
6
CONTINUOUS
10
182.4735680000000002
20
-111.0984160000000003
11
182.1262720000000002
21
-109.1287999999999982
0
LINE
8
BLACK
6
CONTINUOUS
10
182.5877309999999909
20
-123.2634049999999917
11
184.5573469999999929
21
-122.9161089999999916
0
LINE
8
BLACK
6
CONTINUOUS
10
184.5573469999999929
20
-122.9161089999999916
11
184.2100499999999954
21
-120.9464940000000013
0
LINE
8
BLACK
6
CONTINUOUS
10
193.1412440000000004
20
-102.2046270000000021
11
197.2762409999999988
21
-125.6553619999999967
0
LINE
8
BLACK
6
CONTINUOUS
10
197.2762409999999988
20
-125.6553619999999967
11
159.7550659999999993
21
-132.2713569999999947
0
LINE
8
BLACK
6
CONTINUOUS
10
130.4017069999999876
20
-86.6600880000000018
11
127.0937089999999898
21
-105.4206760000000003
0
LINE
8
BLACK
6
CONTINUOUS
10
127.0937089999999898
20
-105.4206760000000003
11
108.3331209999999913
21
-102.1126779999999883
0
LINE
8
BLACK
6
CONTINUOUS
10
108.3331209999999913
20
-102.1126779999999883
11
111.6411189999999891
21
-83.3520899999999898
0
LINE
8
BLACK
6
CONTINUOUS
10
111.6411189999999891
20
-83.3520899999999898
11
130.4017069999999876
21
-86.6600880000000018
0
LINE
8
BLACK
6
CONTINUOUS
10
265.7039570000000026
20
-74.9241669999999971
11
246.9433689999999899
21
-78.2321649999999948
0
LINE
8
BLACK
6
CONTINUOUS
10
246.9433689999999899
20
-78.2321649999999948
11
243.6353709999999921
21
-59.4715769999999964
0
LINE
8
BLACK
6
CONTINUOUS
10
243.6353709999999921
20
-59.4715769999999964
11
262.3959590000000048
21
-56.1635789999999986
0
LINE
8
BLACK
6
CONTINUOUS
10
262.3959590000000048
20
-56.1635789999999986
11
265.7039570000000026
21
-74.9241669999999971
0
LINE
8
BLACK
6
CONTINUOUS
10
216.038187999999991
20
-122.3693359999999899
11
197.2776010000000042
21
-125.6773339999999877
0
LINE
8
BLACK
6
CONTINUOUS
10
197.2776010000000042
20
-125.6773339999999877
11
193.1426039999999773
21
-102.2265999999999906
0
LINE
8
BLACK
6
CONTINUOUS
10
193.1426039999999773
20
-102.2265999999999906
11
211.9031909999999925
21
-98.9186019999999928
0
LINE
8
BLACK
6
CONTINUOUS
10
211.9031909999999925
20
-98.9186019999999928
11
216.038187999999991
21
-122.3693359999999899
0
LINE
8
BLACK
6
CONTINUOUS
10
242.8083719999999914
20
-54.7814309999999978
11
224.0477839999999787
21
-58.0894289999999955
0
LINE
8
BLACK
6
CONTINUOUS
10
224.0477839999999787
20
-58.0894289999999955
11
220.739785999999981
21
-39.3288409999999971
0
LINE
8
BLACK
6
CONTINUOUS
10
220.739785999999981
20
-39.3288409999999971
11
239.5003739999999937
21
-36.0208429999999993
0
LINE
8
BLACK
6
CONTINUOUS
10
239.5003739999999937
20
-36.0208429999999993
11
242.8083719999999914
21
-54.7814309999999978
0
LINE
8
BLACK
6
CONTINUOUS
10
223.220784999999978
20
-53.3992809999999949
11
204.4601969999999937
21
-56.7072789999999998
0
LINE
8
BLACK
6
CONTINUOUS
10
204.4601969999999937
20
-56.7072789999999998
11
201.152198999999996
21
-37.9466910000000013
0
LINE
8
BLACK
6
CONTINUOUS
10
201.152198999999996
20
-37.9466910000000013
11
219.9127869999999803
21
-34.6386929999999964
0
LINE
8
BLACK
6
CONTINUOUS
10
219.9127869999999803
20
-34.6386929999999964
11
223.220784999999978
21
-53.3992809999999949
0
LINE
8
BLACK
6
CONTINUOUS
10
111.6411189999999891
20
-83.3520910000000015
11
108.3331209999999913
21
-102.112679
0
LINE
8
BLACK
6
CONTINUOUS
10
108.3331209999999913
20
-102.112679
11
89.5725329999999929
21
-98.8046810000000022
0
LINE
8
BLACK
6
CONTINUOUS
10
89.5725329999999929
20
-98.8046810000000022
11
92.8805309999999906
21
-80.0440929999999895
0
LINE
8
BLACK
6
CONTINUOUS
10
92.8805309999999906
20
-80.0440929999999895
11
111.6411189999999891
21
-83.3520910000000015
0
LINE
8
BLACK
6
CONTINUOUS
10
178.5170129999999915
20
-128.9853319999999997
11
159.7564249999999788
21
-132.2933299999999974
0
LINE
8
BLACK
6
CONTINUOUS
10
159.7564249999999788
20
-132.2933299999999974
11
154.7944289999999796
21
-104.1524479999999926
0
LINE
8
BLACK
6
CONTINUOUS
10
154.7944289999999796
20
-104.1524479999999926
11
173.5550169999999923
21
-100.8444499999999948
0
LINE
8
BLACK
6
CONTINUOUS
10
173.5550169999999923
20
-100.8444499999999948
11
178.5170129999999915
21
-128.9853319999999997
0
LINE
8
BLACK
6
CONTINUOUS
10
57.8403539999999978
20
-59.3576569999999961
11
54.5323560000000001
21
-78.1182450000000017
0
LINE
8
BLACK
6
CONTINUOUS
10
54.5323560000000001
20
-78.1182450000000017
11
35.7717680000000016
21
-74.8102469999999897
0
LINE
8
BLACK
6
CONTINUOUS
10
35.7717680000000016
20
-74.8102469999999897
11
39.0797659999999993
21
-56.0496589999999983
0
LINE
8
BLACK
6
CONTINUOUS
10
39.0797659999999993
20
-56.0496589999999983
11
57.8403539999999978
21
-59.3576569999999961
0
LINE
8
BLACK
6
CONTINUOUS
10
133.7097039999999879
20
-67.8995010000000008
11
130.4017059999999901
21
-86.6600889999999993
0
LINE
8
BLACK
6
CONTINUOUS
10
130.4017059999999901
20
-86.6600889999999993
11
111.6411179999999916
21
-83.3520910000000015
0
LINE
8
BLACK
6
CONTINUOUS
10
111.6411179999999916
20
-83.3520910000000015
11
114.9491159999999894
21
-64.591503000000003
0
LINE
8
BLACK
6
CONTINUOUS
10
114.9491159999999894
20
-64.591503000000003
11
133.7097039999999879
21
-67.8995010000000008
0
LINE
8
BLACK
6
CONTINUOUS
10
193.1426039999999773
20
-102.2265989999999931
11
174.382015999999993
21
-105.5345969999999909
0
LINE
8
BLACK
6
CONTINUOUS
10
174.382015999999993
20
-105.5345969999999909
11
171.0740179999999953
21
-86.7740089999999924
0
LINE
8
BLACK
6
CONTINUOUS
10
171.0740179999999953
20
-86.7740089999999924
11
189.8346059999999795
21
-83.4660109999999946
0
LINE
8
BLACK
6
CONTINUOUS
10
189.8346059999999795
20
-83.4660109999999946
11
193.1426039999999773
21
-102.2265989999999931
0
LINE
8
BLACK
6
CONTINUOUS
10
246.1163699999999892
20
-73.5420189999999963
11
227.3557819999999765
21
-76.850016999999994
0
LINE
8
BLACK
6
CONTINUOUS
10
227.3557819999999765
20
-76.850016999999994
11
224.0477839999999787
21
-58.0894289999999955
0
LINE
8
BLACK
6
CONTINUOUS
10
224.0477839999999787
20
-58.0894289999999955
11
242.8083719999999914
21
-54.7814309999999978
0
LINE
8
BLACK
6
CONTINUOUS
10
242.8083719999999914
20
-54.7814309999999978
11
246.1163699999999892
21
-73.5420189999999963
0
LINE
8
BLACK
6
CONTINUOUS
10
146.6812960000000032
20
-104.038527000000002
11
141.719300000000004
21
-132.1794089999999926
0
LINE
8
BLACK
6
CONTINUOUS
10
141.719300000000004
20
-132.1794089999999926
11
122.9587119999999913
21
-128.8714109999999948
0
LINE
8
BLACK
6
CONTINUOUS
10
122.9587119999999913
20
-128.8714109999999948
11
127.9207079999999905
21
-100.73052899999999
0
LINE
8
BLACK
6
CONTINUOUS
10
127.9207079999999905
20
-100.73052899999999
11
146.6812960000000032
21
-104.038527000000002
0
LINE
8
BLACK
6
CONTINUOUS
10
127.0937079999999924
20
-105.4206769999999977
11
122.9587109999999939
21
-128.8714109999999948
0
LINE
8
BLACK
6
CONTINUOUS
10
122.9587109999999939
20
-128.8714109999999948
11
104.1981239999999929
21
-125.5634129999999971
0
LINE
8
BLACK
6
CONTINUOUS
10
104.1981239999999929
20
-125.5634129999999971
11
108.3331209999999913
21
-102.112679
0
LINE
8
BLACK
6
CONTINUOUS
10
108.3331209999999913
20
-102.112679
11
127.0937079999999924
21
-105.4206769999999977
0
LINE
8
BLACK
6
CONTINUOUS
10
186.5266089999999792
20
-64.7054239999999936
11
167.766020999999995
21
-68.0134219999999914
0
LINE
8
BLACK
6
CONTINUOUS
10
167.766020999999995
20
-68.0134219999999914
11
164.4580229999999972
21
-49.252834
0
LINE
8
BLACK
6
CONTINUOUS
10
164.4580229999999972
20
-49.252834
11
183.2186109999999815
21
-45.9448359999999951
0
LINE
8
BLACK
6
CONTINUOUS
10
183.2186109999999815
20
-45.9448359999999951
11
186.5266089999999792
21
-64.7054239999999936
0
LINE
8
BLACK
6
CONTINUOUS
10
137.0177019999999857
20
-49.1389129999999952
11
133.7097039999999879
21
-67.8995010000000008
0
LINE
8
BLACK
6
CONTINUOUS
10
133.7097039999999879
20
-67.8995010000000008
11
114.9491159999999894
21
-64.591503000000003
0
LINE
8
BLACK
6
CONTINUOUS
10
114.9491159999999894
20
-64.591503000000003
11
118.2571140000000014
21
-45.8309149999999974
0
LINE
8
BLACK
6
CONTINUOUS
10
118.2571140000000014
20
-45.8309149999999974
11
137.0177019999999857
21
-49.1389129999999952
0
LINE
8
BLACK
6
CONTINUOUS
10
77.4279409999999899
20
-57.9755070000000003
11
74.1199429999999921
21
-76.7360949999999917
0
LINE
8
BLACK
6
CONTINUOUS
10
74.1199429999999921
20
-76.7360949999999917
11
55.3593550000000008
21
-73.428096999999994
0
LINE
8
BLACK
6
CONTINUOUS
10
55.3593550000000008
20
-73.428096999999994
11
58.6673529999999985
21
-54.6675089999999955
0
LINE
8
BLACK
6
CONTINUOUS
10
58.6673529999999985
20
-54.6675089999999955
11
77.4279409999999899
21
-57.9755070000000003
0
LINE
8
BLACK
6
CONTINUOUS
10
104.1981239999999929
20
-125.5634129999999971
11
141.7192990000000066
21
-132.1794079999999951
0
LINE
8
BLACK
6
CONTINUOUS
10
108.3331209999999913
20
-102.1126779999999883
11
104.1981239999999929
21
-125.5634129999999971
0
LINE
8
BLACK
6
CONTINUOUS
10
116.9170179999999988
20
-122.824159999999992
11
117.2643149999999963
21
-120.8545449999999875
0
LINE
8
BLACK
6
CONTINUOUS
10
118.8866340000000008
20
-123.1714559999999921
11
116.9170179999999988
21
-122.824159999999992
0
LINE
8
BLACK
6
CONTINUOUS
10
119.0007969999999915
20
-111.0064670000000007
11
119.3480929999999915
21
-109.0368509999999986
0
LINE
8
BLACK
6
CONTINUOUS
10
119.3480929999999915
20
-109.0368509999999986
11
121.3177079999999961
21
-109.3841479999999962
0
LINE
8
BLACK
6
CONTINUOUS
10
127.0937089999999898
20
-105.4206760000000003
11
108.3331209999999913
21
-102.1126779999999883
0
LINE
8
BLACK
6
CONTINUOUS
10
127.9207079999999905
20
-100.73052899999999
11
127.0937089999999898
21
-105.4206760000000003
0
LINE
8
BLACK
6
CONTINUOUS
10
128.7347120000000018
20
-124.9079379999999873
11
130.7043270000000064
21
-125.255234999999999
0
LINE
8
BLACK
6
CONTINUOUS
10
130.7043270000000064
20
-125.255234999999999
11
131.0516230000000064
21
-123.285618999999997
0
LINE
8
BLACK
6
CONTINUOUS
10
131.1657859999999971
20
-111.1206299999999914
11
133.1354019999999991
21
-111.4679259999999914
0
LINE
8
BLACK
6
CONTINUOUS
10
133.1354019999999991
20
-111.4679259999999914
11
132.7881050000000016
21
-113.437540999999996
0
LINE
8
BLACK
6
CONTINUOUS
10
141.7192990000000066
20
-132.1794079999999951
11
146.6812960000000032
21
-104.038527000000002
0
LINE
8
BLACK
6
CONTINUOUS
10
146.6812960000000032
20
-104.038527000000002
11
127.9207079999999905
21
-100.73052899999999
0
LINE
8
BLACK
6
CONTINUOUS
10
93.7075309999999888
20
-75.353944999999996
11
90.399532999999991
21
-94.1145329999999944
0
LINE
8
BLACK
6
CONTINUOUS
10
90.399532999999991
20
-94.1145329999999944
11
71.6389449999999925
21
-90.8065349999999967
0
LINE
8
BLACK
6
CONTINUOUS
10
71.6389449999999925
20
-90.8065349999999967
11
74.9469429999999903
21
-72.0459469999999982
0
LINE
8
BLACK
6
CONTINUOUS
10
74.9469429999999903
20
-72.0459469999999982
11
93.7075309999999888
21
-75.353944999999996
0
LINE
8
BLACK
6
CONTINUOUS
10
249.4244049999999788
20
-92.3028209999999945
11
230.6638169999999946
21
-95.6108189999999922
0
LINE
8
BLACK
6
CONTINUOUS
10
230.6638169999999946
20
-95.6108189999999922
11
227.3558189999999968
21
-76.8502309999999937
0
LINE
8
BLACK
6
CONTINUOUS
10
227.3558189999999968
20
-76.8502309999999937
11
246.1164069999999811
21
-73.542232999999996
0
LINE
8
BLACK
6
CONTINUOUS
10
246.1164069999999811
20
-73.542232999999996
11
249.4244049999999788
21
-92.3028209999999945
0
LINE
8
BLACK
6
CONTINUOUS
10
114.9491170000000011
20
-64.591503000000003
11
111.6411189999999891
21
-83.3520910000000015
0
LINE
8
BLACK
6
CONTINUOUS
10
111.6411189999999891
20
-83.3520910000000015
11
92.8805309999999906
21
-80.0440929999999895
0
LINE
8
BLACK
6
CONTINUOUS
10
92.8805309999999906
20
-80.0440929999999895
11
96.1885290000000026
21
-61.2835049999999981
0
LINE
8
BLACK
6
CONTINUOUS
10
96.1885290000000026
20
-61.2835049999999981
11
114.9491170000000011
21
-64.591503000000003
0
LINE
8
BLACK
6
CONTINUOUS
10
80.7359390000000019
20
-39.2149199999999993
11
77.4279409999999899
21
-57.9755079999999978
0
LINE
8
BLACK
6
CONTINUOUS
10
77.4279409999999899
20
-57.9755079999999978
11
58.6673529999999985
21
-54.66751
0
LINE
8
BLACK
6
CONTINUOUS
10
58.6673529999999985
20
-54.66751
11
61.9753509999999963
21
-35.9069220000000016
0
LINE
8
BLACK
6
CONTINUOUS
10
61.9753509999999963
20
-35.9069220000000016
11
80.7359390000000019
21
-39.2149199999999993
0
LINE
8
BLACK
6
CONTINUOUS
10
100.3235260000000011
20
-37.832771000000001
11
97.0155279999999891
21
-56.5933589999999995
0
LINE
8
BLACK
6
CONTINUOUS
10
97.0155279999999891
20
-56.5933589999999995
11
78.2549399999999906
21
-53.2853609999999946
0
LINE
8
BLACK
6
CONTINUOUS
10
78.2549399999999906
20
-53.2853609999999946
11
81.5629380000000026
21
-34.5247729999999962
0
LINE
8
BLACK
6
CONTINUOUS
10
81.5629380000000026
20
-34.5247729999999962
11
100.3235260000000011
21
-37.832771000000001
0
LINE
8
BLACK
6
CONTINUOUS
10
269.0121520000000146
20
-93.6858780000000024
11
250.2515640000000019
21
-96.9938760000000002
0
LINE
8
BLACK
6
CONTINUOUS
10
250.2515640000000019
20
-96.9938760000000002
11
246.9435659999999757
21
-78.2332880000000017
0
LINE
8
BLACK
6
CONTINUOUS
10
246.9435659999999757
20
-78.2332880000000017
11
265.70415399999996
21
-74.9252899999999897
0
LINE
8
BLACK
6
CONTINUOUS
10
265.70415399999996
20
-74.9252899999999897
11
269.0121520000000146
21
-93.6858780000000024
0
LINE
8
BLACK
6
CONTINUOUS
10
205.2871959999999945
20
-61.3974259999999958
11
186.5266079999999818
21
-64.7054239999999936
0
LINE
8
BLACK
6
CONTINUOUS
10
186.5266079999999818
20
-64.7054239999999936
11
183.218609999999984
21
-45.9448359999999951
0
LINE
8
BLACK
6
CONTINUOUS
10
183.218609999999984
20
-45.9448359999999951
11
201.9791979999999967
21
-42.6368379999999974
0
LINE
8
BLACK
6
CONTINUOUS
10
201.9791979999999967
20
-42.6368379999999974
11
205.2871959999999945
21
-61.3974259999999958
0
LINE
8
BLACK
6
CONTINUOUS
10
74.1199439999999896
20
-76.7360949999999917
11
70.8119459999999918
21
-95.4966829999999902
0
LINE
8
BLACK
6
CONTINUOUS
10
70.8119459999999918
20
-95.4966829999999902
11
52.0513580000000005
21
-92.1886849999999924
0
LINE
8
BLACK
6
CONTINUOUS
10
52.0513580000000005
20
-92.1886849999999924
11
55.3593559999999982
21
-73.428096999999994
0
LINE
8
BLACK
6
CONTINUOUS
10
55.3593559999999982
20
-73.428096999999994
11
74.1199439999999896
21
-76.7360949999999917
0
LINE
8
BLACK
6
CONTINUOUS
10
233.9703769999999849
20
-114.3632549999999952
11
215.2097899999999981
21
-117.671252999999993
0
LINE
8
BLACK
6
CONTINUOUS
10
215.2097899999999981
20
-117.671252999999993
11
211.0747929999999997
21
-94.2205189999999959
0
LINE
8
BLACK
6
CONTINUOUS
10
211.0747929999999997
20
-94.2205189999999959
11
229.8353799999999865
21
-90.9125209999999981
0
LINE
8
BLACK
6
CONTINUOUS
10
229.8353799999999865
20
-90.9125209999999981
11
233.9703769999999849
21
-114.3632549999999952
0
LINE
8
BLACK
6
CONTINUOUS
10
187.483807999999982
20
-124.9862589999999898
11
168.7232199999999978
21
-128.2942569999999876
0
LINE
8
BLACK
6
CONTINUOUS
10
168.7232199999999978
20
-128.2942569999999876
11
165.415222
21
-109.5336689999999891
0
LINE
8
BLACK
6
CONTINUOUS
10
165.415222
20
-109.5336689999999891
11
184.1758099999999843
21
-106.2256709999999913
0
LINE
8
BLACK
6
CONTINUOUS
10
184.1758099999999843
20
-106.2256709999999913
11
187.483807999999982
21
-124.9862589999999898
0
LINE
8
BLACK
6
CONTINUOUS
10
90.3995319999999936
20
-94.1145329999999944
11
86.2645349999999951
21
-117.5652669999999915
0
LINE
8
BLACK
6
CONTINUOUS
10
86.2645349999999951
20
-117.5652669999999915
11
67.5039479999999941
21
-114.2572689999999938
0
LINE
8
BLACK
6
CONTINUOUS
10
67.5039479999999941
20
-114.2572689999999938
11
71.6389449999999925
21
-90.8065349999999967
0
LINE
8
BLACK
6
CONTINUOUS
10
71.6389449999999925
20
-90.8065349999999967
11
90.3995319999999936
21
-94.1145329999999944
0
LINE
8
BLACK
6
CONTINUOUS
10
54.5323560000000001
20
-78.11824399999999
11
51.2243579999999952
21
-96.8788319999999885
0
LINE
8
BLACK
6
CONTINUOUS
10
51.2243579999999952
20
-96.8788319999999885
11
32.4637699999999967
21
-93.5708339999999907
0
LINE
8
BLACK
6
CONTINUOUS
10
32.4637699999999967
20
-93.5708339999999907
11
35.7717680000000016
21
-74.8102459999999923
0
LINE
8
BLACK
6
CONTINUOUS
10
35.7717680000000016
20
-74.8102459999999923
11
54.5323560000000001
21
-78.11824399999999
0
LINE
8
BLACK
6
CONTINUOUS
10
262.3959590000000048
20
-56.1635799999999961
11
243.6353709999999921
21
-59.4715779999999938
0
LINE
8
BLACK
6
CONTINUOUS
10
243.6353709999999921
20
-59.4715779999999938
11
240.3273729999999944
21
-40.7109899999999953
0
LINE
8
BLACK
6
CONTINUOUS
10
240.3273729999999944
20
-40.7109899999999953
11
259.0879610000000071
21
-37.4029919999999976
0
LINE
8
BLACK
6
CONTINUOUS
10
259.0879610000000071
20
-37.4029919999999976
11
262.3959590000000048
21
-56.1635799999999961
0
LINE
8
BLACK
6
CONTINUOUS
10
136.0642530000000079
20
-109.4227569999999901
11
132.7562549999999817
21
-128.1833450000000028
0
LINE
8
BLACK
6
CONTINUOUS
10
132.7562549999999817
20
-128.1833450000000028
11
113.9956669999999974
21
-124.8753469999999908
0
LINE
8
BLACK
6
CONTINUOUS
10
113.9956669999999974
20
-124.8753469999999908
11
117.3036649999999952
21
-106.1147589999999923
0
LINE
8
BLACK
6
CONTINUOUS
10
117.3036649999999952
20
-106.1147589999999923
11
136.0642530000000079
21
-109.4227569999999901
0
LINE
8
BLACK
6
CONTINUOUS
10
118.2571140000000014
20
-45.8309149999999974
11
114.9491159999999894
21
-64.591503000000003
0
LINE
8
BLACK
6
CONTINUOUS
10
114.9491159999999894
20
-64.591503000000003
11
96.1885279999999909
21
-61.2835049999999981
0
LINE
8
BLACK
6
CONTINUOUS
10
96.1885279999999909
20
-61.2835049999999981
11
99.4965259999999887
21
-42.5229169999999996
0
LINE
8
BLACK
6
CONTINUOUS
10
99.4965259999999887
20
-42.5229169999999996
11
118.2571140000000014
21
-45.8309149999999974
0
LINE
8
BLACK
6
CONTINUOUS
10
108.3331199999999939
20
-102.112679
11
104.1981229999999954
21
-125.5634129999999971
0
LINE
8
BLACK
6
CONTINUOUS
10
104.1981229999999954
20
-125.5634129999999971
11
85.4375359999999944
21
-122.2554149999999993
0
LINE
8
BLACK
6
CONTINUOUS
10
85.4375359999999944
20
-122.2554149999999993
11
89.5725329999999929
21
-98.8046810000000022
0
LINE
8
BLACK
6
CONTINUOUS
10
89.5725329999999929
20
-98.8046810000000022
11
108.3331199999999939
21
-102.112679
0
LINE
8
BLACK
6
CONTINUOUS
10
97.0155290000000008
20
-56.5933569999999975
11
93.7075309999999888
21
-75.353944999999996
0
LINE
8
BLACK
6
CONTINUOUS
10
93.7075309999999888
20
-75.353944999999996
11
74.9469429999999903
21
-72.0459469999999982
0
LINE
8
BLACK
6
CONTINUOUS
10
74.9469429999999903
20
-72.0459469999999982
11
78.2549410000000023
21
-53.2853589999999997
0
LINE
8
BLACK
6
CONTINUOUS
10
78.2549410000000023
20
-53.2853589999999997
11
97.0155290000000008
21
-56.5933569999999975
0
LINE
8
BLACK
6
CONTINUOUS
10
197.2776010000000042
20
-125.6773329999999902
11
178.517013999999989
21
-128.9853310000000022
0
LINE
8
BLACK
6
CONTINUOUS
10
178.517013999999989
20
-128.9853310000000022
11
174.3820169999999905
21
-105.5345969999999909
0
LINE
8
BLACK
6
CONTINUOUS
10
174.3820169999999905
20
-105.5345969999999909
11
193.1426039999999773
21
-102.2265989999999931
0
LINE
8
BLACK
6
CONTINUOUS
10
193.1426039999999773
20
-102.2265989999999931
11
197.2776010000000042
21
-125.6773329999999902
0
LINE
8
BLACK
6
CONTINUOUS
10
189.8346059999999795
20
-83.4660119999999921
11
171.0740179999999953
21
-86.7740099999999899
0
LINE
8
BLACK
6
CONTINUOUS
10
171.0740179999999953
20
-86.7740099999999899
11
167.7660199999999975
21
-68.0134219999999914
0
LINE
8
BLACK
6
CONTINUOUS
10
167.7660199999999975
20
-68.0134219999999914
11
186.5266079999999818
21
-64.7054239999999936
0
LINE
8
BLACK
6
CONTINUOUS
10
186.5266079999999818
20
-64.7054239999999936
11
189.8346059999999795
21
-83.4660119999999921
0
LINE
8
BLACK
6
CONTINUOUS
10
61.1470199999999977
20
-40.6046219999999991
11
57.8390219999999999
21
-59.3652099999999976
0
LINE
8
BLACK
6
CONTINUOUS
10
57.8390219999999999
20
-59.3652099999999976
11
39.0784340000000014
21
-56.0572119999999998
0
LINE
8
BLACK
6
CONTINUOUS
10
39.0784340000000014
20
-56.0572119999999998
11
42.3864319999999992
21
-37.2966240000000013
0
LINE
8
BLACK
6
CONTINUOUS
10
42.3864319999999992
20
-37.2966240000000013
11
61.1470199999999977
21
-40.6046219999999991
0
LINE
8
BLACK
6
CONTINUOUS
10
226.5287819999999783
20
-72.1598690000000005
11
207.768193999999994
21
-75.4678669999999983
0
LINE
8
BLACK
6
CONTINUOUS
10
207.768193999999994
20
-75.4678669999999983
11
204.4601959999999963
21
-56.7072789999999998
0
LINE
8
BLACK
6
CONTINUOUS
10
204.4601959999999963
20
-56.7072789999999998
11
223.2207839999999806
21
-53.3992809999999949
0
LINE
8
BLACK
6
CONTINUOUS
10
223.2207839999999806
20
-53.3992809999999949
11
226.5287819999999783
21
-72.1598690000000005
0
LINE
8
BLACK
6
CONTINUOUS
10
211.90319199999999
20
-98.9186009999999953
11
193.1426039999999773
21
-102.2265989999999931
0
LINE
8
BLACK
6
CONTINUOUS
10
193.1426039999999773
20
-102.2265989999999931
11
189.8346059999999795
21
-83.4660109999999946
0
LINE
8
BLACK
6
CONTINUOUS
10
189.8346059999999795
20
-83.4660109999999946
11
208.5951939999999922
21
-80.1580129999999969
0
LINE
8
BLACK
6
CONTINUOUS
10
208.5951939999999922
20
-80.1580129999999969
11
211.90319199999999
21
-98.9186009999999953
0
CIRCLE
8
BLACK
10
159.1074239999999804
20
-110.4413440000000008
40
0.125
0
CIRCLE
8
BLACK
10
150.8002429999999947
20
-84.3708170000000024
40
16.2850000000000001
0
CIRCLE
8
BLACK
10
150.8002429999999947
20
-84.3708170000000024
40
12.5
0
LINE
8
BLACK
6
CONTINUOUS
10
189.9441129999999873
20
-66.6667779999999937
11
202.7466139999999939
21
-64.4093519999999984
0
LINE
8
BLACK
6
CONTINUOUS
10
191.7959599999999796
20
-80.0485070000000007
11
189.5385339999999985
21
-67.2460059999999942
0
LINE
8
BLACK
6
CONTINUOUS
10
203.3258419999999944
20
-64.8149310000000014
11
205.5832680000000039
21
-77.6174319999999938
0
LINE
8
BLACK
6
CONTINUOUS
10
205.1776889999999867
20
-78.1966599999999943
11
192.3751879999999801
21
-80.4540859999999896
0
ARC
8
BLACK
10
190.0309389999999894
20
-67.1591829999999987
40
0.5000009173531584
50
-259.99980668
51
-170.00014523
0
ARC
8
BLACK
10
192.2883649999999989
20
-79.9616809999999987
40
0.5000009173531584
50
-169.99980668
51
-80.00014523
0
ARC
8
BLACK
10
202.833438000000001
20
-64.9017549999999943
40
0.499999121384228
50
9.99998752
51
100.00000742
0
ARC
8
BLACK
10
205.0879159999999786
20
-77.7036590000000018
40
0.5000364253581933
50
-79.99585051
51
10.00181345
0
LINE
8
BLACK
6
CONTINUOUS
10
211.1856989999999996
20
-77.4292209999999983
11
223.9881999999999778
21
-75.171795000000003
0
LINE
8
BLACK
6
CONTINUOUS
10
213.0375459999999919
20
-90.8109499999999912
11
210.7801199999999824
21
-78.0084489999999988
0
LINE
8
BLACK
6
CONTINUOUS
10
224.5674279999999783
20
-75.5773739999999918
11
226.8248539999999878
21
-88.3798749999999984
0
LINE
8
BLACK
6
CONTINUOUS
10
226.419274999999999
20
-88.9591029999999989
11
213.6167739999999924
21
-91.2165289999999942
0
ARC
8
BLACK
10
211.2725250000000017
20
-77.9216260000000034
40
0.5000009173531584
50
-259.99980668
51
-170.00014523
0
ARC
8
BLACK
10
213.5299509999999827
20
-90.7241239999999891
40
0.5000009173531584
50
-169.99980668
51
-80.00014523
0
ARC
8
BLACK
10
224.0750239999999849
20
-75.664197999999999
40
0.499999121384228
50
9.99998752
51
100.00000742
0
ARC
8
BLACK
10
226.3295019999999909
20
-88.4661019999999922
40
0.5000364253581933
50
-79.99585051
51
10.00181345
0
LINE
8
BLACK
6
CONTINUOUS
10
162.3553189999999802
20
-125.3077849999999955
11
160.0966999999999985
21
-112.5054939999999988
0
LINE
8
BLACK
6
CONTINUOUS
10
166.164923999999985
20
-110.92778899999999
11
160.5022799999999847
21
-111.9262659999999983
0
LINE
8
BLACK
6
CONTINUOUS
10
168.5959990000000062
20
-124.7150979999999976
11
162.9345469999999807
21
-125.7133639999999986
0
LINE
8
BLACK
6
CONTINUOUS
10
169.0015789999999924
20
-124.135869999999997
11
166.7441519999999855
21
-111.3333689999999905
0
LINE
8
BLACK
6
CONTINUOUS
10
185.8048609999999883
20
-121.1729979999999927
11
183.5474349999999788
21
-108.3704970000000003
0
LINE
8
BLACK
6
CONTINUOUS
10
189.6156589999999937
20
-106.7927919999999915
11
183.953013999999996
21
-107.7912689999999998
0
LINE
8
BLACK
6
CONTINUOUS
10
192.046732999999989
20
-120.5801000000000016
11
186.3840889999999888
21
-121.5785769999999957
0
LINE
8
BLACK
6
CONTINUOUS
10
192.4523130000000037
20
-120.0008720000000011
11
190.1948869999999943
21
-107.198371999999992
0
ARC
8
BLACK
10
160.5891529999999818
20
-112.4186619999999976
40
0.5000497509578422
50
-259.99432362
51
-170.00008470
0
ARC
8
BLACK
10
162.8477239999999995
20
-125.2209589999999935
40
0.5000009173531584
50
-169.99980668
51
-80.00014523
0
ARC
8
BLACK
10
166.2517489999999896
20
-111.4201939999999951
40
0.5000012646484007
50
10.00012027
51
100.00008047
0
ARC
8
BLACK
10
168.5091740000000016
20
-124.2226929999999925
40
0.5000009173531584
50
-79.99991953
51
9.99985477
0
ARC
8
BLACK
10
184.0398879999999906
20
-108.2836649999999992
40
0.5000497509578422
50
-259.99421077
51
-170.00008470
0
ARC
8
BLACK
10
186.2972659999999792
20
-121.0861719999999906
40
0.5000009173531584
50
-169.99980668
51
-80.00014523
0
ARC
8
BLACK
10
189.7024830000000009
20
-107.2851969999999966
40
0.5000010909998097
50
10.00010037
51
99.99996762
0
ARC
8
BLACK
10
191.9599079999999844
20
-120.087695999999994
40
0.5000010909998097
50
-79.99989963
51
9.99996762
0
LINE
8
BLACK
6
CONTINUOUS
10
111.3450469999999939
20
-99.5720960000000019
11
113.6024729999999892
21
-86.7695949999999954
0
LINE
8
BLACK
6
CONTINUOUS
10
114.1817009999999897
20
-86.3640159999999923
11
126.9842019999999962
21
-88.6214420000000018
0
LINE
8
BLACK
6
CONTINUOUS
10
124.5531269999999893
20
-102.4087499999999977
11
111.7506259999999969
21
-100.1513240000000025
0
LINE
8
BLACK
6
CONTINUOUS
10
127.3897809999999993
20
-89.2006700000000023
11
125.1323549999999898
21
-102.0031709999999947
0
ARC
8
BLACK
10
111.837451999999999
20
-99.6589189999999974
40
0.5000014382989313
50
-189.99985477
51
-100.00019332
0
ARC
8
BLACK
10
114.0948779999999942
20
-86.8564209999999974
40
0.5000014382989313
50
80.00014523
51
169.99980668
0
ARC
8
BLACK
10
124.6373849999999948
20
-101.9147770000000008
40
0.5000359662954256
50
-99.99589804
51
-9.99821584
0
ARC
8
BLACK
10
126.8973779999999891
20
-89.1138459999999952
40
0.5000001061919888
50
-10.00000742
51
80.00001248
0
LINE
8
BLACK
6
CONTINUOUS
10
247.0528759999999977
20
-61.4329309999999964
11
259.8553769999999759
21
-59.175504999999994
0
LINE
8
BLACK
6
CONTINUOUS
10
248.90472299999999
20
-74.8146600000000035
11
246.6472969999999805
21
-62.0121589999999969
0
LINE
8
BLACK
6
CONTINUOUS
10
260.4346049999999764
20
-59.581083999999997
11
262.6920309999999859
21
-72.3835849999999965
0
LINE
8
BLACK
6
CONTINUOUS
10
262.286451999999997
20
-72.962812999999997
11
249.4839509999999905
21
-75.2202389999999923
0
ARC
8
BLACK
10
247.1397019999999998
20
-61.9253359999999944
40
0.5000009173531584
50
-259.99980668
51
-170.00014523
0
ARC
8
BLACK
10
249.3971279999999808
20
-74.7278340000000014
40
0.5000009173531584
50
-169.99980668
51
-80.00014523
0
ARC
8
BLACK
10
259.9422010000000114
20
-59.6679079999999971
40
0.499999121384228
50
9.99998752
51
100.00000742
0
ARC
8
BLACK
10
262.1966789999999605
20
-72.4698119999999903
40
0.5000364253581933
50
-79.99585051
51
10.00181345
0
LINE
8
BLACK
6
CONTINUOUS
10
196.9736079999999845
20
-106.5330269999999899
11
209.7761089999999911
21
-104.2756009999999947
0
LINE
8
BLACK
6
CONTINUOUS
10
198.8254550000000052
20
-119.914755999999997
11
196.5680289999999957
21
-107.1122549999999904
0
LINE
8
BLACK
6
CONTINUOUS
10
210.3553369999999916
20
-104.6811799999999977
11
212.6127630000000011
21
-117.48368099999999
0
LINE
8
BLACK
6
CONTINUOUS
10
212.2071839999999838
20
-118.0629089999999906
11
199.4046829999999773
21
-120.320335
0
ARC
8
BLACK
10
197.0604339999999866
20
-107.025431999999995
40
0.5000009173531584
50
-259.99980668
51
-170.00014523
0
ARC
8
BLACK
10
199.317859999999996
20
-119.8279299999999949
40
0.5000009173531584
50
-169.99980668
51
-80.00014523
0
ARC
8
BLACK
10
209.8629329999999982
20
-104.7680039999999906
40
0.499999121384228
50
9.99998752
51
100.00000742
0
ARC
8
BLACK
10
212.1174110000000042
20
-117.5699079999999981
40
0.5000364253581933
50
-79.99585051
51
10.00181345
0
LINE
8
BLACK
6
CONTINUOUS
10
224.1572909999999865
20
-41.2901949999999971
11
236.9597919999999931
21
-39.0327689999999947
0
LINE
8
BLACK
6
CONTINUOUS
10
226.0091379999999788
20
-54.6719239999999971
11
223.7517119999999977
21
-41.8694229999999976
0
LINE
8
BLACK
6
CONTINUOUS
10
237.5390199999999936
20
-39.4383479999999977
11
239.7964460000000031
21
-52.2408489999999972
0
LINE
8
BLACK
6
CONTINUOUS
10
239.3908669999999859
20
-52.8200769999999977
11
226.5883659999999793
21
-55.0775030000000001
0
ARC
8
BLACK
10
224.2441169999999886
20
-41.7825999999999951
40
0.5000009173531584
50
-259.99980668
51
-170.00014523
0
ARC
8
BLACK
10
226.5015429999999981
20
-54.585097999999995
40
0.5000009173531584
50
-169.99980668
51
-80.00014523
0
ARC
8
BLACK
10
237.0466160000000002
20
-39.5251719999999978
40
0.499999121384228
50
9.99998752
51
100.00000742
0
ARC
8
BLACK
10
239.3010939999999778
20
-52.3270759999999981
40
0.5000364253581933
50
-79.99585051
51
10.00181345
0
LINE
8
BLACK
6
CONTINUOUS
10
204.5697040000000015
20
-39.9080450000000013
11
217.3722049999999797
21
-37.6506189999999989
0
LINE
8
BLACK
6
CONTINUOUS
10
206.4215509999999938
20
-53.2897739999999942
11
204.1641249999999843
21
-40.4872729999999947
0
LINE
8
BLACK
6
CONTINUOUS
10
217.9514329999999802
20
-38.0561979999999949
11
220.2088589999999897
21
-50.8586989999999943
0
LINE
8
BLACK
6
CONTINUOUS
10
219.8032800000000009
20
-51.4379269999999948
11
207.0007789999999943
21
-53.6953529999999972
0
ARC
8
BLACK
10
204.6565300000000036
20
-40.4004499999999993
40
0.5000009173531584
50
-259.99980668
51
-170.00014523
0
ARC
8
BLACK
10
206.9139559999999847
20
-53.2029479999999992
40
0.5000009173531584
50
-169.99980668
51
-80.00014523
0
ARC
8
BLACK
10
217.4590289999999868
20
-38.1430219999999949
40
0.499999121384228
50
9.99998752
51
100.00000742
0
ARC
8
BLACK
10
219.7135069999999928
20
-50.9449259999999953
40
0.5000364253581933
50
-79.99585051
51
10.00181345
0
LINE
8
BLACK
6
CONTINUOUS
10
92.5844589999999954
20
-96.2640990000000016
11
94.8418849999999907
21
-83.4615979999999951
0
LINE
8
BLACK
6
CONTINUOUS
10
95.4211129999999912
20
-83.056018999999992
11
108.2236139999999978
21
-85.3134450000000015
0
LINE
8
BLACK
6
CONTINUOUS
10
105.7925389999999908
20
-99.1007529999999974
11
92.9900379999999984
21
-96.8433270000000022
0
LINE
8
BLACK
6
CONTINUOUS
10
108.6291930000000008
20
-85.892673000000002
11
106.3717669999999913
21
-98.6951739999999944
0
ARC
8
BLACK
10
93.0768640000000005
20
-96.3509219999999971
40
0.5000014382989313
50
-189.99985477
51
-100.00019332
0
ARC
8
BLACK
10
95.3342899999999958
20
-83.5484239999999971
40
0.5000014382989313
50
80.00014523
51
169.99980668
0
ARC
8
BLACK
10
105.8767969999999963
20
-98.6067800000000005
40
0.5000359662954256
50
-99.99589804
51
-9.99821584
0
ARC
8
BLACK
10
108.1367899999999906
20
-85.8058489999999949
40
0.5000001061919888
50
-10.00000742
51
80.00001248
0
LINE
8
BLACK
6
CONTINUOUS
10
159.0389329999999859
20
-110.8039489999999887
11
171.8414339999999925
21
-108.5465229999999934
0
LINE
8
BLACK
6
CONTINUOUS
10
160.8907800000000066
20
-124.1856779999999958
11
158.6333539999999971
21
-111.3831769999999892
0
LINE
8
BLACK
6
CONTINUOUS
10
172.420661999999993
20
-108.9521019999999965
11
174.6780880000000025
21
-121.7546029999999888
0
LINE
8
BLACK
6
CONTINUOUS
10
174.2725089999999852
20
-122.3338309999999893
11
161.4700079999999787
21
-124.5912569999999988
0
ARC
8
BLACK
10
159.125758999999988
20
-111.2963539999999938
40
0.5000009173531584
50
-259.99980668
51
-170.00014523
0
ARC
8
BLACK
10
161.3831849999999974
20
-124.0988519999999937
40
0.5000009173531584
50
-169.99980668
51
-80.00014523
0
ARC
8
BLACK
10
171.9282579999999996
20
-109.0389259999999894
40
0.499999121384228
50
9.99998752
51
100.00000742
0
ARC
8
BLACK
10
174.1827360000000056
20
-121.8408299999999969
40
0.5000364253581933
50
-79.99585051
51
10.00181345
0
LINE
8
BLACK
6
CONTINUOUS
10
38.783693999999997
20
-72.2696650000000034
11
41.0411199999999994
21
-59.4671639999999968
0
LINE
8
BLACK
6
CONTINUOUS
10
41.6203479999999999
20
-59.0615849999999938
11
54.4228489999999994
21
-61.3190109999999962
0
LINE
8
BLACK
6
CONTINUOUS
10
51.9917739999999995
20
-75.1063189999999992
11
39.189273
21
-72.8488929999999897
0
LINE
8
BLACK
6
CONTINUOUS
10
54.8284279999999953
20
-61.8982389999999967
11
52.571002
21
-74.7007399999999961
0
ARC
8
BLACK
10
39.276098999999995
20
-72.3564879999999988
40
0.5000014382989313
50
-189.99985477
51
-100.00019332
0
ARC
8
BLACK
10
41.5335249999999974
20
-59.5539899999999989
40
0.5000014382989313
50
80.00014523
51
169.99980668
0
ARC
8
BLACK
10
52.0760319999999979
20
-74.6123460000000023
40
0.5000359662954256
50
-99.99589804
51
-9.99821584
0
ARC
8
BLACK
10
54.3360249999999994
20
-61.8114149999999967
40
0.5000001061919888
50
-10.00000742
51
80.00001248
0
LINE
8
BLACK
6
CONTINUOUS
10
114.6530439999999942
20
-80.8115090000000009
11
116.9104699999999895
21
-68.0090079999999944
0
LINE
8
BLACK
6
CONTINUOUS
10
117.48969799999999
20
-67.6034289999999913
11
130.2921989999999823
21
-69.8608550000000008
0
LINE
8
BLACK
6
CONTINUOUS
10
127.8611239999999896
20
-83.6481629999999967
11
115.0586229999999972
21
-81.3907370000000014
0
LINE
8
BLACK
6
CONTINUOUS
10
130.6977779999999996
20
-70.4400830000000013
11
128.4403519999999901
21
-83.2425839999999937
0
ARC
8
BLACK
10
115.1454489999999993
20
-80.8983319999999964
40
0.5000014382989313
50
-189.99985477
51
-100.00019332
0
ARC
8
BLACK
10
117.4028749999999945
20
-68.0958339999999964
40
0.5000014382989313
50
80.00014523
51
169.99980668
0
ARC
8
BLACK
10
127.9453819999999951
20
-83.1541899999999998
40
0.5000359662954256
50
-99.99589804
51
-9.99821584
0
ARC
8
BLACK
10
130.2053750000000036
20
-70.3532589999999942
40
0.5000001061919888
50
-10.00000742
51
80.00001248
0
LINE
8
BLACK
6
CONTINUOUS
10
174.4915230000000008
20
-88.7353629999999924
11
187.294023999999979
21
-86.4779369999999972
0
LINE
8
BLACK
6
CONTINUOUS
10
176.3433699999999931
20
-102.1170919999999995
11
174.0859439999999836
21
-89.314590999999993
0
LINE
8
BLACK
6
CONTINUOUS
10
187.8732519999999795
20
-86.8835160000000002
11
190.130677999999989
21
-99.6860169999999925
0
LINE
8
BLACK
6
CONTINUOUS
10
189.7250990000000002
20
-100.2652449999999931
11
176.9225979999999936
21
-102.5226709999999883
0
ARC
8
BLACK
10
174.5783490000000029
20
-89.2277679999999975
40
0.5000009173531584
50
-259.99980668
51
-170.00014523
0
ARC
8
BLACK
10
176.8357749999999839
20
-102.0302659999999975
40
0.5000009173531584
50
-169.99980668
51
-80.00014523
0
ARC
8
BLACK
10
187.3808479999999861
20
-86.9703399999999931
40
0.499999121384228
50
9.99998752
51
100.00000742
0
ARC
8
BLACK
10
189.6353259999999921
20
-99.7722440000000006
40
0.5000364253581933
50
-79.99585051
51
10.00181345
0
LINE
8
BLACK
6
CONTINUOUS
10
227.4652889999999843
20
-60.0507829999999956
11
240.2677899999999909
21
-57.7933570000000003
0
LINE
8
BLACK
6
CONTINUOUS
10
229.3171359999999765
20
-73.4325120000000027
11
227.0597099999999955
21
-60.6300109999999961
0
LINE
8
BLACK
6
CONTINUOUS
10
240.8470179999999914
20
-58.1989359999999962
11
243.1044440000000009
21
-71.0014369999999957
0
LINE
8
BLACK
6
CONTINUOUS
10
242.6988649999999836
20
-71.5806649999999962
11
229.8963639999999771
21
-73.8380909999999915
0
ARC
8
BLACK
10
227.5521149999999864
20
-60.5431880000000007
40
0.5000009173531584
50
-259.99980668
51
-170.00014523
0
ARC
8
BLACK
10
229.8095409999999958
20
-73.3456860000000006
40
0.5000009173531584
50
-169.99980668
51
-80.00014523
0
ARC
8
BLACK
10
240.354613999999998
20
-58.2857599999999962
40
0.499999121384228
50
9.99998752
51
100.00000742
0
ARC
8
BLACK
10
242.6090919999999755
20
-71.0876640000000037
40
0.5000364253581933
50
-79.99585051
51
10.00181345
0
LINE
8
BLACK
6
CONTINUOUS
10
126.7976369999999946
20
-121.6406819999999982
11
129.0550629999999899
21
-108.8381809999999916
0
LINE
8
BLACK
6
CONTINUOUS
10
129.6342909999999904
20
-108.4326019999999886
11
142.436791999999997
21
-110.6900279999999981
0
LINE
8
BLACK
6
CONTINUOUS
10
140.0057170000000042
20
-124.477335999999994
11
127.2032159999999976
21
-122.2199099999999987
0
LINE
8
BLACK
6
CONTINUOUS
10
142.8423709999999858
20
-111.2692559999999986
11
140.5849450000000047
21
-124.071756999999991
0
ARC
8
BLACK
10
127.2900419999999997
20
-121.7275049999999936
40
0.5000014382989313
50
-189.99985477
51
-100.00019332
0
ARC
8
BLACK
10
129.5474679999999807
20
-108.9250069999999937
40
0.5000014382989313
50
80.00014523
51
169.99980668
0
ARC
8
BLACK
10
140.0899749999999813
20
-123.9833629999999971
40
0.5000359662954256
50
-99.99589804
51
-9.99821584
0
ARC
8
BLACK
10
142.3499679999999898
20
-111.1824319999999915
40
0.5000001061919888
50
-10.00000742
51
80.00001248
0
LINE
8
BLACK
6
CONTINUOUS
10
107.623548999999997
20
-120.6777579999999972
11
109.8809749999999923
21
-107.8752569999999906
0
LINE
8
BLACK
6
CONTINUOUS
10
110.4602029999999928
20
-107.4696780000000018
11
123.2627039999999994
21
-109.7271039999999971
0
LINE
8
BLACK
6
CONTINUOUS
10
120.8316289999999924
20
-123.514411999999993
11
108.029128
21
-121.2569859999999977
0
LINE
8
BLACK
6
CONTINUOUS
10
123.6682829999999882
20
-110.3063319999999976
11
121.4108569999999929
21
-123.10883299999999
0
ARC
8
BLACK
10
108.1159540000000021
20
-120.7645809999999926
40
0.5000014382989313
50
-189.99985477
51
-100.00019332
0
ARC
8
BLACK
10
110.3733799999999974
20
-107.9620829999999927
40
0.5000014382989313
50
80.00014523
51
169.99980668
0
ARC
8
BLACK
10
120.9158869999999979
20
-123.0204389999999961
40
0.5000359662954256
50
-99.99589804
51
-9.99821584
0
ARC
8
BLACK
10
123.1758799999999923
20
-110.2195079999999905
40
0.5000001061919888
50
-10.00000742
51
80.00001248
0
LINE
8
BLACK
6
CONTINUOUS
10
167.8755280000000027
20
-51.214188
11
180.6780289999999809
21
-48.9567619999999977
0
LINE
8
BLACK
6
CONTINUOUS
10
169.727374999999995
20
-64.595917
11
167.4699489999999855
21
-51.7934160000000006
0
LINE
8
BLACK
6
CONTINUOUS
10
181.2572569999999814
20
-49.3623410000000007
11
183.5146829999999909
21
-62.1648420000000002
0
LINE
8
BLACK
6
CONTINUOUS
10
183.1091040000000021
20
-62.7440700000000007
11
170.3066029999999955
21
-65.0014960000000031
0
ARC
8
BLACK
10
167.9623540000000048
20
-51.706592999999998
40
0.5000009173531584
50
-259.99980668
51
-170.00014523
0
ARC
8
BLACK
10
170.2197799999999859
20
-64.509090999999998
40
0.5000009173531584
50
-169.99980668
51
-80.00014523
0
ARC
8
BLACK
10
180.764852999999988
20
-49.4491650000000007
40
0.499999121384228
50
9.99998752
51
100.00000742
0
ARC
8
BLACK
10
183.019330999999994
20
-62.251068999999994
40
0.5000364253581933
50
-79.99585051
51
10.00181345
0
LINE
8
BLACK
6
CONTINUOUS
10
117.961041999999992
20
-62.0509209999999953
11
120.2184680000000014
21
-49.2484199999999959
0
LINE
8
BLACK
6
CONTINUOUS
10
120.7976959999999877
20
-48.842841
11
133.6001969999999801
21
-51.1002669999999952
0
LINE
8
BLACK
6
CONTINUOUS
10
131.1691219999999873
20
-64.8875749999999982
11
118.366620999999995
21
-62.6301489999999959
0
LINE
8
BLACK
6
CONTINUOUS
10
134.0057759999999973
20
-51.6794949999999957
11
131.7483499999999879
21
-64.4819959999999952
0
ARC
8
BLACK
10
118.453446999999997
20
-62.1377439999999979
40
0.5000014382989313
50
-189.99985477
51
-100.00019332
0
ARC
8
BLACK
10
120.7108729999999923
20
-49.3352459999999979
40
0.5000014382989313
50
80.00014523
51
169.99980668
0
ARC
8
BLACK
10
131.2533799999999928
20
-64.3936020000000013
40
0.5000359662954256
50
-99.99589804
51
-9.99821584
0
ARC
8
BLACK
10
133.5133730000000014
20
-51.5926709999999957
40
0.5000001061919888
50
-10.00000742
51
80.00001248
0
LINE
8
BLACK
6
CONTINUOUS
10
58.3712809999999962
20
-70.8875149999999934
11
60.6287069999999986
21
-58.0850139999999939
0
LINE
8
BLACK
6
CONTINUOUS
10
61.2079349999999991
20
-57.679434999999998
11
74.0104359999999986
21
-59.9368610000000004
0
LINE
8
BLACK
6
CONTINUOUS
10
71.5793609999999916
20
-73.7241690000000034
11
58.7768599999999992
21
-71.4667429999999939
0
LINE
8
BLACK
6
CONTINUOUS
10
74.4160150000000016
20
-60.5160889999999938
11
72.1585889999999921
21
-73.3185900000000004
0
ARC
8
BLACK
10
58.8636859999999942
20
-70.974338000000003
40
0.5000014382989313
50
-189.99985477
51
-100.00019332
0
ARC
8
BLACK
10
61.1211119999999966
20
-58.171839999999996
40
0.5000014382989313
50
80.00014523
51
169.99980668
0
ARC
8
BLACK
10
71.6636189999999971
20
-73.2301959999999923
40
0.5000359662954256
50
-99.99589804
51
-9.99821584
0
ARC
8
BLACK
10
73.9236119999999914
20
-60.4292649999999938
40
0.5000001061919888
50
-10.00000742
51
80.00001248
0
LINE
8
BLACK
6
CONTINUOUS
10
109.0232439999999912
20
-119.9091339999999946
11
111.2794779999999975
21
-107.1064229999999924
0
LINE
8
BLACK
6
CONTINUOUS
10
115.0902759999999887
20
-121.4866279999999961
11
109.4288239999999917
21
-120.4883619999999951
0
LINE
8
BLACK
6
CONTINUOUS
10
115.6695039999999892
20
-121.081048999999993
11
117.9269299999999987
21
-108.2785480000000007
0
LINE
8
BLACK
6
CONTINUOUS
10
117.5213509999999957
20
-107.6993200000000002
11
111.858705999999998
21
-106.7008429999999919
0
LINE
8
BLACK
6
CONTINUOUS
10
132.4727859999999851
20
-124.0439209999999974
11
134.730212999999992
21
-111.2414199999999909
0
LINE
8
BLACK
6
CONTINUOUS
10
138.5410109999999975
20
-125.621625999999992
11
132.8783659999999998
21
-124.623148999999998
0
LINE
8
BLACK
6
CONTINUOUS
10
139.120238999999998
20
-125.2160459999999915
11
141.3776650000000075
21
-112.4135449999999992
0
LINE
8
BLACK
6
CONTINUOUS
10
140.9720849999999928
20
-111.8343169999999986
11
135.3094409999999925
21
-110.8358399999999904
0
ARC
8
BLACK
10
109.5156489999999962
20
-119.99595699999999
40
0.5000012646484007
50
-189.99985477
51
-100.00008047
0
ARC
8
BLACK
10
111.771930999999995
20
-107.193255999999991
40
0.5000499246055338
50
80.00572125
51
169.99997186
0
ARC
8
BLACK
10
115.1770989999999983
20
-120.994222999999991
40
0.5000014382989313
50
-99.99985477
51
-10.00019332
0
ARC
8
BLACK
10
117.4345259999999911
20
-108.191724999999991
40
0.5000012646484007
50
-9.99987467
51
79.99991953
0
ARC
8
BLACK
10
132.9651910000000044
20
-124.1307439999999929
40
0.5000012646484007
50
-189.99985477
51
-100.00008047
0
ARC
8
BLACK
10
135.2226660000000038
20
-111.3282540000000012
40
0.5000500982551648
50
80.00574113
51
169.99985902
0
ARC
8
BLACK
10
138.6278340000000071
20
-125.1292210000000011
40
0.5000012646484007
50
-99.99985477
51
-10.00008047
0
ARC
8
BLACK
10
140.8852609999999856
20
-112.3267219999999895
40
0.5000010909998097
50
-9.99987467
51
80.00003238
0
LINE
8
BLACK
6
CONTINUOUS
10
74.6508709999999951
20
-88.2659529999999961
11
76.9082969999999904
21
-75.4634519999999895
0
LINE
8
BLACK
6
CONTINUOUS
10
77.4875249999999909
20
-75.0578730000000007
11
90.2900259999999975
21
-77.315298999999996
0
LINE
8
BLACK
6
CONTINUOUS
10
87.8589509999999905
20
-91.1026069999999919
11
75.0564499999999981
21
-88.8451809999999966
0
LINE
8
BLACK
6
CONTINUOUS
10
90.6956050000000005
20
-77.8945269999999965
11
88.438178999999991
21
-90.6970279999999889
0
ARC
8
BLACK
10
75.1432760000000002
20
-88.3527759999999915
40
0.5000014382989313
50
-189.99985477
51
-100.00019332
0
ARC
8
BLACK
10
77.4007019999999955
20
-75.5502779999999916
40
0.5000014382989313
50
80.00014523
51
169.99980668
0
ARC
8
BLACK
10
87.943208999999996
20
-90.608633999999995
40
0.5000359662954256
50
-99.99589804
51
-9.99821584
0
ARC
8
BLACK
10
90.2032019999999903
20
-77.8077029999999894
40
0.5000001061919888
50
-10.00000742
51
80.00001248
0
LINE
8
BLACK
6
CONTINUOUS
10
230.7733240000000023
20
-78.8115849999999938
11
243.5758249999999805
21
-76.5541589999999985
0
LINE
8
BLACK
6
CONTINUOUS
10
232.6251709999999946
20
-92.1933140000000009
11
230.3677449999999851
21
-79.3908129999999943
0
LINE
8
BLACK
6
CONTINUOUS
10
244.155052999999981
20
-76.9597380000000015
11
246.4124789999999905
21
-89.7622389999999939
0
LINE
8
BLACK
6
CONTINUOUS
10
246.0069000000000017
20
-90.3414669999999944
11
233.2043989999999951
21
-92.5988929999999897
0
ARC
8
BLACK
10
230.860149999999976
20
-79.3039899999999989
40
0.5000009173531584
50
-259.99980668
51
-170.00014523
0
ARC
8
BLACK
10
233.1175759999999855
20
-92.1064879999999988
40
0.5000009173531584
50
-169.99980668
51
-80.00014523
0
ARC
8
BLACK
10
243.6626489999999876
20
-77.0465619999999944
40
0.499999121384228
50
9.99998752
51
100.00000742
0
ARC
8
BLACK
10
245.9171269999999936
20
-89.8484660000000019
40
0.5000364253581933
50
-79.99585051
51
10.00181345
0
LINE
8
BLACK
6
CONTINUOUS
10
95.8924569999999932
20
-77.5035110000000032
11
98.1498830000000027
21
-64.7010099999999966
0
LINE
8
BLACK
6
CONTINUOUS
10
98.729110999999989
20
-64.2954309999999936
11
111.5316119999999955
21
-66.552857000000003
0
LINE
8
BLACK
6
CONTINUOUS
10
109.1005369999999886
20
-80.3401649999999989
11
96.2980359999999962
21
-78.0827389999999895
0
LINE
8
BLACK
6
CONTINUOUS
10
111.9371909999999986
20
-67.1320850000000036
11
109.6797649999999891
21
-79.9345859999999959
0
ARC
8
BLACK
10
96.3848619999999983
20
-77.5903339999999986
40
0.5000014382989313
50
-189.99985477
51
-100.00019332
0
ARC
8
BLACK
10
98.6422879999999935
20
-64.7878359999999986
40
0.5000014382989313
50
80.00014523
51
169.99980668
0
ARC
8
BLACK
10
109.184794999999994
20
-79.8461920000000021
40
0.5000359662954256
50
-99.99589804
51
-9.99821584
0
ARC
8
BLACK
10
111.4447879999999884
20
-67.0452609999999964
40
0.5000001061919888
50
-10.00000742
51
80.00001248
0
LINE
8
BLACK
6
CONTINUOUS
10
61.679278999999994
20
-52.1269279999999995
11
63.9367049999999963
21
-39.324427
0
LINE
8
BLACK
6
CONTINUOUS
10
64.515933000000004
20
-38.918847999999997
11
77.3184339999999963
21
-41.1762739999999994
0
LINE
8
BLACK
6
CONTINUOUS
10
74.8873590000000036
20
-54.9635819999999953
11
62.084857999999997
21
-52.706156
0
LINE
8
BLACK
6
CONTINUOUS
10
77.7240129999999994
20
-41.7555019999999999
11
75.4665869999999899
21
-54.5580029999999994
0
ARC
8
BLACK
10
62.1716839999999991
20
-52.2137509999999949
40
0.5000014382989313
50
-189.99985477
51
-100.00019332
0
ARC
8
BLACK
10
64.4291099999999943
20
-39.411252999999995
40
0.5000014382989313
50
80.00014523
51
169.99980668
0
ARC
8
BLACK
10
74.9716169999999948
20
-54.4696089999999984
40
0.5000359662954256
50
-99.99589804
51
-9.99821584
0
ARC
8
BLACK
10
77.2316100000000034
20
-41.6686779999999999
40
0.5000001061919888
50
-10.00000742
51
80.00001248
0
LINE
8
BLACK
6
CONTINUOUS
10
81.2668659999999932
20
-50.7447790000000012
11
83.5242920000000026
21
-37.9422780000000017
0
LINE
8
BLACK
6
CONTINUOUS
10
84.1035200000000032
20
-37.5366989999999987
11
96.9060209999999955
21
-39.7941250000000011
0
LINE
8
BLACK
6
CONTINUOUS
10
94.4749460000000028
20
-53.581432999999997
11
81.6724449999999962
21
-51.3240069999999946
0
LINE
8
BLACK
6
CONTINUOUS
10
97.3115999999999985
20
-40.3733530000000016
11
95.0541739999999891
21
-53.1758540000000011
0
ARC
8
BLACK
10
81.7592709999999983
20
-50.8316019999999966
40
0.5000014382989313
50
-189.99985477
51
-100.00019332
0
ARC
8
BLACK
10
84.0166969999999935
20
-38.0291039999999967
40
0.5000014382989313
50
80.00014523
51
169.99980668
0
ARC
8
BLACK
10
94.559203999999994
20
-53.0874600000000001
40
0.5000359662954256
50
-99.99589804
51
-9.99821584
0
ARC
8
BLACK
10
96.8191970000000026
20
-40.2865290000000016
40
0.5000001061919888
50
-10.00000742
51
80.00001248
0
LINE
8
BLACK
6
CONTINUOUS
10
250.3610709999999813
20
-80.1946420000000018
11
263.1635719999999878
21
-77.9372159999999923
0
LINE
8
BLACK
6
CONTINUOUS
10
252.2129180000000019
20
-93.5763709999999946
11
249.9554919999999925
21
-80.7738700000000023
0
LINE
8
BLACK
6
CONTINUOUS
10
263.7427999999999884
20
-78.3427949999999953
11
266.0002259999999978
21
-91.1452960000000019
0
LINE
8
BLACK
6
CONTINUOUS
10
265.594647000000009
20
-91.7245240000000024
11
252.7921460000000025
21
-93.9819499999999977
0
ARC
8
BLACK
10
250.4478969999999833
20
-80.6870469999999926
40
0.5000009173531584
50
-259.99980668
51
-170.00014523
0
ARC
8
BLACK
10
252.7053229999999928
20
-93.4895449999999926
40
0.5000009173531584
50
-169.99980668
51
-80.00014523
0
ARC
8
BLACK
10
263.2503959999999665
20
-78.4296190000000024
40
0.499999121384228
50
9.99998752
51
100.00000742
0
ARC
8
BLACK
10
265.5048739999999725
20
-91.2315229999999957
40
0.5000364253581933
50
-79.99585051
51
10.00181345
0
LINE
8
BLACK
6
CONTINUOUS
10
186.6361149999999895
20
-47.9061899999999952
11
199.4386159999999961
21
-45.6487639999999999
0
LINE
8
BLACK
6
CONTINUOUS
10
188.4879619999999818
20
-61.2879189999999952
11
186.2305360000000007
21
-48.4854179999999957
0
LINE
8
BLACK
6
CONTINUOUS
10
200.0178439999999966
20
-46.0543429999999958
11
202.2752699999999777
21
-58.8568439999999953
0
LINE
8
BLACK
6
CONTINUOUS
10
201.8696909999999889
20
-59.4360719999999958
11
189.0671899999999823
21
-61.6934979999999982
0
ARC
8
BLACK
10
186.7229409999999916
20
-48.3985950000000003
40
0.5000009173531584
50
-259.99980668
51
-170.00014523
0
ARC
8
BLACK
10
188.9803670000000011
20
-61.2010930000000002
40
0.5000009173531584
50
-169.99980668
51
-80.00014523
0
ARC
8
BLACK
10
199.5254400000000032
20
-46.1411669999999958
40
0.499999121384228
50
9.99998752
51
100.00000742
0
ARC
8
BLACK
10
201.7799179999999808
20
-58.9430709999999962
40
0.5000364253581933
50
-79.99585051
51
10.00181345
0
LINE
8
BLACK
6
CONTINUOUS
10
55.0632839999999959
20
-89.6481029999999919
11
57.3207099999999983
21
-76.8456019999999995
0
LINE
8
BLACK
6
CONTINUOUS
10
57.8999379999999988
20
-76.4400229999999965
11
70.7024389999999983
21
-78.6974489999999918
0
LINE
8
BLACK
6
CONTINUOUS
10
68.2713639999999913
20
-92.4847570000000019
11
55.4688629999999989
21
-90.2273309999999924
0
LINE
8
BLACK
6
CONTINUOUS
10
71.1080180000000013
20
-79.2766769999999923
11
68.8505919999999918
21
-92.0791779999999989
0
ARC
8
BLACK
10
55.555689000000001
20
-89.7349260000000015
40
0.5000014382989313
50
-189.99985477
51
-100.00019332
0
ARC
8
BLACK
10
57.8131149999999963
20
-76.9324280000000016
40
0.5000014382989313
50
80.00014523
51
169.99980668
0
ARC
8
BLACK
10
68.3556219999999968
20
-91.9907839999999908
40
0.5000359662954256
50
-99.99589804
51
-9.99821584
0
ARC
8
BLACK
10
70.6156149999999911
20
-79.1898529999999994
40
0.5000001061919888
50
-10.00000742
51
80.00001248
0
LINE
8
BLACK
6
CONTINUOUS
10
214.9057969999999784
20
-98.5269459999999953
11
227.708297999999985
21
-96.26952
0
LINE
8
BLACK
6
CONTINUOUS
10
216.7576439999999991
20
-111.9086749999999881
11
214.5002179999999896
21
-99.1061739999999958
0
LINE
8
BLACK
6
CONTINUOUS
10
228.2875259999999855
20
-96.6750989999999888
11
230.544951999999995
21
-109.4775999999999954
0
LINE
8
BLACK
6
CONTINUOUS
10
230.1393729999999778
20
-110.0568279999999959
11
217.3368719999999996
21
-112.3142539999999912
0
ARC
8
BLACK
10
214.9926229999999805
20
-99.0193510000000003
40
0.5000009173531584
50
-259.99980668
51
-170.00014523
0
ARC
8
BLACK
10
217.25004899999999
20
-111.8218490000000003
40
0.5000009173531584
50
-169.99980668
51
-80.00014523
0
ARC
8
BLACK
10
227.7951219999999921
20
-96.7619229999999959
40
0.499999121384228
50
9.99998752
51
100.00000742
0
ARC
8
BLACK
10
230.0495999999999981
20
-109.5638269999999892
40
0.5000364253581933
50
-79.99585051
51
10.00181345
0
LINE
8
BLACK
6
CONTINUOUS
10
168.8327270000000055
20
-111.4950229999999891
11
181.6352279999999837
21
-109.2375969999999938
0
LINE
8
BLACK
6
CONTINUOUS
10
170.6845739999999978
20
-124.8767519999999962
11
168.4271479999999883
21
-112.0742509999999896
0
LINE
8
BLACK
6
CONTINUOUS
10
182.2144559999999842
20
-109.6431759999999969
11
184.4718819999999937
21
-122.4456769999999892
0
LINE
8
BLACK
6
CONTINUOUS
10
184.0663030000000049
20
-123.0249049999999897
11
171.2638019999999983
21
-125.2823309999999992
0
ARC
8
BLACK
10
168.9224999999999852
20
-111.9880239999999958
40
0.5000364253581933
50
-259.99585051
51
-169.99818655
0
ARC
8
BLACK
10
171.1769779999999912
20
-124.7899279999999891
40
0.499999121384228
50
-170.00001248
51
-79.99999258
0
ARC
8
BLACK
10
181.7220509999999933
20
-109.7300019999999989
40
0.5000009173531584
50
10.00019332
51
99.99985477
0
ARC
8
BLACK
10
183.9794770000000028
20
-122.5324999999999989
40
0.5000009173531584
50
-79.99980668
51
9.99985477
0
LINE
8
BLACK
6
CONTINUOUS
10
70.9293729999999982
20
-109.3716139999999939
11
73.1867989999999935
21
-96.5691130000000015
0
LINE
8
BLACK
6
CONTINUOUS
10
73.766026999999994
20
-96.1635339999999985
11
86.5685280000000006
21
-98.4209599999999938
0
LINE
8
BLACK
6
CONTINUOUS
10
84.1374529999999936
20
-112.2082679999999897
11
71.3349520000000012
21
-109.9508419999999944
0
LINE
8
BLACK
6
CONTINUOUS
10
86.9741069999999894
20
-99.0001879999999943
11
84.7166809999999941
21
-111.8026890000000009
0
ARC
8
BLACK
10
71.4217780000000033
20
-109.4584369999999893
40
0.5000014382989313
50
-189.99985477
51
-100.00019332
0
ARC
8
BLACK
10
73.6792039999999986
20
-96.6559389999999894
40
0.5000014382989313
50
80.00014523
51
169.99980668
0
ARC
8
BLACK
10
84.2217109999999991
20
-111.7142949999999928
40
0.5000359662954256
50
-99.99589804
51
-9.99821584
0
ARC
8
BLACK
10
86.4817039999999935
20
-98.9133640000000014
40
0.5000001061919888
50
-10.00000742
51
80.00001248
0
LINE
8
BLACK
6
CONTINUOUS
10
35.4756959999999992
20
-91.0302519999999902
11
37.7331220000000016
21
-78.2277509999999978
0
LINE
8
BLACK
6
CONTINUOUS
10
38.312349999999995
20
-77.8221719999999948
11
51.1148509999999945
21
-80.0795979999999901
0
LINE
8
BLACK
6
CONTINUOUS
10
48.6837759999999946
20
-93.8669060000000002
11
35.8812749999999951
21
-91.6094799999999907
0
LINE
8
BLACK
6
CONTINUOUS
10
51.5204299999999975
20
-80.6588259999999906
11
49.2630039999999951
21
-93.4613269999999972
0
ARC
8
BLACK
10
35.9681009999999972
20
-91.1170749999999998
40
0.5000014382989313
50
-189.99985477
51
-100.00019332
0
ARC
8
BLACK
10
38.2255269999999996
20
-78.3145769999999999
40
0.5000014382989313
50
80.00014523
51
169.99980668
0
ARC
8
BLACK
10
48.7680340000000001
20
-93.3729329999999891
40
0.5000359662954256
50
-99.99589804
51
-9.99821584
0
ARC
8
BLACK
10
51.0280269999999945
20
-80.5720019999999977
40
0.5000001061919888
50
-10.00000742
51
80.00001248
0
LINE
8
BLACK
6
CONTINUOUS
10
243.7448779999999999
20
-42.6723439999999954
11
256.5473789999999781
21
-40.4149180000000001
0
LINE
8
BLACK
6
CONTINUOUS
10
245.5967249999999922
20
-56.0540729999999954
11
243.3392989999999827
21
-43.2515719999999959
0
LINE
8
BLACK
6
CONTINUOUS
10
257.1266069999999786
20
-40.820496999999996
11
259.3840329999999881
21
-53.6229979999999955
0
LINE
8
BLACK
6
CONTINUOUS
10
258.9784539999999993
20
-54.202225999999996
11
246.1759529999999927
21
-56.4596519999999984
0
ARC
8
BLACK
10
243.831704000000002
20
-43.1647490000000005
40
0.5000009173531584
50
-259.99980668
51
-170.00014523
0
ARC
8
BLACK
10
246.0891299999999831
20
-55.9672470000000004
40
0.5000009173531584
50
-169.99980668
51
-80.00014523
0
ARC
8
BLACK
10
256.6342030000000136
20
-40.907320999999996
40
0.499999121384228
50
9.99998752
51
100.00000742
0
ARC
8
BLACK
10
258.8886809999999628
20
-53.7092249999999964
40
0.5000364253581933
50
-79.99585051
51
10.00181345
0
LINE
8
BLACK
6
CONTINUOUS
10
117.007593
20
-122.3347649999999902
11
119.2650189999999952
21
-109.5322639999999978
0
LINE
8
BLACK
6
CONTINUOUS
10
119.8442469999999958
20
-109.1266849999999948
11
132.6467480000000023
21
-111.3841109999999901
0
LINE
8
BLACK
6
CONTINUOUS
10
130.2156729999999811
20
-125.1714190000000002
11
117.4131719999999888
21
-122.9139929999999907
0
LINE
8
BLACK
6
CONTINUOUS
10
133.0523269999999911
20
-111.9633389999999906
11
130.7949009999999817
21
-124.7658399999999972
0
ARC
8
BLACK
10
117.4999959999999959
20
-122.4215889999999973
40
0.5000001061919888
50
-190.00000742
51
-99.99998752
0
ARC
8
BLACK
10
119.7599889999999903
20
-109.6206579999999917
40
0.5000359662954256
50
80.00410196
51
170.00178416
0
ARC
8
BLACK
10
130.3024959999999908
20
-124.6790139999999951
40
0.5000014382989313
50
-99.99985477
51
-10.00019332
0
ARC
8
BLACK
10
132.5599220000000003
20
-111.8765159999999952
40
0.5000014382989313
50
-9.99985477
51
79.99980668
0
LINE
8
BLACK
6
CONTINUOUS
10
99.2004539999999935
20
-58.7429229999999976
11
101.4578799999999887
21
-45.9404219999999981
0
LINE
8
BLACK
6
CONTINUOUS
10
102.0371079999999893
20
-45.5348429999999951
11
114.8396089999999958
21
-47.7922689999999974
0
LINE
8
BLACK
6
CONTINUOUS
10
112.4085339999999889
20
-61.5795770000000005
11
99.6060329999999965
21
-59.3221509999999981
0
LINE
8
BLACK
6
CONTINUOUS
10
115.2451879999999989
20
-48.371496999999998
11
112.9877619999999894
21
-61.1739979999999974
0
ARC
8
BLACK
10
99.6928589999999986
20
-58.8297460000000001
40
0.5000014382989313
50
-189.99985477
51
-100.00019332
0
ARC
8
BLACK
10
101.9502849999999938
20
-46.0272480000000002
40
0.5000014382989313
50
80.00014523
51
169.99980668
0
ARC
8
BLACK
10
112.4927919999999943
20
-61.0856039999999965
40
0.5000359662954256
50
-99.99589804
51
-9.99821584
0
ARC
8
BLACK
10
114.7527849999999887
20
-48.284672999999998
40
0.5000001061919888
50
-10.00000742
51
80.00001248
0
LINE
8
BLACK
6
CONTINUOUS
10
88.8629609999999985
20
-117.3697599999999994
11
91.1203869999999938
21
-104.5672589999999929
0
LINE
8
BLACK
6
CONTINUOUS
10
91.6996149999999943
20
-104.1616799999999898
11
104.5021160000000009
21
-106.4191059999999993
0
LINE
8
BLACK
6
CONTINUOUS
10
102.0710409999999939
20
-120.2064139999999952
11
89.2685400000000016
21
-117.9489879999999999
0
LINE
8
BLACK
6
CONTINUOUS
10
104.9076949999999897
20
-106.9983339999999998
11
102.6502689999999944
21
-119.8008349999999922
0
ARC
8
BLACK
10
89.3553659999999894
20
-117.4565829999999949
40
0.5000014382989313
50
-189.99985477
51
-100.00019332
0
ARC
8
BLACK
10
91.6127919999999989
20
-104.6540849999999949
40
0.5000014382989313
50
80.00014523
51
169.99980668
0
ARC
8
BLACK
10
102.1552989999999994
20
-119.7124409999999983
40
0.5000359662954256
50
-99.99589804
51
-9.99821584
0
ARC
8
BLACK
10
104.4152919999999938
20
-106.9115099999999927
40
0.5000001061919888
50
-10.00000742
51
80.00001248
0
LINE
8
BLACK
6
CONTINUOUS
10
77.9588689999999929
20
-69.5053649999999976
11
80.2162950000000023
21
-56.7028639999999982
0
LINE
8
BLACK
6
CONTINUOUS
10
80.7955230000000029
20
-56.2972849999999951
11
93.5980239999999952
21
-58.5547109999999975
0
LINE
8
BLACK
6
CONTINUOUS
10
91.1669490000000025
20
-72.3420189999999934
11
78.3644479999999959
21
-70.0845929999999981
0
LINE
8
BLACK
6
CONTINUOUS
10
94.0036029999999982
20
-59.133938999999998
11
91.7461769999999888
21
-71.9364399999999904
0
ARC
8
BLACK
10
78.451273999999998
20
-69.5921879999999931
40
0.5000014382989313
50
-189.99985477
51
-100.00019332
0
ARC
8
BLACK
10
80.7086999999999932
20
-56.7896900000000002
40
0.5000014382989313
50
80.00014523
51
169.99980668
0
ARC
8
BLACK
10
91.2512069999999937
20
-71.8480459999999965
40
0.5000359662954256
50
-99.99589804
51
-9.99821584
0
ARC
8
BLACK
10
93.5112000000000023
20
-59.047114999999998
40
0.5000001061919888
50
-10.00000742
51
80.00001248
0
LINE
8
BLACK
6
CONTINUOUS
10
178.2130209999999977
20
-109.8410239999999902
11
191.0155220000000043
21
-107.583597999999995
0
LINE
8
BLACK
6
CONTINUOUS
10
180.0648679999999899
20
-123.2227529999999973
11
177.8074419999999805
21
-110.4202519999999907
0
LINE
8
BLACK
6
CONTINUOUS
10
191.5947500000000048
20
-107.989176999999998
11
193.8521759999999858
21
-120.7916779999999903
0
LINE
8
BLACK
6
CONTINUOUS
10
193.446596999999997
20
-121.3709059999999909
11
180.6440959999999905
21
-123.6283320000000003
0
ARC
8
BLACK
10
178.2998469999999998
20
-110.3334289999999953
40
0.5000009173531584
50
-259.99980668
51
-170.00014523
0
ARC
8
BLACK
10
180.5572729999999808
20
-123.1359269999999952
40
0.5000009173531584
50
-169.99980668
51
-80.00014523
0
ARC
8
BLACK
10
191.102345999999983
20
-108.0760009999999909
40
0.499999121384228
50
9.99998752
51
100.00000742
0
ARC
8
BLACK
10
193.3568239999999889
20
-120.8779049999999984
40
0.5000364253581933
50
-79.99585051
51
10.00181345
0
LINE
8
BLACK
6
CONTINUOUS
10
171.183525000000003
20
-69.9747759999999914
11
183.9860259999999812
21
-67.7173499999999962
0
LINE
8
BLACK
6
CONTINUOUS
10
173.0353719999999953
20
-83.3565049999999985
11
170.7779459999999858
21
-70.5540039999999919
0
LINE
8
BLACK
6
CONTINUOUS
10
184.5652539999999817
20
-68.1229289999999992
11
186.8226799999999912
21
-80.9254299999999915
0
LINE
8
BLACK
6
CONTINUOUS
10
186.4171010000000024
20
-81.5046579999999921
11
173.6145999999999958
21
-83.7620840000000015
0
ARC
8
BLACK
10
171.2703510000000051
20
-70.4671809999999965
40
0.5000009173531584
50
-259.99980668
51
-170.00014523
0
ARC
8
BLACK
10
173.5277769999999862
20
-83.2696789999999964
40
0.5000009173531584
50
-169.99980668
51
-80.00014523
0
ARC
8
BLACK
10
184.0728499999999883
20
-68.2097529999999921
40
0.499999121384228
50
9.99998752
51
100.00000742
0
ARC
8
BLACK
10
186.3273279999999943
20
-81.0116569999999996
40
0.5000364253581933
50
-79.99585051
51
10.00181345
0
LINE
8
BLACK
6
CONTINUOUS
10
42.0903599999999969
20
-53.5166299999999993
11
44.3477859999999993
21
-40.7141289999999998
0
LINE
8
BLACK
6
CONTINUOUS
10
44.9270139999999998
20
-40.3085499999999968
11
57.7295149999999992
21
-42.5659759999999991
0
LINE
8
BLACK
6
CONTINUOUS
10
55.2984399999999994
20
-56.353283999999995
11
42.4959389999999999
21
-54.0958579999999998
0
LINE
8
BLACK
6
CONTINUOUS
10
58.1350939999999952
20
-43.1452039999999997
11
55.8776679999999999
21
-55.9477049999999991
0
ARC
8
BLACK
10
42.5827649999999949
20
-53.6034529999999947
40
0.5000014382989313
50
-189.99985477
51
-100.00019332
0
ARC
8
BLACK
10
44.8401909999999972
20
-40.8009549999999948
40
0.5000014382989313
50
80.00014523
51
169.99980668
0
ARC
8
BLACK
10
55.3826979999999978
20
-55.8593109999999982
40
0.5000359662954256
50
-99.99589804
51
-9.99821584
0
ARC
8
BLACK
10
57.6426909999999992
20
-43.0583799999999997
40
0.5000001061919888
50
-10.00000742
51
80.00001248
0
LINE
8
BLACK
6
CONTINUOUS
10
207.8777010000000018
20
-58.6686329999999998
11
220.68020199999998
21
-56.4112069999999974
0
LINE
8
BLACK
6
CONTINUOUS
10
209.7295479999999941
20
-72.0503619999999927
11
207.4721219999999846
21
-59.2478610000000003
0
LINE
8
BLACK
6
CONTINUOUS
10
221.2594299999999805
20
-56.8167860000000005
11
223.51685599999999
21
-69.6192869999999999
0
LINE
8
BLACK
6
CONTINUOUS
10
223.1112770000000012
20
-70.1985150000000004
11
210.3087759999999946
21
-72.4559409999999957
0
ARC
8
BLACK
10
207.9645270000000039
20
-59.1610379999999978
40
0.5000009173531584
50
-259.99980668
51
-170.00014523
0
ARC
8
BLACK
10
210.221952999999985
20
-71.9635359999999906
40
0.5000009173531584
50
-169.99980668
51
-80.00014523
0
ARC
8
BLACK
10
220.7670259999999871
20
-56.9036100000000005
40
0.499999121384228
50
9.99998752
51
100.00000742
0
ARC
8
BLACK
10
223.0215039999999931
20
-69.7055139999999938
40
0.5000364253581933
50
-79.99585051
51
10.00181345
0
LINE
8
BLACK
6
CONTINUOUS
10
193.2521109999999851
20
-85.4273649999999947
11
206.0546119999999917
21
-83.1699389999999994
0
LINE
8
BLACK
6
CONTINUOUS
10
195.1039579999999773
20
-98.8090940000000018
11
192.8465319999999963
21
-86.0065929999999952
0
LINE
8
BLACK
6
CONTINUOUS
10
206.6338399999999922
20
-83.5755180000000024
11
208.8912660000000017
21
-96.3780189999999948
0
LINE
8
BLACK
6
CONTINUOUS
10
208.4856869999999844
20
-96.9572469999999953
11
195.6831859999999779
21
-99.2146729999999906
0
ARC
8
BLACK
10
193.3389369999999872
20
-85.9197699999999998
40
0.5000009173531584
50
-259.99980668
51
-170.00014523
0
ARC
8
BLACK
10
195.5963629999999966
20
-98.7222679999999997
40
0.5000009173531584
50
-169.99980668
51
-80.00014523
0
ARC
8
BLACK
10
206.1414359999999988
20
-83.6623419999999953
40
0.499999121384228
50
9.99998752
51
100.00000742
0
ARC
8
BLACK
10
208.3959140000000048
20
-96.4642459999999886
40
0.5000364253581933
50
-79.99585051
51
10.00181345
  0
ENDSEC
  0
EOF
