%TF.GenerationSoftware,KiCad,Pcbnew,8.0.8*%
%TF.CreationDate,2025-05-06T21:02:24+02:00*%
%TF.ProjectId,Le Chisoffre,4c652043-6869-4736-9f66-6672652e6b69,rev?*%
%TF.SameCoordinates,Original*%
%TF.FileFunction,Soldermask,Bot*%
%TF.FilePolarity,Negative*%
%FSLAX46Y46*%
G04 Gerber Fmt 4.6, Leading zero omitted, Abs format (unit mm)*
G04 Created by KiCad (PCBNEW 8.0.8) date 2025-05-06 21:02:24*
%MOMM*%
%LPD*%
G01*
G04 APERTURE LIST*
G04 Aperture macros list*
%AMRoundRect*
0 Rectangle with rounded corners*
0 $1 Rounding radius*
0 $2 $3 $4 $5 $6 $7 $8 $9 X,Y pos of 4 corners*
0 Add a 4 corners polygon primitive as box body*
4,1,4,$2,$3,$4,$5,$6,$7,$8,$9,$2,$3,0*
0 Add four circle primitives for the rounded corners*
1,1,$1+$1,$2,$3*
1,1,$1+$1,$4,$5*
1,1,$1+$1,$6,$7*
1,1,$1+$1,$8,$9*
0 Add four rect primitives between the rounded corners*
20,1,$1+$1,$2,$3,$4,$5,0*
20,1,$1+$1,$4,$5,$6,$7,0*
20,1,$1+$1,$6,$7,$8,$9,0*
20,1,$1+$1,$8,$9,$2,$3,0*%
G04 Aperture macros list end*
%ADD10C,2.000000*%
%ADD11C,1.750000*%
%ADD12C,3.987800*%
%ADD13C,2.300000*%
%ADD14C,2.000000*%
%ADD15RoundRect,0.500000X0.500000X0.500000X-0.500000X0.500000X-0.500000X-0.500000X0.500000X-0.500000X0*%
%ADD16C,4.000000*%
%ADD17C,3.200000*%
%ADD18RoundRect,0.250000X0.347537X-0.243348X0.243348X0.347537X-0.347537X0.243348X-0.243348X-0.347537X0*%
%ADD19RoundRect,0.140000X0.170000X-0.140000X0.170000X0.140000X-0.170000X0.140000X-0.170000X-0.140000X0*%
%ADD20RoundRect,0.250000X0.243348X-0.347537X0.347537X0.243348X-0.243348X0.347537X-0.347537X-0.243348X0*%
%ADD21RoundRect,0.200000X-0.275000X0.200000X-0.275000X-0.200000X0.275000X-0.200000X0.275000X0.200000X0*%
%ADD22RoundRect,0.250000X0.300000X-0.300000X0.300000X0.300000X-0.300000X0.300000X-0.300000X-0.300000X0*%
%ADD23R,0.900000X0.300000*%
%ADD24R,0.250000X1.650000*%
%ADD25C,0.650000*%
%ADD26R,0.600000X1.450000*%
%ADD27R,0.300000X1.450000*%
%ADD28O,1.000000X1.600000*%
%ADD29O,1.000000X2.100000*%
%ADD30RoundRect,0.250000X-0.625000X0.375000X-0.625000X-0.375000X0.625000X-0.375000X0.625000X0.375000X0*%
%ADD31RoundRect,0.140000X-0.140000X-0.170000X0.140000X-0.170000X0.140000X0.170000X-0.140000X0.170000X0*%
%ADD32RoundRect,0.135000X0.135000X0.185000X-0.135000X0.185000X-0.135000X-0.185000X0.135000X-0.185000X0*%
%ADD33RoundRect,0.150000X0.150000X-0.450000X0.150000X0.450000X-0.150000X0.450000X-0.150000X-0.450000X0*%
%ADD34RoundRect,0.140000X0.140000X0.170000X-0.140000X0.170000X-0.140000X-0.170000X0.140000X-0.170000X0*%
%ADD35RoundRect,0.050000X0.387500X0.050000X-0.387500X0.050000X-0.387500X-0.050000X0.387500X-0.050000X0*%
%ADD36RoundRect,0.050000X0.050000X0.387500X-0.050000X0.387500X-0.050000X-0.387500X0.050000X-0.387500X0*%
%ADD37RoundRect,0.144000X1.456000X1.456000X-1.456000X1.456000X-1.456000X-1.456000X1.456000X-1.456000X0*%
%ADD38R,1.700000X1.000000*%
%ADD39RoundRect,0.135000X-0.185000X0.135000X-0.185000X-0.135000X0.185000X-0.135000X0.185000X0.135000X0*%
%ADD40RoundRect,0.150000X0.150000X-0.512500X0.150000X0.512500X-0.150000X0.512500X-0.150000X-0.512500X0*%
%ADD41RoundRect,0.135000X0.185000X-0.135000X0.185000X0.135000X-0.185000X0.135000X-0.185000X-0.135000X0*%
%ADD42R,1.400000X1.200000*%
%ADD43RoundRect,0.150000X0.150000X-0.587500X0.150000X0.587500X-0.150000X0.587500X-0.150000X-0.587500X0*%
%ADD44RoundRect,0.140000X-0.170000X0.140000X-0.170000X-0.140000X0.170000X-0.140000X0.170000X0.140000X0*%
%ADD45R,0.300000X1.600000*%
%ADD46R,1.800000X2.200000*%
%ADD47R,1.700000X1.700000*%
%ADD48O,1.700000X1.700000*%
%ADD49RoundRect,0.135000X-0.135000X-0.185000X0.135000X-0.185000X0.135000X0.185000X-0.135000X0.185000X0*%
%ADD50R,1.200000X1.200000*%
%ADD51C,1.200000*%
G04 APERTURE END LIST*
D10*
X144904355Y-32179278D02*
X82550000Y-32543750D01*
X149225000Y-134937500D02*
X152400000Y-134937500D01*
X85725000Y-123825000D02*
X149225000Y-134937500D01*
X32543750Y-95250000D02*
X85725000Y-123825000D01*
X42862500Y-35718750D02*
X32543297Y-95249922D01*
X82550000Y-32543750D02*
X42862500Y-35718750D01*
X219075000Y-31750000D02*
X156684663Y-32117373D01*
X258762500Y-35718750D02*
X219075000Y-31750000D01*
X269081250Y-94456250D02*
X258762500Y-35718750D01*
X215900000Y-123031250D02*
X269081250Y-94456250D01*
X152400000Y-134937500D02*
X215900000Y-123031250D01*
D11*
%TO.C,MX17*%
X192178612Y-73706304D03*
D12*
X197181435Y-72824171D03*
D11*
X202184258Y-71942038D03*
D13*
X192988251Y-70984359D03*
X198800714Y-67380281D03*
%TD*%
D11*
%TO.C,MX28*%
X213089398Y-82592687D03*
D12*
X218092221Y-81710554D03*
D11*
X223095044Y-80828421D03*
D13*
X213899037Y-79870742D03*
X219711500Y-76266664D03*
%TD*%
D11*
%TO.C,MX25*%
X114931578Y-94964223D03*
D12*
X119934401Y-95846356D03*
D11*
X124937224Y-96728489D03*
D13*
X116623350Y-92683345D03*
X123317945Y-91284599D03*
%TD*%
D11*
%TO.C,MX20*%
X249287374Y-68472457D03*
D12*
X254290197Y-67590324D03*
D11*
X259293020Y-66708191D03*
D13*
X250097013Y-65750512D03*
X255909476Y-62146434D03*
%TD*%
D11*
%TO.C,MX35*%
X199241187Y-113760158D03*
D12*
X204244010Y-112878025D03*
D11*
X209246833Y-111995892D03*
D13*
X200050826Y-111038213D03*
X205863289Y-107434135D03*
%TD*%
D11*
%TO.C,MX9*%
X226391789Y-48329720D03*
D12*
X231394612Y-47447587D03*
D11*
X236397435Y-46565454D03*
D13*
X227201428Y-45607775D03*
X233013891Y-42003697D03*
%TD*%
D14*
%TO.C,SW2*%
X158612500Y-91400000D03*
X158612500Y-86400000D03*
D15*
X158612500Y-88900000D03*
D14*
X143412500Y-86400000D03*
X143412500Y-91400000D03*
%TD*%
D11*
%TO.C,MX8*%
X206473403Y-45071512D03*
D12*
X211476226Y-44189379D03*
D11*
X216479049Y-43307246D03*
D13*
X207283042Y-42349567D03*
X213095505Y-38745489D03*
%TD*%
D11*
%TO.C,MX24*%
X96170990Y-91656225D03*
D12*
X101173813Y-92538358D03*
D11*
X106176636Y-93420491D03*
D13*
X97862762Y-89375347D03*
X104557357Y-87976601D03*
%TD*%
D11*
%TO.C,MX39*%
X161297358Y-118012792D03*
D12*
X166300181Y-117130659D03*
D11*
X171303004Y-116248526D03*
D13*
X162106997Y-115290847D03*
X167919460Y-111686769D03*
%TD*%
D11*
%TO.C,MX11*%
X42370225Y-67661791D03*
D12*
X47373048Y-68543924D03*
D11*
X52375871Y-69426057D03*
D13*
X44061997Y-65380913D03*
X50756592Y-63982167D03*
%TD*%
D11*
%TO.C,MX15*%
X118239576Y-76203635D03*
D12*
X123242399Y-77085768D03*
D11*
X128245222Y-77967901D03*
D13*
X119931348Y-73922757D03*
X126625943Y-72524011D03*
%TD*%
D11*
%TO.C,MX26*%
X176759102Y-95962495D03*
D12*
X181761925Y-95080362D03*
D11*
X186764748Y-94198229D03*
D13*
X177568741Y-93240550D03*
X183381204Y-89636472D03*
%TD*%
D11*
%TO.C,MX19*%
X229699787Y-67090308D03*
D12*
X234702610Y-66208175D03*
D11*
X239705433Y-65326042D03*
D13*
X230509426Y-64368363D03*
X236321889Y-60764285D03*
%TD*%
D11*
%TO.C,MX38*%
X140371298Y-118833195D03*
D12*
X135368475Y-117951062D03*
D11*
X130365652Y-117068929D03*
D13*
X138679526Y-121114073D03*
X131984931Y-122512819D03*
%TD*%
D11*
%TO.C,MX37*%
X111191565Y-116106005D03*
D12*
X116194388Y-116988138D03*
D11*
X121197211Y-117870271D03*
D13*
X112883337Y-113825127D03*
X119577932Y-112426381D03*
%TD*%
D11*
%TO.C,MX6*%
X170143106Y-58441320D03*
D12*
X175145929Y-57559187D03*
D11*
X180148752Y-56677054D03*
D13*
X170952745Y-55719375D03*
X176765208Y-52115297D03*
%TD*%
D11*
%TO.C,MX5*%
X121547573Y-57443048D03*
D12*
X126550396Y-58325181D03*
D11*
X131553219Y-59207314D03*
D13*
X123239345Y-55162170D03*
X129933940Y-53763424D03*
%TD*%
D11*
%TO.C,MX12*%
X61957812Y-66279642D03*
D12*
X66960635Y-67161775D03*
D11*
X71963458Y-68043908D03*
D13*
X63649584Y-63998764D03*
X70344179Y-62600018D03*
%TD*%
D11*
%TO.C,MX23*%
X78568202Y-81782022D03*
D12*
X83571025Y-82664155D03*
D11*
X88573848Y-83546288D03*
D13*
X80259974Y-79501144D03*
X86954569Y-78102398D03*
%TD*%
D11*
%TO.C,MX29*%
X233040865Y-86038502D03*
D12*
X238043688Y-85156369D03*
D11*
X243046511Y-84274236D03*
D13*
X233850504Y-83316557D03*
X239662967Y-79712479D03*
%TD*%
D11*
%TO.C,MX14*%
X99478988Y-72895638D03*
D12*
X104481811Y-73777771D03*
D11*
X109484634Y-74659904D03*
D13*
X101170760Y-70614760D03*
X107865355Y-69216014D03*
%TD*%
D16*
%TO.C,S2*%
X186611552Y-108905707D03*
X163160817Y-113040704D03*
D12*
X165807215Y-128049174D03*
X189257951Y-123914178D03*
%TD*%
D11*
%TO.C,MX2*%
X65265810Y-47519054D03*
D12*
X70268633Y-48401187D03*
D11*
X75271456Y-49283320D03*
D13*
X66957582Y-45238176D03*
X73652177Y-43839430D03*
%TD*%
D17*
%TO.C,H4*%
X166859205Y-105283250D03*
%TD*%
D11*
%TO.C,MX3*%
X85184197Y-44260847D03*
D12*
X90187020Y-45142980D03*
D11*
X95189843Y-46025113D03*
D13*
X86875969Y-41979969D03*
X93570564Y-40581223D03*
%TD*%
D11*
%TO.C,MX30*%
X252628452Y-87420651D03*
D12*
X257631275Y-86538518D03*
D11*
X262634098Y-85656385D03*
D13*
X253438091Y-84698706D03*
X259250554Y-81094628D03*
%TD*%
D11*
%TO.C,MX7*%
X188870614Y-54945716D03*
D12*
X193873437Y-54063583D03*
D11*
X198876260Y-53181450D03*
D13*
X189680253Y-52223771D03*
X195492716Y-48619693D03*
%TD*%
D11*
%TO.C,MX22*%
X58649815Y-85040230D03*
D12*
X63652638Y-85922363D03*
D11*
X68655461Y-86804496D03*
D13*
X60341587Y-82759352D03*
X67036182Y-81360606D03*
%TD*%
D11*
%TO.C,MX36*%
X216777816Y-103510743D03*
D12*
X221780639Y-102628610D03*
D11*
X226783462Y-101746477D03*
D13*
X217587455Y-100788798D03*
X223399918Y-97184720D03*
%TD*%
D11*
%TO.C,MX34*%
X171096294Y-118734221D03*
D12*
X176099117Y-117852088D03*
D11*
X181101940Y-116969955D03*
D13*
X171905933Y-116012276D03*
X177718396Y-112408198D03*
%TD*%
D17*
%TO.C,H3*%
X134853935Y-105290620D03*
%TD*%
D11*
%TO.C,MX31*%
X74846704Y-102887683D03*
D12*
X79849527Y-103769816D03*
D11*
X84852350Y-104651949D03*
D13*
X76538476Y-100606805D03*
X83233071Y-99208059D03*
%TD*%
D11*
%TO.C,MX21*%
X39062227Y-86422379D03*
D12*
X44065050Y-87304512D03*
D11*
X49067873Y-88186645D03*
D13*
X40753999Y-84141501D03*
X47448594Y-82742755D03*
%TD*%
D11*
%TO.C,MX10*%
X245979377Y-49711870D03*
D12*
X250982200Y-48829737D03*
D11*
X255985023Y-47947604D03*
D13*
X246789016Y-46989925D03*
X252601479Y-43385847D03*
%TD*%
D11*
%TO.C,MX33*%
X120580213Y-117738224D03*
D12*
X125583036Y-118620357D03*
D11*
X130585859Y-119502490D03*
D13*
X122271985Y-115457346D03*
X128966580Y-114058600D03*
%TD*%
D11*
%TO.C,MX4*%
X102786986Y-54135050D03*
D12*
X107789809Y-55017183D03*
D11*
X112792632Y-55899316D03*
D13*
X104478758Y-51854172D03*
X111173353Y-50455426D03*
%TD*%
D11*
%TO.C,MX32*%
X92449493Y-112761887D03*
D12*
X97452316Y-113644020D03*
D11*
X102455139Y-114526153D03*
D13*
X94141265Y-110481009D03*
X100835860Y-109082263D03*
%TD*%
D17*
%TO.C,H2*%
X166855645Y-73278740D03*
%TD*%
D16*
%TO.C,S1*%
X138521336Y-113808973D03*
X115070601Y-109673976D03*
D12*
X135874938Y-128817444D03*
X112424203Y-124682446D03*
%TD*%
D11*
%TO.C,MX13*%
X81876199Y-63021434D03*
D12*
X86879022Y-63903567D03*
D11*
X91881845Y-64785700D03*
D13*
X83567971Y-60740556D03*
X90262566Y-59341810D03*
%TD*%
D11*
%TO.C,MX40*%
X180471445Y-117049868D03*
D12*
X185474268Y-116167735D03*
D11*
X190477091Y-115285602D03*
D13*
X181281084Y-114327923D03*
X187093547Y-110723845D03*
%TD*%
D11*
%TO.C,MX16*%
X173451104Y-77201907D03*
D12*
X178453927Y-76319774D03*
D11*
X183456750Y-75437641D03*
D13*
X174260743Y-74479962D03*
X180073206Y-70875884D03*
%TD*%
D11*
%TO.C,MX1*%
X45678223Y-48901204D03*
D12*
X50681046Y-49783337D03*
D11*
X55683869Y-50665470D03*
D13*
X47369995Y-46620326D03*
X54064590Y-45221580D03*
%TD*%
D11*
%TO.C,MX18*%
X209781400Y-63832099D03*
D12*
X214784223Y-62949966D03*
D11*
X219787046Y-62067833D03*
D13*
X210591039Y-61110154D03*
X216403502Y-57506076D03*
%TD*%
D11*
%TO.C,MX27*%
X195519690Y-92654497D03*
D12*
X200522513Y-91772364D03*
D11*
X205525336Y-90890231D03*
D13*
X196329329Y-89932552D03*
X202141792Y-86328474D03*
%TD*%
D17*
%TO.C,H1*%
X134848345Y-73297790D03*
%TD*%
D18*
%TO.C,D28*%
X221737759Y-84101334D03*
X221251545Y-81343872D03*
%TD*%
%TO.C,D35*%
X207889548Y-115268805D03*
X207403334Y-112511343D03*
%TD*%
D19*
%TO.C,C15*%
X156368750Y-54141250D03*
X156368750Y-53181250D03*
%TD*%
D18*
%TO.C,D16*%
X182099465Y-78710554D03*
X181613251Y-75953092D03*
%TD*%
D20*
%TO.C,D32*%
X100060307Y-117137466D03*
X100546521Y-114380004D03*
%TD*%
D21*
%TO.C,R7*%
X150812500Y-48387500D03*
X150812500Y-50037500D03*
%TD*%
D18*
%TO.C,D40*%
X189119806Y-118558515D03*
X188633592Y-115801053D03*
%TD*%
%TO.C,D27*%
X204168051Y-94163144D03*
X203681837Y-91405682D03*
%TD*%
D20*
%TO.C,D25*%
X122542392Y-99339802D03*
X123028606Y-96582340D03*
%TD*%
D21*
%TO.C,R8*%
X149225000Y-48387500D03*
X149225000Y-50037500D03*
%TD*%
D20*
%TO.C,D2*%
X72876624Y-51894633D03*
X73362838Y-49137171D03*
%TD*%
%TO.C,D4*%
X110397800Y-58510629D03*
X110884014Y-55753167D03*
%TD*%
%TO.C,D11*%
X49981039Y-72037370D03*
X50467253Y-69279908D03*
%TD*%
D19*
%TO.C,C4*%
X147968732Y-52116199D03*
X147968732Y-51156199D03*
%TD*%
D22*
%TO.C,D41*%
X140493750Y-99825000D03*
X140493750Y-97025000D03*
%TD*%
D20*
%TO.C,D31*%
X82457518Y-107263262D03*
X82943732Y-104505800D03*
%TD*%
D23*
%TO.C,IC1*%
X158562500Y-48462500D03*
X158562500Y-48962500D03*
X158562500Y-49462500D03*
X158562500Y-49962500D03*
X155762500Y-49962500D03*
X155762500Y-49462500D03*
X155762500Y-48962500D03*
X155762500Y-48462500D03*
D24*
X157162500Y-49212500D03*
%TD*%
D18*
%TO.C,D10*%
X254627738Y-51220517D03*
X254141524Y-48463055D03*
%TD*%
%TO.C,D8*%
X215121764Y-46580159D03*
X214635550Y-43822697D03*
%TD*%
D25*
%TO.C,J1*%
X147922500Y-36655000D03*
X153702500Y-36655000D03*
D26*
X147562500Y-38100000D03*
X148362500Y-38100000D03*
D27*
X149562500Y-38100000D03*
X150562500Y-38100000D03*
X151062500Y-38100000D03*
X152062500Y-38100000D03*
D26*
X153262500Y-38100000D03*
X154062500Y-38100000D03*
X154062500Y-38100000D03*
X153262500Y-38100000D03*
D27*
X152562500Y-38100000D03*
X151562500Y-38100000D03*
X150062500Y-38100000D03*
X149062500Y-38100000D03*
D26*
X148362500Y-38100000D03*
X147562500Y-38100000D03*
D28*
X146492500Y-33005000D03*
D29*
X146492500Y-37185000D03*
D28*
X155132500Y-33005000D03*
D29*
X155132500Y-37185000D03*
%TD*%
D18*
%TO.C,D39*%
X169311857Y-122028731D03*
X168825643Y-119271269D03*
%TD*%
D30*
%TO.C,F1*%
X146050000Y-40668750D03*
X146050000Y-43468750D03*
%TD*%
D18*
%TO.C,D6*%
X178791467Y-59949967D03*
X178305253Y-57192505D03*
%TD*%
D31*
%TO.C,C16*%
X143982500Y-45143750D03*
X144942500Y-45143750D03*
%TD*%
D32*
%TO.C,R10*%
X143385000Y-83543750D03*
X142365000Y-83543750D03*
%TD*%
D18*
%TO.C,D18*%
X218429761Y-65340746D03*
X217943547Y-62583284D03*
%TD*%
D20*
%TO.C,D15*%
X125850390Y-80579214D03*
X126336604Y-77821752D03*
%TD*%
D33*
%TO.C,U4*%
X162875000Y-82162500D03*
X160975000Y-82162500D03*
X161925000Y-79762500D03*
%TD*%
D34*
%TO.C,C20*%
X162405248Y-78331937D03*
X161445248Y-78331937D03*
%TD*%
D35*
%TO.C,U3*%
X154680000Y-55343750D03*
X154680000Y-55743750D03*
X154680000Y-56143750D03*
X154680000Y-56543750D03*
X154680000Y-56943750D03*
X154680000Y-57343750D03*
X154680000Y-57743750D03*
X154680000Y-58143750D03*
X154680000Y-58543750D03*
X154680000Y-58943750D03*
X154680000Y-59343750D03*
X154680000Y-59743750D03*
X154680000Y-60143750D03*
X154680000Y-60543750D03*
D36*
X153842500Y-61381250D03*
X153442500Y-61381250D03*
X153042500Y-61381250D03*
X152642500Y-61381250D03*
X152242500Y-61381250D03*
X151842500Y-61381250D03*
X151442500Y-61381250D03*
X151042500Y-61381250D03*
X150642500Y-61381250D03*
X150242500Y-61381250D03*
X149842500Y-61381250D03*
X149442500Y-61381250D03*
X149042500Y-61381250D03*
X148642500Y-61381250D03*
D35*
X147805000Y-60543750D03*
X147805000Y-60143750D03*
X147805000Y-59743750D03*
X147805000Y-59343750D03*
X147805000Y-58943750D03*
X147805000Y-58543750D03*
X147805000Y-58143750D03*
X147805000Y-57743750D03*
X147805000Y-57343750D03*
X147805000Y-56943750D03*
X147805000Y-56543750D03*
X147805000Y-56143750D03*
X147805000Y-55743750D03*
X147805000Y-55343750D03*
D36*
X148642500Y-54506250D03*
X149042500Y-54506250D03*
X149442500Y-54506250D03*
X149842500Y-54506250D03*
X150242500Y-54506250D03*
X150642500Y-54506250D03*
X151042500Y-54506250D03*
X151442500Y-54506250D03*
X151842500Y-54506250D03*
X152242500Y-54506250D03*
X152642500Y-54506250D03*
X153042500Y-54506250D03*
X153442500Y-54506250D03*
X153842500Y-54506250D03*
D37*
X151242500Y-57943750D03*
%TD*%
D34*
%TO.C,C11*%
X145743796Y-58948805D03*
X144783796Y-58948805D03*
%TD*%
%TO.C,C19*%
X159230000Y-83543750D03*
X158270000Y-83543750D03*
%TD*%
D18*
%TO.C,D36*%
X225426177Y-105019390D03*
X224939963Y-102261928D03*
%TD*%
%TO.C,D19*%
X238348148Y-68598955D03*
X237861934Y-65841493D03*
%TD*%
D20*
%TO.C,D38*%
X142631893Y-123616231D03*
X143118107Y-120858769D03*
%TD*%
D38*
%TO.C,SW1*%
X160362500Y-43968750D03*
X166662500Y-43968750D03*
X160362500Y-40168750D03*
X166662500Y-40168750D03*
%TD*%
D39*
%TO.C,R12*%
X152400000Y-69056250D03*
X152400000Y-70076250D03*
%TD*%
D19*
%TO.C,C2*%
X155127910Y-67155957D03*
X155127910Y-66195957D03*
%TD*%
D34*
%TO.C,C17*%
X144942500Y-51100000D03*
X143982500Y-51100000D03*
%TD*%
D18*
%TO.C,D7*%
X197518975Y-56454363D03*
X197032761Y-53696901D03*
%TD*%
D31*
%TO.C,C18*%
X158270000Y-82550000D03*
X159230000Y-82550000D03*
%TD*%
D20*
%TO.C,D13*%
X89487013Y-67397013D03*
X89973227Y-64639551D03*
%TD*%
D18*
%TO.C,D17*%
X200826973Y-75214951D03*
X200340759Y-72457489D03*
%TD*%
D19*
%TO.C,C8*%
X146940809Y-52126373D03*
X146940809Y-51166373D03*
%TD*%
D20*
%TO.C,D12*%
X69568626Y-70655221D03*
X70054840Y-67897759D03*
%TD*%
%TO.C,D1*%
X53289037Y-53276783D03*
X53775251Y-50519321D03*
%TD*%
D40*
%TO.C,U1*%
X151762500Y-44793750D03*
X150812500Y-44793750D03*
X149862500Y-44793750D03*
X149862500Y-42518750D03*
X150812500Y-42518750D03*
X151762500Y-42518750D03*
%TD*%
D39*
%TO.C,R13*%
X150812500Y-69056250D03*
X150812500Y-70076250D03*
%TD*%
D31*
%TO.C,C1*%
X155482331Y-47306956D03*
X156442331Y-47306956D03*
%TD*%
D34*
%TO.C,C9*%
X145954723Y-54044548D03*
X144994723Y-54044548D03*
%TD*%
D20*
%TO.C,D23*%
X86179016Y-86157601D03*
X86665230Y-83400139D03*
%TD*%
D39*
%TO.C,R3*%
X148431250Y-40765000D03*
X148431250Y-41785000D03*
%TD*%
D31*
%TO.C,C12*%
X156690046Y-58948805D03*
X157650046Y-58948805D03*
%TD*%
D18*
%TO.C,D29*%
X241689226Y-87547149D03*
X241203012Y-84789687D03*
%TD*%
D41*
%TO.C,R9*%
X157956250Y-94456250D03*
X157956250Y-93436250D03*
%TD*%
D34*
%TO.C,C21*%
X162405000Y-83743750D03*
X161445000Y-83743750D03*
%TD*%
D42*
%TO.C,Y1*%
X151300000Y-65825000D03*
X153500000Y-65825000D03*
X153500000Y-67525000D03*
X151300000Y-67525000D03*
%TD*%
D38*
%TO.C,SWR1*%
X141262500Y-40168750D03*
X134962500Y-40168750D03*
X141262500Y-43968750D03*
X134962500Y-43968750D03*
%TD*%
D34*
%TO.C,C14*%
X145955013Y-52993014D03*
X144995013Y-52993014D03*
%TD*%
D20*
%TO.C,D21*%
X46673041Y-90797958D03*
X47159255Y-88040496D03*
%TD*%
%TO.C,D14*%
X107089802Y-77271217D03*
X107576016Y-74513755D03*
%TD*%
D39*
%TO.C,R5*%
X143668750Y-41558750D03*
X143668750Y-42578750D03*
%TD*%
D20*
%TO.C,D22*%
X66260629Y-89415809D03*
X66746843Y-86658347D03*
%TD*%
D39*
%TO.C,R4*%
X153193750Y-40765000D03*
X153193750Y-41785000D03*
%TD*%
D19*
%TO.C,C3*%
X149682815Y-67155000D03*
X149682815Y-66195000D03*
%TD*%
D18*
%TO.C,D26*%
X185407463Y-97471142D03*
X184921249Y-94713680D03*
%TD*%
D43*
%TO.C,U2*%
X145412500Y-48562500D03*
X143512500Y-48562500D03*
X144462500Y-46687500D03*
%TD*%
D44*
%TO.C,C10*%
X148609539Y-66212358D03*
X148609539Y-67172358D03*
%TD*%
D45*
%TO.C,J2*%
X153562500Y-73406250D03*
X153062500Y-73406250D03*
X152562500Y-73406250D03*
X152062500Y-73406250D03*
X151562500Y-73406250D03*
X151062500Y-73406250D03*
X150562500Y-73406250D03*
X150062500Y-73406250D03*
X149562500Y-73406250D03*
X149062500Y-73406250D03*
X148562500Y-73406250D03*
X148062500Y-73406250D03*
D46*
X155462500Y-76806250D03*
X146162500Y-76806250D03*
%TD*%
D18*
%TO.C,D9*%
X235040150Y-49838367D03*
X234553936Y-47080905D03*
%TD*%
D20*
%TO.C,D24*%
X103781804Y-96031804D03*
X104268018Y-93274342D03*
%TD*%
D31*
%TO.C,C7*%
X143982500Y-50106250D03*
X144942500Y-50106250D03*
%TD*%
D20*
%TO.C,D37*%
X118491255Y-121466809D03*
X118977469Y-118709347D03*
%TD*%
D47*
%TO.C,SWD1*%
X144462500Y-69993750D03*
D48*
X144462500Y-67453750D03*
X144462500Y-64913750D03*
%TD*%
D20*
%TO.C,D5*%
X129158387Y-61818627D03*
X129644601Y-59061165D03*
%TD*%
D19*
%TO.C,C13*%
X152221837Y-49690534D03*
X152221837Y-48730534D03*
%TD*%
D41*
%TO.C,R11*%
X149225000Y-70076250D03*
X149225000Y-69056250D03*
%TD*%
D49*
%TO.C,R6*%
X151890000Y-64293750D03*
X152910000Y-64293750D03*
%TD*%
D20*
%TO.C,D3*%
X92795011Y-48636426D03*
X93281225Y-45878964D03*
%TD*%
D44*
%TO.C,C6*%
X147622780Y-66204935D03*
X147622780Y-67164935D03*
%TD*%
D18*
%TO.C,D20*%
X257935735Y-69981104D03*
X257449521Y-67223642D03*
%TD*%
D41*
%TO.C,R2*%
X157956250Y-42578750D03*
X157956250Y-41558750D03*
%TD*%
D50*
%TO.C,U5*%
X156150243Y-83224438D03*
D51*
X156150243Y-85004438D03*
X156150243Y-86784438D03*
X156150243Y-88564438D03*
X156150243Y-90344438D03*
X156150243Y-92124438D03*
X156150243Y-93904438D03*
X156150243Y-95684438D03*
X145450243Y-96574438D03*
X145450243Y-94794438D03*
X145450243Y-93014438D03*
X145450243Y-91234438D03*
X145450243Y-89454438D03*
X145450243Y-87674438D03*
X145450243Y-85894438D03*
X145450243Y-84114438D03*
%TD*%
D19*
%TO.C,C5*%
X153293750Y-49692500D03*
X153293750Y-48732500D03*
%TD*%
D18*
%TO.C,D30*%
X261276813Y-88929298D03*
X260790599Y-86171836D03*
%TD*%
M02*
