%TF.GenerationSoftware,KiCad,Pcbnew,8.0.8*%
%TF.CreationDate,2025-05-06T21:02:24+02:00*%
%TF.ProjectId,Le Chisoffre,4c652043-6869-4736-9f66-6672652e6b69,rev?*%
%TF.SameCoordinates,Original*%
%TF.FileFunction,Legend,Bot*%
%TF.FilePolarity,Positive*%
%FSLAX46Y46*%
G04 Gerber Fmt 4.6, Leading zero omitted, Abs format (unit mm)*
G04 Created by KiCad (PCBNEW 8.0.8) date 2025-05-06 21:02:24*
%MOMM*%
%LPD*%
G01*
G04 APERTURE LIST*
%ADD10C,0.200000*%
%ADD11C,0.600000*%
%ADD12C,0.240000*%
%ADD13C,0.150000*%
%ADD14C,0.300000*%
%ADD15C,0.000000*%
%ADD16C,0.120000*%
G04 APERTURE END LIST*
D10*
G36*
X155786996Y-115547775D02*
G01*
X155844249Y-115562397D01*
X155904089Y-115591775D01*
X155956440Y-115634420D01*
X155995351Y-115681534D01*
X155998575Y-115681534D01*
X155998575Y-115561659D01*
X156259133Y-115561659D01*
X156259133Y-116799677D01*
X155998575Y-116799677D01*
X155998575Y-116312853D01*
X155995351Y-116312853D01*
X155990279Y-116319723D01*
X155944617Y-116366833D01*
X155889905Y-116399984D01*
X155826144Y-116419177D01*
X155762930Y-116424520D01*
X155700405Y-116420048D01*
X155642744Y-116406633D01*
X155581619Y-116379677D01*
X155527115Y-116340547D01*
X155485665Y-116297319D01*
X155461210Y-116264222D01*
X155430642Y-116209718D01*
X155407410Y-116149381D01*
X155391514Y-116083212D01*
X155383872Y-116023616D01*
X155381419Y-115962315D01*
X155648331Y-115962315D01*
X155648764Y-115986412D01*
X155654149Y-116045557D01*
X155669536Y-116109029D01*
X155697570Y-116165428D01*
X155720892Y-116193293D01*
X155774323Y-116226885D01*
X155835323Y-116236942D01*
X155853632Y-116236044D01*
X155910645Y-116218766D01*
X155956663Y-116179496D01*
X155976795Y-116148666D01*
X155997241Y-116089582D01*
X156002678Y-116030899D01*
X156002678Y-115960557D01*
X155998667Y-115905417D01*
X155982872Y-115846778D01*
X155951974Y-115793788D01*
X155931929Y-115772273D01*
X155881429Y-115740928D01*
X155821255Y-115730480D01*
X155753875Y-115741574D01*
X155703045Y-115774855D01*
X155668764Y-115830323D01*
X155652553Y-115895527D01*
X155648331Y-115962315D01*
X155381419Y-115962315D01*
X155381325Y-115959970D01*
X155384467Y-115890494D01*
X155393895Y-115826705D01*
X155409609Y-115768605D01*
X155435886Y-115708009D01*
X155470717Y-115655155D01*
X155500477Y-115622817D01*
X155548272Y-115586751D01*
X155603220Y-115561428D01*
X155665320Y-115546848D01*
X155724241Y-115542901D01*
X155786996Y-115547775D01*
G37*
G36*
X154578254Y-116376453D02*
G01*
X154634068Y-116399689D01*
X154694074Y-116413959D01*
X154754603Y-116421516D01*
X154822622Y-116424473D01*
X154832950Y-116424520D01*
X154891957Y-116421658D01*
X154957985Y-116410667D01*
X155018799Y-116391433D01*
X155074399Y-116363956D01*
X155124786Y-116328235D01*
X155148024Y-116307284D01*
X155188862Y-116260820D01*
X155221251Y-116209574D01*
X155245190Y-116153548D01*
X155260681Y-116092741D01*
X155267722Y-116027153D01*
X155268191Y-116004227D01*
X155265043Y-115939492D01*
X155255597Y-115879194D01*
X155235951Y-115812692D01*
X155207237Y-115752579D01*
X155169456Y-115698853D01*
X155139231Y-115666586D01*
X155087811Y-115624553D01*
X155030270Y-115591216D01*
X154966608Y-115566575D01*
X154908881Y-115552685D01*
X154846904Y-115544834D01*
X154794262Y-115542901D01*
X154732936Y-115544683D01*
X154672499Y-115551080D01*
X154611431Y-115565620D01*
X154578254Y-115580124D01*
X154578254Y-115791443D01*
X154631194Y-115759294D01*
X154687797Y-115739053D01*
X154748064Y-115730718D01*
X154760557Y-115730480D01*
X154820014Y-115735882D01*
X154877430Y-115754555D01*
X154930075Y-115790501D01*
X154938463Y-115798770D01*
X154972930Y-115846518D01*
X154994632Y-115904398D01*
X155003248Y-115965153D01*
X155003823Y-115987228D01*
X154998861Y-116048879D01*
X154981711Y-116108082D01*
X154948696Y-116161898D01*
X154941101Y-116170410D01*
X154892439Y-116208289D01*
X154832694Y-116230445D01*
X154768763Y-116236942D01*
X154708348Y-116230988D01*
X154648733Y-116213128D01*
X154595766Y-116186874D01*
X154578254Y-116175979D01*
X154578254Y-116376453D01*
G37*
G36*
X154412657Y-116405763D02*
G01*
X154152099Y-116405763D01*
X154152099Y-116312853D01*
X154148875Y-116312853D01*
X154138578Y-116326375D01*
X154091482Y-116371740D01*
X154034934Y-116403146D01*
X153977700Y-116419177D01*
X153913230Y-116424520D01*
X153851045Y-116420048D01*
X153793744Y-116406633D01*
X153733067Y-116379677D01*
X153679037Y-116340547D01*
X153638017Y-116297319D01*
X153613837Y-116264222D01*
X153583612Y-116209718D01*
X153560641Y-116149381D01*
X153544924Y-116083212D01*
X153537367Y-116023616D01*
X153534942Y-115962315D01*
X153801855Y-115962315D01*
X153802288Y-115986412D01*
X153807673Y-116045557D01*
X153823060Y-116109029D01*
X153851094Y-116165428D01*
X153874416Y-116193293D01*
X153927848Y-116226885D01*
X153988847Y-116236942D01*
X154006758Y-116236072D01*
X154063026Y-116219322D01*
X154109308Y-116181254D01*
X154127580Y-116155375D01*
X154149608Y-116099945D01*
X154156202Y-116040278D01*
X154156202Y-115950298D01*
X154152997Y-115903660D01*
X154136167Y-115842358D01*
X154104911Y-115791443D01*
X154084619Y-115770725D01*
X154034149Y-115740541D01*
X153974779Y-115730480D01*
X153949704Y-115731983D01*
X153893285Y-115749954D01*
X153846698Y-115792029D01*
X153821167Y-115839788D01*
X153806234Y-115898837D01*
X153801855Y-115962315D01*
X153534942Y-115962315D01*
X153534849Y-115959970D01*
X153537950Y-115890206D01*
X153547255Y-115826211D01*
X153562762Y-115767986D01*
X153588694Y-115707351D01*
X153623069Y-115654569D01*
X153646292Y-115628397D01*
X153692552Y-115590993D01*
X153745965Y-115564275D01*
X153806530Y-115548245D01*
X153874248Y-115542901D01*
X153938198Y-115547775D01*
X153996399Y-115562397D01*
X154057032Y-115591775D01*
X154109840Y-115634420D01*
X154148875Y-115681534D01*
X154152099Y-115681534D01*
X154152099Y-115148987D01*
X154412657Y-115148987D01*
X154412657Y-116405763D01*
G37*
G36*
X152908512Y-116405763D02*
G01*
X152647954Y-116405763D01*
X152647954Y-116312853D01*
X152644730Y-116312853D01*
X152634433Y-116326375D01*
X152587337Y-116371740D01*
X152530788Y-116403146D01*
X152473555Y-116419177D01*
X152409084Y-116424520D01*
X152346900Y-116420048D01*
X152289599Y-116406633D01*
X152228922Y-116379677D01*
X152174892Y-116340547D01*
X152133872Y-116297319D01*
X152109692Y-116264222D01*
X152079467Y-116209718D01*
X152056495Y-116149381D01*
X152040778Y-116083212D01*
X152033222Y-116023616D01*
X152030796Y-115962315D01*
X152297710Y-115962315D01*
X152298142Y-115986412D01*
X152303528Y-116045557D01*
X152318915Y-116109029D01*
X152346949Y-116165428D01*
X152370270Y-116193293D01*
X152423702Y-116226885D01*
X152484702Y-116236942D01*
X152502613Y-116236072D01*
X152558881Y-116219322D01*
X152605163Y-116181254D01*
X152623435Y-116155375D01*
X152645463Y-116099945D01*
X152652057Y-116040278D01*
X152652057Y-115950298D01*
X152648852Y-115903660D01*
X152632022Y-115842358D01*
X152600766Y-115791443D01*
X152580474Y-115770725D01*
X152530004Y-115740541D01*
X152470634Y-115730480D01*
X152445559Y-115731983D01*
X152389139Y-115749954D01*
X152342553Y-115792029D01*
X152317022Y-115839788D01*
X152302089Y-115898837D01*
X152297710Y-115962315D01*
X152030796Y-115962315D01*
X152030703Y-115959970D01*
X152033805Y-115890206D01*
X152043109Y-115826211D01*
X152058617Y-115767986D01*
X152084549Y-115707351D01*
X152118924Y-115654569D01*
X152142147Y-115628397D01*
X152188407Y-115590993D01*
X152241820Y-115564275D01*
X152302385Y-115548245D01*
X152370103Y-115542901D01*
X152434053Y-115547775D01*
X152492254Y-115562397D01*
X152552887Y-115591775D01*
X152605695Y-115634420D01*
X152644730Y-115681534D01*
X152647954Y-115681534D01*
X152647954Y-115148987D01*
X152908512Y-115148987D01*
X152908512Y-116405763D01*
G37*
G36*
X151063795Y-115561659D02*
G01*
X151406712Y-116485190D01*
X151431003Y-116544745D01*
X151457493Y-116598441D01*
X151496236Y-116660925D01*
X151538890Y-116712994D01*
X151585455Y-116754650D01*
X151635931Y-116785892D01*
X151704526Y-116810299D01*
X151763801Y-116818110D01*
X151779231Y-116818435D01*
X151840500Y-116816046D01*
X151902549Y-116807060D01*
X151935156Y-116798212D01*
X151935156Y-116600375D01*
X151880934Y-116623236D01*
X151822022Y-116630857D01*
X151760111Y-116618735D01*
X151712608Y-116582371D01*
X151681925Y-116528275D01*
X151637375Y-116415141D01*
X151980292Y-115561659D01*
X151691890Y-115561659D01*
X151534500Y-116081896D01*
X151519816Y-116141866D01*
X151511345Y-116196202D01*
X151508121Y-116196202D01*
X151495746Y-116136697D01*
X151480864Y-116083362D01*
X151321715Y-115561659D01*
X151063795Y-115561659D01*
G37*
D11*
G36*
X160458871Y-109195000D02*
G01*
X162218885Y-109195000D01*
X162218885Y-106240638D01*
X161552834Y-106240638D01*
X161552834Y-108632264D01*
X160458871Y-108632264D01*
X160458871Y-109195000D01*
G37*
G36*
X159262508Y-107039043D02*
G01*
X159421327Y-107056989D01*
X159570254Y-107096471D01*
X159709289Y-107157488D01*
X159838433Y-107240040D01*
X159957684Y-107344127D01*
X160029125Y-107423914D01*
X160118427Y-107556347D01*
X160186296Y-107704080D01*
X160232732Y-107867115D01*
X160255058Y-108014666D01*
X160262499Y-108172843D01*
X160260020Y-108265545D01*
X160244868Y-108411346D01*
X160208504Y-108571951D01*
X160152304Y-108716894D01*
X160076269Y-108846175D01*
X159980399Y-108959794D01*
X159925489Y-109010208D01*
X159803576Y-109096161D01*
X159665537Y-109162278D01*
X159511372Y-109208560D01*
X159341081Y-109235007D01*
X159186854Y-109241894D01*
X159017705Y-109236948D01*
X158860870Y-109222110D01*
X158716348Y-109197381D01*
X158563301Y-109156028D01*
X158427014Y-109101210D01*
X158427014Y-108632264D01*
X158443583Y-108640919D01*
X158582057Y-108700270D01*
X158731065Y-108742036D01*
X158890605Y-108766216D01*
X159038843Y-108772948D01*
X159072460Y-108772536D01*
X159225517Y-108758110D01*
X159376127Y-108713597D01*
X159506258Y-108624158D01*
X159587302Y-108494328D01*
X159617698Y-108350896D01*
X158240901Y-108350896D01*
X158240901Y-108072459D01*
X158248316Y-107928845D01*
X158844670Y-107928845D01*
X159622095Y-107928845D01*
X159616638Y-107895569D01*
X159570396Y-107754078D01*
X159482876Y-107627693D01*
X159357946Y-107537018D01*
X159211767Y-107506793D01*
X159051162Y-107533171D01*
X158925331Y-107625907D01*
X158862236Y-107764393D01*
X158844670Y-107928845D01*
X158248316Y-107928845D01*
X158249789Y-107900314D01*
X158276450Y-107742182D01*
X158320886Y-107598063D01*
X158395193Y-107447637D01*
X158493693Y-107316284D01*
X158595582Y-107221658D01*
X158733076Y-107136007D01*
X158890626Y-107077002D01*
X159041631Y-107047635D01*
X159207370Y-107037847D01*
X159262508Y-107039043D01*
G37*
G36*
X154525235Y-109101210D02*
G01*
X154676358Y-109156028D01*
X154820906Y-109192298D01*
X154979313Y-109218676D01*
X155151578Y-109235162D01*
X155305720Y-109241345D01*
X155370071Y-109241894D01*
X155535702Y-109235666D01*
X155692243Y-109216981D01*
X155839693Y-109185840D01*
X156011222Y-109129397D01*
X156168548Y-109053491D01*
X156311669Y-108958122D01*
X156440587Y-108843290D01*
X156552676Y-108712250D01*
X156645766Y-108568259D01*
X156719858Y-108411316D01*
X156774952Y-108241422D01*
X156805349Y-108096181D01*
X156823587Y-107942652D01*
X156829666Y-107780833D01*
X156822820Y-107608241D01*
X156802280Y-107444007D01*
X156768048Y-107288131D01*
X156720123Y-107140612D01*
X156658505Y-107001451D01*
X156583195Y-106870647D01*
X156494191Y-106748201D01*
X156391495Y-106634113D01*
X156277887Y-106530902D01*
X156156151Y-106441451D01*
X156026287Y-106365763D01*
X155888293Y-106303836D01*
X155742171Y-106255670D01*
X155587920Y-106221267D01*
X155425541Y-106200624D01*
X155255033Y-106193743D01*
X155097433Y-106197041D01*
X154949416Y-106206933D01*
X154788841Y-106226808D01*
X154641309Y-106255659D01*
X154525235Y-106287533D01*
X154525235Y-106944057D01*
X154659027Y-106870968D01*
X154800744Y-106815830D01*
X154950384Y-106778644D01*
X155107949Y-106759410D01*
X155201543Y-106756479D01*
X155351973Y-106765753D01*
X155513214Y-106800013D01*
X155659098Y-106859519D01*
X155789625Y-106944269D01*
X155873455Y-107020261D01*
X155973097Y-107144607D01*
X156048266Y-107286834D01*
X156098961Y-107446943D01*
X156122935Y-107598412D01*
X156129178Y-107734672D01*
X156120703Y-107890356D01*
X156089392Y-108056426D01*
X156035011Y-108205736D01*
X155957558Y-108338286D01*
X155888110Y-108422704D01*
X155774649Y-108522631D01*
X155645199Y-108598015D01*
X155499761Y-108648855D01*
X155338335Y-108675151D01*
X155238913Y-108679159D01*
X155071526Y-108672427D01*
X154910450Y-108652231D01*
X154755685Y-108618571D01*
X154607232Y-108571448D01*
X154525235Y-108538475D01*
X154525235Y-109101210D01*
G37*
G36*
X152061802Y-109195000D02*
G01*
X152710999Y-109195000D01*
X152710999Y-107977205D01*
X152722874Y-107817338D01*
X152766747Y-107672631D01*
X152870657Y-107552732D01*
X153028005Y-107507252D01*
X153048787Y-107506793D01*
X153196574Y-107535773D01*
X153315703Y-107622713D01*
X153329422Y-107638684D01*
X153402552Y-107767693D01*
X153433789Y-107911849D01*
X153436400Y-107973541D01*
X153436400Y-109195000D01*
X154087796Y-109195000D01*
X154087796Y-106053060D01*
X153436400Y-106053060D01*
X153436400Y-107380764D01*
X153428340Y-107380764D01*
X153332513Y-107264225D01*
X153205608Y-107158738D01*
X153062434Y-107086069D01*
X152902991Y-107046219D01*
X152779143Y-107037847D01*
X152611016Y-107051345D01*
X152465306Y-107091840D01*
X152314692Y-107180422D01*
X152199105Y-107311186D01*
X152131854Y-107446168D01*
X152087021Y-107608147D01*
X152064604Y-107797122D01*
X152061802Y-107901734D01*
X152061802Y-109195000D01*
G37*
G36*
X151231620Y-106756479D02*
G01*
X151381646Y-106732482D01*
X151501997Y-106660491D01*
X151586722Y-106538827D01*
X151606777Y-106425286D01*
X151573624Y-106280411D01*
X151501997Y-106190812D01*
X151373139Y-106119918D01*
X151231620Y-106099954D01*
X151080312Y-106122669D01*
X150960511Y-106190812D01*
X150873635Y-106317305D01*
X150856463Y-106425286D01*
X150889384Y-106572040D01*
X150960511Y-106663422D01*
X151088845Y-106736032D01*
X151231620Y-106756479D01*
G37*
G36*
X150909952Y-109195000D02*
G01*
X151561348Y-109195000D01*
X151561348Y-107084741D01*
X150909952Y-107084741D01*
X150909952Y-109195000D01*
G37*
G36*
X150506219Y-109148105D02*
G01*
X150506219Y-108679159D01*
X150355942Y-108718496D01*
X150205986Y-108747208D01*
X150186017Y-108750233D01*
X150040129Y-108766537D01*
X149893034Y-108772926D01*
X149884132Y-108772948D01*
X149729527Y-108761591D01*
X149611557Y-108727519D01*
X149513624Y-108617472D01*
X149511174Y-108589766D01*
X149556603Y-108488649D01*
X149673107Y-108417575D01*
X149812761Y-108367212D01*
X149828445Y-108362620D01*
X149971419Y-108315817D01*
X149991111Y-108308398D01*
X150130180Y-108250386D01*
X150213127Y-108208014D01*
X150334536Y-108122039D01*
X150373595Y-108083450D01*
X150456009Y-107958979D01*
X150472513Y-107919319D01*
X150502927Y-107774743D01*
X150506219Y-107698035D01*
X150489314Y-107545858D01*
X150434016Y-107406960D01*
X150429282Y-107399082D01*
X150332490Y-107278204D01*
X150223386Y-107193185D01*
X150085266Y-107123393D01*
X149939143Y-107077594D01*
X149928829Y-107075216D01*
X149780766Y-107049671D01*
X149627654Y-107038431D01*
X149582981Y-107037847D01*
X149433042Y-107044671D01*
X149298682Y-107062027D01*
X149146554Y-107093715D01*
X149014384Y-107131636D01*
X149014384Y-107600582D01*
X149159258Y-107555245D01*
X149279631Y-107530240D01*
X149427867Y-107511945D01*
X149556603Y-107506793D01*
X149676770Y-107517784D01*
X149777154Y-107549291D01*
X149845298Y-107602780D01*
X149869478Y-107676053D01*
X149832841Y-107773506D01*
X149736121Y-107843115D01*
X149602765Y-107895872D01*
X149462174Y-107941989D01*
X149457684Y-107943499D01*
X149319662Y-107996333D01*
X149223211Y-108040952D01*
X149097979Y-108117438D01*
X149042960Y-108164050D01*
X148949537Y-108284264D01*
X148927189Y-108330380D01*
X148890824Y-108478671D01*
X148886889Y-108557526D01*
X148902456Y-108708353D01*
X148953687Y-108847543D01*
X148968222Y-108872599D01*
X149062927Y-108990935D01*
X149184377Y-109085090D01*
X149319949Y-109152206D01*
X149463043Y-109197125D01*
X149495786Y-109204525D01*
X149640966Y-109228720D01*
X149790741Y-109240580D01*
X149861418Y-109241894D01*
X150011234Y-109237406D01*
X150176441Y-109221286D01*
X150335237Y-109193442D01*
X150487622Y-109153875D01*
X150506219Y-109148105D01*
G37*
G36*
X147585463Y-107040436D02*
G01*
X147740352Y-107056256D01*
X147912051Y-107094227D01*
X148068294Y-107152908D01*
X148209081Y-107232300D01*
X148334412Y-107332404D01*
X148407742Y-107409580D01*
X148499404Y-107538612D01*
X148569068Y-107683564D01*
X148616732Y-107844435D01*
X148639648Y-107990655D01*
X148647287Y-108147930D01*
X148644633Y-108240742D01*
X148628419Y-108387212D01*
X148589504Y-108549423D01*
X148529363Y-108696847D01*
X148447996Y-108829485D01*
X148345402Y-108947337D01*
X148266405Y-109016374D01*
X148134686Y-109102670D01*
X147987098Y-109168255D01*
X147823642Y-109213129D01*
X147675308Y-109234703D01*
X147515954Y-109241894D01*
X147417527Y-109239228D01*
X147262384Y-109222935D01*
X147090900Y-109183831D01*
X146935438Y-109123398D01*
X146795999Y-109041636D01*
X146672583Y-108938545D01*
X146600283Y-108859101D01*
X146509909Y-108727098D01*
X146441224Y-108579691D01*
X146394229Y-108416879D01*
X146371636Y-108269435D01*
X146364662Y-108123018D01*
X147027957Y-108123018D01*
X147029785Y-108201720D01*
X147050361Y-108376262D01*
X147105230Y-108543822D01*
X147193020Y-108665684D01*
X147337051Y-108750099D01*
X147496170Y-108772948D01*
X147637388Y-108757492D01*
X147775256Y-108698141D01*
X147878657Y-108594277D01*
X147947590Y-108445899D01*
X147978706Y-108288248D01*
X147986365Y-108139870D01*
X147985867Y-108102581D01*
X147971300Y-107948099D01*
X147931458Y-107802011D01*
X147858871Y-107672390D01*
X147778628Y-107592340D01*
X147646394Y-107526361D01*
X147499834Y-107506793D01*
X147415504Y-107512209D01*
X147271729Y-107555537D01*
X147145926Y-107660849D01*
X147074038Y-107798055D01*
X147039477Y-107945492D01*
X147027957Y-108123018D01*
X146364662Y-108123018D01*
X146364104Y-108111294D01*
X146365272Y-108051494D01*
X146382789Y-107880988D01*
X146421326Y-107723827D01*
X146480883Y-107580009D01*
X146561460Y-107449534D01*
X146663058Y-107332404D01*
X146741334Y-107263367D01*
X146872014Y-107177071D01*
X147018614Y-107111486D01*
X147181134Y-107066612D01*
X147328728Y-107045038D01*
X147487377Y-107037847D01*
X147585463Y-107040436D01*
G37*
G36*
X144577712Y-106524937D02*
G01*
X144723497Y-106483334D01*
X144818780Y-106475111D01*
X144970377Y-106504149D01*
X145080630Y-106604527D01*
X145127488Y-106756170D01*
X145132388Y-106842208D01*
X145132388Y-107084741D01*
X144650252Y-107084741D01*
X144650252Y-107553688D01*
X145132388Y-107553688D01*
X145132388Y-109195000D01*
X145781585Y-109195000D01*
X145781585Y-107553688D01*
X146135493Y-107553688D01*
X146135493Y-107084741D01*
X145781585Y-107084741D01*
X145781585Y-106819494D01*
X145770365Y-106666046D01*
X145730065Y-106507422D01*
X145660456Y-106366658D01*
X145561538Y-106243754D01*
X145547112Y-106229647D01*
X145418930Y-106131874D01*
X145269591Y-106062035D01*
X145121564Y-106023843D01*
X144957337Y-106007038D01*
X144907440Y-106006165D01*
X144757581Y-106012574D01*
X144611715Y-106035898D01*
X144577712Y-106045000D01*
X144577712Y-106524937D01*
G37*
G36*
X142968640Y-106524937D02*
G01*
X143114425Y-106483334D01*
X143209708Y-106475111D01*
X143361306Y-106504149D01*
X143471558Y-106604527D01*
X143518416Y-106756170D01*
X143523316Y-106842208D01*
X143523316Y-107084741D01*
X143041181Y-107084741D01*
X143041181Y-107553688D01*
X143523316Y-107553688D01*
X143523316Y-109195000D01*
X144172513Y-109195000D01*
X144172513Y-107553688D01*
X144526421Y-107553688D01*
X144526421Y-107084741D01*
X144172513Y-107084741D01*
X144172513Y-106819494D01*
X144161293Y-106666046D01*
X144120993Y-106507422D01*
X144051384Y-106366658D01*
X143952466Y-106243754D01*
X143938040Y-106229647D01*
X143809859Y-106131874D01*
X143660519Y-106062035D01*
X143512492Y-106023843D01*
X143348265Y-106007038D01*
X143298368Y-106006165D01*
X143148510Y-106012574D01*
X143002644Y-106035898D01*
X142968640Y-106045000D01*
X142968640Y-106524937D01*
G37*
G36*
X141359569Y-107665062D02*
G01*
X141503979Y-107612924D01*
X141633609Y-107600582D01*
X141779891Y-107622633D01*
X141908829Y-107696288D01*
X141965535Y-107757386D01*
X142038316Y-107890308D01*
X142075522Y-108040032D01*
X142084970Y-108182369D01*
X142084970Y-109195000D01*
X142736365Y-109195000D01*
X142736365Y-107084741D01*
X142084970Y-107084741D01*
X142084970Y-107467958D01*
X142076910Y-107467958D01*
X142010226Y-107321788D01*
X141910419Y-107189478D01*
X141786910Y-107098331D01*
X141639698Y-107048347D01*
X141520036Y-107037847D01*
X141370815Y-107058307D01*
X141359569Y-107062759D01*
X141359569Y-107665062D01*
G37*
G36*
X140191050Y-107039043D02*
G01*
X140349869Y-107056989D01*
X140498796Y-107096471D01*
X140637831Y-107157488D01*
X140766974Y-107240040D01*
X140886226Y-107344127D01*
X140957667Y-107423914D01*
X141046968Y-107556347D01*
X141114837Y-107704080D01*
X141161274Y-107867115D01*
X141183599Y-108014666D01*
X141191041Y-108172843D01*
X141188562Y-108265545D01*
X141173410Y-108411346D01*
X141137045Y-108571951D01*
X141080845Y-108716894D01*
X141004811Y-108846175D01*
X140908940Y-108959794D01*
X140854031Y-109010208D01*
X140732117Y-109096161D01*
X140594078Y-109162278D01*
X140439913Y-109208560D01*
X140269623Y-109235007D01*
X140115395Y-109241894D01*
X139946247Y-109236948D01*
X139789411Y-109222110D01*
X139644889Y-109197381D01*
X139491843Y-109156028D01*
X139355556Y-109101210D01*
X139355556Y-108632264D01*
X139372125Y-108640919D01*
X139510599Y-108700270D01*
X139659606Y-108742036D01*
X139819146Y-108766216D01*
X139967384Y-108772948D01*
X140001001Y-108772536D01*
X140154058Y-108758110D01*
X140304668Y-108713597D01*
X140434799Y-108624158D01*
X140515843Y-108494328D01*
X140546240Y-108350896D01*
X139169443Y-108350896D01*
X139169443Y-108072459D01*
X139176857Y-107928845D01*
X139773211Y-107928845D01*
X140550636Y-107928845D01*
X140545179Y-107895569D01*
X140498937Y-107754078D01*
X140411418Y-107627693D01*
X140286488Y-107537018D01*
X140140308Y-107506793D01*
X139979703Y-107533171D01*
X139853872Y-107625907D01*
X139790777Y-107764393D01*
X139773211Y-107928845D01*
X139176857Y-107928845D01*
X139178330Y-107900314D01*
X139204992Y-107742182D01*
X139249428Y-107598063D01*
X139323735Y-107447637D01*
X139422234Y-107316284D01*
X139524124Y-107221658D01*
X139661618Y-107136007D01*
X139819167Y-107077002D01*
X139970172Y-107047635D01*
X140135912Y-107037847D01*
X140191050Y-107039043D01*
G37*
D10*
G36*
X155998575Y-114889750D02*
G01*
X156259133Y-114889750D01*
X156259133Y-113632974D01*
X155998575Y-113632974D01*
X155998575Y-114889750D01*
G37*
G36*
X155490842Y-114029121D02*
G01*
X155549699Y-114036734D01*
X155612574Y-114049750D01*
X155646563Y-114058460D01*
X155706134Y-114077364D01*
X155761464Y-114101920D01*
X155761464Y-114289498D01*
X155727232Y-114271913D01*
X155666202Y-114246780D01*
X155603741Y-114228828D01*
X155539849Y-114218057D01*
X155474528Y-114214467D01*
X155439357Y-114216519D01*
X155377368Y-114236137D01*
X155336335Y-114282299D01*
X155324465Y-114345772D01*
X155553662Y-114375960D01*
X155605674Y-114384798D01*
X155667065Y-114402191D01*
X155731015Y-114432948D01*
X155780753Y-114473723D01*
X155816280Y-114524516D01*
X155837597Y-114585327D01*
X155844702Y-114656156D01*
X155844084Y-114677241D01*
X155834810Y-114735675D01*
X155811454Y-114792118D01*
X155774360Y-114839631D01*
X155755886Y-114855774D01*
X155702569Y-114886714D01*
X155645871Y-114903059D01*
X155580920Y-114908507D01*
X155530885Y-114905094D01*
X155467521Y-114888847D01*
X155411954Y-114859221D01*
X155364186Y-114816214D01*
X155329447Y-114768703D01*
X155326223Y-114768703D01*
X155326223Y-114889750D01*
X155079733Y-114889750D01*
X155079733Y-114550057D01*
X155324465Y-114550057D01*
X155324872Y-114563733D01*
X155337534Y-114621564D01*
X155370773Y-114672569D01*
X155379641Y-114681211D01*
X155431165Y-114711672D01*
X155490061Y-114720929D01*
X155518021Y-114718796D01*
X155573886Y-114693964D01*
X155585877Y-114681310D01*
X155604660Y-114624209D01*
X155586814Y-114564830D01*
X155539099Y-114529662D01*
X155477752Y-114514592D01*
X155324465Y-114495835D01*
X155324465Y-114550057D01*
X155079733Y-114550057D01*
X155079733Y-114386218D01*
X155082907Y-114322002D01*
X155092428Y-114264102D01*
X155114996Y-114196728D01*
X155148848Y-114140583D01*
X155193984Y-114095666D01*
X155250404Y-114061979D01*
X155318108Y-114039521D01*
X155376292Y-114030047D01*
X155440822Y-114026888D01*
X155490842Y-114029121D01*
G37*
G36*
X154074430Y-114045646D02*
G01*
X154417347Y-114969177D01*
X154441638Y-115028732D01*
X154468128Y-115082428D01*
X154506871Y-115144912D01*
X154549525Y-115196981D01*
X154596090Y-115238637D01*
X154646566Y-115269879D01*
X154715161Y-115294286D01*
X154774436Y-115302097D01*
X154789866Y-115302422D01*
X154851135Y-115300033D01*
X154913184Y-115291047D01*
X154945791Y-115282199D01*
X154945791Y-115084362D01*
X154891569Y-115107223D01*
X154832657Y-115114844D01*
X154770746Y-115102722D01*
X154723243Y-115066358D01*
X154692560Y-115012262D01*
X154648010Y-114899128D01*
X154990927Y-114045646D01*
X154702525Y-114045646D01*
X154545135Y-114565883D01*
X154530452Y-114625853D01*
X154521980Y-114680189D01*
X154518756Y-114680189D01*
X154506381Y-114620684D01*
X154491499Y-114567349D01*
X154332350Y-114045646D01*
X154074430Y-114045646D01*
G37*
G36*
X153599582Y-114027924D02*
G01*
X153661537Y-114034252D01*
X153730217Y-114049440D01*
X153792714Y-114072913D01*
X153849029Y-114104670D01*
X153899161Y-114144711D01*
X153928493Y-114175582D01*
X153965158Y-114227195D01*
X153993024Y-114285175D01*
X154012090Y-114349524D01*
X154021256Y-114408012D01*
X154024311Y-114470922D01*
X154023250Y-114508046D01*
X154016764Y-114566635D01*
X154001198Y-114631519D01*
X153977142Y-114690489D01*
X153944595Y-114743544D01*
X153903558Y-114790685D01*
X153871959Y-114818299D01*
X153819271Y-114852818D01*
X153760236Y-114879052D01*
X153694854Y-114897001D01*
X153635520Y-114905631D01*
X153571778Y-114908507D01*
X153532407Y-114907441D01*
X153470350Y-114900924D01*
X153401756Y-114885282D01*
X153339572Y-114861109D01*
X153283796Y-114828404D01*
X153234430Y-114787168D01*
X153205510Y-114755390D01*
X153169360Y-114702589D01*
X153141886Y-114643626D01*
X153123088Y-114578501D01*
X153114051Y-114519524D01*
X153111261Y-114460957D01*
X153376579Y-114460957D01*
X153377311Y-114492438D01*
X153385541Y-114562254D01*
X153407489Y-114629279D01*
X153442605Y-114678023D01*
X153500217Y-114711789D01*
X153563865Y-114720929D01*
X153620352Y-114714746D01*
X153675499Y-114691006D01*
X153716859Y-114649460D01*
X153744433Y-114590109D01*
X153756879Y-114527049D01*
X153759943Y-114467698D01*
X153759744Y-114452782D01*
X153753917Y-114390989D01*
X153737980Y-114332554D01*
X153708945Y-114280706D01*
X153676848Y-114248686D01*
X153623954Y-114222294D01*
X153565330Y-114214467D01*
X153531598Y-114216633D01*
X153474088Y-114233965D01*
X153423767Y-114276089D01*
X153395012Y-114330972D01*
X153381187Y-114389946D01*
X153376579Y-114460957D01*
X153111261Y-114460957D01*
X153111038Y-114456267D01*
X153111506Y-114432347D01*
X153118512Y-114364145D01*
X153133927Y-114301280D01*
X153157750Y-114243753D01*
X153189981Y-114191563D01*
X153230620Y-114144711D01*
X153261930Y-114117096D01*
X153314202Y-114082578D01*
X153372842Y-114056344D01*
X153437850Y-114038394D01*
X153496888Y-114029765D01*
X153560348Y-114026888D01*
X153599582Y-114027924D01*
G37*
G36*
X152145009Y-114889750D02*
G01*
X152404688Y-114889750D01*
X152404688Y-114768117D01*
X152408791Y-114768117D01*
X152447249Y-114815827D01*
X152497925Y-114859014D01*
X152554856Y-114888765D01*
X152618042Y-114905080D01*
X152667005Y-114908507D01*
X152735767Y-114902966D01*
X152795361Y-114886342D01*
X152856960Y-114849978D01*
X152904234Y-114796297D01*
X152931739Y-114740884D01*
X152950075Y-114674389D01*
X152959243Y-114596811D01*
X152960389Y-114553867D01*
X152960389Y-114045646D01*
X152700710Y-114045646D01*
X152700710Y-114539212D01*
X152695723Y-114600967D01*
X152677299Y-114656867D01*
X152633661Y-114703183D01*
X152576032Y-114720219D01*
X152558854Y-114720929D01*
X152499366Y-114709981D01*
X152449540Y-114674169D01*
X152446893Y-114671103D01*
X152416600Y-114616599D01*
X152405348Y-114556756D01*
X152404688Y-114535988D01*
X152404688Y-114045646D01*
X152145009Y-114045646D01*
X152145009Y-114889750D01*
G37*
G36*
X151420487Y-114879784D02*
G01*
X151477074Y-114898381D01*
X151540068Y-114906712D01*
X151594583Y-114908507D01*
X151659086Y-114904019D01*
X151727621Y-114885787D01*
X151782717Y-114853530D01*
X151824375Y-114807248D01*
X151852595Y-114746941D01*
X151865496Y-114688597D01*
X151869796Y-114621278D01*
X151869796Y-114233225D01*
X152006670Y-114233225D01*
X152006670Y-114045646D01*
X151869796Y-114045646D01*
X151869796Y-113857188D01*
X151610117Y-113783036D01*
X151610117Y-114045646D01*
X151420487Y-114045646D01*
X151420487Y-114233225D01*
X151610117Y-114233225D01*
X151610117Y-114584934D01*
X151603578Y-114644432D01*
X151573230Y-114698484D01*
X151518154Y-114720398D01*
X151505484Y-114720929D01*
X151447552Y-114709569D01*
X151420487Y-114696895D01*
X151420487Y-114879784D01*
G37*
G36*
X150814667Y-114889750D02*
G01*
X150554109Y-114889750D01*
X150554109Y-114796840D01*
X150550885Y-114796840D01*
X150540588Y-114810362D01*
X150493492Y-114855727D01*
X150436943Y-114887133D01*
X150379710Y-114903164D01*
X150315239Y-114908507D01*
X150253055Y-114904035D01*
X150195754Y-114890620D01*
X150135077Y-114863664D01*
X150081047Y-114824534D01*
X150040027Y-114781306D01*
X150015846Y-114748209D01*
X149985621Y-114693705D01*
X149962650Y-114633368D01*
X149946933Y-114567199D01*
X149939377Y-114507603D01*
X149936951Y-114446302D01*
X150203865Y-114446302D01*
X150204297Y-114470399D01*
X150209683Y-114529544D01*
X150225070Y-114593016D01*
X150253104Y-114649415D01*
X150276425Y-114677280D01*
X150329857Y-114710872D01*
X150390857Y-114720929D01*
X150408768Y-114720059D01*
X150465035Y-114703309D01*
X150511318Y-114665241D01*
X150529590Y-114639362D01*
X150551618Y-114583932D01*
X150558212Y-114524265D01*
X150558212Y-114434285D01*
X150555006Y-114387647D01*
X150538177Y-114326345D01*
X150506921Y-114275430D01*
X150486629Y-114254712D01*
X150436159Y-114224528D01*
X150376789Y-114214467D01*
X150351714Y-114215970D01*
X150295294Y-114233941D01*
X150248708Y-114276016D01*
X150223177Y-114323775D01*
X150208244Y-114382824D01*
X150203865Y-114446302D01*
X149936951Y-114446302D01*
X149936858Y-114443957D01*
X149939960Y-114374193D01*
X149949264Y-114310198D01*
X149964772Y-114251973D01*
X149990704Y-114191338D01*
X150025079Y-114138556D01*
X150048302Y-114112384D01*
X150094562Y-114074980D01*
X150147975Y-114048262D01*
X150208540Y-114032232D01*
X150276258Y-114026888D01*
X150340208Y-114031762D01*
X150398409Y-114046384D01*
X150459042Y-114075762D01*
X150511850Y-114118407D01*
X150550885Y-114165521D01*
X150554109Y-114165521D01*
X150554109Y-113632974D01*
X150814667Y-113632974D01*
X150814667Y-114889750D01*
G37*
G36*
X148969950Y-114045646D02*
G01*
X149312867Y-114969177D01*
X149337158Y-115028732D01*
X149363648Y-115082428D01*
X149402391Y-115144912D01*
X149445045Y-115196981D01*
X149491610Y-115238637D01*
X149542086Y-115269879D01*
X149610681Y-115294286D01*
X149669956Y-115302097D01*
X149685386Y-115302422D01*
X149746655Y-115300033D01*
X149808704Y-115291047D01*
X149841311Y-115282199D01*
X149841311Y-115084362D01*
X149787089Y-115107223D01*
X149728177Y-115114844D01*
X149666266Y-115102722D01*
X149618763Y-115066358D01*
X149588080Y-115012262D01*
X149543530Y-114899128D01*
X149886447Y-114045646D01*
X149598045Y-114045646D01*
X149440655Y-114565883D01*
X149425971Y-114625853D01*
X149417500Y-114680189D01*
X149414276Y-114680189D01*
X149401901Y-114620684D01*
X149387019Y-114567349D01*
X149227870Y-114045646D01*
X148969950Y-114045646D01*
G37*
G36*
X147596230Y-114889750D02*
G01*
X147855909Y-114889750D01*
X147855909Y-114402632D01*
X147860659Y-114338685D01*
X147878209Y-114280802D01*
X147919772Y-114232842D01*
X147982712Y-114214651D01*
X147991024Y-114214467D01*
X148050139Y-114226059D01*
X148097791Y-114260835D01*
X148103278Y-114267223D01*
X148132530Y-114318827D01*
X148145025Y-114376489D01*
X148146070Y-114401166D01*
X148146070Y-114889750D01*
X148406628Y-114889750D01*
X148406628Y-113632974D01*
X148146070Y-113632974D01*
X148146070Y-114164055D01*
X148142846Y-114164055D01*
X148104515Y-114117440D01*
X148053753Y-114075245D01*
X147996483Y-114046177D01*
X147932706Y-114030237D01*
X147883167Y-114026888D01*
X147815916Y-114032288D01*
X147757632Y-114048486D01*
X147697387Y-114083918D01*
X147651152Y-114136224D01*
X147624251Y-114190217D01*
X147606318Y-114255009D01*
X147597351Y-114330599D01*
X147596230Y-114372443D01*
X147596230Y-114889750D01*
G37*
G36*
X147104911Y-114029121D02*
G01*
X147163768Y-114036734D01*
X147226642Y-114049750D01*
X147260631Y-114058460D01*
X147320202Y-114077364D01*
X147375532Y-114101920D01*
X147375532Y-114289498D01*
X147341300Y-114271913D01*
X147280270Y-114246780D01*
X147217809Y-114228828D01*
X147153918Y-114218057D01*
X147088596Y-114214467D01*
X147053425Y-114216519D01*
X146991436Y-114236137D01*
X146950403Y-114282299D01*
X146938533Y-114345772D01*
X147167731Y-114375960D01*
X147219743Y-114384798D01*
X147281134Y-114402191D01*
X147345083Y-114432948D01*
X147394821Y-114473723D01*
X147430349Y-114524516D01*
X147451665Y-114585327D01*
X147458770Y-114656156D01*
X147458152Y-114677241D01*
X147448879Y-114735675D01*
X147425523Y-114792118D01*
X147388428Y-114839631D01*
X147369955Y-114855774D01*
X147316637Y-114886714D01*
X147259939Y-114903059D01*
X147194988Y-114908507D01*
X147144954Y-114905094D01*
X147081589Y-114888847D01*
X147026023Y-114859221D01*
X146978254Y-114816214D01*
X146943516Y-114768703D01*
X146940292Y-114768703D01*
X146940292Y-114889750D01*
X146693802Y-114889750D01*
X146693802Y-114550057D01*
X146938533Y-114550057D01*
X146938940Y-114563733D01*
X146951603Y-114621564D01*
X146984842Y-114672569D01*
X146993709Y-114681211D01*
X147045233Y-114711672D01*
X147104130Y-114720929D01*
X147132090Y-114718796D01*
X147187954Y-114693964D01*
X147199945Y-114681310D01*
X147218729Y-114624209D01*
X147200882Y-114564830D01*
X147153167Y-114529662D01*
X147091820Y-114514592D01*
X146938533Y-114495835D01*
X146938533Y-114550057D01*
X146693802Y-114550057D01*
X146693802Y-114386218D01*
X146696975Y-114322002D01*
X146706496Y-114264102D01*
X146729064Y-114196728D01*
X146762916Y-114140583D01*
X146808053Y-114095666D01*
X146864473Y-114061979D01*
X146932177Y-114039521D01*
X146990360Y-114030047D01*
X147054890Y-114026888D01*
X147104911Y-114029121D01*
G37*
G36*
X145681757Y-114889750D02*
G01*
X145941436Y-114889750D01*
X145941436Y-114402632D01*
X145946186Y-114338685D01*
X145963735Y-114280802D01*
X146005299Y-114232842D01*
X146068239Y-114214651D01*
X146076551Y-114214467D01*
X146135666Y-114226059D01*
X146183318Y-114260835D01*
X146188805Y-114267223D01*
X146218057Y-114318827D01*
X146230552Y-114376489D01*
X146231597Y-114401166D01*
X146231597Y-114889750D01*
X146492155Y-114889750D01*
X146492155Y-113632974D01*
X146231597Y-113632974D01*
X146231597Y-114164055D01*
X146228373Y-114164055D01*
X146190042Y-114117440D01*
X146139280Y-114075245D01*
X146082010Y-114046177D01*
X146018233Y-114030237D01*
X145968694Y-114026888D01*
X145901443Y-114032288D01*
X145843159Y-114048486D01*
X145782913Y-114083918D01*
X145736679Y-114136224D01*
X145709778Y-114190217D01*
X145691845Y-114255009D01*
X145682878Y-114330599D01*
X145681757Y-114372443D01*
X145681757Y-114889750D01*
G37*
G36*
X145190438Y-114029121D02*
G01*
X145249294Y-114036734D01*
X145312169Y-114049750D01*
X145346158Y-114058460D01*
X145405729Y-114077364D01*
X145461059Y-114101920D01*
X145461059Y-114289498D01*
X145426827Y-114271913D01*
X145365797Y-114246780D01*
X145303336Y-114228828D01*
X145239445Y-114218057D01*
X145174123Y-114214467D01*
X145138952Y-114216519D01*
X145076963Y-114236137D01*
X145035930Y-114282299D01*
X145024060Y-114345772D01*
X145253258Y-114375960D01*
X145305270Y-114384798D01*
X145366661Y-114402191D01*
X145430610Y-114432948D01*
X145480348Y-114473723D01*
X145515875Y-114524516D01*
X145537192Y-114585327D01*
X145544297Y-114656156D01*
X145543679Y-114677241D01*
X145534405Y-114735675D01*
X145511050Y-114792118D01*
X145473955Y-114839631D01*
X145455481Y-114855774D01*
X145402164Y-114886714D01*
X145345466Y-114903059D01*
X145280515Y-114908507D01*
X145230481Y-114905094D01*
X145167116Y-114888847D01*
X145111550Y-114859221D01*
X145063781Y-114816214D01*
X145029043Y-114768703D01*
X145025819Y-114768703D01*
X145025819Y-114889750D01*
X144779329Y-114889750D01*
X144779329Y-114550057D01*
X145024060Y-114550057D01*
X145024467Y-114563733D01*
X145037130Y-114621564D01*
X145070368Y-114672569D01*
X145079236Y-114681211D01*
X145130760Y-114711672D01*
X145189657Y-114720929D01*
X145217617Y-114718796D01*
X145273481Y-114693964D01*
X145285472Y-114681310D01*
X145304255Y-114624209D01*
X145286409Y-114564830D01*
X145238694Y-114529662D01*
X145177347Y-114514592D01*
X145024060Y-114495835D01*
X145024060Y-114550057D01*
X144779329Y-114550057D01*
X144779329Y-114386218D01*
X144782502Y-114322002D01*
X144792023Y-114264102D01*
X144814591Y-114196728D01*
X144848443Y-114140583D01*
X144893579Y-114095666D01*
X144950000Y-114061979D01*
X145017704Y-114039521D01*
X145075887Y-114030047D01*
X145140417Y-114026888D01*
X145190438Y-114029121D01*
G37*
X146760700Y-115726455D02*
G75*
G02*
X146976911Y-115816013I-157J-306148D01*
G01*
X148728802Y-117403513D02*
X156071197Y-117403513D01*
X146760700Y-115726455D02*
X145570072Y-115726455D01*
D12*
G36*
X155286013Y-118749497D02*
G01*
X155346462Y-118771424D01*
X155404281Y-118785932D01*
X155467644Y-118796483D01*
X155536550Y-118803078D01*
X155598207Y-118805551D01*
X155623947Y-118805770D01*
X155690200Y-118803279D01*
X155752816Y-118795805D01*
X155811796Y-118783349D01*
X155880408Y-118760772D01*
X155943338Y-118730409D01*
X156000587Y-118692262D01*
X156052154Y-118646329D01*
X156096989Y-118593913D01*
X156134225Y-118536316D01*
X156163862Y-118473539D01*
X156185900Y-118405581D01*
X156198059Y-118347485D01*
X156205354Y-118286073D01*
X156207785Y-118221346D01*
X156205047Y-118152309D01*
X156196831Y-118086616D01*
X156183138Y-118024265D01*
X156163968Y-117965257D01*
X156139321Y-117909593D01*
X156109197Y-117857272D01*
X156073595Y-117808293D01*
X156032517Y-117762658D01*
X155987074Y-117721373D01*
X155938380Y-117685593D01*
X155886434Y-117655318D01*
X155831236Y-117630547D01*
X155772787Y-117611281D01*
X155711087Y-117597519D01*
X155646135Y-117589262D01*
X155577932Y-117586510D01*
X155514892Y-117587829D01*
X155455685Y-117591786D01*
X155391455Y-117599736D01*
X155332443Y-117611276D01*
X155286013Y-117624026D01*
X155286013Y-117886636D01*
X155339530Y-117857400D01*
X155396216Y-117835345D01*
X155456073Y-117820470D01*
X155519099Y-117812777D01*
X155556536Y-117811604D01*
X155616708Y-117815314D01*
X155681205Y-117829018D01*
X155739558Y-117852820D01*
X155791769Y-117886720D01*
X155825301Y-117917117D01*
X155865158Y-117966855D01*
X155895225Y-118023746D01*
X155915503Y-118087790D01*
X155925093Y-118148377D01*
X155927590Y-118202881D01*
X155924200Y-118265155D01*
X155911676Y-118331583D01*
X155889923Y-118391307D01*
X155858942Y-118444327D01*
X155831163Y-118478094D01*
X155785778Y-118518065D01*
X155733999Y-118548219D01*
X155675823Y-118568555D01*
X155611253Y-118579073D01*
X155571484Y-118580676D01*
X155504529Y-118577983D01*
X155440099Y-118569905D01*
X155378193Y-118556441D01*
X155318812Y-118537592D01*
X155286013Y-118524403D01*
X155286013Y-118749497D01*
G37*
G36*
X154819899Y-117926384D02*
G01*
X154878756Y-117933997D01*
X154941631Y-117947013D01*
X154975620Y-117955723D01*
X155035191Y-117974627D01*
X155090521Y-117999183D01*
X155090521Y-118186761D01*
X155056289Y-118169176D01*
X154995259Y-118144043D01*
X154932798Y-118126091D01*
X154868906Y-118115320D01*
X154803585Y-118111730D01*
X154768414Y-118113782D01*
X154706425Y-118133400D01*
X154665392Y-118179562D01*
X154653522Y-118243035D01*
X154882719Y-118273223D01*
X154934731Y-118282061D01*
X154996122Y-118299454D01*
X155060072Y-118330211D01*
X155109810Y-118370986D01*
X155145337Y-118421779D01*
X155166654Y-118482590D01*
X155173759Y-118553419D01*
X155173141Y-118574504D01*
X155163867Y-118632938D01*
X155140511Y-118689381D01*
X155103417Y-118736894D01*
X155084943Y-118753037D01*
X155031626Y-118783977D01*
X154974928Y-118800322D01*
X154909977Y-118805770D01*
X154859942Y-118802357D01*
X154796578Y-118786110D01*
X154741011Y-118756484D01*
X154693242Y-118713477D01*
X154658504Y-118665966D01*
X154655280Y-118665966D01*
X154655280Y-118787013D01*
X154408790Y-118787013D01*
X154408790Y-118447320D01*
X154653522Y-118447320D01*
X154653929Y-118460996D01*
X154666591Y-118518827D01*
X154699830Y-118569832D01*
X154708698Y-118578474D01*
X154760222Y-118608935D01*
X154819118Y-118618192D01*
X154847078Y-118616059D01*
X154902942Y-118591227D01*
X154914934Y-118578573D01*
X154933717Y-118521472D01*
X154915871Y-118462093D01*
X154868156Y-118426925D01*
X154806809Y-118411855D01*
X154653522Y-118393098D01*
X154653522Y-118447320D01*
X154408790Y-118447320D01*
X154408790Y-118283481D01*
X154411964Y-118219265D01*
X154421485Y-118161365D01*
X154444053Y-118093991D01*
X154477905Y-118037846D01*
X154523041Y-117992929D01*
X154579461Y-117959242D01*
X154647165Y-117936784D01*
X154705349Y-117927310D01*
X154769879Y-117924151D01*
X154819899Y-117926384D01*
G37*
G36*
X153946585Y-118787013D02*
G01*
X154207143Y-118787013D01*
X154207143Y-117530237D01*
X153946585Y-117530237D01*
X153946585Y-118787013D01*
G37*
G36*
X152926334Y-117942909D02*
G01*
X153240235Y-118787013D01*
X153537136Y-118787013D01*
X153836383Y-117942909D01*
X153557653Y-117942909D01*
X153410814Y-118463146D01*
X153396312Y-118520681D01*
X153385425Y-118580640D01*
X153382091Y-118613209D01*
X153378867Y-118613209D01*
X153369250Y-118552137D01*
X153355621Y-118494469D01*
X153348386Y-118468129D01*
X153198323Y-117942909D01*
X152926334Y-117942909D01*
G37*
G36*
X152688344Y-117811604D02*
G01*
X152748354Y-117802006D01*
X152796494Y-117773209D01*
X152830384Y-117724544D01*
X152838407Y-117679127D01*
X152825145Y-117621177D01*
X152796494Y-117585338D01*
X152744951Y-117556980D01*
X152688344Y-117548994D01*
X152627820Y-117558080D01*
X152579900Y-117585338D01*
X152545150Y-117635935D01*
X152538281Y-117679127D01*
X152551449Y-117737829D01*
X152579900Y-117774382D01*
X152631234Y-117803425D01*
X152688344Y-117811604D01*
G37*
G36*
X152559677Y-118787013D02*
G01*
X152820235Y-118787013D01*
X152820235Y-117942909D01*
X152559677Y-117942909D01*
X152559677Y-118787013D01*
G37*
G36*
X151527702Y-118787013D02*
G01*
X151787381Y-118787013D01*
X151787381Y-118310739D01*
X151792306Y-118243107D01*
X151810502Y-118181888D01*
X151847716Y-118135246D01*
X151902441Y-118113479D01*
X151927478Y-118111730D01*
X151985670Y-118123322D01*
X152033300Y-118158098D01*
X152038853Y-118164486D01*
X152068706Y-118216090D01*
X152081458Y-118273752D01*
X152082524Y-118298429D01*
X152082524Y-118787013D01*
X152343082Y-118787013D01*
X152343082Y-117942909D01*
X152082524Y-117942909D01*
X152082524Y-118069232D01*
X152079300Y-118069232D01*
X152041360Y-118019927D01*
X151997445Y-117980823D01*
X151938657Y-117948095D01*
X151881792Y-117931094D01*
X151818952Y-117924293D01*
X151807897Y-117924151D01*
X151742226Y-117929574D01*
X151685312Y-117945840D01*
X151626482Y-117981423D01*
X151581333Y-118033951D01*
X151555065Y-118088173D01*
X151537552Y-118153239D01*
X151528796Y-118229150D01*
X151527702Y-118271172D01*
X151527702Y-118787013D01*
G37*
G36*
X150998585Y-117590438D02*
G01*
X151058849Y-117602224D01*
X151114105Y-117621866D01*
X151173799Y-117655807D01*
X151226281Y-117701062D01*
X151264506Y-117747417D01*
X151271520Y-117757598D01*
X151303252Y-117812779D01*
X151329417Y-117875087D01*
X151350015Y-117944521D01*
X151362485Y-118005200D01*
X151371392Y-118070441D01*
X151376737Y-118140242D01*
X151378518Y-118214605D01*
X151376870Y-118286191D01*
X151371924Y-118353159D01*
X151363680Y-118415509D01*
X151352140Y-118473240D01*
X151328647Y-118551177D01*
X151297735Y-118618722D01*
X151259404Y-118675876D01*
X151213654Y-118722638D01*
X151160486Y-118759008D01*
X151099898Y-118784987D01*
X151031892Y-118800575D01*
X150956467Y-118805770D01*
X150905455Y-118803279D01*
X150845979Y-118793158D01*
X150780899Y-118770737D01*
X150722682Y-118737105D01*
X150671327Y-118692262D01*
X150633773Y-118646329D01*
X150626849Y-118636227D01*
X150595524Y-118581623D01*
X150569696Y-118520193D01*
X150549363Y-118451936D01*
X150537053Y-118392415D01*
X150528260Y-118328526D01*
X150522984Y-118260268D01*
X150521432Y-118196140D01*
X150786767Y-118196140D01*
X150788186Y-118268213D01*
X150792444Y-118333197D01*
X150802537Y-118408815D01*
X150817677Y-118471829D01*
X150843699Y-118532875D01*
X150885334Y-118580136D01*
X150948260Y-118599434D01*
X151012784Y-118580711D01*
X151055477Y-118534858D01*
X151082160Y-118475631D01*
X151097685Y-118414494D01*
X151108035Y-118341130D01*
X151112401Y-118278082D01*
X151113857Y-118208157D01*
X151113692Y-118182606D01*
X151111219Y-118110819D01*
X151105778Y-118046332D01*
X151093908Y-117971706D01*
X151076762Y-117910058D01*
X151047911Y-117851249D01*
X151002409Y-117807447D01*
X150945036Y-117792846D01*
X150883367Y-117812145D01*
X150842563Y-117859406D01*
X150817060Y-117920451D01*
X150802223Y-117983466D01*
X150792331Y-118059083D01*
X150788158Y-118124067D01*
X150786767Y-118196140D01*
X150521432Y-118196140D01*
X150521226Y-118187641D01*
X150522836Y-118114847D01*
X150527665Y-118046751D01*
X150535713Y-117983350D01*
X150546981Y-117924646D01*
X150569920Y-117845395D01*
X150600102Y-117776712D01*
X150637528Y-117718594D01*
X150682197Y-117671044D01*
X150734110Y-117634060D01*
X150793267Y-117607644D01*
X150859668Y-117591793D01*
X150933312Y-117586510D01*
X150998585Y-117590438D01*
G37*
G36*
X150353284Y-118753307D02*
G01*
X150353284Y-118524403D01*
X150299455Y-118553638D01*
X150244139Y-118575694D01*
X150187336Y-118590568D01*
X150129047Y-118598262D01*
X150095071Y-118599434D01*
X150035153Y-118594912D01*
X149974813Y-118577546D01*
X149934164Y-118553126D01*
X149894293Y-118506266D01*
X149876750Y-118446729D01*
X149875839Y-118427389D01*
X149887718Y-118362865D01*
X149923355Y-118314188D01*
X149982750Y-118281360D01*
X150052570Y-118265836D01*
X150124087Y-118261793D01*
X150183988Y-118263167D01*
X150242597Y-118266752D01*
X150305657Y-118272564D01*
X150335113Y-118275861D01*
X150290563Y-117605268D01*
X149664813Y-117605268D01*
X149664813Y-117811604D01*
X150091847Y-117811604D01*
X150108260Y-118060439D01*
X150049202Y-118056702D01*
X149998644Y-118055456D01*
X149933172Y-118058785D01*
X149873265Y-118068769D01*
X149810405Y-118088831D01*
X149755119Y-118117952D01*
X149713759Y-118150125D01*
X149673560Y-118194656D01*
X149643234Y-118245414D01*
X149622782Y-118302399D01*
X149612203Y-118365611D01*
X149610591Y-118404528D01*
X149614908Y-118468636D01*
X149627860Y-118528190D01*
X149649447Y-118583189D01*
X149679669Y-118633634D01*
X149718525Y-118679525D01*
X149733396Y-118693809D01*
X149782519Y-118731859D01*
X149837782Y-118762036D01*
X149899187Y-118784340D01*
X149966733Y-118798773D01*
X150027713Y-118804786D01*
X150066348Y-118805770D01*
X150128409Y-118803926D01*
X150195995Y-118797112D01*
X150258392Y-118785277D01*
X150315599Y-118768421D01*
X150353284Y-118753307D01*
G37*
G36*
X148924119Y-117587684D02*
G01*
X148989580Y-117595710D01*
X149051147Y-117611342D01*
X149108818Y-117634577D01*
X149138976Y-117650571D01*
X149189690Y-117684265D01*
X149235813Y-117724265D01*
X149277346Y-117770571D01*
X149306207Y-117810765D01*
X149338822Y-117867511D01*
X149363570Y-117922741D01*
X149384324Y-117982477D01*
X149391029Y-118005917D01*
X149405683Y-118070869D01*
X149414659Y-118130617D01*
X149420045Y-118193086D01*
X149421840Y-118258276D01*
X149420830Y-118305688D01*
X149416342Y-118365955D01*
X149407002Y-118429726D01*
X149393117Y-118489232D01*
X149391279Y-118495575D01*
X149370190Y-118555613D01*
X149344178Y-118609469D01*
X149309879Y-118661569D01*
X149273460Y-118702270D01*
X149227978Y-118739504D01*
X149176815Y-118768841D01*
X149120118Y-118789866D01*
X149058434Y-118802164D01*
X148998030Y-118805770D01*
X148954359Y-118803774D01*
X148892150Y-118793291D01*
X148833899Y-118773823D01*
X148802068Y-118758582D01*
X148752135Y-118727169D01*
X148704645Y-118685603D01*
X148678890Y-118656202D01*
X148645890Y-118607361D01*
X148619649Y-118552832D01*
X148604914Y-118508876D01*
X148592769Y-118447381D01*
X148590396Y-118408338D01*
X148843864Y-118408338D01*
X148844383Y-118426481D01*
X148854708Y-118486008D01*
X148857497Y-118494713D01*
X148885483Y-118546678D01*
X148886755Y-118548224D01*
X148934136Y-118585659D01*
X148939528Y-118588120D01*
X148998030Y-118599434D01*
X149004623Y-118599295D01*
X149062510Y-118583607D01*
X149067828Y-118580487D01*
X149112335Y-118540230D01*
X149119820Y-118529579D01*
X149144869Y-118476043D01*
X149149869Y-118457376D01*
X149156299Y-118397201D01*
X149156027Y-118385374D01*
X149145162Y-118327445D01*
X149143733Y-118323557D01*
X149113508Y-118272930D01*
X149112199Y-118271493D01*
X149063975Y-118237173D01*
X149058530Y-118234868D01*
X148999788Y-118224277D01*
X148971923Y-118225895D01*
X148911015Y-118246026D01*
X148869597Y-118289166D01*
X148849345Y-118345786D01*
X148843864Y-118408338D01*
X148590396Y-118408338D01*
X148589167Y-118388115D01*
X148589981Y-118357437D01*
X148597330Y-118294643D01*
X148612321Y-118236880D01*
X148616778Y-118224248D01*
X148642071Y-118169864D01*
X148677388Y-118119936D01*
X148682695Y-118113941D01*
X148726882Y-118074446D01*
X148778797Y-118044612D01*
X148790024Y-118039845D01*
X148849946Y-118023046D01*
X148911568Y-118017941D01*
X148951282Y-118019965D01*
X149014786Y-118033248D01*
X149070661Y-118058930D01*
X149118907Y-118097009D01*
X149159523Y-118147487D01*
X149164506Y-118147487D01*
X149163470Y-118122672D01*
X149156221Y-118061634D01*
X149141058Y-118001528D01*
X149139669Y-117997443D01*
X149115046Y-117940711D01*
X149080975Y-117889567D01*
X149041631Y-117850789D01*
X148988944Y-117818052D01*
X148985580Y-117816502D01*
X148928482Y-117798385D01*
X148869363Y-117792846D01*
X148856163Y-117793047D01*
X148792055Y-117800059D01*
X148731096Y-117817089D01*
X148673284Y-117844137D01*
X148673284Y-117619922D01*
X148698495Y-117610297D01*
X148757846Y-117595940D01*
X148821442Y-117588598D01*
X148886069Y-117586510D01*
X148924119Y-117587684D01*
G37*
G36*
X148441742Y-118747445D02*
G01*
X148441742Y-118524403D01*
X148387917Y-118553638D01*
X148330305Y-118575694D01*
X148268906Y-118590568D01*
X148203720Y-118598262D01*
X148164771Y-118599434D01*
X148101456Y-118594516D01*
X148044234Y-118577934D01*
X148009432Y-118557815D01*
X147969461Y-118511310D01*
X147953963Y-118450379D01*
X147953745Y-118441165D01*
X147966928Y-118380505D01*
X148006479Y-118333421D01*
X148022621Y-118322463D01*
X148081492Y-118296922D01*
X148141570Y-118284644D01*
X148204205Y-118280591D01*
X148211665Y-118280551D01*
X148321282Y-118280551D01*
X148321282Y-118074214D01*
X148219872Y-118074214D01*
X148153421Y-118070672D01*
X148088547Y-118057071D01*
X148033359Y-118028310D01*
X147997318Y-117978439D01*
X147989209Y-117929134D01*
X148000292Y-117869508D01*
X148039254Y-117822792D01*
X148097437Y-117799368D01*
X148166529Y-117792846D01*
X148225459Y-117797536D01*
X148283546Y-117811604D01*
X148340791Y-117835052D01*
X148397192Y-117867878D01*
X148397192Y-117650404D01*
X148340732Y-117625508D01*
X148280345Y-117606726D01*
X148216031Y-117594060D01*
X148147790Y-117587508D01*
X148107032Y-117586510D01*
X148041832Y-117589354D01*
X147982299Y-117597886D01*
X147920006Y-117615028D01*
X147865427Y-117639912D01*
X147824785Y-117667403D01*
X147780546Y-117710744D01*
X147748947Y-117760167D01*
X147729988Y-117815671D01*
X147723668Y-117877257D01*
X147729407Y-117944702D01*
X147746623Y-118003790D01*
X147782433Y-118063663D01*
X147824900Y-118104364D01*
X147878844Y-118136707D01*
X147944266Y-118160692D01*
X147958728Y-118164486D01*
X147958728Y-118168590D01*
X147899322Y-118180240D01*
X147840416Y-118202280D01*
X147789903Y-118233780D01*
X147760891Y-118260034D01*
X147722560Y-118310673D01*
X147698426Y-118368066D01*
X147688488Y-118432214D01*
X147688204Y-118445854D01*
X147692470Y-118505741D01*
X147708230Y-118569462D01*
X147735603Y-118626563D01*
X147774588Y-118677045D01*
X147809544Y-118709050D01*
X147858193Y-118741920D01*
X147913353Y-118767989D01*
X147975026Y-118787258D01*
X148043211Y-118799725D01*
X148105007Y-118804920D01*
X148144254Y-118805770D01*
X148210437Y-118803720D01*
X148271818Y-118797568D01*
X148337360Y-118785208D01*
X148396367Y-118767267D01*
X148441742Y-118747445D01*
G37*
D10*
X145137650Y-116032224D02*
X145353861Y-115816013D01*
X156468073Y-117800389D02*
X156468928Y-118919526D01*
X148728802Y-117403513D02*
G75*
G02*
X148448169Y-117287271I257J397495D01*
G01*
X146976911Y-115816013D02*
X148448169Y-117287271D01*
X145353861Y-115816013D02*
G75*
G02*
X145570072Y-115726455I216291J-216402D01*
G01*
X156071197Y-117403513D02*
G75*
G02*
X156468087Y-117800389I103J-396787D01*
G01*
D13*
X154507738Y-32899795D02*
X154507738Y-33471223D01*
X154507738Y-33471223D02*
X154545833Y-33585509D01*
X154545833Y-33585509D02*
X154622024Y-33661700D01*
X154622024Y-33661700D02*
X154736309Y-33699795D01*
X154736309Y-33699795D02*
X154812500Y-33699795D01*
X153745833Y-33699795D02*
X154126785Y-33699795D01*
X154126785Y-33699795D02*
X154126785Y-32899795D01*
X153022023Y-33623604D02*
X153060119Y-33661700D01*
X153060119Y-33661700D02*
X153174404Y-33699795D01*
X153174404Y-33699795D02*
X153250595Y-33699795D01*
X153250595Y-33699795D02*
X153364881Y-33661700D01*
X153364881Y-33661700D02*
X153441071Y-33585509D01*
X153441071Y-33585509D02*
X153479166Y-33509319D01*
X153479166Y-33509319D02*
X153517262Y-33356938D01*
X153517262Y-33356938D02*
X153517262Y-33242652D01*
X153517262Y-33242652D02*
X153479166Y-33090271D01*
X153479166Y-33090271D02*
X153441071Y-33014080D01*
X153441071Y-33014080D02*
X153364881Y-32937890D01*
X153364881Y-32937890D02*
X153250595Y-32899795D01*
X153250595Y-32899795D02*
X153174404Y-32899795D01*
X153174404Y-32899795D02*
X153060119Y-32937890D01*
X153060119Y-32937890D02*
X153022023Y-32975985D01*
X152450595Y-32899795D02*
X152450595Y-33471223D01*
X152450595Y-33471223D02*
X152488690Y-33585509D01*
X152488690Y-33585509D02*
X152564881Y-33661700D01*
X152564881Y-33661700D02*
X152679166Y-33699795D01*
X152679166Y-33699795D02*
X152755357Y-33699795D01*
X151688690Y-33699795D02*
X152069642Y-33699795D01*
X152069642Y-33699795D02*
X152069642Y-32899795D01*
X150964880Y-33623604D02*
X151002976Y-33661700D01*
X151002976Y-33661700D02*
X151117261Y-33699795D01*
X151117261Y-33699795D02*
X151193452Y-33699795D01*
X151193452Y-33699795D02*
X151307738Y-33661700D01*
X151307738Y-33661700D02*
X151383928Y-33585509D01*
X151383928Y-33585509D02*
X151422023Y-33509319D01*
X151422023Y-33509319D02*
X151460119Y-33356938D01*
X151460119Y-33356938D02*
X151460119Y-33242652D01*
X151460119Y-33242652D02*
X151422023Y-33090271D01*
X151422023Y-33090271D02*
X151383928Y-33014080D01*
X151383928Y-33014080D02*
X151307738Y-32937890D01*
X151307738Y-32937890D02*
X151193452Y-32899795D01*
X151193452Y-32899795D02*
X151117261Y-32899795D01*
X151117261Y-32899795D02*
X151002976Y-32937890D01*
X151002976Y-32937890D02*
X150964880Y-32975985D01*
X150393452Y-32899795D02*
X150393452Y-33471223D01*
X150393452Y-33471223D02*
X150431547Y-33585509D01*
X150431547Y-33585509D02*
X150507738Y-33661700D01*
X150507738Y-33661700D02*
X150622023Y-33699795D01*
X150622023Y-33699795D02*
X150698214Y-33699795D01*
X149631547Y-33699795D02*
X150012499Y-33699795D01*
X150012499Y-33699795D02*
X150012499Y-32899795D01*
X148907737Y-33623604D02*
X148945833Y-33661700D01*
X148945833Y-33661700D02*
X149060118Y-33699795D01*
X149060118Y-33699795D02*
X149136309Y-33699795D01*
X149136309Y-33699795D02*
X149250595Y-33661700D01*
X149250595Y-33661700D02*
X149326785Y-33585509D01*
X149326785Y-33585509D02*
X149364880Y-33509319D01*
X149364880Y-33509319D02*
X149402976Y-33356938D01*
X149402976Y-33356938D02*
X149402976Y-33242652D01*
X149402976Y-33242652D02*
X149364880Y-33090271D01*
X149364880Y-33090271D02*
X149326785Y-33014080D01*
X149326785Y-33014080D02*
X149250595Y-32937890D01*
X149250595Y-32937890D02*
X149136309Y-32899795D01*
X149136309Y-32899795D02*
X149060118Y-32899795D01*
X149060118Y-32899795D02*
X148945833Y-32937890D01*
X148945833Y-32937890D02*
X148907737Y-32975985D01*
X148336309Y-32899795D02*
X148336309Y-33471223D01*
X148336309Y-33471223D02*
X148374404Y-33585509D01*
X148374404Y-33585509D02*
X148450595Y-33661700D01*
X148450595Y-33661700D02*
X148564880Y-33699795D01*
X148564880Y-33699795D02*
X148641071Y-33699795D01*
X147574404Y-33699795D02*
X147955356Y-33699795D01*
X147955356Y-33699795D02*
X147955356Y-32899795D01*
X146850594Y-33623604D02*
X146888690Y-33661700D01*
X146888690Y-33661700D02*
X147002975Y-33699795D01*
X147002975Y-33699795D02*
X147079166Y-33699795D01*
X147079166Y-33699795D02*
X147193452Y-33661700D01*
X147193452Y-33661700D02*
X147269642Y-33585509D01*
X147269642Y-33585509D02*
X147307737Y-33509319D01*
X147307737Y-33509319D02*
X147345833Y-33356938D01*
X147345833Y-33356938D02*
X147345833Y-33242652D01*
X147345833Y-33242652D02*
X147307737Y-33090271D01*
X147307737Y-33090271D02*
X147269642Y-33014080D01*
X147269642Y-33014080D02*
X147193452Y-32937890D01*
X147193452Y-32937890D02*
X147079166Y-32899795D01*
X147079166Y-32899795D02*
X147002975Y-32899795D01*
X147002975Y-32899795D02*
X146888690Y-32937890D01*
X146888690Y-32937890D02*
X146850594Y-32975985D01*
D10*
X156368750Y-101600000D02*
X153987500Y-101600000D01*
X143414068Y-91393713D02*
X143418896Y-86406748D01*
D14*
X159704313Y-86404870D02*
G75*
G02*
X157504313Y-86404870I-1100000J0D01*
G01*
X157504313Y-86404870D02*
G75*
G02*
X159704313Y-86404870I1100000J0D01*
G01*
X144514068Y-91393713D02*
G75*
G02*
X142314068Y-91393713I-1100000J0D01*
G01*
X142314068Y-91393713D02*
G75*
G02*
X144514068Y-91393713I1100000J0D01*
G01*
X159710220Y-91391324D02*
G75*
G02*
X157510220Y-91391324I-1100000J0D01*
G01*
X157510220Y-91391324D02*
G75*
G02*
X159710220Y-91391324I1100000J0D01*
G01*
D10*
X160337500Y-91281250D02*
X160337500Y-86518750D01*
D14*
X144518896Y-86406748D02*
G75*
G02*
X142318896Y-86406748I-1100000J0D01*
G01*
X142318896Y-86406748D02*
G75*
G02*
X144518896Y-86406748I1100000J0D01*
G01*
D10*
X160337500Y-88900000D02*
X158750000Y-88900000D01*
D11*
X157826750Y-88127833D02*
X159414250Y-88127833D01*
X159414250Y-89715333D01*
X157826750Y-89715333D01*
X157826750Y-88127833D01*
D10*
X160337500Y-86518750D02*
X158750000Y-86518750D01*
X160337500Y-91281250D02*
X158750000Y-91281250D01*
X147637500Y-101600000D02*
X145256250Y-101600000D01*
X145256250Y-96837500D02*
X145256250Y-101600000D01*
X156368750Y-96043750D02*
X156368750Y-101600000D01*
X147519940Y-65539719D02*
X147519940Y-64539719D01*
X147519940Y-65492100D02*
X147615178Y-65539719D01*
X147615178Y-65539719D02*
X147805654Y-65539719D01*
X147805654Y-65539719D02*
X147900892Y-65492100D01*
X147900892Y-65492100D02*
X147948511Y-65444480D01*
X147948511Y-65444480D02*
X147996130Y-65349242D01*
X147996130Y-65349242D02*
X147996130Y-65063528D01*
X147996130Y-65063528D02*
X147948511Y-64968290D01*
X147948511Y-64968290D02*
X147900892Y-64920671D01*
X147900892Y-64920671D02*
X147805654Y-64873052D01*
X147805654Y-64873052D02*
X147615178Y-64873052D01*
X147615178Y-64873052D02*
X147519940Y-64920671D01*
X147043749Y-65539719D02*
X147043749Y-64873052D01*
X147043749Y-64539719D02*
X147091368Y-64587338D01*
X147091368Y-64587338D02*
X147043749Y-64634957D01*
X147043749Y-64634957D02*
X146996130Y-64587338D01*
X146996130Y-64587338D02*
X147043749Y-64539719D01*
X147043749Y-64539719D02*
X147043749Y-64634957D01*
X146424702Y-65539719D02*
X146519940Y-65492100D01*
X146519940Y-65492100D02*
X146567559Y-65444480D01*
X146567559Y-65444480D02*
X146615178Y-65349242D01*
X146615178Y-65349242D02*
X146615178Y-65063528D01*
X146615178Y-65063528D02*
X146567559Y-64968290D01*
X146567559Y-64968290D02*
X146519940Y-64920671D01*
X146519940Y-64920671D02*
X146424702Y-64873052D01*
X146424702Y-64873052D02*
X146281845Y-64873052D01*
X146281845Y-64873052D02*
X146186607Y-64920671D01*
X146186607Y-64920671D02*
X146138988Y-64968290D01*
X146138988Y-64968290D02*
X146091369Y-65063528D01*
X146091369Y-65063528D02*
X146091369Y-65349242D01*
X146091369Y-65349242D02*
X146138988Y-65444480D01*
X146138988Y-65444480D02*
X146186607Y-65492100D01*
X146186607Y-65492100D02*
X146281845Y-65539719D01*
X146281845Y-65539719D02*
X146424702Y-65539719D01*
X176498213Y-120991207D02*
X176450594Y-120943588D01*
X176450594Y-120943588D02*
X176355356Y-120895969D01*
X176355356Y-120895969D02*
X176117261Y-120895969D01*
X176117261Y-120895969D02*
X176022023Y-120943588D01*
X176022023Y-120943588D02*
X175974404Y-120991207D01*
X175974404Y-120991207D02*
X175926785Y-121086445D01*
X175926785Y-121086445D02*
X175926785Y-121181683D01*
X175926785Y-121181683D02*
X175974404Y-121324540D01*
X175974404Y-121324540D02*
X176545832Y-121895969D01*
X176545832Y-121895969D02*
X175926785Y-121895969D01*
X161535850Y-86566666D02*
X161583469Y-86471428D01*
X161583469Y-86471428D02*
X161583469Y-86280952D01*
X161583469Y-86280952D02*
X161535850Y-86185714D01*
X161535850Y-86185714D02*
X161440611Y-86138095D01*
X161440611Y-86138095D02*
X161059659Y-86138095D01*
X161059659Y-86138095D02*
X160964421Y-86185714D01*
X160964421Y-86185714D02*
X160916802Y-86280952D01*
X160916802Y-86280952D02*
X160916802Y-86471428D01*
X160916802Y-86471428D02*
X160964421Y-86566666D01*
X160964421Y-86566666D02*
X161059659Y-86614285D01*
X161059659Y-86614285D02*
X161154897Y-86614285D01*
X161154897Y-86614285D02*
X161250135Y-86138095D01*
X160916802Y-87042857D02*
X161583469Y-87042857D01*
X161012040Y-87042857D02*
X160964421Y-87090476D01*
X160964421Y-87090476D02*
X160916802Y-87185714D01*
X160916802Y-87185714D02*
X160916802Y-87328571D01*
X160916802Y-87328571D02*
X160964421Y-87423809D01*
X160964421Y-87423809D02*
X161059659Y-87471428D01*
X161059659Y-87471428D02*
X161583469Y-87471428D01*
X161535850Y-88376190D02*
X161583469Y-88280952D01*
X161583469Y-88280952D02*
X161583469Y-88090476D01*
X161583469Y-88090476D02*
X161535850Y-87995238D01*
X161535850Y-87995238D02*
X161488230Y-87947619D01*
X161488230Y-87947619D02*
X161392992Y-87900000D01*
X161392992Y-87900000D02*
X161107278Y-87900000D01*
X161107278Y-87900000D02*
X161012040Y-87947619D01*
X161012040Y-87947619D02*
X160964421Y-87995238D01*
X160964421Y-87995238D02*
X160916802Y-88090476D01*
X160916802Y-88090476D02*
X160916802Y-88280952D01*
X160916802Y-88280952D02*
X160964421Y-88376190D01*
X161583469Y-88947619D02*
X161535850Y-88852381D01*
X161535850Y-88852381D02*
X161488230Y-88804762D01*
X161488230Y-88804762D02*
X161392992Y-88757143D01*
X161392992Y-88757143D02*
X161107278Y-88757143D01*
X161107278Y-88757143D02*
X161012040Y-88804762D01*
X161012040Y-88804762D02*
X160964421Y-88852381D01*
X160964421Y-88852381D02*
X160916802Y-88947619D01*
X160916802Y-88947619D02*
X160916802Y-89090476D01*
X160916802Y-89090476D02*
X160964421Y-89185714D01*
X160964421Y-89185714D02*
X161012040Y-89233333D01*
X161012040Y-89233333D02*
X161107278Y-89280952D01*
X161107278Y-89280952D02*
X161392992Y-89280952D01*
X161392992Y-89280952D02*
X161488230Y-89233333D01*
X161488230Y-89233333D02*
X161535850Y-89185714D01*
X161535850Y-89185714D02*
X161583469Y-89090476D01*
X161583469Y-89090476D02*
X161583469Y-88947619D01*
X161583469Y-90138095D02*
X160583469Y-90138095D01*
X161535850Y-90138095D02*
X161583469Y-90042857D01*
X161583469Y-90042857D02*
X161583469Y-89852381D01*
X161583469Y-89852381D02*
X161535850Y-89757143D01*
X161535850Y-89757143D02*
X161488230Y-89709524D01*
X161488230Y-89709524D02*
X161392992Y-89661905D01*
X161392992Y-89661905D02*
X161107278Y-89661905D01*
X161107278Y-89661905D02*
X161012040Y-89709524D01*
X161012040Y-89709524D02*
X160964421Y-89757143D01*
X160964421Y-89757143D02*
X160916802Y-89852381D01*
X160916802Y-89852381D02*
X160916802Y-90042857D01*
X160916802Y-90042857D02*
X160964421Y-90138095D01*
X161535850Y-90995238D02*
X161583469Y-90900000D01*
X161583469Y-90900000D02*
X161583469Y-90709524D01*
X161583469Y-90709524D02*
X161535850Y-90614286D01*
X161535850Y-90614286D02*
X161440611Y-90566667D01*
X161440611Y-90566667D02*
X161059659Y-90566667D01*
X161059659Y-90566667D02*
X160964421Y-90614286D01*
X160964421Y-90614286D02*
X160916802Y-90709524D01*
X160916802Y-90709524D02*
X160916802Y-90900000D01*
X160916802Y-90900000D02*
X160964421Y-90995238D01*
X160964421Y-90995238D02*
X161059659Y-91042857D01*
X161059659Y-91042857D02*
X161154897Y-91042857D01*
X161154897Y-91042857D02*
X161250135Y-90566667D01*
X161583469Y-91471429D02*
X160916802Y-91471429D01*
X161107278Y-91471429D02*
X161012040Y-91519048D01*
X161012040Y-91519048D02*
X160964421Y-91566667D01*
X160964421Y-91566667D02*
X160916802Y-91661905D01*
X160916802Y-91661905D02*
X160916802Y-91757143D01*
X139731547Y-38552219D02*
X139731547Y-37885552D01*
X139731547Y-38076028D02*
X139683928Y-37980790D01*
X139683928Y-37980790D02*
X139636309Y-37933171D01*
X139636309Y-37933171D02*
X139541071Y-37885552D01*
X139541071Y-37885552D02*
X139445833Y-37885552D01*
X138731547Y-38504600D02*
X138826785Y-38552219D01*
X138826785Y-38552219D02*
X139017261Y-38552219D01*
X139017261Y-38552219D02*
X139112499Y-38504600D01*
X139112499Y-38504600D02*
X139160118Y-38409361D01*
X139160118Y-38409361D02*
X139160118Y-38028409D01*
X139160118Y-38028409D02*
X139112499Y-37933171D01*
X139112499Y-37933171D02*
X139017261Y-37885552D01*
X139017261Y-37885552D02*
X138826785Y-37885552D01*
X138826785Y-37885552D02*
X138731547Y-37933171D01*
X138731547Y-37933171D02*
X138683928Y-38028409D01*
X138683928Y-38028409D02*
X138683928Y-38123647D01*
X138683928Y-38123647D02*
X139160118Y-38218885D01*
X138302975Y-38504600D02*
X138207737Y-38552219D01*
X138207737Y-38552219D02*
X138017261Y-38552219D01*
X138017261Y-38552219D02*
X137922023Y-38504600D01*
X137922023Y-38504600D02*
X137874404Y-38409361D01*
X137874404Y-38409361D02*
X137874404Y-38361742D01*
X137874404Y-38361742D02*
X137922023Y-38266504D01*
X137922023Y-38266504D02*
X138017261Y-38218885D01*
X138017261Y-38218885D02*
X138160118Y-38218885D01*
X138160118Y-38218885D02*
X138255356Y-38171266D01*
X138255356Y-38171266D02*
X138302975Y-38076028D01*
X138302975Y-38076028D02*
X138302975Y-38028409D01*
X138302975Y-38028409D02*
X138255356Y-37933171D01*
X138255356Y-37933171D02*
X138160118Y-37885552D01*
X138160118Y-37885552D02*
X138017261Y-37885552D01*
X138017261Y-37885552D02*
X137922023Y-37933171D01*
X137064880Y-38504600D02*
X137160118Y-38552219D01*
X137160118Y-38552219D02*
X137350594Y-38552219D01*
X137350594Y-38552219D02*
X137445832Y-38504600D01*
X137445832Y-38504600D02*
X137493451Y-38409361D01*
X137493451Y-38409361D02*
X137493451Y-38028409D01*
X137493451Y-38028409D02*
X137445832Y-37933171D01*
X137445832Y-37933171D02*
X137350594Y-37885552D01*
X137350594Y-37885552D02*
X137160118Y-37885552D01*
X137160118Y-37885552D02*
X137064880Y-37933171D01*
X137064880Y-37933171D02*
X137017261Y-38028409D01*
X137017261Y-38028409D02*
X137017261Y-38123647D01*
X137017261Y-38123647D02*
X137493451Y-38218885D01*
X136731546Y-37885552D02*
X136350594Y-37885552D01*
X136588689Y-37552219D02*
X136588689Y-38409361D01*
X136588689Y-38409361D02*
X136541070Y-38504600D01*
X136541070Y-38504600D02*
X136445832Y-38552219D01*
X136445832Y-38552219D02*
X136350594Y-38552219D01*
X164917261Y-38552219D02*
X164917261Y-37552219D01*
X164917261Y-37933171D02*
X164822023Y-37885552D01*
X164822023Y-37885552D02*
X164631547Y-37885552D01*
X164631547Y-37885552D02*
X164536309Y-37933171D01*
X164536309Y-37933171D02*
X164488690Y-37980790D01*
X164488690Y-37980790D02*
X164441071Y-38076028D01*
X164441071Y-38076028D02*
X164441071Y-38361742D01*
X164441071Y-38361742D02*
X164488690Y-38456980D01*
X164488690Y-38456980D02*
X164536309Y-38504600D01*
X164536309Y-38504600D02*
X164631547Y-38552219D01*
X164631547Y-38552219D02*
X164822023Y-38552219D01*
X164822023Y-38552219D02*
X164917261Y-38504600D01*
X163869642Y-38552219D02*
X163964880Y-38504600D01*
X163964880Y-38504600D02*
X164012499Y-38456980D01*
X164012499Y-38456980D02*
X164060118Y-38361742D01*
X164060118Y-38361742D02*
X164060118Y-38076028D01*
X164060118Y-38076028D02*
X164012499Y-37980790D01*
X164012499Y-37980790D02*
X163964880Y-37933171D01*
X163964880Y-37933171D02*
X163869642Y-37885552D01*
X163869642Y-37885552D02*
X163726785Y-37885552D01*
X163726785Y-37885552D02*
X163631547Y-37933171D01*
X163631547Y-37933171D02*
X163583928Y-37980790D01*
X163583928Y-37980790D02*
X163536309Y-38076028D01*
X163536309Y-38076028D02*
X163536309Y-38361742D01*
X163536309Y-38361742D02*
X163583928Y-38456980D01*
X163583928Y-38456980D02*
X163631547Y-38504600D01*
X163631547Y-38504600D02*
X163726785Y-38552219D01*
X163726785Y-38552219D02*
X163869642Y-38552219D01*
X162964880Y-38552219D02*
X163060118Y-38504600D01*
X163060118Y-38504600D02*
X163107737Y-38456980D01*
X163107737Y-38456980D02*
X163155356Y-38361742D01*
X163155356Y-38361742D02*
X163155356Y-38076028D01*
X163155356Y-38076028D02*
X163107737Y-37980790D01*
X163107737Y-37980790D02*
X163060118Y-37933171D01*
X163060118Y-37933171D02*
X162964880Y-37885552D01*
X162964880Y-37885552D02*
X162822023Y-37885552D01*
X162822023Y-37885552D02*
X162726785Y-37933171D01*
X162726785Y-37933171D02*
X162679166Y-37980790D01*
X162679166Y-37980790D02*
X162631547Y-38076028D01*
X162631547Y-38076028D02*
X162631547Y-38361742D01*
X162631547Y-38361742D02*
X162679166Y-38456980D01*
X162679166Y-38456980D02*
X162726785Y-38504600D01*
X162726785Y-38504600D02*
X162822023Y-38552219D01*
X162822023Y-38552219D02*
X162964880Y-38552219D01*
X162345832Y-37885552D02*
X161964880Y-37885552D01*
X162202975Y-37552219D02*
X162202975Y-38409361D01*
X162202975Y-38409361D02*
X162155356Y-38504600D01*
X162155356Y-38504600D02*
X162060118Y-38552219D01*
X162060118Y-38552219D02*
X161964880Y-38552219D01*
X142533469Y-65897321D02*
X141533469Y-65897321D01*
X142485850Y-65897321D02*
X142533469Y-65802083D01*
X142533469Y-65802083D02*
X142533469Y-65611607D01*
X142533469Y-65611607D02*
X142485850Y-65516369D01*
X142485850Y-65516369D02*
X142438230Y-65468750D01*
X142438230Y-65468750D02*
X142342992Y-65421131D01*
X142342992Y-65421131D02*
X142057278Y-65421131D01*
X142057278Y-65421131D02*
X141962040Y-65468750D01*
X141962040Y-65468750D02*
X141914421Y-65516369D01*
X141914421Y-65516369D02*
X141866802Y-65611607D01*
X141866802Y-65611607D02*
X141866802Y-65802083D01*
X141866802Y-65802083D02*
X141914421Y-65897321D01*
X142485850Y-66754464D02*
X142533469Y-66659226D01*
X142533469Y-66659226D02*
X142533469Y-66468750D01*
X142533469Y-66468750D02*
X142485850Y-66373512D01*
X142485850Y-66373512D02*
X142390611Y-66325893D01*
X142390611Y-66325893D02*
X142009659Y-66325893D01*
X142009659Y-66325893D02*
X141914421Y-66373512D01*
X141914421Y-66373512D02*
X141866802Y-66468750D01*
X141866802Y-66468750D02*
X141866802Y-66659226D01*
X141866802Y-66659226D02*
X141914421Y-66754464D01*
X141914421Y-66754464D02*
X142009659Y-66802083D01*
X142009659Y-66802083D02*
X142104897Y-66802083D01*
X142104897Y-66802083D02*
X142200135Y-66325893D01*
X142533469Y-67230655D02*
X141533469Y-67230655D01*
X141914421Y-67230655D02*
X141866802Y-67325893D01*
X141866802Y-67325893D02*
X141866802Y-67516369D01*
X141866802Y-67516369D02*
X141914421Y-67611607D01*
X141914421Y-67611607D02*
X141962040Y-67659226D01*
X141962040Y-67659226D02*
X142057278Y-67706845D01*
X142057278Y-67706845D02*
X142342992Y-67706845D01*
X142342992Y-67706845D02*
X142438230Y-67659226D01*
X142438230Y-67659226D02*
X142485850Y-67611607D01*
X142485850Y-67611607D02*
X142533469Y-67516369D01*
X142533469Y-67516369D02*
X142533469Y-67325893D01*
X142533469Y-67325893D02*
X142485850Y-67230655D01*
X141866802Y-68563988D02*
X142533469Y-68563988D01*
X141866802Y-68135417D02*
X142390611Y-68135417D01*
X142390611Y-68135417D02*
X142485850Y-68183036D01*
X142485850Y-68183036D02*
X142533469Y-68278274D01*
X142533469Y-68278274D02*
X142533469Y-68421131D01*
X142533469Y-68421131D02*
X142485850Y-68516369D01*
X142485850Y-68516369D02*
X142438230Y-68563988D01*
X141866802Y-69468750D02*
X142676326Y-69468750D01*
X142676326Y-69468750D02*
X142771564Y-69421131D01*
X142771564Y-69421131D02*
X142819183Y-69373512D01*
X142819183Y-69373512D02*
X142866802Y-69278274D01*
X142866802Y-69278274D02*
X142866802Y-69135417D01*
X142866802Y-69135417D02*
X142819183Y-69040179D01*
X142485850Y-69468750D02*
X142533469Y-69373512D01*
X142533469Y-69373512D02*
X142533469Y-69183036D01*
X142533469Y-69183036D02*
X142485850Y-69087798D01*
X142485850Y-69087798D02*
X142438230Y-69040179D01*
X142438230Y-69040179D02*
X142342992Y-68992560D01*
X142342992Y-68992560D02*
X142057278Y-68992560D01*
X142057278Y-68992560D02*
X141962040Y-69040179D01*
X141962040Y-69040179D02*
X141914421Y-69087798D01*
X141914421Y-69087798D02*
X141866802Y-69183036D01*
X141866802Y-69183036D02*
X141866802Y-69373512D01*
X141866802Y-69373512D02*
X141914421Y-69468750D01*
X125698213Y-121784957D02*
X125650594Y-121737338D01*
X125650594Y-121737338D02*
X125555356Y-121689719D01*
X125555356Y-121689719D02*
X125317261Y-121689719D01*
X125317261Y-121689719D02*
X125222023Y-121737338D01*
X125222023Y-121737338D02*
X125174404Y-121784957D01*
X125174404Y-121784957D02*
X125126785Y-121880195D01*
X125126785Y-121880195D02*
X125126785Y-121975433D01*
X125126785Y-121975433D02*
X125174404Y-122118290D01*
X125174404Y-122118290D02*
X125745832Y-122689719D01*
X125745832Y-122689719D02*
X125126785Y-122689719D01*
X147472321Y-70254600D02*
X147567559Y-70302219D01*
X147567559Y-70302219D02*
X147758035Y-70302219D01*
X147758035Y-70302219D02*
X147853273Y-70254600D01*
X147853273Y-70254600D02*
X147900892Y-70206980D01*
X147900892Y-70206980D02*
X147948511Y-70111742D01*
X147948511Y-70111742D02*
X147948511Y-69826028D01*
X147948511Y-69826028D02*
X147900892Y-69730790D01*
X147900892Y-69730790D02*
X147853273Y-69683171D01*
X147853273Y-69683171D02*
X147758035Y-69635552D01*
X147758035Y-69635552D02*
X147567559Y-69635552D01*
X147567559Y-69635552D02*
X147472321Y-69683171D01*
X146900892Y-70302219D02*
X146996130Y-70254600D01*
X146996130Y-70254600D02*
X147043749Y-70159361D01*
X147043749Y-70159361D02*
X147043749Y-69302219D01*
X146519939Y-70302219D02*
X146519939Y-69302219D01*
X146424701Y-69921266D02*
X146138987Y-70302219D01*
X146138987Y-69635552D02*
X146519939Y-70016504D01*
G36*
X149515167Y-101182023D02*
G01*
X149579346Y-101246202D01*
X149617261Y-101397861D01*
X149617261Y-101706575D01*
X149579345Y-101858235D01*
X149515169Y-101922413D01*
X149455559Y-101952219D01*
X149312297Y-101952219D01*
X149252687Y-101922414D01*
X149188510Y-101858236D01*
X149150595Y-101706575D01*
X149150595Y-101397862D01*
X149188510Y-101246202D01*
X149252689Y-101182023D01*
X149312297Y-101152219D01*
X149455559Y-101152219D01*
X149515167Y-101182023D01*
G37*
G36*
X148522023Y-101476028D02*
G01*
X148264678Y-101476028D01*
X148205068Y-101446223D01*
X148180400Y-101421554D01*
X148150595Y-101361944D01*
X148150595Y-101266302D01*
X148180400Y-101206692D01*
X148205068Y-101182023D01*
X148264678Y-101152219D01*
X148522023Y-101152219D01*
X148522023Y-101476028D01*
G37*
G36*
X153785515Y-102263330D02*
G01*
X147839484Y-102263330D01*
X147839484Y-101242695D01*
X147950595Y-101242695D01*
X147950595Y-101385552D01*
X147952516Y-101405061D01*
X147953891Y-101408381D01*
X147954146Y-101411965D01*
X147961152Y-101430273D01*
X148008771Y-101525511D01*
X148014056Y-101533907D01*
X148015067Y-101536347D01*
X148017320Y-101539093D01*
X148019214Y-101542101D01*
X148021208Y-101543830D01*
X148027503Y-101551501D01*
X148075122Y-101599119D01*
X148082788Y-101605411D01*
X148084521Y-101607409D01*
X148087529Y-101609302D01*
X148090275Y-101611556D01*
X148092715Y-101612566D01*
X148101112Y-101617852D01*
X148196349Y-101665471D01*
X148198639Y-101666347D01*
X147968672Y-101994873D01*
X147959058Y-102011957D01*
X147950618Y-102050051D01*
X147957399Y-102088476D01*
X147978368Y-102121381D01*
X148010333Y-102143756D01*
X148048427Y-102152196D01*
X148086852Y-102145415D01*
X148119757Y-102124446D01*
X148132518Y-102109565D01*
X148435993Y-101676028D01*
X148522023Y-101676028D01*
X148522023Y-102052219D01*
X148523944Y-102071728D01*
X148538876Y-102107776D01*
X148566466Y-102135366D01*
X148602514Y-102150298D01*
X148641532Y-102150298D01*
X148677580Y-102135366D01*
X148705170Y-102107776D01*
X148720102Y-102071728D01*
X148722023Y-102052219D01*
X148722023Y-101385552D01*
X148950595Y-101385552D01*
X148950595Y-101718885D01*
X148950930Y-101722287D01*
X148950713Y-101723746D01*
X148951792Y-101731043D01*
X148952516Y-101738394D01*
X148953080Y-101739757D01*
X148953581Y-101743139D01*
X149001200Y-101933614D01*
X149007795Y-101952075D01*
X149012220Y-101958047D01*
X149015066Y-101964918D01*
X149027503Y-101980071D01*
X149122741Y-102075311D01*
X149130409Y-102081604D01*
X149132140Y-102083600D01*
X149135147Y-102085493D01*
X149137894Y-102087747D01*
X149140334Y-102088757D01*
X149148731Y-102094043D01*
X149243968Y-102141662D01*
X149262277Y-102148668D01*
X149265860Y-102148922D01*
X149269181Y-102150298D01*
X149288690Y-102152219D01*
X149479166Y-102152219D01*
X149498675Y-102150298D01*
X149501995Y-102148922D01*
X149505579Y-102148668D01*
X149523887Y-102141662D01*
X149619125Y-102094043D01*
X149627520Y-102088758D01*
X149629962Y-102087747D01*
X149632709Y-102085491D01*
X149635715Y-102083600D01*
X149637445Y-102081605D01*
X149645115Y-102075310D01*
X149740353Y-101980071D01*
X149752790Y-101964918D01*
X149755635Y-101958047D01*
X149760061Y-101952075D01*
X149766656Y-101933615D01*
X149808434Y-101766504D01*
X149998214Y-101766504D01*
X149998214Y-101861742D01*
X150000135Y-101881251D01*
X150001510Y-101884571D01*
X150001765Y-101888155D01*
X150008771Y-101906463D01*
X150056390Y-102001701D01*
X150061673Y-102010093D01*
X150062685Y-102012537D01*
X150064941Y-102015286D01*
X150066833Y-102018291D01*
X150068827Y-102020020D01*
X150075122Y-102027690D01*
X150122740Y-102075310D01*
X150130408Y-102081603D01*
X150132140Y-102083600D01*
X150135148Y-102085493D01*
X150137894Y-102087747D01*
X150140334Y-102088757D01*
X150148731Y-102094043D01*
X150243968Y-102141662D01*
X150262277Y-102148668D01*
X150265860Y-102148922D01*
X150269181Y-102150298D01*
X150288690Y-102152219D01*
X150526785Y-102152219D01*
X150536658Y-102151246D01*
X150539292Y-102151434D01*
X150542755Y-102150646D01*
X150546294Y-102150298D01*
X150548736Y-102149286D01*
X150558408Y-102147087D01*
X150701264Y-102099468D01*
X150719165Y-102091477D01*
X150748641Y-102065912D01*
X150766090Y-102031013D01*
X150768857Y-101992093D01*
X150756518Y-101955077D01*
X150730953Y-101925601D01*
X150696054Y-101908151D01*
X150657134Y-101905385D01*
X150638019Y-101909732D01*
X150510558Y-101952219D01*
X150312297Y-101952219D01*
X150252687Y-101922414D01*
X150228020Y-101897746D01*
X150198214Y-101838134D01*
X150198214Y-101790111D01*
X150228019Y-101730501D01*
X150252687Y-101705832D01*
X150323594Y-101670379D01*
X150503419Y-101625423D01*
X150504856Y-101624909D01*
X150505579Y-101624858D01*
X150513703Y-101621749D01*
X150521880Y-101618828D01*
X150522460Y-101618397D01*
X150523887Y-101617852D01*
X150619125Y-101570233D01*
X150627521Y-101564947D01*
X150629961Y-101563937D01*
X150632707Y-101561683D01*
X150635715Y-101559790D01*
X150637444Y-101557795D01*
X150645115Y-101551501D01*
X150692733Y-101503882D01*
X150699025Y-101496215D01*
X150701023Y-101494483D01*
X150702916Y-101491474D01*
X150705170Y-101488729D01*
X150706180Y-101486288D01*
X150711466Y-101477892D01*
X150759085Y-101382655D01*
X150766091Y-101364346D01*
X150766345Y-101360762D01*
X150767721Y-101357442D01*
X150769642Y-101337933D01*
X150769642Y-101242695D01*
X150767721Y-101223186D01*
X150766345Y-101219865D01*
X150766091Y-101216282D01*
X150759085Y-101197973D01*
X150711466Y-101102736D01*
X150706180Y-101094339D01*
X150705170Y-101091899D01*
X150702916Y-101089153D01*
X150701023Y-101086145D01*
X150699025Y-101084412D01*
X150692733Y-101076746D01*
X150668207Y-101052219D01*
X150998214Y-101052219D01*
X150998214Y-102052219D01*
X150998708Y-102057236D01*
X150998458Y-102059204D01*
X150999152Y-102061750D01*
X151000135Y-102071728D01*
X151005226Y-102084018D01*
X151008725Y-102096847D01*
X151012627Y-102101885D01*
X151015067Y-102107776D01*
X151024472Y-102117181D01*
X151032615Y-102127696D01*
X151038149Y-102130858D01*
X151042657Y-102135366D01*
X151054942Y-102140454D01*
X151066492Y-102147055D01*
X151072816Y-102147858D01*
X151078705Y-102150298D01*
X151092006Y-102150298D01*
X151105199Y-102151975D01*
X151111348Y-102150298D01*
X151117723Y-102150298D01*
X151130013Y-102145206D01*
X151142842Y-102141708D01*
X151147880Y-102137805D01*
X151153771Y-102135366D01*
X151163176Y-102125960D01*
X151173691Y-102117818D01*
X151179494Y-102109642D01*
X151181361Y-102107776D01*
X151182119Y-102105943D01*
X151185038Y-102101833D01*
X151569642Y-101428775D01*
X151569642Y-102052219D01*
X151571563Y-102071728D01*
X151586495Y-102107776D01*
X151614085Y-102135366D01*
X151650133Y-102150298D01*
X151689151Y-102150298D01*
X151725199Y-102135366D01*
X151752789Y-102107776D01*
X151767721Y-102071728D01*
X151769642Y-102052219D01*
X151769642Y-101052219D01*
X151769147Y-101047201D01*
X151769398Y-101045234D01*
X151768703Y-101042687D01*
X151767721Y-101032710D01*
X152000135Y-101032710D01*
X152000135Y-101071728D01*
X152015067Y-101107776D01*
X152042657Y-101135366D01*
X152078705Y-101150298D01*
X152098214Y-101152219D01*
X152474404Y-101152219D01*
X152474404Y-101428409D01*
X152241071Y-101428409D01*
X152221562Y-101430330D01*
X152185514Y-101445262D01*
X152157924Y-101472852D01*
X152142992Y-101508900D01*
X152142992Y-101547918D01*
X152157924Y-101583966D01*
X152185514Y-101611556D01*
X152221562Y-101626488D01*
X152241071Y-101628409D01*
X152474404Y-101628409D01*
X152474404Y-101952219D01*
X152098214Y-101952219D01*
X152078705Y-101954140D01*
X152042657Y-101969072D01*
X152015067Y-101996662D01*
X152000135Y-102032710D01*
X152000135Y-102071728D01*
X152015067Y-102107776D01*
X152042657Y-102135366D01*
X152078705Y-102150298D01*
X152098214Y-102152219D01*
X152574404Y-102152219D01*
X152593913Y-102150298D01*
X152629961Y-102135366D01*
X152657551Y-102107776D01*
X152672483Y-102071728D01*
X152674404Y-102052219D01*
X152674404Y-101766504D01*
X152902976Y-101766504D01*
X152902976Y-101861742D01*
X152904897Y-101881251D01*
X152906272Y-101884571D01*
X152906527Y-101888155D01*
X152913533Y-101906463D01*
X152961152Y-102001701D01*
X152966435Y-102010093D01*
X152967447Y-102012537D01*
X152969703Y-102015286D01*
X152971595Y-102018291D01*
X152973589Y-102020020D01*
X152979884Y-102027690D01*
X153027502Y-102075310D01*
X153035170Y-102081603D01*
X153036902Y-102083600D01*
X153039910Y-102085493D01*
X153042656Y-102087747D01*
X153045096Y-102088757D01*
X153053493Y-102094043D01*
X153148730Y-102141662D01*
X153167039Y-102148668D01*
X153170622Y-102148922D01*
X153173943Y-102150298D01*
X153193452Y-102152219D01*
X153431547Y-102152219D01*
X153441420Y-102151246D01*
X153444054Y-102151434D01*
X153447517Y-102150646D01*
X153451056Y-102150298D01*
X153453498Y-102149286D01*
X153463170Y-102147087D01*
X153606026Y-102099468D01*
X153623927Y-102091477D01*
X153653403Y-102065912D01*
X153670852Y-102031013D01*
X153673619Y-101992093D01*
X153661280Y-101955077D01*
X153635715Y-101925601D01*
X153600816Y-101908151D01*
X153561896Y-101905385D01*
X153542781Y-101909732D01*
X153415320Y-101952219D01*
X153217059Y-101952219D01*
X153157449Y-101922414D01*
X153132782Y-101897746D01*
X153102976Y-101838134D01*
X153102976Y-101790111D01*
X153132781Y-101730501D01*
X153157449Y-101705832D01*
X153228356Y-101670379D01*
X153408181Y-101625423D01*
X153409618Y-101624909D01*
X153410341Y-101624858D01*
X153418465Y-101621749D01*
X153426642Y-101618828D01*
X153427222Y-101618397D01*
X153428649Y-101617852D01*
X153523887Y-101570233D01*
X153532283Y-101564947D01*
X153534723Y-101563937D01*
X153537469Y-101561683D01*
X153540477Y-101559790D01*
X153542206Y-101557795D01*
X153549877Y-101551501D01*
X153597495Y-101503882D01*
X153603787Y-101496215D01*
X153605785Y-101494483D01*
X153607678Y-101491474D01*
X153609932Y-101488729D01*
X153610942Y-101486288D01*
X153616228Y-101477892D01*
X153663847Y-101382655D01*
X153670853Y-101364346D01*
X153671107Y-101360762D01*
X153672483Y-101357442D01*
X153674404Y-101337933D01*
X153674404Y-101242695D01*
X153672483Y-101223186D01*
X153671107Y-101219865D01*
X153670853Y-101216282D01*
X153663847Y-101197973D01*
X153616228Y-101102736D01*
X153610942Y-101094339D01*
X153609932Y-101091899D01*
X153607678Y-101089153D01*
X153605785Y-101086145D01*
X153603787Y-101084412D01*
X153597495Y-101076746D01*
X153549877Y-101029127D01*
X153542206Y-101022832D01*
X153540477Y-101020838D01*
X153537469Y-101018944D01*
X153534723Y-101016691D01*
X153532283Y-101015680D01*
X153523887Y-101010395D01*
X153428649Y-100962776D01*
X153410341Y-100955770D01*
X153406757Y-100955515D01*
X153403437Y-100954140D01*
X153383928Y-100952219D01*
X153145833Y-100952219D01*
X153135959Y-100953191D01*
X153133325Y-100953004D01*
X153129861Y-100953791D01*
X153126324Y-100954140D01*
X153123882Y-100955151D01*
X153114210Y-100957351D01*
X152971353Y-101004970D01*
X152953453Y-101012961D01*
X152923977Y-101038526D01*
X152906527Y-101073425D01*
X152903761Y-101112345D01*
X152916099Y-101149361D01*
X152941664Y-101178837D01*
X152976563Y-101196287D01*
X153015483Y-101199053D01*
X153034599Y-101194706D01*
X153162059Y-101152219D01*
X153360321Y-101152219D01*
X153419930Y-101182024D01*
X153444599Y-101206692D01*
X153474404Y-101266302D01*
X153474404Y-101314326D01*
X153444599Y-101373935D01*
X153419930Y-101398603D01*
X153349023Y-101434057D01*
X153169198Y-101479014D01*
X153167759Y-101479527D01*
X153167039Y-101479579D01*
X153158914Y-101482687D01*
X153150738Y-101485609D01*
X153150158Y-101486038D01*
X153148730Y-101486585D01*
X153053493Y-101534204D01*
X153045096Y-101539489D01*
X153042656Y-101540500D01*
X153039910Y-101542753D01*
X153036902Y-101544647D01*
X153035169Y-101546644D01*
X153027503Y-101552937D01*
X152979884Y-101600555D01*
X152973589Y-101608225D01*
X152971595Y-101609955D01*
X152969701Y-101612962D01*
X152967448Y-101615709D01*
X152966437Y-101618148D01*
X152961152Y-101626545D01*
X152913533Y-101721783D01*
X152906527Y-101740091D01*
X152906272Y-101743674D01*
X152904897Y-101746995D01*
X152902976Y-101766504D01*
X152674404Y-101766504D01*
X152674404Y-101052219D01*
X152672483Y-101032710D01*
X152657551Y-100996662D01*
X152629961Y-100969072D01*
X152593913Y-100954140D01*
X152574404Y-100952219D01*
X152098214Y-100952219D01*
X152078705Y-100954140D01*
X152042657Y-100969072D01*
X152015067Y-100996662D01*
X152000135Y-101032710D01*
X151767721Y-101032710D01*
X151762631Y-101020423D01*
X151759132Y-101007591D01*
X151755227Y-101002549D01*
X151752789Y-100996662D01*
X151743385Y-100987258D01*
X151735241Y-100976742D01*
X151729706Y-100973579D01*
X151725199Y-100969072D01*
X151712913Y-100963983D01*
X151701364Y-100957383D01*
X151695039Y-100956579D01*
X151689151Y-100954140D01*
X151675851Y-100954140D01*
X151662658Y-100952463D01*
X151656509Y-100954140D01*
X151650133Y-100954140D01*
X151637846Y-100959229D01*
X151625014Y-100962729D01*
X151619972Y-100966633D01*
X151614085Y-100969072D01*
X151604681Y-100978475D01*
X151594165Y-100986620D01*
X151588361Y-100994795D01*
X151586495Y-100996662D01*
X151585736Y-100998494D01*
X151582818Y-101002605D01*
X151198214Y-101675662D01*
X151198214Y-101052219D01*
X151196293Y-101032710D01*
X151181361Y-100996662D01*
X151153771Y-100969072D01*
X151117723Y-100954140D01*
X151078705Y-100954140D01*
X151042657Y-100969072D01*
X151015067Y-100996662D01*
X151000135Y-101032710D01*
X150998214Y-101052219D01*
X150668207Y-101052219D01*
X150645115Y-101029127D01*
X150637444Y-101022832D01*
X150635715Y-101020838D01*
X150632707Y-101018944D01*
X150629961Y-101016691D01*
X150627521Y-101015680D01*
X150619125Y-101010395D01*
X150523887Y-100962776D01*
X150505579Y-100955770D01*
X150501995Y-100955515D01*
X150498675Y-100954140D01*
X150479166Y-100952219D01*
X150241071Y-100952219D01*
X150231197Y-100953191D01*
X150228563Y-100953004D01*
X150225099Y-100953791D01*
X150221562Y-100954140D01*
X150219120Y-100955151D01*
X150209448Y-100957351D01*
X150066591Y-101004970D01*
X150048691Y-101012961D01*
X150019215Y-101038526D01*
X150001765Y-101073425D01*
X149998999Y-101112345D01*
X150011337Y-101149361D01*
X150036902Y-101178837D01*
X150071801Y-101196287D01*
X150110721Y-101199053D01*
X150129837Y-101194706D01*
X150257297Y-101152219D01*
X150455559Y-101152219D01*
X150515168Y-101182024D01*
X150539837Y-101206692D01*
X150569642Y-101266302D01*
X150569642Y-101314326D01*
X150539837Y-101373935D01*
X150515168Y-101398603D01*
X150444261Y-101434057D01*
X150264436Y-101479014D01*
X150262997Y-101479527D01*
X150262277Y-101479579D01*
X150254152Y-101482687D01*
X150245976Y-101485609D01*
X150245396Y-101486038D01*
X150243968Y-101486585D01*
X150148731Y-101534204D01*
X150140334Y-101539489D01*
X150137894Y-101540500D01*
X150135148Y-101542753D01*
X150132140Y-101544647D01*
X150130407Y-101546644D01*
X150122741Y-101552937D01*
X150075122Y-101600555D01*
X150068827Y-101608225D01*
X150066833Y-101609955D01*
X150064939Y-101612962D01*
X150062686Y-101615709D01*
X150061675Y-101618148D01*
X150056390Y-101626545D01*
X150008771Y-101721783D01*
X150001765Y-101740091D01*
X150001510Y-101743674D01*
X150000135Y-101746995D01*
X149998214Y-101766504D01*
X149808434Y-101766504D01*
X149814275Y-101743139D01*
X149814775Y-101739757D01*
X149815340Y-101738394D01*
X149816063Y-101731043D01*
X149817143Y-101723746D01*
X149816925Y-101722287D01*
X149817261Y-101718885D01*
X149817261Y-101385552D01*
X149816925Y-101382149D01*
X149817143Y-101380691D01*
X149816063Y-101373393D01*
X149815340Y-101366043D01*
X149814775Y-101364679D01*
X149814275Y-101361298D01*
X149766656Y-101170822D01*
X149760061Y-101152362D01*
X149755634Y-101146387D01*
X149752789Y-101139519D01*
X149740353Y-101124365D01*
X149645115Y-101029127D01*
X149637444Y-101022832D01*
X149635715Y-101020838D01*
X149632707Y-101018944D01*
X149629961Y-101016691D01*
X149627521Y-101015680D01*
X149619125Y-101010395D01*
X149523887Y-100962776D01*
X149505579Y-100955770D01*
X149501995Y-100955515D01*
X149498675Y-100954140D01*
X149479166Y-100952219D01*
X149288690Y-100952219D01*
X149269181Y-100954140D01*
X149265860Y-100955515D01*
X149262277Y-100955770D01*
X149243968Y-100962776D01*
X149148731Y-101010395D01*
X149140332Y-101015681D01*
X149137895Y-101016691D01*
X149135151Y-101018942D01*
X149132140Y-101020838D01*
X149130407Y-101022835D01*
X149122741Y-101029127D01*
X149027503Y-101124365D01*
X149015067Y-101139519D01*
X149012221Y-101146387D01*
X149007795Y-101152362D01*
X149001200Y-101170823D01*
X148953581Y-101361298D01*
X148953080Y-101364679D01*
X148952516Y-101366043D01*
X148951792Y-101373393D01*
X148950713Y-101380691D01*
X148950930Y-101382149D01*
X148950595Y-101385552D01*
X148722023Y-101385552D01*
X148722023Y-101052219D01*
X148720102Y-101032710D01*
X148705170Y-100996662D01*
X148677580Y-100969072D01*
X148641532Y-100954140D01*
X148622023Y-100952219D01*
X148241071Y-100952219D01*
X148221562Y-100954140D01*
X148218241Y-100955515D01*
X148214658Y-100955770D01*
X148196349Y-100962776D01*
X148101112Y-101010395D01*
X148092715Y-101015680D01*
X148090275Y-101016691D01*
X148087529Y-101018944D01*
X148084521Y-101020838D01*
X148082788Y-101022835D01*
X148075122Y-101029128D01*
X148027503Y-101076746D01*
X148021208Y-101084416D01*
X148019214Y-101086146D01*
X148017320Y-101089153D01*
X148015067Y-101091900D01*
X148014056Y-101094339D01*
X148008771Y-101102736D01*
X147961152Y-101197974D01*
X147954146Y-101216282D01*
X147953891Y-101219865D01*
X147952516Y-101223186D01*
X147950595Y-101242695D01*
X147839484Y-101242695D01*
X147839484Y-100841108D01*
X153785515Y-100841108D01*
X153785515Y-102263330D01*
G37*
G36*
X150681836Y-71743663D02*
G01*
X150622226Y-71773469D01*
X150553920Y-71773469D01*
X150562211Y-71765177D01*
X150621821Y-71735373D01*
X150690127Y-71735373D01*
X150681836Y-71743663D01*
G37*
G36*
X150681834Y-71003273D02*
G01*
X150746013Y-71067452D01*
X150783928Y-71219111D01*
X150783928Y-71527825D01*
X150772064Y-71575281D01*
X150749009Y-71552226D01*
X150712961Y-71537294D01*
X150693452Y-71535373D01*
X150598214Y-71535373D01*
X150578705Y-71537294D01*
X150575384Y-71538669D01*
X150571801Y-71538924D01*
X150553492Y-71545930D01*
X150458255Y-71593549D01*
X150449858Y-71598834D01*
X150447418Y-71599845D01*
X150444672Y-71602098D01*
X150441664Y-71603992D01*
X150439931Y-71605989D01*
X150432265Y-71612282D01*
X150360119Y-71684428D01*
X150355177Y-71679486D01*
X150317262Y-71527825D01*
X150317262Y-71219112D01*
X150355177Y-71067452D01*
X150419356Y-71003273D01*
X150478964Y-70973469D01*
X150622226Y-70973469D01*
X150681834Y-71003273D01*
G37*
G36*
X151736309Y-71297278D02*
G01*
X151478964Y-71297278D01*
X151419354Y-71267473D01*
X151394686Y-71242804D01*
X151364881Y-71183194D01*
X151364881Y-71087552D01*
X151394686Y-71027942D01*
X151419354Y-71003273D01*
X151478964Y-70973469D01*
X151736309Y-70973469D01*
X151736309Y-71297278D01*
G37*
G36*
X153571229Y-72179033D02*
G01*
X148055691Y-72179033D01*
X148055691Y-70853960D01*
X148166802Y-70853960D01*
X148166802Y-70892978D01*
X148181734Y-70929026D01*
X148209324Y-70956616D01*
X148245372Y-70971548D01*
X148264881Y-70973469D01*
X148641071Y-70973469D01*
X148641071Y-71249659D01*
X148407738Y-71249659D01*
X148388229Y-71251580D01*
X148352181Y-71266512D01*
X148324591Y-71294102D01*
X148309659Y-71330150D01*
X148309659Y-71369168D01*
X148324591Y-71405216D01*
X148352181Y-71432806D01*
X148388229Y-71447738D01*
X148407738Y-71449659D01*
X148641071Y-71449659D01*
X148641071Y-71773469D01*
X148264881Y-71773469D01*
X148245372Y-71775390D01*
X148209324Y-71790322D01*
X148181734Y-71817912D01*
X148166802Y-71853960D01*
X148166802Y-71892978D01*
X148181734Y-71929026D01*
X148209324Y-71956616D01*
X148245372Y-71971548D01*
X148264881Y-71973469D01*
X148741071Y-71973469D01*
X148760580Y-71971548D01*
X148796628Y-71956616D01*
X148824218Y-71929026D01*
X148839150Y-71892978D01*
X148841071Y-71873469D01*
X148841071Y-70873469D01*
X149117262Y-70873469D01*
X149117262Y-71682992D01*
X149119183Y-71702501D01*
X149120558Y-71705821D01*
X149120813Y-71709405D01*
X149127819Y-71727713D01*
X149175438Y-71822951D01*
X149180721Y-71831343D01*
X149181733Y-71833787D01*
X149183989Y-71836536D01*
X149185881Y-71839541D01*
X149187875Y-71841270D01*
X149194170Y-71848940D01*
X149241788Y-71896560D01*
X149249456Y-71902853D01*
X149251188Y-71904850D01*
X149254196Y-71906743D01*
X149256942Y-71908997D01*
X149259382Y-71910007D01*
X149267779Y-71915293D01*
X149363016Y-71962912D01*
X149381325Y-71969918D01*
X149384908Y-71970172D01*
X149388229Y-71971548D01*
X149407738Y-71973469D01*
X149598214Y-71973469D01*
X149617723Y-71971548D01*
X149621043Y-71970172D01*
X149624627Y-71969918D01*
X149642935Y-71962912D01*
X149656359Y-71956200D01*
X150070428Y-71956200D01*
X150073194Y-71995120D01*
X150090643Y-72030019D01*
X150120120Y-72055583D01*
X150157136Y-72067922D01*
X150196056Y-72065156D01*
X150214364Y-72058150D01*
X150309602Y-72010531D01*
X150317998Y-72005245D01*
X150320438Y-72004235D01*
X150323184Y-72001981D01*
X150326192Y-72000088D01*
X150327921Y-71998093D01*
X150335592Y-71991799D01*
X150379864Y-71947526D01*
X150410635Y-71962912D01*
X150428944Y-71969918D01*
X150432527Y-71970172D01*
X150435848Y-71971548D01*
X150455357Y-71973469D01*
X150645833Y-71973469D01*
X150665342Y-71971548D01*
X150668662Y-71970172D01*
X150672246Y-71969918D01*
X150690554Y-71962912D01*
X150785792Y-71915293D01*
X150794187Y-71910008D01*
X150796629Y-71908997D01*
X150799376Y-71906741D01*
X150802382Y-71904850D01*
X150804112Y-71902855D01*
X150811782Y-71896560D01*
X150907020Y-71801321D01*
X150919457Y-71786168D01*
X150922302Y-71779297D01*
X150926728Y-71773325D01*
X150933323Y-71754865D01*
X150980942Y-71564389D01*
X150981442Y-71561007D01*
X150982007Y-71559644D01*
X150982730Y-71552293D01*
X150983810Y-71544996D01*
X150983592Y-71543537D01*
X150983928Y-71540135D01*
X150983928Y-71206802D01*
X150983592Y-71203399D01*
X150983810Y-71201941D01*
X150982730Y-71194643D01*
X150982007Y-71187293D01*
X150981442Y-71185929D01*
X150980942Y-71182548D01*
X150951291Y-71063945D01*
X151164881Y-71063945D01*
X151164881Y-71206802D01*
X151166802Y-71226311D01*
X151168177Y-71229631D01*
X151168432Y-71233215D01*
X151175438Y-71251523D01*
X151223057Y-71346761D01*
X151228342Y-71355157D01*
X151229353Y-71357597D01*
X151231606Y-71360343D01*
X151233500Y-71363351D01*
X151235494Y-71365080D01*
X151241789Y-71372751D01*
X151289408Y-71420369D01*
X151297074Y-71426661D01*
X151298807Y-71428659D01*
X151301815Y-71430552D01*
X151304561Y-71432806D01*
X151307001Y-71433816D01*
X151315398Y-71439102D01*
X151410635Y-71486721D01*
X151412925Y-71487597D01*
X151182958Y-71816123D01*
X151173344Y-71833207D01*
X151164904Y-71871301D01*
X151171685Y-71909726D01*
X151192654Y-71942631D01*
X151224619Y-71965006D01*
X151262713Y-71973446D01*
X151301138Y-71966665D01*
X151334043Y-71945696D01*
X151346804Y-71930815D01*
X151650279Y-71497278D01*
X151736309Y-71497278D01*
X151736309Y-71873469D01*
X151738230Y-71892978D01*
X151753162Y-71929026D01*
X151780752Y-71956616D01*
X151816800Y-71971548D01*
X151855818Y-71971548D01*
X151891866Y-71956616D01*
X151919456Y-71929026D01*
X151934388Y-71892978D01*
X151936309Y-71873469D01*
X151936309Y-70873469D01*
X152212499Y-70873469D01*
X152212499Y-71873469D01*
X152214420Y-71892978D01*
X152229352Y-71929026D01*
X152256942Y-71956616D01*
X152292990Y-71971548D01*
X152332008Y-71971548D01*
X152368056Y-71956616D01*
X152395646Y-71929026D01*
X152410578Y-71892978D01*
X152412499Y-71873469D01*
X152412499Y-70949198D01*
X152642992Y-70949198D01*
X152642992Y-70988216D01*
X152657924Y-71024264D01*
X152685514Y-71051854D01*
X152721562Y-71066786D01*
X152760580Y-71066786D01*
X152796628Y-71051854D01*
X152811782Y-71039418D01*
X152842708Y-71008490D01*
X152947773Y-70973469D01*
X153010558Y-70973469D01*
X153115622Y-71008490D01*
X153182695Y-71075563D01*
X153218147Y-71146468D01*
X153260118Y-71314349D01*
X153260118Y-71432587D01*
X153218147Y-71600468D01*
X153182694Y-71671374D01*
X153115623Y-71738447D01*
X153010558Y-71773469D01*
X152947773Y-71773469D01*
X152842708Y-71738447D01*
X152811782Y-71707520D01*
X152796629Y-71695083D01*
X152760581Y-71680152D01*
X152721563Y-71680151D01*
X152685514Y-71695082D01*
X152657924Y-71722672D01*
X152642993Y-71758720D01*
X152642992Y-71797738D01*
X152657923Y-71833787D01*
X152670360Y-71848940D01*
X152717978Y-71896560D01*
X152733132Y-71908997D01*
X152736451Y-71910372D01*
X152739167Y-71912727D01*
X152757067Y-71920718D01*
X152899924Y-71968337D01*
X152909596Y-71970536D01*
X152912038Y-71971548D01*
X152915575Y-71971896D01*
X152919039Y-71972684D01*
X152921673Y-71972496D01*
X152931547Y-71973469D01*
X153026785Y-71973469D01*
X153036658Y-71972496D01*
X153039292Y-71972684D01*
X153042755Y-71971896D01*
X153046294Y-71971548D01*
X153048736Y-71970536D01*
X153058408Y-71968337D01*
X153201264Y-71920718D01*
X153219165Y-71912727D01*
X153221880Y-71910372D01*
X153225200Y-71908997D01*
X153240353Y-71896560D01*
X153335591Y-71801321D01*
X153341883Y-71793654D01*
X153343880Y-71791923D01*
X153345773Y-71788915D01*
X153348028Y-71786168D01*
X153349039Y-71783726D01*
X153354323Y-71775332D01*
X153401942Y-71680095D01*
X153402488Y-71678666D01*
X153402918Y-71678087D01*
X153405839Y-71669910D01*
X153408948Y-71661786D01*
X153408999Y-71661065D01*
X153409513Y-71659627D01*
X153457132Y-71469151D01*
X153457632Y-71465769D01*
X153458197Y-71464406D01*
X153458920Y-71457055D01*
X153460000Y-71449758D01*
X153459782Y-71448299D01*
X153460118Y-71444897D01*
X153460118Y-71302040D01*
X153459782Y-71298637D01*
X153460000Y-71297179D01*
X153458920Y-71289881D01*
X153458197Y-71282531D01*
X153457632Y-71281167D01*
X153457132Y-71277786D01*
X153409513Y-71087310D01*
X153408999Y-71085871D01*
X153408948Y-71085151D01*
X153405839Y-71077026D01*
X153402918Y-71068850D01*
X153402488Y-71068270D01*
X153401942Y-71066842D01*
X153354323Y-70971605D01*
X153349036Y-70963206D01*
X153348027Y-70960769D01*
X153345775Y-70958025D01*
X153343880Y-70955014D01*
X153341882Y-70953281D01*
X153335591Y-70945615D01*
X153240353Y-70850377D01*
X153225199Y-70837941D01*
X153221880Y-70836566D01*
X153219165Y-70834211D01*
X153201264Y-70826220D01*
X153058408Y-70778601D01*
X153048736Y-70776401D01*
X153046294Y-70775390D01*
X153042755Y-70775041D01*
X153039292Y-70774254D01*
X153036658Y-70774441D01*
X153026785Y-70773469D01*
X152931547Y-70773469D01*
X152921673Y-70774441D01*
X152919039Y-70774254D01*
X152915575Y-70775041D01*
X152912038Y-70775390D01*
X152909596Y-70776401D01*
X152899924Y-70778601D01*
X152757067Y-70826220D01*
X152739167Y-70834211D01*
X152736451Y-70836566D01*
X152733132Y-70837941D01*
X152717979Y-70850378D01*
X152670360Y-70897996D01*
X152657924Y-70913150D01*
X152642992Y-70949198D01*
X152412499Y-70949198D01*
X152412499Y-70873469D01*
X152410578Y-70853960D01*
X152395646Y-70817912D01*
X152368056Y-70790322D01*
X152332008Y-70775390D01*
X152292990Y-70775390D01*
X152256942Y-70790322D01*
X152229352Y-70817912D01*
X152214420Y-70853960D01*
X152212499Y-70873469D01*
X151936309Y-70873469D01*
X151934388Y-70853960D01*
X151919456Y-70817912D01*
X151891866Y-70790322D01*
X151855818Y-70775390D01*
X151836309Y-70773469D01*
X151455357Y-70773469D01*
X151435848Y-70775390D01*
X151432527Y-70776765D01*
X151428944Y-70777020D01*
X151410635Y-70784026D01*
X151315398Y-70831645D01*
X151307001Y-70836930D01*
X151304561Y-70837941D01*
X151301815Y-70840194D01*
X151298807Y-70842088D01*
X151297074Y-70844085D01*
X151289408Y-70850378D01*
X151241789Y-70897996D01*
X151235494Y-70905666D01*
X151233500Y-70907396D01*
X151231606Y-70910403D01*
X151229353Y-70913150D01*
X151228342Y-70915589D01*
X151223057Y-70923986D01*
X151175438Y-71019224D01*
X151168432Y-71037532D01*
X151168177Y-71041115D01*
X151166802Y-71044436D01*
X151164881Y-71063945D01*
X150951291Y-71063945D01*
X150933323Y-70992072D01*
X150926728Y-70973612D01*
X150922301Y-70967637D01*
X150919456Y-70960769D01*
X150907020Y-70945615D01*
X150811782Y-70850377D01*
X150804111Y-70844082D01*
X150802382Y-70842088D01*
X150799374Y-70840194D01*
X150796628Y-70837941D01*
X150794188Y-70836930D01*
X150785792Y-70831645D01*
X150690554Y-70784026D01*
X150672246Y-70777020D01*
X150668662Y-70776765D01*
X150665342Y-70775390D01*
X150645833Y-70773469D01*
X150455357Y-70773469D01*
X150435848Y-70775390D01*
X150432527Y-70776765D01*
X150428944Y-70777020D01*
X150410635Y-70784026D01*
X150315398Y-70831645D01*
X150306999Y-70836931D01*
X150304562Y-70837941D01*
X150301818Y-70840192D01*
X150298807Y-70842088D01*
X150297074Y-70844085D01*
X150289408Y-70850377D01*
X150194170Y-70945615D01*
X150181734Y-70960769D01*
X150178888Y-70967637D01*
X150174462Y-70973612D01*
X150167867Y-70992073D01*
X150120248Y-71182548D01*
X150119747Y-71185929D01*
X150119183Y-71187293D01*
X150118459Y-71194643D01*
X150117380Y-71201941D01*
X150117597Y-71203399D01*
X150117262Y-71206802D01*
X150117262Y-71540135D01*
X150117597Y-71543537D01*
X150117380Y-71544996D01*
X150118459Y-71552293D01*
X150119183Y-71559644D01*
X150119747Y-71561007D01*
X150120248Y-71564389D01*
X150167867Y-71754864D01*
X150174462Y-71773325D01*
X150178887Y-71779297D01*
X150181733Y-71786168D01*
X150194170Y-71801321D01*
X150218697Y-71825849D01*
X150205644Y-71838902D01*
X150124922Y-71879264D01*
X150108331Y-71889707D01*
X150082767Y-71919184D01*
X150070428Y-71956200D01*
X149656359Y-71956200D01*
X149738173Y-71915293D01*
X149746568Y-71910008D01*
X149749010Y-71908997D01*
X149751757Y-71906741D01*
X149754763Y-71904850D01*
X149756493Y-71902855D01*
X149764163Y-71896560D01*
X149811782Y-71848940D01*
X149818074Y-71841273D01*
X149820071Y-71839542D01*
X149821964Y-71836534D01*
X149824219Y-71833787D01*
X149825230Y-71831345D01*
X149830514Y-71822951D01*
X149878133Y-71727714D01*
X149885139Y-71709405D01*
X149885393Y-71705821D01*
X149886769Y-71702501D01*
X149888690Y-71682992D01*
X149888690Y-70873469D01*
X149886769Y-70853960D01*
X149871837Y-70817912D01*
X149844247Y-70790322D01*
X149808199Y-70775390D01*
X149769181Y-70775390D01*
X149733133Y-70790322D01*
X149705543Y-70817912D01*
X149690611Y-70853960D01*
X149688690Y-70873469D01*
X149688690Y-71659385D01*
X149658885Y-71718993D01*
X149634216Y-71743663D01*
X149574607Y-71773469D01*
X149431345Y-71773469D01*
X149371735Y-71743664D01*
X149347068Y-71718996D01*
X149317262Y-71659384D01*
X149317262Y-70873469D01*
X149315341Y-70853960D01*
X149300409Y-70817912D01*
X149272819Y-70790322D01*
X149236771Y-70775390D01*
X149197753Y-70775390D01*
X149161705Y-70790322D01*
X149134115Y-70817912D01*
X149119183Y-70853960D01*
X149117262Y-70873469D01*
X148841071Y-70873469D01*
X148839150Y-70853960D01*
X148824218Y-70817912D01*
X148796628Y-70790322D01*
X148760580Y-70775390D01*
X148741071Y-70773469D01*
X148264881Y-70773469D01*
X148245372Y-70775390D01*
X148209324Y-70790322D01*
X148181734Y-70817912D01*
X148166802Y-70853960D01*
X148055691Y-70853960D01*
X148055691Y-70662358D01*
X153571229Y-70662358D01*
X153571229Y-72179033D01*
G37*
D15*
%TO.C,G\u002A\u002A\u002A*%
G36*
X145716999Y-117375513D02*
G01*
X145603013Y-117489513D01*
X145448013Y-117489513D01*
X145293013Y-117489513D01*
X145406999Y-117375513D01*
X145520986Y-117261513D01*
X145675986Y-117261513D01*
X145830986Y-117261513D01*
X145716999Y-117375513D01*
G37*
G36*
X146108999Y-117489513D02*
G01*
X145881006Y-117717513D01*
X145727006Y-117717513D01*
X145573006Y-117717513D01*
X145800999Y-117489513D01*
X146028993Y-117261513D01*
X146182993Y-117261513D01*
X146336993Y-117261513D01*
X146108999Y-117489513D01*
G37*
G36*
X147032498Y-116705011D02*
G01*
X147424000Y-117096509D01*
X147424000Y-117489509D01*
X147423999Y-117882509D01*
X147032501Y-118274011D01*
X146641003Y-118665513D01*
X146150999Y-118665513D01*
X145660996Y-118665513D01*
X145268999Y-118273513D01*
X144877003Y-117881513D01*
X145660005Y-117881513D01*
X146443007Y-117881513D01*
X146638999Y-117685513D01*
X146834992Y-117489513D01*
X146639003Y-117293516D01*
X146443014Y-117097519D01*
X145859103Y-117097016D01*
X145275193Y-117096513D01*
X145294049Y-117074513D01*
X145301005Y-117066593D01*
X145313655Y-117052827D01*
X145328122Y-117037670D01*
X145343671Y-117021856D01*
X145359569Y-117006118D01*
X145375080Y-116991192D01*
X145389468Y-116977810D01*
X145401999Y-116966707D01*
X145426435Y-116946471D01*
X145476468Y-116908939D01*
X145528853Y-116874642D01*
X145583588Y-116843582D01*
X145640671Y-116815758D01*
X145700102Y-116791172D01*
X145761879Y-116769823D01*
X145825999Y-116751714D01*
X145833190Y-116749847D01*
X145842230Y-116747323D01*
X145849092Y-116745187D01*
X145853205Y-116743620D01*
X145853999Y-116742803D01*
X145851644Y-116742110D01*
X145845931Y-116740559D01*
X145837631Y-116738364D01*
X145827426Y-116735705D01*
X145815999Y-116732764D01*
X145800921Y-116728787D01*
X145744119Y-116711668D01*
X145688456Y-116691531D01*
X145634333Y-116668568D01*
X145582150Y-116642972D01*
X145532307Y-116614936D01*
X145485203Y-116584652D01*
X145441239Y-116552313D01*
X145429479Y-116543046D01*
X145544233Y-116428279D01*
X145658986Y-116313513D01*
X146149991Y-116313513D01*
X146640996Y-116313513D01*
X147032498Y-116705011D01*
G37*
G36*
X144962987Y-116110513D02*
G01*
X144963265Y-116111704D01*
X144964598Y-116117039D01*
X144966657Y-116125027D01*
X144969218Y-116134807D01*
X144972058Y-116145513D01*
X144983310Y-116183826D01*
X145002312Y-116236709D01*
X145024796Y-116287932D01*
X145050613Y-116337345D01*
X145079611Y-116384799D01*
X145111640Y-116430144D01*
X145146547Y-116473229D01*
X145184183Y-116513905D01*
X145224397Y-116552022D01*
X145267037Y-116587429D01*
X145311952Y-116619978D01*
X145358992Y-116649519D01*
X145408005Y-116675900D01*
X145458841Y-116698974D01*
X145511348Y-116718588D01*
X145565376Y-116734595D01*
X145568860Y-116735497D01*
X145578692Y-116738067D01*
X145587019Y-116740276D01*
X145593052Y-116741912D01*
X145595999Y-116742766D01*
X145596172Y-116742928D01*
X145594420Y-116744004D01*
X145589570Y-116745756D01*
X145582228Y-116747980D01*
X145572999Y-116750473D01*
X145520221Y-116765861D01*
X145466404Y-116785497D01*
X145414385Y-116808570D01*
X145364307Y-116834953D01*
X145316310Y-116864524D01*
X145270537Y-116897157D01*
X145227129Y-116932727D01*
X145186228Y-116971111D01*
X145147974Y-117012183D01*
X145112510Y-117055819D01*
X145079978Y-117101895D01*
X145050518Y-117150285D01*
X145024272Y-117200866D01*
X145001383Y-117253513D01*
X144997475Y-117263566D01*
X144987562Y-117290780D01*
X144978827Y-117317719D01*
X144970824Y-117345807D01*
X144963112Y-117376467D01*
X144962661Y-117377853D01*
X144961852Y-117378208D01*
X144960727Y-117376240D01*
X144959138Y-117371556D01*
X144956935Y-117363762D01*
X144953967Y-117352467D01*
X144953893Y-117352182D01*
X144937986Y-117298152D01*
X144918554Y-117245366D01*
X144895799Y-117194321D01*
X144869923Y-117145513D01*
X144845420Y-117105576D01*
X144812623Y-117058848D01*
X144776911Y-117014632D01*
X144738456Y-116973059D01*
X144697427Y-116934260D01*
X144653995Y-116898363D01*
X144608331Y-116865499D01*
X144560605Y-116835799D01*
X144510989Y-116809391D01*
X144459652Y-116786406D01*
X144406765Y-116766975D01*
X144352499Y-116751226D01*
X144349569Y-116750480D01*
X144340317Y-116748035D01*
X144332841Y-116745924D01*
X144327844Y-116744352D01*
X144326029Y-116743523D01*
X144326029Y-116743521D01*
X144327881Y-116742683D01*
X144332867Y-116741154D01*
X144340230Y-116739152D01*
X144349211Y-116736893D01*
X144364326Y-116732972D01*
X144386469Y-116726544D01*
X144409731Y-116719129D01*
X144432709Y-116711177D01*
X144453999Y-116703141D01*
X144487820Y-116688779D01*
X144537346Y-116664302D01*
X144585553Y-116636362D01*
X144632011Y-116605253D01*
X144676291Y-116571271D01*
X144717962Y-116534709D01*
X144756596Y-116495862D01*
X144767783Y-116483551D01*
X144804783Y-116439048D01*
X144838511Y-116392306D01*
X144868883Y-116343482D01*
X144895812Y-116292733D01*
X144919214Y-116240217D01*
X144939002Y-116186091D01*
X144955090Y-116130513D01*
X144955951Y-116127123D01*
X144958403Y-116117821D01*
X144960175Y-116111907D01*
X144961425Y-116108983D01*
X144962310Y-116108651D01*
X144962987Y-116110513D01*
G37*
D16*
%TO.C,D28*%
X220223325Y-81271318D02*
X220893607Y-85072676D01*
X220893607Y-85072676D02*
X222863222Y-84725380D01*
X222192940Y-80924022D02*
X222863222Y-84725380D01*
%TO.C,D35*%
X206375114Y-112438789D02*
X207045396Y-116240147D01*
X207045396Y-116240147D02*
X209015011Y-115892851D01*
X208344729Y-112091493D02*
X209015011Y-115892851D01*
%TO.C,C15*%
X156008750Y-53553414D02*
X156008750Y-53769086D01*
X156728750Y-53553414D02*
X156728750Y-53769086D01*
%TO.C,D16*%
X180585031Y-75880538D02*
X181255313Y-79681896D01*
X181255313Y-79681896D02*
X183224928Y-79334600D01*
X182554646Y-75533242D02*
X183224928Y-79334600D01*
%TO.C,D32*%
X98934844Y-117761512D02*
X100904459Y-118108808D01*
X99605126Y-113960154D02*
X98934844Y-117761512D01*
X101574741Y-114307450D02*
X100904459Y-118108808D01*
%TO.C,R7*%
X150290000Y-49449758D02*
X150290000Y-48975242D01*
X151335000Y-49449758D02*
X151335000Y-48975242D01*
%TO.C,D40*%
X187605372Y-115728499D02*
X188275654Y-119529857D01*
X188275654Y-119529857D02*
X190245269Y-119182561D01*
X189574987Y-115381203D02*
X190245269Y-119182561D01*
%TO.C,D27*%
X202653617Y-91333128D02*
X203323899Y-95134486D01*
X203323899Y-95134486D02*
X205293514Y-94787190D01*
X204623232Y-90985832D02*
X205293514Y-94787190D01*
%TO.C,D25*%
X121416929Y-99963848D02*
X123386544Y-100311144D01*
X122087211Y-96162490D02*
X121416929Y-99963848D01*
X124056826Y-96509786D02*
X123386544Y-100311144D01*
%TO.C,R8*%
X148702500Y-49449758D02*
X148702500Y-48975242D01*
X149747500Y-49449758D02*
X149747500Y-48975242D01*
%TO.C,D2*%
X71751161Y-52518679D02*
X73720776Y-52865975D01*
X72421443Y-48717321D02*
X71751161Y-52518679D01*
X74391058Y-49064617D02*
X73720776Y-52865975D01*
%TO.C,D4*%
X109272337Y-59134675D02*
X111241952Y-59481971D01*
X109942619Y-55333317D02*
X109272337Y-59134675D01*
X111912234Y-55680613D02*
X111241952Y-59481971D01*
%TO.C,D11*%
X48855576Y-72661416D02*
X50825191Y-73008712D01*
X49525858Y-68860058D02*
X48855576Y-72661416D01*
X51495473Y-69207354D02*
X50825191Y-73008712D01*
%TO.C,C4*%
X147608732Y-51528363D02*
X147608732Y-51744035D01*
X148328732Y-51528363D02*
X148328732Y-51744035D01*
%TO.C,D41*%
X139493750Y-96775000D02*
X139493750Y-100635000D01*
X139493750Y-100635000D02*
X141493750Y-100635000D01*
X141493750Y-96775000D02*
X141493750Y-100635000D01*
%TO.C,D31*%
X81332055Y-107887308D02*
X83301670Y-108234604D01*
X82002337Y-104085950D02*
X81332055Y-107887308D01*
X83971952Y-104433246D02*
X83301670Y-108234604D01*
%TO.C,D10*%
X253113304Y-48390501D02*
X253783586Y-52191859D01*
X253783586Y-52191859D02*
X255753201Y-51844563D01*
X255082919Y-48043205D02*
X255753201Y-51844563D01*
%TO.C,D8*%
X213607330Y-43750143D02*
X214277612Y-47551501D01*
X214277612Y-47551501D02*
X216247227Y-47204205D01*
X215576945Y-43402847D02*
X216247227Y-47204205D01*
%TO.C,J1*%
X146112500Y-30155000D02*
X146112500Y-32055000D01*
X146112500Y-33955000D02*
X146112500Y-35955000D01*
X155512500Y-30155000D02*
X146112500Y-30155000D01*
X155512500Y-30155000D02*
X155512500Y-32055000D01*
X155512500Y-33955000D02*
X155512500Y-35955000D01*
%TO.C,D39*%
X167797423Y-119198715D02*
X168467705Y-123000073D01*
X168467705Y-123000073D02*
X170437320Y-122652777D01*
X169767038Y-118851419D02*
X170437320Y-122652777D01*
%TO.C,F1*%
X145140000Y-42670814D02*
X145140000Y-41466686D01*
X146960000Y-42670814D02*
X146960000Y-41466686D01*
%TO.C,D6*%
X177277033Y-57119951D02*
X177947315Y-60921309D01*
X177947315Y-60921309D02*
X179916930Y-60574013D01*
X179246648Y-56772655D02*
X179916930Y-60574013D01*
%TO.C,C16*%
X144570336Y-44783750D02*
X144354664Y-44783750D01*
X144570336Y-45503750D02*
X144354664Y-45503750D01*
%TO.C,R10*%
X142721359Y-83163750D02*
X143028641Y-83163750D01*
X142721359Y-83923750D02*
X143028641Y-83923750D01*
%TO.C,D18*%
X216915327Y-62510730D02*
X217585609Y-66312088D01*
X217585609Y-66312088D02*
X219555224Y-65964792D01*
X218884942Y-62163434D02*
X219555224Y-65964792D01*
%TO.C,D15*%
X124724927Y-81203260D02*
X126694542Y-81550556D01*
X125395209Y-77401902D02*
X124724927Y-81203260D01*
X127364824Y-77749198D02*
X126694542Y-81550556D01*
%TO.C,U4*%
X160365000Y-80162500D02*
X160365000Y-80962500D01*
X160365000Y-81762500D02*
X160365000Y-80962500D01*
X163485000Y-80162500D02*
X163485000Y-80962500D01*
X163485000Y-82762500D02*
X163485000Y-80962500D01*
%TO.C,C20*%
X161817412Y-77971937D02*
X162033084Y-77971937D01*
X161817412Y-78691937D02*
X162033084Y-78691937D01*
%TO.C,U3*%
X147632500Y-54333750D02*
X148282500Y-54333750D01*
X147632500Y-54983750D02*
X147632500Y-54333750D01*
X147632500Y-60903750D02*
X147632500Y-61553750D01*
X147632500Y-61553750D02*
X148282500Y-61553750D01*
X154852500Y-54333750D02*
X154202500Y-54333750D01*
X154852500Y-60903750D02*
X154852500Y-61553750D01*
X154852500Y-61553750D02*
X154202500Y-61553750D01*
%TO.C,C11*%
X145155960Y-58588805D02*
X145371632Y-58588805D01*
X145155960Y-59308805D02*
X145371632Y-59308805D01*
%TO.C,C19*%
X158642164Y-83183750D02*
X158857836Y-83183750D01*
X158642164Y-83903750D02*
X158857836Y-83903750D01*
%TO.C,D36*%
X223911743Y-102189374D02*
X224582025Y-105990732D01*
X224582025Y-105990732D02*
X226551640Y-105643436D01*
X225881358Y-101842078D02*
X226551640Y-105643436D01*
%TO.C,D19*%
X236833714Y-65768939D02*
X237503996Y-69570297D01*
X237503996Y-69570297D02*
X239473611Y-69223001D01*
X238803329Y-65421643D02*
X239473611Y-69223001D01*
%TO.C,D38*%
X141506430Y-124240277D02*
X143476045Y-124587573D01*
X142176712Y-120438919D02*
X141506430Y-124240277D01*
X144146327Y-120786215D02*
X143476045Y-124587573D01*
%TO.C,SW1*%
X160762500Y-41068750D02*
X160762500Y-43068750D01*
X162262500Y-39318750D02*
X161812500Y-39768750D01*
X162262500Y-44818750D02*
X161812500Y-44368750D01*
X164762500Y-39318750D02*
X162262500Y-39318750D01*
X164762500Y-39318750D02*
X165212500Y-39768750D01*
X164762500Y-44818750D02*
X162262500Y-44818750D01*
X164762500Y-44818750D02*
X165212500Y-44368750D01*
X166262500Y-41068750D02*
X166262500Y-43068750D01*
%TO.C,R12*%
X152020000Y-69719891D02*
X152020000Y-69412609D01*
X152780000Y-69719891D02*
X152780000Y-69412609D01*
%TO.C,C2*%
X154767910Y-66568121D02*
X154767910Y-66783793D01*
X155487910Y-66568121D02*
X155487910Y-66783793D01*
%TO.C,C17*%
X144354664Y-50740000D02*
X144570336Y-50740000D01*
X144354664Y-51460000D02*
X144570336Y-51460000D01*
%TO.C,D7*%
X196004541Y-53624347D02*
X196674823Y-57425705D01*
X196674823Y-57425705D02*
X198644438Y-57078409D01*
X197974156Y-53277051D02*
X198644438Y-57078409D01*
%TO.C,C18*%
X158857836Y-82190000D02*
X158642164Y-82190000D01*
X158857836Y-82910000D02*
X158642164Y-82910000D01*
%TO.C,D13*%
X88361550Y-68021059D02*
X90331165Y-68368355D01*
X89031832Y-64219701D02*
X88361550Y-68021059D01*
X91001447Y-64566997D02*
X90331165Y-68368355D01*
%TO.C,D17*%
X199312539Y-72384935D02*
X199982821Y-76186293D01*
X199982821Y-76186293D02*
X201952436Y-75838997D01*
X201282154Y-72037639D02*
X201952436Y-75838997D01*
%TO.C,C8*%
X146580809Y-51538537D02*
X146580809Y-51754209D01*
X147300809Y-51538537D02*
X147300809Y-51754209D01*
%TO.C,D12*%
X68443163Y-71279267D02*
X70412778Y-71626563D01*
X69113445Y-67477909D02*
X68443163Y-71279267D01*
X71083060Y-67825205D02*
X70412778Y-71626563D01*
%TO.C,D1*%
X52163574Y-53900829D02*
X54133189Y-54248125D01*
X52833856Y-50099471D02*
X52163574Y-53900829D01*
X54803471Y-50446767D02*
X54133189Y-54248125D01*
%TO.C,U1*%
X149252500Y-42856250D02*
X149252500Y-43656250D01*
X149252500Y-44456250D02*
X149252500Y-43656250D01*
X152372500Y-42856250D02*
X152372500Y-43656250D01*
X152372500Y-44456250D02*
X152372500Y-43656250D01*
X152652500Y-45196250D02*
X152322500Y-44956250D01*
X152652500Y-44716250D01*
X152652500Y-45196250D01*
G36*
X152652500Y-45196250D02*
G01*
X152322500Y-44956250D01*
X152652500Y-44716250D01*
X152652500Y-45196250D01*
G37*
%TO.C,R13*%
X150432500Y-69719891D02*
X150432500Y-69412609D01*
X151192500Y-69719891D02*
X151192500Y-69412609D01*
%TO.C,C1*%
X156070167Y-46946956D02*
X155854495Y-46946956D01*
X156070167Y-47666956D02*
X155854495Y-47666956D01*
%TO.C,C9*%
X145366887Y-53684548D02*
X145582559Y-53684548D01*
X145366887Y-54404548D02*
X145582559Y-54404548D01*
%TO.C,D23*%
X85053553Y-86781647D02*
X87023168Y-87128943D01*
X85723835Y-82980289D02*
X85053553Y-86781647D01*
X87693450Y-83327585D02*
X87023168Y-87128943D01*
%TO.C,R3*%
X148051250Y-41428641D02*
X148051250Y-41121359D01*
X148811250Y-41428641D02*
X148811250Y-41121359D01*
%TO.C,C12*%
X157277882Y-58588805D02*
X157062210Y-58588805D01*
X157277882Y-59308805D02*
X157062210Y-59308805D01*
%TO.C,D29*%
X240174792Y-84717133D02*
X240845074Y-88518491D01*
X240845074Y-88518491D02*
X242814689Y-88171195D01*
X242144407Y-84369837D02*
X242814689Y-88171195D01*
%TO.C,R9*%
X157576250Y-93792609D02*
X157576250Y-94099891D01*
X158336250Y-93792609D02*
X158336250Y-94099891D01*
%TO.C,C21*%
X161817164Y-83383750D02*
X162032836Y-83383750D01*
X161817164Y-84103750D02*
X162032836Y-84103750D01*
%TO.C,Y1*%
X150400000Y-65025000D02*
X150400000Y-68325000D01*
X154400000Y-65025000D02*
X150400000Y-65025000D01*
%TO.C,SWR1*%
X135362500Y-43068750D02*
X135362500Y-41068750D01*
X136862500Y-39318750D02*
X136412500Y-39768750D01*
X136862500Y-39318750D02*
X139362500Y-39318750D01*
X136862500Y-44818750D02*
X136412500Y-44368750D01*
X136862500Y-44818750D02*
X139362500Y-44818750D01*
X139362500Y-39318750D02*
X139812500Y-39768750D01*
X139362500Y-44818750D02*
X139812500Y-44368750D01*
X140862500Y-43068750D02*
X140862500Y-41068750D01*
%TO.C,C14*%
X145367177Y-52633014D02*
X145582849Y-52633014D01*
X145367177Y-53353014D02*
X145582849Y-53353014D01*
%TO.C,D21*%
X45547578Y-91422004D02*
X47517193Y-91769300D01*
X46217860Y-87620646D02*
X45547578Y-91422004D01*
X48187475Y-87967942D02*
X47517193Y-91769300D01*
%TO.C,D14*%
X105964339Y-77895263D02*
X107933954Y-78242559D01*
X106634621Y-74093905D02*
X105964339Y-77895263D01*
X108604236Y-74441201D02*
X107933954Y-78242559D01*
%TO.C,R5*%
X143288750Y-42222391D02*
X143288750Y-41915109D01*
X144048750Y-42222391D02*
X144048750Y-41915109D01*
%TO.C,D22*%
X65135166Y-90039855D02*
X67104781Y-90387151D01*
X65805448Y-86238497D02*
X65135166Y-90039855D01*
X67775063Y-86585793D02*
X67104781Y-90387151D01*
%TO.C,R4*%
X152813750Y-41428641D02*
X152813750Y-41121359D01*
X153573750Y-41428641D02*
X153573750Y-41121359D01*
%TO.C,C3*%
X149322815Y-66567164D02*
X149322815Y-66782836D01*
X150042815Y-66567164D02*
X150042815Y-66782836D01*
%TO.C,D26*%
X183893029Y-94641126D02*
X184563311Y-98442484D01*
X184563311Y-98442484D02*
X186532926Y-98095188D01*
X185862644Y-94293830D02*
X186532926Y-98095188D01*
%TO.C,U2*%
X142902500Y-46975000D02*
X142902500Y-47625000D01*
X142902500Y-48275000D02*
X142902500Y-47625000D01*
X146022500Y-46975000D02*
X146022500Y-47625000D01*
X146022500Y-48275000D02*
X146022500Y-47625000D01*
X146302500Y-49027500D02*
X145972500Y-48787500D01*
X146302500Y-48547500D01*
X146302500Y-49027500D01*
G36*
X146302500Y-49027500D02*
G01*
X145972500Y-48787500D01*
X146302500Y-48547500D01*
X146302500Y-49027500D01*
G37*
%TO.C,C10*%
X148249539Y-66800194D02*
X148249539Y-66584522D01*
X148969539Y-66800194D02*
X148969539Y-66584522D01*
%TO.C,J2*%
X146162500Y-74106250D02*
X147652500Y-74106250D01*
X146162500Y-75446250D02*
X146162500Y-74106250D01*
X146162500Y-78166250D02*
X146162500Y-79906250D01*
X146162500Y-79906250D02*
X155462500Y-79906250D01*
X153972500Y-72906250D02*
X153972500Y-74106250D01*
X155462500Y-74106250D02*
X153972500Y-74106250D01*
X155462500Y-75446250D02*
X155462500Y-74106250D01*
X155462500Y-79906250D02*
X155462500Y-78166250D01*
D10*
X153662500Y-72281250D02*
G75*
G02*
X153462500Y-72281250I-100000J0D01*
G01*
X153462500Y-72281250D02*
G75*
G02*
X153662500Y-72281250I100000J0D01*
G01*
D16*
%TO.C,D9*%
X233525716Y-47008351D02*
X234195998Y-50809709D01*
X234195998Y-50809709D02*
X236165613Y-50462413D01*
X235495331Y-46661055D02*
X236165613Y-50462413D01*
%TO.C,D24*%
X102656341Y-96655850D02*
X104625956Y-97003146D01*
X103326623Y-92854492D02*
X102656341Y-96655850D01*
X105296238Y-93201788D02*
X104625956Y-97003146D01*
%TO.C,C7*%
X144570336Y-49746250D02*
X144354664Y-49746250D01*
X144570336Y-50466250D02*
X144354664Y-50466250D01*
%TO.C,D37*%
X117365792Y-122090855D02*
X119335407Y-122438151D01*
X118036074Y-118289497D02*
X117365792Y-122090855D01*
X120005689Y-118636793D02*
X119335407Y-122438151D01*
%TO.C,SWD1*%
X143132500Y-63583750D02*
X143132500Y-68723750D01*
X143132500Y-71323750D02*
X143132500Y-69993750D01*
X144462500Y-71323750D02*
X143132500Y-71323750D01*
X145792500Y-63583750D02*
X143132500Y-63583750D01*
X145792500Y-63583750D02*
X145792500Y-68723750D01*
X145792500Y-68723750D02*
X143132500Y-68723750D01*
%TO.C,D5*%
X128032924Y-62442673D02*
X130002539Y-62789969D01*
X128703206Y-58641315D02*
X128032924Y-62442673D01*
X130672821Y-58988611D02*
X130002539Y-62789969D01*
%TO.C,C13*%
X151861837Y-49102698D02*
X151861837Y-49318370D01*
X152581837Y-49102698D02*
X152581837Y-49318370D01*
%TO.C,R11*%
X148845000Y-69412609D02*
X148845000Y-69719891D01*
X149605000Y-69412609D02*
X149605000Y-69719891D01*
%TO.C,R6*%
X152553641Y-63913750D02*
X152246359Y-63913750D01*
X152553641Y-64673750D02*
X152246359Y-64673750D01*
%TO.C,D3*%
X91669548Y-49260472D02*
X93639163Y-49607768D01*
X92339830Y-45459114D02*
X91669548Y-49260472D01*
X94309445Y-45806410D02*
X93639163Y-49607768D01*
%TO.C,C6*%
X147262780Y-66792771D02*
X147262780Y-66577099D01*
X147982780Y-66792771D02*
X147982780Y-66577099D01*
%TO.C,D20*%
X256421301Y-67151088D02*
X257091583Y-70952446D01*
X257091583Y-70952446D02*
X259061198Y-70605150D01*
X258390916Y-66803792D02*
X259061198Y-70605150D01*
%TO.C,R2*%
X157576250Y-41915109D02*
X157576250Y-42222391D01*
X158336250Y-41915109D02*
X158336250Y-42222391D01*
%TO.C,C5*%
X152933750Y-49104664D02*
X152933750Y-49320336D01*
X153653750Y-49104664D02*
X153653750Y-49320336D01*
%TO.C,D30*%
X259762379Y-86099282D02*
X260432661Y-89900640D01*
X260432661Y-89900640D02*
X262402276Y-89553344D01*
X261731994Y-85751986D02*
X262402276Y-89553344D01*
%TD*%
M02*
