M48
; DRILL file {KiCad 8.0.8} date 2025-05-06T21:02:28+0200
; FORMAT={-:-/ absolute / inch / decimal}
; #@! TF.CreationDate,2025-05-06T21:02:28+02:00
; #@! TF.GenerationSoftware,Kicad,Pcbnew,8.0.8
; #@! TF.FileFunction,NonPlated,1,2,NPTH
FMAT,2
INCH
; #@! TA.AperFunction,NonPlated,NPTH,ComponentDrill
T1C0.0256
; #@! TA.AperFunction,NonPlated,NPTH,ComponentDrill
T2C0.0689
; #@! TA.AperFunction,NonPlated,NPTH,ComponentDrill
T3C0.1260
; #@! TA.AperFunction,NonPlated,NPTH,ComponentDrill
T4C0.1570
%
G90
G05
T1
X5.8237Y-1.4431
X6.0513Y-1.4431
T2
X1.5379Y-3.4025
X1.6681Y-2.6639
X1.7984Y-1.9252
X1.9318Y-3.4719
X2.062Y-2.7333
X2.1923Y-1.9947
X2.309Y-3.348
X2.4393Y-2.6094
X2.5695Y-1.8708
X2.703Y-3.4175
X2.8332Y-2.6789
X2.9467Y-4.0507
X2.9634Y-1.9403
X3.0932Y-3.2198
X3.2235Y-2.4812
X3.3406Y-4.1202
X3.3537Y-1.7426
X3.4872Y-3.2892
X3.6174Y-2.5506
X3.6397Y-4.4394
X3.7476Y-1.812
X3.7863Y-3.6085
X3.9165Y-2.8699
X4.0337Y-4.5089
X4.0467Y-2.1313
X4.1802Y-3.678
X4.3104Y-2.9394
X4.3776Y-4.5711
X4.4407Y-2.2008
X4.5249Y-3.7387
X4.6551Y-3.0001
X4.7473Y-4.6354
X4.7715Y-4.6406
X4.7853Y-2.2615
X4.9188Y-3.8082
X5.049Y-3.0696
X5.1325Y-4.609
X5.1412Y-4.7048
X5.1793Y-2.331
X5.5264Y-4.6785
X6.3503Y-4.6462
X6.6985Y-2.3008
X6.7361Y-4.6746
X6.7442Y-4.5767
X6.8288Y-3.0394
X6.959Y-3.7781
X7.0925Y-2.2314
X7.1052Y-4.6083
X7.13Y-4.6051
X7.2227Y-2.97
X7.3529Y-3.7086
X7.4359Y-2.1632
X7.4991Y-4.5388
X7.5661Y-2.9018
X7.6976Y-3.6478
X7.8298Y-2.0938
X7.8441Y-4.4787
X7.96Y-2.8324
X8.0915Y-3.5784
X8.1289Y-1.7745
X8.2381Y-4.4093
X8.2591Y-2.5131
X8.3893Y-3.2517
X8.5228Y-1.705
X8.5346Y-4.0752
X8.653Y-2.4436
X8.7833Y-3.1822
X8.9131Y-1.9027
X8.9285Y-4.0058
X9.0433Y-2.6414
X9.1748Y-3.3873
X9.307Y-1.8333
X9.4372Y-2.5719
X9.5688Y-3.3179
X9.6842Y-1.9572
X9.8145Y-2.6958
X9.946Y-3.4418
X10.0782Y-1.8877
X10.2084Y-2.6263
X10.3399Y-3.3723
T3
X5.309Y-2.8857
X5.3092Y-4.1453
X6.5691Y-2.885
X6.5693Y-4.145
T4
X1.7348Y-3.4372
X1.8651Y-2.6986
X1.9953Y-1.96
X2.506Y-3.3828
X2.6362Y-2.6442
X2.7665Y-1.9056
X3.1437Y-4.0854
X3.2902Y-3.2545
X3.4204Y-2.5159
X3.5507Y-1.7773
X3.8367Y-4.4742
X3.9832Y-3.6432
X4.1135Y-2.9046
X4.2437Y-2.166
X4.4261Y-4.9088
X4.5746Y-4.6058
X4.7218Y-3.7735
X4.8521Y-3.0349
X4.9442Y-4.6701
X4.9823Y-2.2963
X5.3295Y-4.6437
X5.3494Y-5.0716
X6.5278Y-5.0413
X6.5473Y-4.6114
X6.8955Y-2.2661
X6.933Y-4.6398
X7.0257Y-3.0047
X7.156Y-3.7433
X7.3021Y-4.5735
X7.4511Y-4.8785
X7.6328Y-2.1285
X7.763Y-2.8671
X7.8946Y-3.6131
X8.0411Y-4.444
X8.3258Y-1.7397
X8.4561Y-2.4783
X8.5863Y-3.217
X8.7315Y-4.0405
X9.11Y-1.868
X9.2403Y-2.6066
X9.3718Y-3.3526
X9.8812Y-1.9224
X10.0114Y-2.661
X10.143Y-3.407
M30
