%TF.GenerationSoftware,KiCad,Pcbnew,8.0.8*%
%TF.CreationDate,2025-05-06T21:02:24+02:00*%
%TF.ProjectId,Le Chisoffre,4c652043-6869-4736-9f66-6672652e6b69,rev?*%
%TF.SameCoordinates,Original*%
%TF.FileFunction,Soldermask,Top*%
%TF.FilePolarity,Negative*%
%FSLAX46Y46*%
G04 Gerber Fmt 4.6, Leading zero omitted, Abs format (unit mm)*
G04 Created by KiCad (PCBNEW 8.0.8) date 2025-05-06 21:02:24*
%MOMM*%
%LPD*%
G01*
G04 APERTURE LIST*
%ADD10C,2.000000*%
%ADD11C,1.750000*%
%ADD12C,3.987800*%
%ADD13C,3.200000*%
%ADD14C,0.650000*%
%ADD15O,1.000000X1.600000*%
%ADD16O,1.000000X2.100000*%
%ADD17R,1.700000X1.700000*%
%ADD18O,1.700000X1.700000*%
%ADD19R,1.200000X1.200000*%
%ADD20C,1.200000*%
G04 APERTURE END LIST*
D10*
X32543750Y-95250000D02*
X42862500Y-35718750D01*
X85725000Y-123825000D02*
X32543750Y-95250000D01*
X149225000Y-134937500D02*
X85725000Y-123825000D01*
X152400000Y-134937500D02*
X149225000Y-134937500D01*
X215900000Y-123031250D02*
X152400000Y-134937500D01*
X269081250Y-94456250D02*
X215900000Y-123031250D01*
X258762500Y-35718750D02*
X269081250Y-94456250D01*
X219075000Y-31750000D02*
X258762500Y-35718750D01*
X219075000Y-31750000D02*
X156692209Y-32122467D01*
X82550000Y-32543750D02*
X42862500Y-35718750D01*
X144903386Y-32171283D02*
X82550000Y-32543750D01*
D11*
%TO.C,MX17*%
X192178612Y-73706304D03*
D12*
X197181435Y-72824171D03*
D11*
X202184258Y-71942038D03*
%TD*%
%TO.C,MX28*%
X213089398Y-82592687D03*
D12*
X218092221Y-81710554D03*
D11*
X223095044Y-80828421D03*
%TD*%
%TO.C,MX25*%
X114931578Y-94964223D03*
D12*
X119934401Y-95846356D03*
D11*
X124937224Y-96728489D03*
%TD*%
%TO.C,MX20*%
X249287374Y-68472457D03*
D12*
X254290197Y-67590324D03*
D11*
X259293020Y-66708191D03*
%TD*%
%TO.C,MX35*%
X199241187Y-113760158D03*
D12*
X204244010Y-112878025D03*
D11*
X209246833Y-111995892D03*
%TD*%
%TO.C,MX9*%
X226391789Y-48329720D03*
D12*
X231394612Y-47447587D03*
D11*
X236397435Y-46565454D03*
%TD*%
%TO.C,MX8*%
X206473403Y-45071512D03*
D12*
X211476226Y-44189379D03*
D11*
X216479049Y-43307246D03*
%TD*%
%TO.C,MX24*%
X96170990Y-91656225D03*
D12*
X101173813Y-92538358D03*
D11*
X106176636Y-93420491D03*
%TD*%
%TO.C,MX39*%
X161297358Y-118012792D03*
D12*
X166300181Y-117130659D03*
D11*
X171303004Y-116248526D03*
%TD*%
%TO.C,MX11*%
X42370225Y-67661791D03*
D12*
X47373048Y-68543924D03*
D11*
X52375871Y-69426057D03*
%TD*%
%TO.C,MX15*%
X118239576Y-76203635D03*
D12*
X123242399Y-77085768D03*
D11*
X128245222Y-77967901D03*
%TD*%
%TO.C,MX26*%
X176759102Y-95962495D03*
D12*
X181761925Y-95080362D03*
D11*
X186764748Y-94198229D03*
%TD*%
%TO.C,MX19*%
X229699787Y-67090308D03*
D12*
X234702610Y-66208175D03*
D11*
X239705433Y-65326042D03*
%TD*%
%TO.C,MX38*%
X140371298Y-118833195D03*
D12*
X135368475Y-117951062D03*
D11*
X130365652Y-117068929D03*
%TD*%
%TO.C,MX37*%
X111191565Y-116106005D03*
D12*
X116194388Y-116988138D03*
D11*
X121197211Y-117870271D03*
%TD*%
%TO.C,MX6*%
X170143106Y-58441320D03*
D12*
X175145929Y-57559187D03*
D11*
X180148752Y-56677054D03*
%TD*%
%TO.C,MX5*%
X121547573Y-57443048D03*
D12*
X126550396Y-58325181D03*
D11*
X131553219Y-59207314D03*
%TD*%
%TO.C,MX12*%
X61957812Y-66279642D03*
D12*
X66960635Y-67161775D03*
D11*
X71963458Y-68043908D03*
%TD*%
%TO.C,MX23*%
X78568202Y-81782022D03*
D12*
X83571025Y-82664155D03*
D11*
X88573848Y-83546288D03*
%TD*%
%TO.C,MX29*%
X233040865Y-86038502D03*
D12*
X238043688Y-85156369D03*
D11*
X243046511Y-84274236D03*
%TD*%
%TO.C,MX14*%
X99478988Y-72895638D03*
D12*
X104481811Y-73777771D03*
D11*
X109484634Y-74659904D03*
%TD*%
D12*
%TO.C,S2*%
X165807215Y-128049174D03*
X189257951Y-123914178D03*
%TD*%
D11*
%TO.C,MX2*%
X65265810Y-47519054D03*
D12*
X70268633Y-48401187D03*
D11*
X75271456Y-49283320D03*
%TD*%
D13*
%TO.C,H4*%
X166859205Y-105283250D03*
%TD*%
D11*
%TO.C,MX3*%
X85184197Y-44260847D03*
D12*
X90187020Y-45142980D03*
D11*
X95189843Y-46025113D03*
%TD*%
%TO.C,MX30*%
X252628452Y-87420651D03*
D12*
X257631275Y-86538518D03*
D11*
X262634098Y-85656385D03*
%TD*%
%TO.C,MX7*%
X188870614Y-54945716D03*
D12*
X193873437Y-54063583D03*
D11*
X198876260Y-53181450D03*
%TD*%
%TO.C,MX22*%
X58649815Y-85040230D03*
D12*
X63652638Y-85922363D03*
D11*
X68655461Y-86804496D03*
%TD*%
%TO.C,MX36*%
X216777816Y-103510743D03*
D12*
X221780639Y-102628610D03*
D11*
X226783462Y-101746477D03*
%TD*%
%TO.C,MX34*%
X171096294Y-118734221D03*
D12*
X176099117Y-117852088D03*
D11*
X181101940Y-116969955D03*
%TD*%
D13*
%TO.C,H3*%
X134853935Y-105290620D03*
%TD*%
D11*
%TO.C,MX31*%
X74846704Y-102887683D03*
D12*
X79849527Y-103769816D03*
D11*
X84852350Y-104651949D03*
%TD*%
%TO.C,MX21*%
X39062227Y-86422379D03*
D12*
X44065050Y-87304512D03*
D11*
X49067873Y-88186645D03*
%TD*%
%TO.C,MX10*%
X245979377Y-49711870D03*
D12*
X250982200Y-48829737D03*
D11*
X255985023Y-47947604D03*
%TD*%
%TO.C,MX33*%
X120580213Y-117738224D03*
D12*
X125583036Y-118620357D03*
D11*
X130585859Y-119502490D03*
%TD*%
%TO.C,MX4*%
X102786986Y-54135050D03*
D12*
X107789809Y-55017183D03*
D11*
X112792632Y-55899316D03*
%TD*%
%TO.C,MX32*%
X92449493Y-112761887D03*
D12*
X97452316Y-113644020D03*
D11*
X102455139Y-114526153D03*
%TD*%
D13*
%TO.C,H2*%
X166855645Y-73278740D03*
%TD*%
D12*
%TO.C,S1*%
X135874938Y-128817444D03*
X112424203Y-124682446D03*
%TD*%
D11*
%TO.C,MX13*%
X81876199Y-63021434D03*
D12*
X86879022Y-63903567D03*
D11*
X91881845Y-64785700D03*
%TD*%
%TO.C,MX40*%
X180471445Y-117049868D03*
D12*
X185474268Y-116167735D03*
D11*
X190477091Y-115285602D03*
%TD*%
%TO.C,MX16*%
X173451104Y-77201907D03*
D12*
X178453927Y-76319774D03*
D11*
X183456750Y-75437641D03*
%TD*%
%TO.C,MX1*%
X45678223Y-48901204D03*
D12*
X50681046Y-49783337D03*
D11*
X55683869Y-50665470D03*
%TD*%
%TO.C,MX18*%
X209781400Y-63832099D03*
D12*
X214784223Y-62949966D03*
D11*
X219787046Y-62067833D03*
%TD*%
%TO.C,MX27*%
X195519690Y-92654497D03*
D12*
X200522513Y-91772364D03*
D11*
X205525336Y-90890231D03*
%TD*%
D13*
%TO.C,H1*%
X134848345Y-73297790D03*
%TD*%
D14*
%TO.C,J1*%
X147922500Y-36655000D03*
X153702500Y-36655000D03*
D15*
X146492500Y-33005000D03*
D16*
X146492500Y-37185000D03*
D15*
X155132500Y-33005000D03*
D16*
X155132500Y-37185000D03*
%TD*%
D17*
%TO.C,SWD1*%
X144462500Y-69993750D03*
D18*
X144462500Y-67453750D03*
X144462500Y-64913750D03*
%TD*%
D19*
%TO.C,U5*%
X156150243Y-83224438D03*
D20*
X156150243Y-85004438D03*
X156150243Y-86784438D03*
X156150243Y-88564438D03*
X156150243Y-90344438D03*
X156150243Y-92124438D03*
X156150243Y-93904438D03*
X156150243Y-95684438D03*
X145450243Y-96574438D03*
X145450243Y-94794438D03*
X145450243Y-93014438D03*
X145450243Y-91234438D03*
X145450243Y-89454438D03*
X145450243Y-87674438D03*
X145450243Y-85894438D03*
X145450243Y-84114438D03*
%TD*%
M02*
