999
"DXF R12 Output" (www.mydxf.blogspot.com)
 0 
SECTION
 2 
HEADER
 9 
$ACADVER
 1 
AC1009
 9 
$EXTMIN
 10 
 0 
 20 
 0 
 9 
$EXTMAX
 10 
 8.5 
 20 
 11 
 0 
ENDSEC
 0 
SECTION
 2 
ENTITIES
0
LINE
8
BLACK
10
127.016649
20
78.657398
11
126.739726
21
80.744737
0
LINE
8
BLACK
10
126.739726
20
80.744737
11
125.944854
21
82.657393
0
LINE
8
BLACK
10
125.944854
20
82.657393
11
124.685881
21
84.302101
0
LINE
8
BLACK
10
124.685881
20
84.302101
11
123.016654
21
85.585593
0
LINE
8
BLACK
10
123.016654
20
85.585593
11
121.070504
21
86.389439
0
LINE
8
BLACK
10
121.070504
20
86.389439
11
119.016659
21
86.657388
0
LINE
8
BLACK
10
119.016659
20
86.657388
11
116.962814
21
86.389439
0
LINE
8
BLACK
10
116.962814
20
86.389439
11
115.016664
21
85.585593
0
LINE
8
BLACK
10
115.016664
20
85.585593
11
113.347438
21
84.302101
0
LINE
8
BLACK
10
113.347438
20
84.302101
11
112.088465
21
82.657393
0
LINE
8
BLACK
10
112.088465
20
82.657393
11
111.293593
21
80.744737
0
LINE
8
BLACK
10
111.293593
20
80.744737
11
111.016669
21
78.657398
0
LINE
8
BLACK
10
111.016669
20
78.657398
11
111.293593
21
76.570060
0
LINE
8
BLACK
10
111.293593
20
76.570060
11
112.088465
21
74.657403
0
LINE
8
BLACK
10
112.088465
20
74.657403
11
113.347438
21
73.012696
0
LINE
8
BLACK
10
113.347438
20
73.012696
11
115.016664
21
71.729204
0
LINE
8
BLACK
10
115.016664
20
71.729204
11
116.962814
21
70.925357
0
LINE
8
BLACK
10
116.962814
20
70.925357
11
119.016659
21
70.657409
0
LINE
8
BLACK
10
119.016659
20
70.657409
11
121.070504
21
70.925357
0
LINE
8
BLACK
10
121.070504
20
70.925357
11
123.016654
21
71.729204
0
LINE
8
BLACK
10
123.016654
20
71.729204
11
124.685881
21
73.012696
0
LINE
8
BLACK
10
124.685881
20
73.012696
11
125.944854
21
74.657403
0
LINE
8
BLACK
10
125.944854
20
74.657403
11
126.739726
21
76.570060
0
LINE
8
BLACK
10
126.739726
20
76.570060
11
127.016649
21
78.657398
0
LINE
8
BLACK
10
127.016649
20
78.657398
11
127.016649
21
78.657398
0
LINE
8
BLACK
10
54.293024
20
9.831798
11
55.203859
21
9.518797
0
LINE
8
BLACK
10
182.829459
20
9.518797
11
183.740297
21
9.831798
0
LINE
8
BLACK
10
127.492618
20
0.076226
11
127.999509
21
0.119380
0
LINE
8
BLACK
10
189.018447
20
101.660625
11
188.713907
21
101.676130
0
LINE
8
BLACK
10
228.152890
20
95.472309
11
227.828612
21
96.396167
0
LINE
8
BLACK
10
227.828612
20
96.396167
11
227.241510
21
97.149736
0
LINE
8
BLACK
10
227.241510
20
97.149736
11
226.447553
21
97.680948
0
LINE
8
BLACK
10
226.447553
20
97.680948
11
225.502710
21
97.937736
0
LINE
8
BLACK
10
110.033810
20
0.119353
11
110.540703
21
0.076226
0
LINE
8
BLACK
10
228.152913
20
95.471563
11
237.703301
21
41.107694
0
LINE
8
BLACK
10
54.293043
20
9.831322
11
1.866715
21
37.943282
0
LINE
8
BLACK
10
189.018442
20
101.660160
11
225.502585
21
97.937477
0
LINE
8
BLACK
10
12.530733
20
97.937477
11
49.014877
21
101.660160
0
LINE
8
BLACK
10
49.319414
20
101.676122
11
49.014871
21
101.660617
0
LINE
8
BLACK
10
119.016659
20
101.676035
11
188.713907
21
101.676035
0
LINE
8
BLACK
10
127.492576
20
0.076147
11
119.016659
21
0.076147
0
LINE
8
BLACK
10
12.530606
20
97.937765
11
11.585753
21
97.680974
0
LINE
8
BLACK
10
11.585753
20
97.680974
11
10.791789
21
97.149757
0
LINE
8
BLACK
10
10.791789
20
97.149757
11
10.204682
21
96.396181
0
LINE
8
BLACK
10
10.204682
20
96.396181
11
9.880401
21
95.472315
0
LINE
8
BLACK
10
119.016659
20
0.076147
11
110.540743
21
0.076147
0
LINE
8
BLACK
10
0.329745
20
41.107353
11
0.314875
21
40.161074
0
LINE
8
BLACK
10
0.314875
20
40.161074
11
0.586239
21
39.277042
0
LINE
8
BLACK
10
0.586239
20
39.277042
11
1.113625
21
38.517427
0
LINE
8
BLACK
10
1.113625
20
38.517427
11
1.866820
21
37.944398
0
LINE
8
BLACK
10
49.319412
20
101.676035
11
119.016659
21
101.676035
0
LINE
8
BLACK
10
182.829581
20
9.519114
11
127.999517
21
0.118480
0
LINE
8
BLACK
10
0.329753
20
41.107694
11
9.880405
21
95.471563
0
LINE
8
BLACK
10
236.166074
20
37.943282
11
183.740276
21
9.831322
0
LINE
8
BLACK
10
110.033802
20
0.118480
11
55.203737
21
9.519114
0
LINE
8
BLACK
10
236.166474
20
37.944446
11
236.919655
21
38.517464
0
LINE
8
BLACK
10
236.919655
20
38.517464
11
237.447031
21
39.277065
0
LINE
8
BLACK
10
237.447031
20
39.277065
11
237.718390
21
40.161081
0
LINE
8
BLACK
10
237.718390
20
40.161081
11
237.703521
21
41.107342
0
LINE
8
BLACK
10
114.754492
20
56.929758
11
114.754492
21
40.054654
0
LINE
8
BLACK
10
122.754423
20
57.429820
11
115.254289
21
57.429820
0
LINE
8
BLACK
10
122.754423
20
39.554592
11
115.254289
21
39.554592
0
LINE
8
BLACK
10
123.254485
20
56.929758
11
123.254485
21
40.054654
0
LINE
8
BLACK
10
115.254408
20
57.430357
11
114.900856
21
57.283910
0
LINE
8
BLACK
10
114.900856
20
57.283910
11
114.754410
21
56.930358
0
LINE
8
BLACK
10
114.754410
20
40.055379
11
114.900856
21
39.701827
0
LINE
8
BLACK
10
114.900856
20
39.701827
11
115.254408
21
39.555381
0
LINE
8
BLACK
10
123.254398
20
56.930358
11
123.107951
21
57.283910
0
LINE
8
BLACK
10
123.107951
20
57.283910
11
122.754399
21
57.430357
0
LINE
8
BLACK
10
122.754399
20
39.555381
11
123.107951
21
39.701827
0
LINE
8
BLACK
10
123.107951
20
39.701827
11
123.254398
21
40.055379
0
LINE
8
BLACK
10
122.997310
20
29.296693
11
141.757833
21
32.603997
0
LINE
8
BLACK
10
127.959300
20
1.155645
11
122.997310
21
29.296693
0
LINE
8
BLACK
10
136.543166
20
21.867203
11
136.890299
21
19.896059
0
LINE
8
BLACK
10
138.512722
20
22.213806
11
136.543166
21
21.867203
0
LINE
8
BLACK
10
138.974155
20
8.079783
11
138.626757
21
10.048280
0
LINE
8
BLACK
10
140.943711
20
8.426386
11
138.974155
21
8.079783
0
LINE
8
BLACK
10
141.757833
20
32.603997
11
142.584654
21
27.912924
0
LINE
8
BLACK
10
150.330322
20
24.298720
11
148.360766
21
23.949471
0
LINE
8
BLACK
10
150.677719
20
22.327577
11
150.330322
21
24.298720
0
LINE
8
BLACK
10
150.791755
20
10.162051
11
152.761575
21
10.511300
0
LINE
8
BLACK
10
152.761575
20
10.511300
11
152.414178
21
12.479798
0
LINE
8
BLACK
10
165.480344
20
7.770220
11
127.959300
21
1.155645
0
LINE
8
BLACK
10
98.605933
20
46.767125
11
95.297852
21
28.005528
0
LINE
8
BLACK
10
230.600042
20
77.262961
11
233.909181
21
58.501381
0
LINE
8
BLACK
10
184.242189
20
11.056341
11
165.481667
21
7.749054
0
LINE
8
BLACK
10
180.107286
20
34.506348
11
184.242189
21
11.056341
0
LINE
8
BLACK
10
188.943829
20
94.098378
11
207.704352
21
97.405665
0
LINE
8
BLACK
10
207.704352
20
97.405665
11
211.012433
21
78.644085
0
LINE
8
BLACK
10
172.664302
20
76.717920
11
169.356221
21
95.479501
0
LINE
8
BLACK
10
169.356221
20
95.479501
11
188.116743
21
98.786788
0
LINE
8
BLACK
10
188.116743
20
98.786788
11
191.424824
21
80.027854
0
LINE
8
BLACK
10
146.721145
20
4.441766
11
127.960623
21
1.131833
0
LINE
8
BLACK
10
127.960623
20
1.131833
11
122.998633
21
29.272881
0
LINE
8
BLACK
10
122.998633
20
29.272881
11
141.759156
21
32.582830
0
LINE
8
BLACK
10
3.975971
20
58.615151
11
7.284052
21
77.376732
0
LINE
8
BLACK
10
101.914014
20
65.526059
11
98.605933
21
46.767125
0
LINE
8
BLACK
10
142.586242
20
27.891758
11
139.278161
21
46.653354
0
LINE
8
BLACK
10
114.885460
20
29.386652
11
109.923471
21
1.245604
0
LINE
8
BLACK
10
109.923471
20
1.245604
11
91.162948
21
4.555537
0
LINE
8
BLACK
10
96.124938
20
32.696601
11
114.885460
21
29.386652
0
LINE
8
BLACK
10
91.162948
20
4.555537
11
72.402426
21
7.862824
0
LINE
8
BLACK
10
135.970079
20
65.412289
11
132.662263
21
84.173869
0
LINE
8
BLACK
10
132.662263
20
84.173869
11
151.422785
21
87.481157
0
LINE
8
BLACK
10
105.221831
20
84.287640
11
101.914014
21
65.526059
0
LINE
8
BLACK
10
86.461309
20
87.594927
11
105.221831
21
84.287640
0
LINE
8
BLACK
10
72.402426
20
7.862824
11
109.923471
21
1.245604
0
LINE
8
BLACK
10
85.121196
20
10.601259
11
85.468593
21
12.572402
0
LINE
8
BLACK
10
87.090751
20
10.254655
11
85.121196
21
10.601259
0
LINE
8
BLACK
10
87.205051
20
22.420181
11
87.552184
21
24.388679
0
LINE
8
BLACK
10
87.552184
20
24.388679
11
89.522005
21
24.042075
0
LINE
8
BLACK
10
96.124938
20
32.696601
11
95.297852
21
28.005528
0
LINE
8
BLACK
10
109.923471
20
1.245604
11
114.885460
21
29.386652
0
LINE
8
BLACK
10
114.885460
20
29.386652
11
96.124938
21
32.696601
0
LINE
8
BLACK
10
217.628331
20
41.123569
11
198.867809
21
37.816282
0
LINE
8
BLACK
10
26.871661
20
78.757855
11
30.179742
21
97.519436
0
LINE
8
BLACK
10
30.179742
20
97.519436
11
48.940264
21
94.212148
0
LINE
8
BLACK
10
68.527873
20
95.593271
11
65.219792
21
76.831691
0
LINE
8
BLACK
10
46.459269
20
80.141624
11
49.767086
21
98.900559
0
LINE
8
BLACK
10
49.767086
20
98.900559
11
68.527873
21
95.593271
0
LINE
8
BLACK
10
237.216469
20
39.739800
11
218.455682
21
36.432513
0
LINE
8
BLACK
10
218.455682
20
36.432513
11
215.147601
21
55.194093
0
LINE
8
BLACK
10
233.909181
20
58.501381
11
237.216469
21
39.739800
0
LINE
8
BLACK
10
151.422785
20
87.481157
11
170.183307
21
90.788444
0
LINE
8
BLACK
10
39.016285
20
37.930052
11
20.255763
21
41.237340
0
LINE
8
BLACK
10
202.174302
20
19.062623
11
183.413780
21
15.755335
0
LINE
8
BLACK
10
198.039399
20
42.512630
11
202.174302
21
19.062623
0
LINE
8
BLACK
10
54.468726
20
15.861169
11
35.708204
21
19.168456
0
LINE
8
BLACK
10
35.708204
20
19.168456
11
39.843107
21
42.618463
0
LINE
8
BLACK
10
22.736758
20
55.307864
11
19.428677
21
36.546283
0
LINE
8
BLACK
10
19.428677
20
36.546283
11
0.668154
21
39.856217
0
LINE
8
BLACK
10
0.668154
20
39.856217
11
3.975971
21
58.615151
0
LINE
8
BLACK
10
208.531438
20
92.714608
11
227.291960
21
96.021896
0
LINE
8
BLACK
10
227.291960
20
96.021896
11
230.600042
21
77.262961
0
LINE
8
BLACK
10
67.700786
20
90.902215
11
86.461309
21
87.594927
0
LINE
8
BLACK
10
72.402426
20
7.862824
11
53.641904
21
11.170112
0
LINE
8
BLACK
10
53.641904
20
11.170112
11
57.776807
21
34.622765
0
LINE
8
BLACK
10
165.481667
20
7.749054
11
146.721145
21
4.441766
0
LINE
8
BLACK
10
139.278161
20
46.653354
11
135.970079
21
65.412289
0
LINE
8
BLACK
10
7.282729
20
77.368794
11
10.590811
21
96.130375
0
LINE
8
BLACK
10
10.590811
20
96.130375
11
29.351333
21
92.820442
0
LINE
8
BLACK
10
135.289381
20
49.055368
11
135.204908
21
50.720099
0
LINE
8
BLACK
10
135.204908
20
50.720099
11
134.957804
21
52.336716
0
LINE
8
BLACK
10
134.957804
20
52.336716
11
134.556251
21
53.897038
0
LINE
8
BLACK
10
134.556251
20
53.897038
11
134.008432
21
55.392884
0
LINE
8
BLACK
10
134.008432
20
55.392884
11
133.322530
21
56.816075
0
LINE
8
BLACK
10
133.322530
20
56.816075
11
132.506728
21
58.158429
0
LINE
8
BLACK
10
132.506728
20
58.158429
11
130.518154
21
60.567904
0
LINE
8
BLACK
10
130.518154
20
60.567904
11
128.108172
21
62.555864
0
LINE
8
BLACK
10
128.108172
20
62.555864
11
126.765610
21
63.371323
0
LINE
8
BLACK
10
126.765610
20
63.371323
11
125.342245
21
64.056862
0
LINE
8
BLACK
10
125.342245
20
64.056862
11
123.846259
21
64.604300
0
LINE
8
BLACK
10
123.846259
20
64.604300
11
122.285834
21
65.005455
0
LINE
8
BLACK
10
122.285834
20
65.005455
11
120.669155
21
65.252148
0
LINE
8
BLACK
10
120.669155
20
65.252148
11
119.004402
21
65.336196
0
LINE
8
BLACK
10
119.004402
20
65.336196
11
117.339650
21
65.252148
0
LINE
8
BLACK
10
117.339650
20
65.252148
11
115.722970
21
65.005455
0
LINE
8
BLACK
10
115.722970
20
65.005455
11
114.162546
21
64.604300
0
LINE
8
BLACK
10
114.162546
20
64.604300
11
112.666560
21
64.056862
0
LINE
8
BLACK
10
112.666560
20
64.056862
11
111.243194
21
63.371323
0
LINE
8
BLACK
10
111.243194
20
63.371323
11
109.900632
21
62.555864
0
LINE
8
BLACK
10
109.900632
20
62.555864
11
107.490651
21
60.567904
0
LINE
8
BLACK
10
107.490651
20
60.567904
11
105.502077
21
58.158429
0
LINE
8
BLACK
10
105.502077
20
58.158429
11
104.686275
21
56.816075
0
LINE
8
BLACK
10
104.686275
20
56.816075
11
104.000373
21
55.392884
0
LINE
8
BLACK
10
104.000373
20
55.392884
11
103.452554
21
53.897038
0
LINE
8
BLACK
10
103.452554
20
53.897038
11
103.051001
21
52.336716
0
LINE
8
BLACK
10
103.051001
20
52.336716
11
102.803896
21
50.720099
0
LINE
8
BLACK
10
102.803896
20
50.720099
11
102.719423
21
49.055368
0
LINE
8
BLACK
10
102.719423
20
49.055368
11
102.803896
21
47.390637
0
LINE
8
BLACK
10
102.803896
20
47.390637
11
103.051001
21
45.774021
0
LINE
8
BLACK
10
103.051001
20
45.774021
11
103.452554
21
44.213699
0
LINE
8
BLACK
10
103.452554
20
44.213699
11
104.000373
21
42.717852
0
LINE
8
BLACK
10
104.000373
20
42.717852
11
104.686275
21
41.294661
0
LINE
8
BLACK
10
104.686275
20
41.294661
11
105.502077
21
39.952307
0
LINE
8
BLACK
10
105.502077
20
39.952307
11
107.490651
21
37.542832
0
LINE
8
BLACK
10
107.490651
20
37.542832
11
109.900632
21
35.554873
0
LINE
8
BLACK
10
109.900632
20
35.554873
11
111.243194
21
34.739413
0
LINE
8
BLACK
10
111.243194
20
34.739413
11
112.666560
21
34.053874
0
LINE
8
BLACK
10
112.666560
20
34.053874
11
114.162546
21
33.506436
0
LINE
8
BLACK
10
114.162546
20
33.506436
11
115.722970
21
33.105281
0
LINE
8
BLACK
10
115.722970
20
33.105281
11
117.339650
21
32.858589
0
LINE
8
BLACK
10
117.339650
20
32.858589
11
119.004402
21
32.774540
0
LINE
8
BLACK
10
119.004402
20
32.774540
11
120.669155
21
32.858589
0
LINE
8
BLACK
10
120.669155
20
32.858589
11
122.285834
21
33.105281
0
LINE
8
BLACK
10
122.285834
20
33.105281
11
123.846259
21
33.506436
0
LINE
8
BLACK
10
123.846259
20
33.506436
11
125.342245
21
34.053874
0
LINE
8
BLACK
10
125.342245
20
34.053874
11
126.765610
21
34.739413
0
LINE
8
BLACK
10
126.765610
20
34.739413
11
128.108172
21
35.554873
0
LINE
8
BLACK
10
128.108172
20
35.554873
11
130.518154
21
37.542832
0
LINE
8
BLACK
10
130.518154
20
37.542832
11
132.506728
21
39.952307
0
LINE
8
BLACK
10
132.506728
20
39.952307
11
133.322530
21
41.294661
0
LINE
8
BLACK
10
133.322530
20
41.294661
11
134.008432
21
42.717852
0
LINE
8
BLACK
10
134.008432
20
42.717852
11
134.556251
21
44.213699
0
LINE
8
BLACK
10
134.556251
20
44.213699
11
134.957804
21
45.774021
0
LINE
8
BLACK
10
134.957804
20
45.774021
11
135.204908
21
47.390637
0
LINE
8
BLACK
10
135.204908
20
47.390637
11
135.289381
21
49.055368
0
LINE
8
BLACK
10
135.289381
20
49.055368
11
135.289381
21
49.055368
0
LINE
8
BLACK
10
131.504387
20
49.055368
11
131.394461
21
50.711111
0
LINE
8
BLACK
10
131.394461
20
50.711111
11
131.071694
21
52.316835
0
LINE
8
BLACK
10
131.071694
20
52.316835
11
130.546603
21
53.854323
0
LINE
8
BLACK
10
130.546603
20
53.854323
11
129.829706
21
55.305360
0
LINE
8
BLACK
10
129.829706
20
55.305360
11
128.931520
21
56.651730
0
LINE
8
BLACK
10
128.931520
20
56.651730
11
127.862561
21
57.875216
0
LINE
8
BLACK
10
127.862561
20
57.875216
11
126.633347
21
58.957602
0
LINE
8
BLACK
10
126.633347
20
58.957602
11
125.254395
21
59.880672
0
LINE
8
BLACK
10
125.254395
20
59.880672
11
123.765516
21
60.613345
0
LINE
8
BLACK
10
123.765516
20
60.613345
11
122.213535
21
61.136682
0
LINE
8
BLACK
10
122.213535
20
61.136682
11
120.619486
21
61.450685
0
LINE
8
BLACK
10
120.619486
20
61.450685
11
119.004402
21
61.555352
0
LINE
8
BLACK
10
119.004402
20
61.555352
11
117.389319
21
61.450685
0
LINE
8
BLACK
10
117.389319
20
61.450685
11
115.795270
21
61.136682
0
LINE
8
BLACK
10
115.795270
20
61.136682
11
114.243289
21
60.613345
0
LINE
8
BLACK
10
114.243289
20
60.613345
11
112.754410
21
59.880672
0
LINE
8
BLACK
10
112.754410
20
59.880672
11
111.375458
21
58.957602
0
LINE
8
BLACK
10
111.375458
20
58.957602
11
110.146244
21
57.875216
0
LINE
8
BLACK
10
110.146244
20
57.875216
11
109.077285
21
56.651730
0
LINE
8
BLACK
10
109.077285
20
56.651730
11
108.179098
21
55.305360
0
LINE
8
BLACK
10
108.179098
20
55.305360
11
107.462201
21
53.854323
0
LINE
8
BLACK
10
107.462201
20
53.854323
11
106.937111
21
52.316835
0
LINE
8
BLACK
10
106.937111
20
52.316835
11
106.614344
21
50.711111
0
LINE
8
BLACK
10
106.614344
20
50.711111
11
106.504418
21
49.055368
0
LINE
8
BLACK
10
106.504418
20
49.055368
11
106.614344
21
47.399625
0
LINE
8
BLACK
10
106.614344
20
47.399625
11
106.937111
21
45.793902
0
LINE
8
BLACK
10
106.937111
20
45.793902
11
107.462201
21
44.256413
0
LINE
8
BLACK
10
107.462201
20
44.256413
11
108.179098
21
42.805376
0
LINE
8
BLACK
10
108.179098
20
42.805376
11
109.077285
21
41.459006
0
LINE
8
BLACK
10
109.077285
20
41.459006
11
110.146244
21
40.235520
0
LINE
8
BLACK
10
110.146244
20
40.235520
11
111.375458
21
39.153134
0
LINE
8
BLACK
10
111.375458
20
39.153134
11
112.754410
21
38.230064
0
LINE
8
BLACK
10
112.754410
20
38.230064
11
114.243289
21
37.497391
0
LINE
8
BLACK
10
114.243289
20
37.497391
11
115.795270
21
36.974054
0
LINE
8
BLACK
10
115.795270
20
36.974054
11
117.389319
21
36.660051
0
LINE
8
BLACK
10
117.389319
20
36.660051
11
119.004402
21
36.555384
0
LINE
8
BLACK
10
119.004402
20
36.555384
11
120.619486
21
36.660051
0
LINE
8
BLACK
10
120.619486
20
36.660051
11
122.213535
21
36.974054
0
LINE
8
BLACK
10
122.213535
20
36.974054
11
123.765516
21
37.497391
0
LINE
8
BLACK
10
123.765516
20
37.497391
11
125.254395
21
38.230064
0
LINE
8
BLACK
10
125.254395
20
38.230064
11
126.633347
21
39.153134
0
LINE
8
BLACK
10
126.633347
20
39.153134
11
127.862561
21
40.235520
0
LINE
8
BLACK
10
127.862561
20
40.235520
11
128.931520
21
41.459006
0
LINE
8
BLACK
10
128.931520
20
41.459006
11
129.829706
21
42.805376
0
LINE
8
BLACK
10
129.829706
20
42.805376
11
130.546603
21
44.256413
0
LINE
8
BLACK
10
130.546603
20
44.256413
11
131.071694
21
45.793902
0
LINE
8
BLACK
10
131.071694
20
45.793902
11
131.394461
21
47.399625
0
LINE
8
BLACK
10
131.394461
20
47.399625
11
131.504387
21
49.055368
0
LINE
8
BLACK
10
131.504387
20
49.055368
11
131.504387
21
49.055368
0
LINE
8
BLACK
10
158.148220
20
66.759016
11
170.950598
21
69.015909
0
LINE
8
BLACK
10
160.000037
20
53.376408
11
157.742615
21
66.179579
0
LINE
8
BLACK
10
171.530035
20
68.611097
11
173.787457
21
55.807926
0
LINE
8
BLACK
10
173.381851
20
55.228489
11
160.579209
21
52.971596
0
LINE
8
BLACK
10
158.148223
20
66.759384
11
157.825473
21
66.553767
0
LINE
8
BLACK
10
157.825473
20
66.553767
11
157.742646
21
66.180156
0
LINE
8
BLACK
10
160.000068
20
53.377673
11
160.205684
21
53.054921
0
LINE
8
BLACK
10
160.205684
20
53.054921
11
160.579296
21
52.972093
0
LINE
8
BLACK
10
171.529934
20
68.611229
11
171.324320
21
68.933980
0
LINE
8
BLACK
10
171.324320
20
68.933980
11
170.950709
21
69.016809
0
LINE
8
BLACK
10
173.378875
20
55.230084
11
173.701627
21
55.435730
0
LINE
8
BLACK
10
173.701627
20
55.435730
11
173.784443
21
55.809362
0
LINE
8
BLACK
10
179.389737
20
55.995780
11
192.192379
21
58.255319
0
LINE
8
BLACK
10
181.241554
20
42.615817
11
178.984132
21
55.418989
0
LINE
8
BLACK
10
192.771552
20
57.847861
11
195.028974
21
45.047335
0
LINE
8
BLACK
10
194.623368
20
44.467898
11
181.820726
21
42.208360
0
LINE
8
BLACK
10
179.389782
20
55.996954
11
179.067032
21
55.791338
0
LINE
8
BLACK
10
179.067032
20
55.791338
11
178.984206
21
55.417727
0
LINE
8
BLACK
10
181.241628
20
42.615243
11
181.447244
21
42.292492
0
LINE
8
BLACK
10
181.447244
20
42.292492
11
181.820856
21
42.209664
0
LINE
8
BLACK
10
192.771493
20
57.848800
11
192.565879
21
58.171551
0
LINE
8
BLACK
10
192.565879
20
58.171551
11
192.192268
21
58.254379
0
LINE
8
BLACK
10
194.620434
20
44.467655
11
194.943187
21
44.673301
0
LINE
8
BLACK
10
194.943187
20
44.673301
11
195.026003
21
45.046933
0
LINE
8
BLACK
10
130.559357
20
8.119470
11
128.300877
21
20.919996
0
LINE
8
BLACK
10
134.369088
20
22.499556
11
128.706482
21
21.499432
0
LINE
8
BLACK
10
136.800076
20
8.712136
11
131.138794
21
7.712012
0
LINE
8
BLACK
10
137.205682
20
9.291573
11
134.948260
21
22.092098
0
LINE
8
BLACK
10
154.009084
20
12.252256
11
151.751662
21
25.055428
0
LINE
8
BLACK
10
157.819873
20
26.632342
11
152.157003
21
25.634865
0
LINE
8
BLACK
10
160.250861
20
12.844922
11
154.588256
21
11.847444
0
LINE
8
BLACK
10
160.656467
20
13.424359
11
158.399045
21
26.227531
0
LINE
8
BLACK
10
128.706419
20
21.499988
11
128.383669
21
21.294340
0
LINE
8
BLACK
10
128.383669
20
21.294340
11
128.300848
21
20.920710
0
LINE
8
BLACK
10
130.559466
20
8.118438
11
130.765080
21
7.795688
0
LINE
8
BLACK
10
130.765080
20
7.795688
11
131.138691
21
7.712859
0
LINE
8
BLACK
10
134.948294
20
22.092839
11
134.742677
21
22.415591
0
LINE
8
BLACK
10
134.742677
20
22.415591
11
134.369064
21
22.498418
0
LINE
8
BLACK
10
136.800137
20
8.711130
11
137.122888
21
8.916745
0
LINE
8
BLACK
10
137.122888
20
8.916745
11
137.205716
21
9.290356
0
LINE
8
BLACK
10
152.157125
20
25.634970
11
151.834385
21
25.429332
0
LINE
8
BLACK
10
151.834385
20
25.429332
11
151.751553
21
25.055719
0
LINE
8
BLACK
10
154.008978
20
12.253235
11
154.214593
21
11.930485
0
LINE
8
BLACK
10
154.214593
20
11.930485
11
154.588203
21
11.847656
0
LINE
8
BLACK
10
158.398997
20
26.227822
11
158.193381
21
26.550573
0
LINE
8
BLACK
10
158.193381
20
26.550573
11
157.819770
21
26.633401
0
LINE
8
BLACK
10
160.250840
20
12.846113
11
160.573591
21
13.051728
0
LINE
8
BLACK
10
160.573591
20
13.051728
11
160.656419
21
13.425338
0
LINE
8
BLACK
10
79.549342
20
33.852828
11
81.806764
21
46.656000
0
LINE
8
BLACK
10
82.385937
20
47.063458
11
95.188314
21
44.803919
0
LINE
8
BLACK
10
92.757326
20
31.016483
11
79.954948
21
33.276038
0
LINE
8
BLACK
10
95.593920
20
44.224482
11
93.336498
21
31.423967
0
LINE
8
BLACK
10
79.549258
20
33.854109
11
79.632085
21
33.480498
0
LINE
8
BLACK
10
79.632085
20
33.480498
11
79.954834
21
33.274881
0
LINE
8
BLACK
10
82.385907
20
47.062172
11
82.012296
21
46.979344
0
LINE
8
BLACK
10
82.012296
20
46.979344
11
81.806680
21
46.656592
0
LINE
8
BLACK
10
92.754783
20
31.018970
11
93.128416
21
31.101835
0
LINE
8
BLACK
10
93.128416
20
31.101835
11
93.334019
21
31.424629
0
LINE
8
BLACK
10
95.593973
20
44.225522
11
95.511143
21
44.599133
0
LINE
8
BLACK
10
95.511143
20
44.599133
11
95.188391
21
44.804747
0
LINE
8
BLACK
10
215.256873
20
71.992468
11
228.059516
21
74.249361
0
LINE
8
BLACK
10
217.108690
20
58.612506
11
214.851268
21
71.413031
0
LINE
8
BLACK
10
228.638688
20
73.844549
11
230.896110
21
61.041378
0
LINE
8
BLACK
10
230.490504
20
60.464587
11
217.687862
21
58.205048
0
LINE
8
BLACK
10
215.256916
20
71.993225
11
214.934164
21
71.787609
0
LINE
8
BLACK
10
214.934164
20
71.787609
11
214.851336
21
71.413997
0
LINE
8
BLACK
10
217.108761
20
58.611513
11
217.314376
21
58.288763
0
LINE
8
BLACK
10
217.314376
20
58.288763
11
217.687986
21
58.205934
0
LINE
8
BLACK
10
228.638627
20
73.845070
11
228.433011
21
74.167821
0
LINE
8
BLACK
10
228.433011
20
74.167821
11
228.059399
21
74.250647
0
LINE
8
BLACK
10
230.487565
20
60.463925
11
230.810319
21
60.669570
0
LINE
8
BLACK
10
230.810319
20
60.669570
11
230.893136
21
61.043203
0
LINE
8
BLACK
10
165.177661
20
26.894280
11
177.980304
21
29.151173
0
LINE
8
BLACK
10
167.029478
20
13.511672
11
164.772056
21
26.314843
0
LINE
8
BLACK
10
178.559476
20
28.743715
11
180.816898
21
15.943189
0
LINE
8
BLACK
10
180.411292
20
15.363753
11
167.608650
21
13.106860
0
LINE
8
BLACK
10
165.177709
20
26.893168
11
164.854960
21
26.687553
0
LINE
8
BLACK
10
164.854960
20
26.687553
11
164.772132
21
26.313943
0
LINE
8
BLACK
10
167.029555
20
13.511460
11
167.235170
21
13.188708
0
LINE
8
BLACK
10
167.235170
20
13.188708
11
167.608782
21
13.105881
0
LINE
8
BLACK
10
178.559420
20
28.745011
11
178.353806
21
29.067762
0
LINE
8
BLACK
10
178.353806
20
29.067762
11
177.980195
21
29.150591
0
LINE
8
BLACK
10
180.408361
20
15.363885
11
180.731114
21
15.569530
0
LINE
8
BLACK
10
180.731114
20
15.569530
11
180.813929
21
15.943163
0
LINE
8
BLACK
10
192.361448
20
92.135172
11
205.163826
21
94.392065
0
LINE
8
BLACK
10
194.213264
20
78.755209
11
191.955842
21
91.555735
0
LINE
8
BLACK
10
205.742998
20
93.987253
11
208.000420
21
81.184081
0
LINE
8
BLACK
10
207.594814
20
80.607290
11
194.792437
21
78.347752
0
LINE
8
BLACK
10
192.361358
20
92.135934
11
192.038609
21
91.930318
0
LINE
8
BLACK
10
192.038609
20
91.930318
11
191.955781
21
91.556709
0
LINE
8
BLACK
10
194.213204
20
78.754222
11
194.418820
21
78.431473
0
LINE
8
BLACK
10
194.418820
20
78.431473
11
194.792431
21
78.348646
0
LINE
8
BLACK
10
205.743069
20
93.987779
11
205.537455
21
94.310530
0
LINE
8
BLACK
10
205.537455
20
94.310530
11
205.163844
21
94.393358
0
LINE
8
BLACK
10
207.592010
20
80.606634
11
207.914764
21
80.812281
0
LINE
8
BLACK
10
207.914764
20
80.812281
11
207.997578
21
81.185915
0
LINE
8
BLACK
10
172.773839
20
93.518941
11
185.576217
21
95.775834
0
LINE
8
BLACK
10
174.625656
20
80.136333
11
172.368234
21
92.939504
0
LINE
8
BLACK
10
186.155389
20
95.371022
11
188.412811
21
82.567850
0
LINE
8
BLACK
10
188.007470
20
81.988414
11
175.204828
21
79.731521
0
LINE
8
BLACK
10
172.773797
20
93.518084
11
172.451046
21
93.312468
0
LINE
8
BLACK
10
172.451046
20
93.312468
11
172.368218
21
92.938856
0
LINE
8
BLACK
10
174.625643
20
80.136372
11
174.831257
21
79.813622
0
LINE
8
BLACK
10
174.831257
20
79.813622
11
175.204868
21
79.730793
0
LINE
8
BLACK
10
186.155508
20
95.369929
11
185.949892
21
95.692679
0
LINE
8
BLACK
10
185.949892
20
95.692679
11
185.576280
21
95.775506
0
LINE
8
BLACK
10
188.004446
20
81.988784
11
188.327201
21
82.194429
0
LINE
8
BLACK
10
188.327201
20
82.194429
11
188.410017
21
82.568062
0
LINE
8
BLACK
10
60.788820
20
37.162762
11
63.046242
21
49.963287
0
LINE
8
BLACK
10
63.625414
20
50.370745
11
76.427792
21
48.113852
0
LINE
8
BLACK
10
73.996803
20
34.326432
11
61.194161
21
36.583325
0
LINE
8
BLACK
10
76.833398
20
47.534415
11
74.575976
21
34.731244
0
LINE
8
BLACK
10
60.788693
20
37.162100
11
60.871520
21
36.788489
0
LINE
8
BLACK
10
60.871520
20
36.788489
11
61.194270
21
36.582873
0
LINE
8
BLACK
10
63.625343
20
50.370166
11
63.251731
21
50.287338
0
LINE
8
BLACK
10
63.251731
20
50.287338
11
63.046115
21
49.964586
0
LINE
8
BLACK
10
73.994218
20
34.326977
11
74.367842
21
34.409832
0
LINE
8
BLACK
10
74.367842
20
34.409832
11
74.573454
21
34.732607
0
LINE
8
BLACK
10
76.833408
20
47.533513
11
76.750581
21
47.907125
0
LINE
8
BLACK
10
76.750581
20
47.907125
11
76.427829
21
48.112741
0
LINE
8
BLACK
10
127.243074
20
22.621264
11
140.045451
21
24.880803
0
LINE
8
BLACK
10
129.094890
20
9.241302
11
126.837468
21
22.041827
0
LINE
8
BLACK
10
140.624888
20
24.473345
11
142.882310
21
11.672820
0
LINE
8
BLACK
10
142.476705
20
11.093383
11
129.674062
21
8.833844
0
LINE
8
BLACK
10
127.243082
20
22.622270
11
126.920322
21
22.416644
0
LINE
8
BLACK
10
126.920322
20
22.416644
11
126.837505
21
22.043018
0
LINE
8
BLACK
10
129.094927
20
9.240535
11
129.300543
21
8.917783
0
LINE
8
BLACK
10
129.300543
20
8.917783
11
129.674155
21
8.834955
0
LINE
8
BLACK
10
140.624793
20
24.474113
11
140.419179
21
24.796864
0
LINE
8
BLACK
10
140.419179
20
24.796864
11
140.045568
21
24.879692
0
LINE
8
BLACK
10
142.473733
20
11.092960
11
142.796486
21
11.298605
0
LINE
8
BLACK
10
142.796486
20
11.298605
11
142.879302
21
11.672238
0
LINE
8
BLACK
10
6.987984
20
61.157794
11
9.245406
21
73.958320
0
LINE
8
BLACK
10
9.824578
20
74.365777
11
22.627220
21
72.106239
0
LINE
8
BLACK
10
20.195967
20
58.318818
11
7.393590
21
60.578357
0
LINE
8
BLACK
10
23.032826
20
71.526802
11
20.775404
21
58.726276
0
LINE
8
BLACK
10
6.987994
20
61.156506
11
7.070822
21
60.782894
0
LINE
8
BLACK
10
7.070822
20
60.782894
11
7.393573
21
60.577278
0
LINE
8
BLACK
10
9.824645
20
74.364568
11
9.451034
21
74.281740
0
LINE
8
BLACK
10
9.451034
20
74.281740
11
9.245418
21
73.958989
0
LINE
8
BLACK
10
20.193521
20
58.321382
11
20.567145
21
58.404237
0
LINE
8
BLACK
10
20.567145
20
58.404237
11
20.772757
21
58.727012
0
LINE
8
BLACK
10
23.032709
20
71.527918
11
22.949881
21
71.901529
0
LINE
8
BLACK
10
22.949881
20
71.901529
11
22.627130
21
72.107143
0
LINE
8
BLACK
10
82.857159
20
52.614409
11
85.114581
21
65.417580
0
LINE
8
BLACK
10
85.694018
20
65.822392
11
98.496395
21
63.565499
0
LINE
8
BLACK
10
96.065407
20
49.778079
11
83.262765
21
52.034972
0
LINE
8
BLACK
10
98.902001
20
62.986063
11
96.644579
21
50.182891
0
LINE
8
BLACK
10
82.857249
20
52.614671
11
82.940077
21
52.241059
0
LINE
8
BLACK
10
82.940077
20
52.241059
11
83.262828
21
52.035443
0
LINE
8
BLACK
10
85.693901
20
65.822736
11
85.320290
21
65.739908
0
LINE
8
BLACK
10
85.320290
20
65.739908
11
85.114674
21
65.417157
0
LINE
8
BLACK
10
96.062777
20
49.779548
11
96.436401
21
49.862402
0
LINE
8
BLACK
10
96.436401
20
49.862402
11
96.642013
21
50.185177
0
LINE
8
BLACK
10
98.901964
20
62.986084
11
98.819137
21
63.359696
0
LINE
8
BLACK
10
98.819137
20
63.359696
11
98.496385
21
63.565311
0
LINE
8
BLACK
10
142.695779
20
44.690148
11
155.498157
21
46.947041
0
LINE
8
BLACK
10
144.547596
20
31.310196
11
142.290174
21
44.110711
0
LINE
8
BLACK
10
156.077329
20
46.542229
11
158.334751
21
33.739058
0
LINE
8
BLACK
10
157.929146
20
33.162267
11
145.126768
21
30.902712
0
LINE
8
BLACK
10
142.695652
20
44.690825
11
142.372904
21
44.485210
0
LINE
8
BLACK
10
142.372904
20
44.485210
11
142.290076
21
44.111600
0
LINE
8
BLACK
10
144.547498
20
31.309112
11
144.753114
21
30.986360
0
LINE
8
BLACK
10
144.753114
20
30.986360
11
145.126726
21
30.903532
0
LINE
8
BLACK
10
156.077364
20
46.542671
11
155.871749
21
46.865422
0
LINE
8
BLACK
10
155.871749
20
46.865422
11
155.498138
21
46.948250
0
LINE
8
BLACK
10
157.926304
20
33.161526
11
158.249058
21
33.367173
0
LINE
8
BLACK
10
158.249058
20
33.367173
11
158.331873
21
33.740807
0
LINE
8
BLACK
10
195.669265
20
73.376237
11
208.471907
21
75.633130
0
LINE
8
BLACK
10
197.521081
20
59.993629
11
195.263659
21
72.796800
0
LINE
8
BLACK
10
209.051079
20
75.228318
11
211.308501
21
62.425147
0
LINE
8
BLACK
10
210.902895
20
61.845710
11
198.100518
21
59.588817
0
LINE
8
BLACK
10
195.669352
20
73.375372
11
195.346601
21
73.169756
0
LINE
8
BLACK
10
195.346601
20
73.169756
11
195.263773
21
72.796144
0
LINE
8
BLACK
10
197.521198
20
59.993658
11
197.726814
21
59.670908
0
LINE
8
BLACK
10
197.726814
20
59.670908
11
198.100425
21
59.588081
0
LINE
8
BLACK
10
209.051063
20
75.227215
11
208.845449
21
75.549966
0
LINE
8
BLACK
10
208.845449
20
75.549966
11
208.471838
21
75.632794
0
LINE
8
BLACK
10
210.900004
20
61.846072
11
211.222757
21
62.051718
0
LINE
8
BLACK
10
211.222757
20
62.051718
11
211.305572
21
62.425350
0
LINE
8
BLACK
10
95.001783
20
11.786590
11
97.259205
21
24.587116
0
LINE
8
BLACK
10
97.838378
20
24.994574
11
110.641020
21
22.735035
0
LINE
8
BLACK
10
108.209767
20
8.947615
11
95.407389
21
11.207154
0
LINE
8
BLACK
10
111.046625
20
22.158244
11
108.789203
21
9.355073
0
LINE
8
BLACK
10
95.001828
20
11.785532
11
95.084656
21
11.411923
0
LINE
8
BLACK
10
95.084656
20
11.411923
11
95.407405
21
11.206307
0
LINE
8
BLACK
10
97.838478
20
24.993595
11
97.464866
21
24.910767
0
LINE
8
BLACK
10
97.464866
20
24.910767
11
97.259250
21
24.588015
0
LINE
8
BLACK
10
108.207354
20
8.950419
11
108.580978
21
9.033275
0
LINE
8
BLACK
10
108.580978
20
9.033275
11
108.786589
21
9.356052
0
LINE
8
BLACK
10
111.046541
20
22.156948
11
110.963712
21
22.530558
0
LINE
8
BLACK
10
110.963712
20
22.530558
11
110.640962
21
22.736173
0
LINE
8
BLACK
10
75.827718
20
12.749672
11
78.085140
21
25.550198
0
LINE
8
BLACK
10
78.664312
20
25.957656
11
91.466954
21
23.698117
0
LINE
8
BLACK
10
89.035701
20
9.910697
11
76.233323
21
12.170236
0
LINE
8
BLACK
10
91.872560
20
23.118680
11
89.615138
21
10.318155
0
LINE
8
BLACK
10
75.827763
20
12.748455
11
75.910592
21
12.374845
0
LINE
8
BLACK
10
75.910592
20
12.374845
11
76.233342
21
12.169230
0
LINE
8
BLACK
10
78.664415
20
25.956518
11
78.290803
21
25.873690
0
LINE
8
BLACK
10
78.290803
20
25.873690
11
78.085188
21
25.550939
0
LINE
8
BLACK
10
89.033291
20
9.913343
11
89.406915
21
9.996198
0
LINE
8
BLACK
10
89.406915
20
9.996198
11
89.612526
21
10.318975
0
LINE
8
BLACK
10
91.872478
20
23.119871
11
91.789649
21
23.493481
0
LINE
8
BLACK
10
91.789649
20
23.493481
11
91.466899
21
23.699096
0
LINE
8
BLACK
10
136.079617
20
82.210663
11
148.882259
21
84.470202
0
LINE
8
BLACK
10
137.931433
20
68.830701
11
135.674011
21
81.633872
0
LINE
8
BLACK
10
149.461431
20
84.062744
11
151.718853
21
71.262219
0
LINE
8
BLACK
10
151.313248
20
70.682782
11
138.510605
21
68.425889
0
LINE
8
BLACK
10
136.079667
20
82.211955
11
135.756916
21
82.006339
0
LINE
8
BLACK
10
135.756916
20
82.006339
11
135.674088
21
81.632727
0
LINE
8
BLACK
10
137.931513
20
68.830243
11
138.137127
21
68.507493
0
LINE
8
BLACK
10
138.137127
20
68.507493
11
138.510738
21
68.424664
0
LINE
8
BLACK
10
149.461378
20
84.063800
11
149.255763
21
84.386552
0
LINE
8
BLACK
10
149.255763
20
84.386552
11
148.882151
21
84.469379
0
LINE
8
BLACK
10
151.310316
20
70.682655
11
151.633071
21
70.888300
0
LINE
8
BLACK
10
151.633071
20
70.888300
11
151.715887
21
71.261933
0
LINE
8
BLACK
10
86.165240
20
71.375990
11
88.422662
21
84.176515
0
LINE
8
BLACK
10
89.001834
20
84.583973
11
101.804477
21
82.327080
0
LINE
8
BLACK
10
99.373223
20
68.539660
11
86.570846
21
70.796553
0
LINE
8
BLACK
10
102.210082
20
81.747643
11
99.952660
21
68.944472
0
LINE
8
BLACK
10
86.165243
20
71.375235
11
86.248071
21
71.001624
0
LINE
8
BLACK
10
86.248071
20
71.001624
11
86.570822
21
70.796008
0
LINE
8
BLACK
10
89.001893
20
84.583298
11
88.628283
21
84.500470
0
LINE
8
BLACK
10
88.628283
20
84.500470
11
88.422668
21
84.177722
0
LINE
8
BLACK
10
99.370771
20
68.540112
11
99.744395
21
68.622967
0
LINE
8
BLACK
10
99.744395
20
68.622967
11
99.950006
21
68.945742
0
LINE
8
BLACK
10
102.209958
20
81.746648
11
102.127131
21
82.120260
0
LINE
8
BLACK
10
102.127131
20
82.120260
11
101.804379
21
82.325876
0
LINE
8
BLACK
10
26.575592
20
62.538917
11
28.833014
21
75.342089
0
LINE
8
BLACK
10
29.412187
20
75.746901
11
42.214564
21
73.490008
0
LINE
8
BLACK
10
39.783576
20
59.702588
11
26.981198
21
61.959481
0
LINE
8
BLACK
10
42.620170
20
72.910571
11
40.362748
21
60.107400
0
LINE
8
BLACK
10
26.575555
20
62.538653
11
26.658383
21
62.165041
0
LINE
8
BLACK
10
26.658383
20
62.165041
11
26.981135
21
61.959425
0
LINE
8
BLACK
10
29.412208
20
75.746715
11
29.038597
21
75.663888
0
LINE
8
BLACK
10
29.038597
20
75.663888
11
28.832980
21
75.341139
0
LINE
8
BLACK
10
39.781083
20
59.703529
11
40.154707
21
59.786384
0
LINE
8
BLACK
10
40.154707
20
59.786384
11
40.360319
21
60.109159
0
LINE
8
BLACK
10
42.620273
20
72.910066
11
42.537446
21
73.283678
0
LINE
8
BLACK
10
42.537446
20
73.283678
11
42.214694
21
73.489293
0
LINE
8
BLACK
10
77.227362
20
13.516963
11
79.483726
21
26.320135
0
LINE
8
BLACK
10
83.294515
20
11.940049
11
77.632968
21
12.937526
0
LINE
8
BLACK
10
83.873687
20
12.344860
11
86.131109
21
25.148032
0
LINE
8
BLACK
10
85.725503
20
25.727469
11
80.062898
21
26.724947
0
LINE
8
BLACK
10
100.677089
20
9.381531
11
102.934511
21
22.184702
0
LINE
8
BLACK
10
106.745300
20
7.804616
11
101.082430
21
8.802094
0
LINE
8
BLACK
10
107.324472
20
8.209428
11
109.581894
21
21.012600
0
LINE
8
BLACK
10
109.176288
20
21.592036
11
103.513683
21
22.589514
0
LINE
8
BLACK
10
77.227457
20
13.517095
11
77.310286
21
13.143485
0
LINE
8
BLACK
10
77.310286
20
13.143485
11
77.633036
21
12.937870
0
LINE
8
BLACK
10
80.062924
20
26.725396
11
79.689311
21
26.642546
0
LINE
8
BLACK
10
79.689311
20
26.642546
11
79.483689
21
26.319791
0
LINE
8
BLACK
10
83.294480
20
11.939599
11
83.668092
21
12.022427
0
LINE
8
BLACK
10
83.668092
20
12.022427
11
83.873708
21
12.345178
0
LINE
8
BLACK
10
86.131133
20
25.147661
11
86.048304
21
25.521272
0
LINE
8
BLACK
10
86.048304
20
25.521272
11
85.725553
21
25.726887
0
LINE
8
BLACK
10
100.676969
20
9.382298
11
100.759799
21
9.008688
0
LINE
8
BLACK
10
100.759799
20
9.008688
11
101.082549
21
8.803073
0
LINE
8
BLACK
10
103.513630
20
22.590414
11
103.140009
21
22.507553
0
LINE
8
BLACK
10
103.140009
20
22.507553
11
102.934394
21
22.184782
0
LINE
8
BLACK
10
106.745186
20
7.804590
11
107.118798
21
7.887418
0
LINE
8
BLACK
10
107.118798
20
7.887418
11
107.324414
21
8.210169
0
LINE
8
BLACK
10
109.581838
20
21.012652
11
109.499019
21
21.386280
0
LINE
8
BLACK
10
109.499019
20
21.386280
11
109.176256
21
21.591904
0
LINE
8
BLACK
10
42.855120
20
45.161106
11
45.112542
21
57.961631
0
LINE
8
BLACK
10
45.691714
20
58.369089
11
58.494356
21
56.112196
0
LINE
8
BLACK
10
56.063103
20
42.324776
11
43.260725
21
44.581669
0
LINE
8
BLACK
10
58.899962
20
55.532759
11
56.642540
21
42.729588
0
LINE
8
BLACK
10
42.855128
20
45.160235
11
42.937956
21
44.786626
0
LINE
8
BLACK
10
42.937956
20
44.786626
11
43.260704
21
44.581010
0
LINE
8
BLACK
10
45.691778
20
58.368301
11
45.318166
21
58.285473
0
LINE
8
BLACK
10
45.318166
20
58.285473
11
45.112550
21
57.962721
0
LINE
8
BLACK
10
56.060653
20
42.325115
11
56.434277
21
42.407970
0
LINE
8
BLACK
10
56.434277
20
42.407970
11
56.639889
21
42.730744
0
LINE
8
BLACK
10
58.899843
20
55.531648
11
58.817015
21
55.905260
0
LINE
8
BLACK
10
58.817015
20
55.905260
11
58.494264
21
56.110876
0
LINE
8
BLACK
10
198.977346
20
54.614656
11
211.779988
21
56.871549
0
LINE
8
BLACK
10
200.829162
20
41.232048
11
198.571740
21
54.035220
0
LINE
8
BLACK
10
212.359160
20
56.466737
11
214.616582
21
43.663566
0
LINE
8
BLACK
10
214.210977
20
43.084129
11
201.408335
21
40.827236
0
LINE
8
BLACK
10
198.977383
20
54.614593
11
198.654632
21
54.408977
0
LINE
8
BLACK
10
198.654632
20
54.408977
11
198.571804
21
54.035365
0
LINE
8
BLACK
10
200.829228
20
41.232882
11
201.034844
21
40.910130
0
LINE
8
BLACK
10
201.034844
20
40.910130
11
201.408456
21
40.827302
0
LINE
8
BLACK
10
212.359094
20
56.466438
11
212.153479
21
56.789188
0
LINE
8
BLACK
10
212.153479
20
56.789188
11
211.779869
21
56.872015
0
LINE
8
BLACK
10
214.208032
20
43.085293
11
214.530787
21
43.290938
0
LINE
8
BLACK
10
214.530787
20
43.290938
11
214.613603
21
43.664571
0
LINE
8
BLACK
10
64.096637
20
55.921696
11
66.354059
21
68.724868
0
LINE
8
BLACK
10
66.933231
20
69.129680
11
79.735873
21
66.872787
0
LINE
8
BLACK
10
77.304620
20
53.085367
11
64.502242
21
55.342260
0
LINE
8
BLACK
10
80.141479
20
66.293350
11
77.884057
21
53.492825
0
LINE
8
BLACK
10
64.096687
20
55.922665
11
64.179514
21
55.549054
0
LINE
8
BLACK
10
64.179514
20
55.549054
11
64.502264
21
55.343437
0
LINE
8
BLACK
10
66.933337
20
69.130730
11
66.559725
21
69.047902
0
LINE
8
BLACK
10
66.559725
20
69.047902
11
66.354109
21
68.725151
0
LINE
8
BLACK
10
77.302212
20
53.087542
11
77.675836
21
53.170396
0
LINE
8
BLACK
10
77.675836
20
53.170396
11
77.881448
21
53.493171
0
LINE
8
BLACK
10
80.141402
20
66.294078
11
80.058574
21
66.667691
0
LINE
8
BLACK
10
80.058574
20
66.667691
11
79.735820
21
66.873305
0
LINE
8
BLACK
10
29.883674
20
81.300498
11
32.141096
21
94.101023
0
LINE
8
BLACK
10
32.720268
20
94.508481
11
45.522646
21
92.248942
0
LINE
8
BLACK
10
43.091657
20
78.461522
11
30.289015
21
80.721061
0
LINE
8
BLACK
10
45.928251
20
91.669506
11
43.670829
21
78.868980
0
LINE
8
BLACK
10
29.883552
20
81.299217
11
29.966380
21
80.925605
0
LINE
8
BLACK
10
29.966380
20
80.925605
11
30.289131
21
80.719989
0
LINE
8
BLACK
10
32.720202
20
94.507280
11
32.346590
21
94.424452
0
LINE
8
BLACK
10
32.346590
20
94.424452
11
32.140974
21
94.101701
0
LINE
8
BLACK
10
43.089077
20
78.464094
11
43.462701
21
78.546949
0
LINE
8
BLACK
10
43.462701
20
78.546949
11
43.668313
21
78.869724
0
LINE
8
BLACK
10
45.928267
20
91.670630
11
45.845438
21
92.044241
0
LINE
8
BLACK
10
45.845438
20
92.044241
11
45.522688
21
92.249855
0
LINE
8
BLACK
10
49.471018
20
82.681621
11
51.728440
21
95.484792
0
LINE
8
BLACK
10
52.307877
20
95.889604
11
65.110254
21
93.632711
0
LINE
8
BLACK
10
62.679266
20
79.845291
11
49.876623
21
82.102184
0
LINE
8
BLACK
10
65.515860
20
93.053275
11
63.258438
21
80.250103
0
LINE
8
BLACK
10
49.471113
20
82.681364
11
49.553941
21
82.307753
0
LINE
8
BLACK
10
49.553941
20
82.307753
11
49.876692
21
82.102137
0
LINE
8
BLACK
10
52.307765
20
95.889427
11
51.934154
21
95.806599
0
LINE
8
BLACK
10
51.934154
20
95.806599
11
51.728538
21
95.483848
0
LINE
8
BLACK
10
62.676641
20
79.846241
11
63.050265
21
79.929096
0
LINE
8
BLACK
10
63.050265
20
79.929096
11
63.255877
21
80.251871
0
LINE
8
BLACK
10
65.515828
20
93.052777
11
65.433000
21
93.426388
0
LINE
8
BLACK
10
65.433000
20
93.426388
11
65.110249
21
93.632002
0
LINE
8
BLACK
10
218.565219
20
53.230887
11
231.367597
21
55.487780
0
LINE
8
BLACK
10
220.417036
20
39.850925
11
218.159613
21
52.651451
0
LINE
8
BLACK
10
231.946769
20
55.082968
11
234.205514
21
42.279797
0
LINE
8
BLACK
10
233.798056
20
41.700360
11
220.996208
21
39.443467
0
LINE
8
BLACK
10
218.565105
20
53.231536
11
218.242355
21
53.025921
0
LINE
8
BLACK
10
218.242355
20
53.025921
11
218.159526
21
52.652310
0
LINE
8
BLACK
10
220.416951
20
39.849824
11
220.622568
21
39.527075
0
LINE
8
BLACK
10
220.622568
20
39.527075
11
220.996179
21
39.444248
0
LINE
8
BLACK
10
231.946817
20
55.083381
11
231.741202
21
55.406132
0
LINE
8
BLACK
10
231.741202
20
55.406132
11
231.367591
21
55.488960
0
LINE
8
BLACK
10
233.795754
20
41.702239
11
234.118509
21
41.907884
0
LINE
8
BLACK
10
234.118509
20
41.907884
11
234.201326
21
42.281517
0
LINE
8
BLACK
10
154.840139
20
85.520597
11
167.642781
21
87.777490
0
LINE
8
BLACK
10
156.691955
20
72.137989
11
154.434533
21
84.941160
0
LINE
8
BLACK
10
168.221953
20
87.372678
11
170.479376
21
74.569506
0
LINE
8
BLACK
10
170.073770
20
73.990070
11
157.271392
21
71.733177
0
LINE
8
BLACK
10
154.840229
20
85.519948
11
154.517479
21
85.314332
0
LINE
8
BLACK
10
154.517479
20
85.314332
11
154.434652
21
84.940721
0
LINE
8
BLACK
10
156.692075
20
72.138237
11
156.897690
21
71.815486
0
LINE
8
BLACK
10
156.897690
20
71.815486
11
157.271302
21
71.732658
0
LINE
8
BLACK
10
168.221940
20
87.371794
11
168.016325
21
87.694543
0
LINE
8
BLACK
10
168.016325
20
87.694543
11
167.642715
21
87.777371
0
LINE
8
BLACK
10
170.070881
20
73.990649
11
170.393634
21
74.196295
0
LINE
8
BLACK
10
170.393634
20
74.196295
11
170.476449
21
74.569927
0
LINE
8
BLACK
10
23.267511
20
43.777337
11
25.524933
21
56.580508
0
LINE
8
BLACK
10
26.104106
20
56.985320
11
38.906748
21
54.728427
0
LINE
8
BLACK
10
36.475759
20
40.941007
11
23.673117
21
43.197900
0
LINE
8
BLACK
10
39.312353
20
54.148990
11
37.054931
21
41.345819
0
LINE
8
BLACK
10
23.267563
20
43.778088
11
23.350391
21
43.404476
0
LINE
8
BLACK
10
23.350391
20
43.404476
11
23.673142
21
43.198860
0
LINE
8
BLACK
10
26.104215
20
56.986151
11
25.730604
21
56.903324
0
LINE
8
BLACK
10
25.730604
20
56.903324
11
25.524987
21
56.580574
0
LINE
8
BLACK
10
36.473092
20
40.942965
11
36.846716
21
41.025820
0
LINE
8
BLACK
10
36.846716
20
41.025820
11
37.052328
21
41.348594
0
LINE
8
BLACK
10
39.312279
20
54.149501
11
39.229452
21
54.523113
0
LINE
8
BLACK
10
39.229452
20
54.523113
11
38.906700
21
54.728729
0
LINE
8
BLACK
10
183.109774
20
34.900577
11
195.912416
21
37.157470
0
LINE
8
BLACK
10
184.961591
20
21.517953
11
182.704169
21
34.321140
0
LINE
8
BLACK
10
196.491589
20
36.750012
11
198.749011
21
23.949471
0
LINE
8
BLACK
10
198.343405
20
23.370034
11
185.541027
21
21.113141
0
LINE
8
BLACK
10
183.109877
20
34.899257
11
182.787126
21
34.693641
0
LINE
8
BLACK
10
182.787126
20
34.693641
11
182.704298
21
34.320029
0
LINE
8
BLACK
10
184.961720
20
21.517530
11
185.167336
21
21.194778
0
LINE
8
BLACK
10
185.167336
20
21.194778
11
185.540948
21
21.111950
0
LINE
8
BLACK
10
196.491589
20
36.751100
11
196.285973
21
37.073852
0
LINE
8
BLACK
10
196.285973
20
37.073852
11
195.912361
21
37.156679
0
LINE
8
BLACK
10
198.340526
20
23.369955
11
198.663281
21
23.575600
0
LINE
8
BLACK
10
198.663281
20
23.575600
11
198.746098
21
23.949233
0
LINE
8
BLACK
10
137.036878
20
21.930703
11
149.839256
21
24.187596
0
LINE
8
BLACK
10
138.888695
20
8.550740
11
136.631272
21
21.351266
0
LINE
8
BLACK
10
150.418693
20
23.782784
11
152.676115
21
10.979612
0
LINE
8
BLACK
10
152.270509
20
10.400175
11
139.467867
21
8.143282
0
LINE
8
BLACK
10
137.039770
20
21.930623
11
136.717017
21
21.724978
0
LINE
8
BLACK
10
136.717017
20
21.724978
11
136.634201
21
21.351345
0
LINE
8
BLACK
10
138.888710
20
8.549470
11
139.094325
21
8.226719
0
LINE
8
BLACK
10
139.094325
20
8.226719
11
139.467936
21
8.143891
0
LINE
8
BLACK
10
150.418576
20
23.783022
11
150.212960
21
24.105773
0
LINE
8
BLACK
10
150.212960
20
24.105773
11
149.839348
21
24.188601
0
LINE
8
BLACK
10
152.270422
20
10.401313
11
152.593172
21
10.606928
0
LINE
8
BLACK
10
152.593172
20
10.606928
11
152.676001
21
10.980538
0
LINE
8
BLACK
10
39.133760
20
24.055304
11
41.391182
21
36.855845
0
LINE
8
BLACK
10
41.970354
20
37.263303
11
54.772732
21
35.006410
0
LINE
8
BLACK
10
52.341743
20
21.218974
11
39.539101
21
23.475867
0
LINE
8
BLACK
10
55.178338
20
34.426974
11
52.920915
21
21.623786
0
LINE
8
BLACK
10
39.133633
20
24.054590
11
39.216462
21
23.680980
0
LINE
8
BLACK
10
39.216462
20
23.680980
11
39.539212
21
23.475365
0
LINE
8
BLACK
10
41.970285
20
37.262666
11
41.596674
21
37.179838
0
LINE
8
BLACK
10
41.596674
20
37.179838
11
41.391058
21
36.857086
0
LINE
8
BLACK
10
52.339161
20
21.219477
11
52.712786
21
21.302333
0
LINE
8
BLACK
10
52.712786
20
21.302333
11
52.918397
21
21.625109
0
LINE
8
BLACK
10
55.178348
20
34.426016
11
55.095521
21
34.799628
0
LINE
8
BLACK
10
55.095521
20
34.799628
11
54.772769
21
35.005244
0
LINE
8
BLACK
10
3.679903
20
42.396214
11
5.937325
21
55.199385
0
LINE
8
BLACK
10
6.516762
20
55.604197
11
19.319139
21
53.347304
0
LINE
8
BLACK
10
16.888151
20
39.559884
11
4.085508
21
41.816777
0
LINE
8
BLACK
10
19.724745
20
52.767867
11
17.467323
21
39.964696
0
LINE
8
BLACK
10
3.680000
20
42.395941
11
3.762828
21
42.022329
0
LINE
8
BLACK
10
3.762828
20
42.022329
11
4.085579
21
41.816713
0
LINE
8
BLACK
10
6.516651
20
55.604004
11
6.143040
21
55.521177
0
LINE
8
BLACK
10
6.143040
20
55.521177
11
5.937424
21
55.198427
0
LINE
8
BLACK
10
16.885527
20
39.560818
11
17.259151
21
39.643672
0
LINE
8
BLACK
10
17.259151
20
39.643672
11
17.464763
21
39.966447
0
LINE
8
BLACK
10
19.724716
20
52.767354
11
19.641888
21
53.140966
0
LINE
8
BLACK
10
19.641888
20
53.140966
11
19.319136
21
53.346582
0
LINE
8
BLACK
10
211.948792
20
90.754048
11
224.751434
21
93.010941
0
LINE
8
BLACK
10
213.800873
20
77.371440
11
211.543451
21
90.174612
0
LINE
8
BLACK
10
225.330606
20
92.606129
11
227.588029
21
79.802958
0
LINE
8
BLACK
10
227.182423
20
79.223521
11
214.380045
21
76.966628
0
LINE
8
BLACK
10
211.948922
20
90.753786
11
211.626171
21
90.548172
0
LINE
8
BLACK
10
211.626171
20
90.548172
11
211.543342
21
90.174561
0
LINE
8
BLACK
10
213.800767
20
77.372075
11
214.006383
21
77.049327
0
LINE
8
BLACK
10
214.006383
20
77.049327
11
214.379992
21
76.966499
0
LINE
8
BLACK
10
225.330633
20
92.605632
11
225.125018
21
92.928384
0
LINE
8
BLACK
10
225.125018
20
92.928384
11
224.751405
21
93.011211
0
LINE
8
BLACK
10
227.179571
20
79.224487
11
227.502326
21
79.430133
0
LINE
8
BLACK
10
227.502326
20
79.430133
11
227.585142
21
79.803768
0
LINE
8
BLACK
10
85.211683
20
11.090737
11
87.469105
21
23.893908
0
LINE
8
BLACK
10
88.048542
20
24.298720
11
100.850920
21
22.041827
0
LINE
8
BLACK
10
98.419931
20
8.254407
11
85.617289
21
10.511300
0
LINE
8
BLACK
10
101.256525
20
21.462391
11
98.999103
21
8.659219
0
LINE
8
BLACK
10
85.211794
20
11.091451
11
85.294623
21
10.717841
0
LINE
8
BLACK
10
85.294623
20
10.717841
11
85.617373
21
10.512226
0
LINE
8
BLACK
10
88.050984
20
24.297980
11
87.677366
21
24.215135
0
LINE
8
BLACK
10
87.677366
20
24.215135
11
87.471746
21
23.892374
0
LINE
8
BLACK
10
98.419860
20
8.254804
11
98.793471
21
8.337632
0
LINE
8
BLACK
10
98.793471
20
8.337632
11
98.999087
21
8.660383
0
LINE
8
BLACK
10
101.256509
20
21.462867
11
101.173680
21
21.836477
0
LINE
8
BLACK
10
101.173680
20
21.836477
11
100.850930
21
22.042092
0
LINE
8
BLACK
10
67.404718
20
74.683277
11
69.662140
21
87.486448
0
LINE
8
BLACK
10
70.241312
20
87.891260
11
83.043690
21
85.634367
0
LINE
8
BLACK
10
80.612701
20
71.846947
11
67.810324
21
74.103840
0
LINE
8
BLACK
10
83.449296
20
85.054931
11
81.191873
21
72.251759
0
LINE
8
BLACK
10
67.404678
20
74.683229
11
67.487506
21
74.309618
0
LINE
8
BLACK
10
67.487506
20
74.309618
11
67.810258
21
74.104002
0
LINE
8
BLACK
10
70.241331
20
87.891292
11
69.867720
21
87.808465
0
LINE
8
BLACK
10
69.867720
20
87.808465
11
69.662103
21
87.485715
0
LINE
8
BLACK
10
80.610206
20
71.848106
11
80.983830
21
71.930961
0
LINE
8
BLACK
10
80.983830
20
71.930961
11
81.189442
21
72.253736
0
LINE
8
BLACK
10
83.449394
20
85.054642
11
83.366566
21
85.428254
0
LINE
8
BLACK
10
83.366566
20
85.428254
11
83.043814
21
85.633870
0
LINE
8
BLACK
10
57.067196
20
16.056960
11
59.324618
21
28.860131
0
LINE
8
BLACK
10
59.903790
20
29.264943
11
72.706432
21
27.008050
0
LINE
8
BLACK
10
70.275179
20
13.220630
11
57.472801
21
15.477523
0
LINE
8
BLACK
10
73.112038
20
26.428614
11
70.854616
21
13.625442
0
LINE
8
BLACK
10
57.067198
20
16.056457
11
57.150027
21
15.682847
0
LINE
8
BLACK
10
57.150027
20
15.682847
11
57.472777
21
15.477232
0
LINE
8
BLACK
10
59.903851
20
29.264520
11
59.530239
21
29.181692
0
LINE
8
BLACK
10
59.530239
20
29.181692
11
59.324623
21
28.858941
0
LINE
8
BLACK
10
70.272726
20
13.221345
11
70.646343
21
13.304191
0
LINE
8
BLACK
10
70.646343
20
13.304191
11
70.851962
21
13.626950
0
LINE
8
BLACK
10
73.111913
20
26.427873
11
73.029085
21
26.801483
0
LINE
8
BLACK
10
73.029085
20
26.801483
11
72.706334
21
27.007098
0
LINE
8
BLACK
10
46.163201
20
63.920041
11
48.420623
21
76.723212
0
LINE
8
BLACK
10
48.999795
20
77.128024
11
61.802173
21
74.871131
0
LINE
8
BLACK
10
59.371184
20
61.083711
11
46.568807
21
63.340604
0
LINE
8
BLACK
10
62.207779
20
74.291694
11
59.950356
21
61.488523
0
LINE
8
BLACK
10
46.163122
20
63.920800
11
46.245950
21
63.547191
0
LINE
8
BLACK
10
46.245950
20
63.547191
11
46.568698
21
63.341575
0
LINE
8
BLACK
10
48.999771
20
77.128865
11
48.626160
21
77.046037
0
LINE
8
BLACK
10
48.626160
20
77.046037
11
48.420544
21
76.723286
0
LINE
8
BLACK
10
59.368647
20
61.085679
11
59.742271
21
61.168534
0
LINE
8
BLACK
10
59.742271
20
61.168534
11
59.947883
21
61.491309
0
LINE
8
BLACK
10
62.207837
20
74.292213
11
62.125008
21
74.665826
0
LINE
8
BLACK
10
62.125008
20
74.665826
11
61.802255
21
74.871440
0
LINE
8
BLACK
10
146.417139
20
23.584346
11
159.219517
21
25.843885
0
LINE
8
BLACK
10
148.268956
20
10.204384
11
146.011533
21
23.004910
0
LINE
8
BLACK
10
159.798954
20
25.436427
11
162.056376
21
12.633256
0
LINE
8
BLACK
10
161.650770
20
12.056465
11
148.848128
21
9.796926
0
LINE
8
BLACK
10
146.417147
20
23.585193
11
146.094397
21
23.379578
0
LINE
8
BLACK
10
146.094397
20
23.379578
11
146.011568
21
23.005968
0
LINE
8
BLACK
10
148.268993
20
10.203458
11
148.474608
21
9.880708
0
LINE
8
BLACK
10
148.474608
20
9.880708
11
148.848218
21
9.797879
0
LINE
8
BLACK
10
159.798858
20
25.437036
11
159.593243
21
25.759788
0
LINE
8
BLACK
10
159.593243
20
25.759788
11
159.219631
21
25.842615
0
LINE
8
BLACK
10
161.647796
20
12.055883
11
161.970551
21
12.261528
0
LINE
8
BLACK
10
161.970551
20
12.261528
11
162.053367
21
12.635161
0
LINE
8
BLACK
10
139.387698
20
63.451729
11
152.190076
21
65.708622
0
LINE
8
BLACK
10
141.239514
20
50.069121
11
138.982092
21
62.872292
0
LINE
8
BLACK
10
152.769248
20
65.303810
11
155.026670
21
52.500638
0
LINE
8
BLACK
10
154.621329
20
51.921202
11
141.818687
21
49.664309
0
LINE
8
BLACK
10
139.387658
20
63.451390
11
139.064909
21
63.245773
0
LINE
8
BLACK
10
139.064909
20
63.245773
11
138.982082
21
62.872162
0
LINE
8
BLACK
10
141.239504
20
50.069679
11
141.445120
21
49.746927
0
LINE
8
BLACK
10
141.445120
20
49.746927
11
141.818732
21
49.664100
0
LINE
8
BLACK
10
152.769370
20
65.303236
11
152.563755
21
65.625987
0
LINE
8
BLACK
10
152.563755
20
65.625987
11
152.190144
21
65.708815
0
LINE
8
BLACK
10
154.618310
20
51.922091
11
154.941063
21
52.127736
0
LINE
8
BLACK
10
154.941063
20
52.127736
11
155.023879
21
52.501369
0
LINE
8
BLACK
10
10.294742
20
79.908791
11
12.552164
21
92.711963
0
LINE
8
BLACK
10
13.131337
20
93.116775
11
25.933714
21
90.859882
0
LINE
8
BLACK
10
23.502726
20
77.072461
11
10.700348
21
79.329354
0
LINE
8
BLACK
10
26.339320
20
90.280445
11
24.081898
21
77.477273
0
LINE
8
BLACK
10
10.294656
20
79.909516
11
10.377484
21
79.535904
0
LINE
8
BLACK
10
10.377484
20
79.535904
11
10.700235
21
79.330288
0
LINE
8
BLACK
10
13.131307
20
93.117579
11
12.757695
21
93.034751
0
LINE
8
BLACK
10
12.757695
20
93.034751
11
12.552079
21
92.712000
0
LINE
8
BLACK
10
23.500183
20
77.074393
11
23.873807
21
77.157248
0
LINE
8
BLACK
10
23.873807
20
77.157248
11
24.079419
21
77.480022
0
LINE
8
BLACK
10
26.339371
20
90.280929
11
26.256544
21
90.654541
0
LINE
8
BLACK
10
26.256544
20
90.654541
11
25.933792
21
90.860157
0
LINE
8
BLACK
10
176.081656
20
74.757360
11
188.884298
21
77.014253
0
LINE
8
BLACK
10
177.933737
20
61.374752
11
175.676315
21
74.177923
0
LINE
8
BLACK
10
189.463470
20
76.609441
11
191.720893
21
63.806270
0
LINE
8
BLACK
10
191.315287
20
63.226833
11
178.512909
21
60.969940
0
LINE
8
BLACK
10
176.081788
20
74.757519
11
175.759039
21
74.551902
0
LINE
8
BLACK
10
175.759039
20
74.551902
11
175.676212
21
74.178291
0
LINE
8
BLACK
10
177.933634
20
61.375808
11
178.139250
21
61.053056
0
LINE
8
BLACK
10
178.139250
20
61.053056
11
178.512862
21
60.970229
0
LINE
8
BLACK
10
189.463500
20
76.609365
11
189.257884
21
76.932114
0
LINE
8
BLACK
10
189.257884
20
76.932114
11
188.884274
21
77.014941
0
LINE
8
BLACK
10
191.312440
20
63.228220
11
191.635193
21
63.433865
0
LINE
8
BLACK
10
191.635193
20
63.433865
11
191.718009
21
63.807498
0
LINE
8
BLACK
10
161.456302
20
48.000081
11
174.258679
21
50.256974
0
LINE
8
BLACK
10
163.308118
20
34.617473
11
161.050696
21
47.420645
0
LINE
8
BLACK
10
174.837851
20
49.849517
11
177.095273
21
37.048991
0
LINE
8
BLACK
10
176.689668
20
36.469554
11
163.887290
21
34.212661
0
LINE
8
BLACK
10
161.456217
20
47.998819
11
161.133468
21
47.793204
0
LINE
8
BLACK
10
161.133468
20
47.793204
11
161.050640
21
47.419594
0
LINE
8
BLACK
10
163.308062
20
34.617108
11
163.513679
21
34.294358
0
LINE
8
BLACK
10
163.513679
20
34.294358
11
163.887290
21
34.211532
0
LINE
8
BLACK
10
174.837928
20
49.850665
11
174.632314
21
50.173416
0
LINE
8
BLACK
10
174.632314
20
50.173416
11
174.258703
21
50.256244
0
LINE
8
BLACK
10
176.686868
20
36.469520
11
177.009622
21
36.675167
0
LINE
8
BLACK
10
177.009622
20
36.675167
11
177.092437
21
37.048801
 0 
ENDSEC
 0 
EOF