<?xml version="1.0" standalone="no"?>
 <!DOCTYPE svg PUBLIC "-//W3C//DTD SVG 1.1//EN" 
 "http://www.w3.org/Graphics/SVG/1.1/DTD/svg11.dtd"> 
<svg
  xmlns:svg="http://www.w3.org/2000/svg"
  xmlns="http://www.w3.org/2000/svg"
  xmlns:xlink="http://www.w3.org/1999/xlink"
  version="1.1"
  width="297.0022mm" height="210.0072mm" viewBox="0.0000 0.0000 297.0022 210.0072">
<title>SVG Image created as Le Chisoffre-User_Drawings.svg date 2025/06/25 22:48:34 </title>
  <desc>Image generated by PCBNEW </desc>
<g style="fill:#000000; fill-opacity:1.0000;stroke:#000000; stroke-opacity:1.0000;
stroke-linecap:round; stroke-linejoin:round;"
 transform="translate(0 0) scale(1 1)">
</g>
<g style="fill:none; 
stroke:#000000; stroke-width:0.2000; stroke-opacity:1; 
stroke-linecap:round; stroke-linejoin:round;">
<path d="M150.8125 138.1125
L150.8125 19.0500
" />
<path d="M254.2902 67.5903
L47.3730 68.5439
" />
<path style="fill:none; 
stroke:#000000; stroke-width:0.1000; stroke-opacity:1; 
stroke-linecap:round; stroke-linejoin:round;fill:none"
d="M 208.2157,80.5505
189.4551,83.8585
186.1471,65.0979
204.9077,61.7899
Z" /> 
<path style="fill:none; 
stroke:#000000; stroke-width:0.1000; stroke-opacity:1; 
stroke-linecap:round; stroke-linejoin:round;fill:none"
d="M 229.1265,89.4368
210.3659,92.7448
207.0579,73.9843
225.8185,70.6763
Z" /> 
<path style="fill:none; 
stroke:#000000; stroke-width:0.1000; stroke-opacity:1; 
stroke-linecap:round; stroke-linejoin:round;fill:none"
d="M 130.9687,87.4201
127.6607,106.1806
108.9001,102.8727
112.2081,84.1121
Z" /> 
<path style="fill:none; 
stroke:#000000; stroke-width:0.1000; stroke-opacity:1; 
stroke-linecap:round; stroke-linejoin:round;fill:none"
d="M 265.3245,75.3166
246.5639,78.6246
243.2559,59.8640
262.0165,56.5560
Z" /> 
<path style="fill:none; 
stroke:#000000; stroke-width:0.1000; stroke-opacity:1; 
stroke-linecap:round; stroke-linejoin:round;fill:none"
d="M 215.2783,120.6043
196.5177,123.9123
193.2097,105.1517
211.9703,101.8437
Z" /> 
<path style="fill:none; 
stroke:#000000; stroke-width:0.1000; stroke-opacity:1; 
stroke-linecap:round; stroke-linejoin:round;fill:none"
d="M 242.4289,55.1739
223.6683,58.4819
220.3603,39.7213
239.1209,36.4133
Z" /> 
<path style="fill:none; 
stroke:#000000; stroke-width:0.1000; stroke-opacity:1; 
stroke-linecap:round; stroke-linejoin:round;fill:none"
d="M 222.5105,51.9157
203.7499,55.2237
200.4419,36.4631
219.2025,33.1551
Z" /> 
<path style="fill:none; 
stroke:#000000; stroke-width:0.1000; stroke-opacity:1; 
stroke-linecap:round; stroke-linejoin:round;fill:none"
d="M 112.2081,84.1121
108.9001,102.8727
90.1395,99.5647
93.4475,80.8041
Z" /> 
<path style="fill:none; 
stroke:#000000; stroke-width:0.1000; stroke-opacity:1; 
stroke-linecap:round; stroke-linejoin:round;fill:none"
d="M 177.3345,124.8570
158.5739,128.1650
155.2659,109.4044
174.0265,106.0964
Z" /> 
<path style="fill:none; 
stroke:#000000; stroke-width:0.1000; stroke-opacity:1; 
stroke-linecap:round; stroke-linejoin:round;fill:none"
d="M 58.4073,60.1176
55.0993,78.8782
36.3388,75.5702
39.6468,56.8096
Z" /> 
<path style="fill:none; 
stroke:#000000; stroke-width:0.1000; stroke-opacity:1; 
stroke-linecap:round; stroke-linejoin:round;fill:none"
d="M 134.2767,68.6595
130.9687,87.4201
112.2081,84.1121
115.5161,65.3515
Z" /> 
<path style="fill:none; 
stroke:#000000; stroke-width:0.1000; stroke-opacity:1; 
stroke-linecap:round; stroke-linejoin:round;fill:none"
d="M 192.7962,102.8067
174.0356,106.1147
170.7276,87.3541
189.4882,84.0461
Z" /> 
<path style="fill:none; 
stroke:#000000; stroke-width:0.1000; stroke-opacity:1; 
stroke-linecap:round; stroke-linejoin:round;fill:none"
d="M 245.7369,73.9345
226.9763,77.2425
223.6683,58.4819
242.4289,55.1739
Z" /> 
<path style="fill:none; 
stroke:#000000; stroke-width:0.1000; stroke-opacity:1; 
stroke-linecap:round; stroke-linejoin:round;fill:none"
d="M 146.4028,109.5248
143.0948,128.2854
124.3342,124.9774
127.6422,106.2168
Z" /> 
<path style="fill:none; 
stroke:#000000; stroke-width:0.1000; stroke-opacity:1; 
stroke-linecap:round; stroke-linejoin:round;fill:none"
d="M 127.2287,108.5618
123.9207,127.3224
105.1601,124.0144
108.4681,105.2538
Z" /> 
<path style="fill:none; 
stroke:#000000; stroke-width:0.1000; stroke-opacity:1; 
stroke-linecap:round; stroke-linejoin:round;fill:none"
d="M 186.1802,65.2855
167.4196,68.5935
164.1116,49.8329
182.8722,46.5249
Z" /> 
<path style="fill:none; 
stroke:#000000; stroke-width:0.1000; stroke-opacity:1; 
stroke-linecap:round; stroke-linejoin:round;fill:none"
d="M 137.5847,49.8989
134.2767,68.6595
115.5161,65.3515
118.8241,46.5909
Z" /> 
<path style="fill:none; 
stroke:#000000; stroke-width:0.1000; stroke-opacity:1; 
stroke-linecap:round; stroke-linejoin:round;fill:none"
d="M 77.9949,58.7355
74.6869,77.4961
55.9263,74.1881
59.2343,55.4275
Z" /> 
<path style="fill:none; 
stroke:#000000; stroke-width:0.1000; stroke-opacity:1; 
stroke-linecap:round; stroke-linejoin:round;fill:none"
d="M 94.6053,74.2379
91.2973,92.9984
72.5367,89.6904
75.8447,70.9299
Z" /> 
<path style="fill:none; 
stroke:#000000; stroke-width:0.1000; stroke-opacity:1; 
stroke-linecap:round; stroke-linejoin:round;fill:none"
d="M 249.0780,92.8827
230.3174,96.1907
227.0094,77.4301
245.7700,74.1221
Z" /> 
<path style="fill:none; 
stroke:#000000; stroke-width:0.1000; stroke-opacity:1; 
stroke-linecap:round; stroke-linejoin:round;fill:none"
d="M 115.5161,65.3515
112.2081,84.1121
93.4475,80.8041
96.7555,62.0435
Z" /> 
<path style="fill:none; 
stroke:#000000; stroke-width:0.1000; stroke-opacity:1; 
stroke-linecap:round; stroke-linejoin:round;fill:none"
d="M 81.3029,39.9749
77.9949,58.7355
59.2343,55.4275
62.5423,36.6669
Z" /> 
<path style="fill:none; 
stroke:#000000; stroke-width:0.1000; stroke-opacity:1; 
stroke-linecap:round; stroke-linejoin:round;fill:none"
d="M 101.2213,36.7167
97.9133,55.4773
79.1527,52.1693
82.4607,33.4087
Z" /> 
<path style="fill:none; 
stroke:#000000; stroke-width:0.1000; stroke-opacity:1; 
stroke-linecap:round; stroke-linejoin:round;fill:none"
d="M 268.6656,94.2648
249.9050,97.5728
246.5970,78.8122
265.3576,75.5042
Z" /> 
<path style="fill:none; 
stroke:#000000; stroke-width:0.1000; stroke-opacity:1; 
stroke-linecap:round; stroke-linejoin:round;fill:none"
d="M 204.9077,61.7899
186.1471,65.0979
182.8391,46.3373
201.5997,43.0293
Z" /> 
<path style="fill:none; 
stroke:#000000; stroke-width:0.1000; stroke-opacity:1; 
stroke-linecap:round; stroke-linejoin:round;fill:none"
d="M 74.6869,77.4961
71.3789,96.2567
52.6183,92.9487
55.9263,74.1881
Z" /> 
<path style="fill:none; 
stroke:#000000; stroke-width:0.1000; stroke-opacity:1; 
stroke-linecap:round; stroke-linejoin:round;fill:none"
d="M 232.8149,110.3549
214.0543,113.6629
210.7463,94.9023
229.5069,91.5943
Z" /> 
<path style="fill:none; 
stroke:#000000; stroke-width:0.1000; stroke-opacity:1; 
stroke-linecap:round; stroke-linejoin:round;fill:none"
d="M 187.1334,125.5784
168.3728,128.8864
165.0648,110.1258
183.8254,106.8178
Z" /> 
<path style="fill:none; 
stroke:#000000; stroke-width:0.1000; stroke-opacity:1; 
stroke-linecap:round; stroke-linejoin:round;fill:none"
d="M 90.8838,95.3435
87.5758,114.1041
68.8152,110.7961
72.1232,92.0355
Z" /> 
<path style="fill:none; 
stroke:#000000; stroke-width:0.1000; stroke-opacity:1; 
stroke-linecap:round; stroke-linejoin:round;fill:none"
d="M 55.0993,78.8782
51.7913,97.6388
33.0308,94.3308
36.3388,75.5702
Z" /> 
<path style="fill:none; 
stroke:#000000; stroke-width:0.1000; stroke-opacity:1; 
stroke-linecap:round; stroke-linejoin:round;fill:none"
d="M 262.0165,56.5560
243.2559,59.8640
239.9479,41.1034
258.7085,37.7954
Z" /> 
<path style="fill:none; 
stroke:#000000; stroke-width:0.1000; stroke-opacity:1; 
stroke-linecap:round; stroke-linejoin:round;fill:none"
d="M 136.6173,110.1941
133.3093,128.9546
114.5487,125.6467
117.8567,106.8861
Z" /> 
<path style="fill:none; 
stroke:#000000; stroke-width:0.1000; stroke-opacity:1; 
stroke-linecap:round; stroke-linejoin:round;fill:none"
d="M 118.8241,46.5909
115.5161,65.3515
96.7555,62.0435
100.0635,43.2829
Z" /> 
<path style="fill:none; 
stroke:#000000; stroke-width:0.1000; stroke-opacity:1; 
stroke-linecap:round; stroke-linejoin:round;fill:none"
d="M 108.4866,105.2177
105.1786,123.9783
86.4180,120.6703
89.7260,101.9097
Z" /> 
<path style="fill:none; 
stroke:#000000; stroke-width:0.1000; stroke-opacity:1; 
stroke-linecap:round; stroke-linejoin:round;fill:none"
d="M 97.9133,55.4773
94.6053,74.2379
75.8447,70.9299
79.1527,52.1693
Z" /> 
<path style="fill:none; 
stroke:#000000; stroke-width:0.1000; stroke-opacity:1; 
stroke-linecap:round; stroke-linejoin:round;fill:none"
d="M 196.5086,123.8940
177.7480,127.2020
174.4400,108.4414
193.2006,105.1334
Z" /> 
<path style="fill:none; 
stroke:#000000; stroke-width:0.1000; stroke-opacity:1; 
stroke-linecap:round; stroke-linejoin:round;fill:none"
d="M 189.4882,84.0461
170.7276,87.3541
167.4196,68.5935
186.1802,65.2855
Z" /> 
<path style="fill:none; 
stroke:#000000; stroke-width:0.1000; stroke-opacity:1; 
stroke-linecap:round; stroke-linejoin:round;fill:none"
d="M 61.7153,41.3570
58.4073,60.1176
39.6468,56.8096
42.9548,38.0490
Z" /> 
<path style="fill:none; 
stroke:#000000; stroke-width:0.1000; stroke-opacity:1; 
stroke-linecap:round; stroke-linejoin:round;fill:none"
d="M 225.8185,70.6763
207.0579,73.9843
203.7499,55.2237
222.5105,51.9157
Z" /> 
<path style="fill:none; 
stroke:#000000; stroke-width:0.1000; stroke-opacity:1; 
stroke-linecap:round; stroke-linejoin:round;fill:none"
d="M 211.5568,99.4987
192.7962,102.8067
189.4882,84.0461
208.2488,80.7381
Z" /> 
</g>
<g style="fill:none; 
stroke:#000000; stroke-width:0.2500; stroke-opacity:1; 
stroke-linecap:round; stroke-linejoin:round;">
<circle cx="159.0125" cy="47.8125" r="0.1250" /> 
</g>
<g style="fill:none; 
stroke:#000000; stroke-width:0.1000; stroke-opacity:1; 
stroke-linecap:round; stroke-linejoin:round;">
<path d="M146.5502 97.2044
L146.5502 81.4544
" />
<path d="M147.0502 80.9544
L154.5502 80.9544
" />
<path d="M147.0502 97.7044
L154.5502 97.7044
" />
<path d="M155.0502 81.4544
L155.0502 97.2044
" />
<path d="M147.0502 80.9544 A0.5000 0.5000 0.0 0 0 146.5502 81.4544" />
<path d="M146.5502 97.2044 A0.5000 0.5000 0.0 0 0 147.0502 97.7044" />
<path d="M155.0502 81.4544 A0.5000 0.5000 0.0 0 0 154.5502 80.9544" />
<path d="M154.5502 97.7044 A0.5000 0.5000 0.0 0 0 155.0502 97.2044" />
</g>
<g style="fill:none; 
stroke:#000000; stroke-width:0.0500; stroke-opacity:1; 
stroke-linecap:round; stroke-linejoin:round;">
<path d="M256.4997 35.4925
L220.1256 31.8551
" />
<path d="M83.2905 32.5394 A19.9998 19.9998 0.0 0 0 81.8119 32.6028" />
<path d="M259.1560 37.9585 A3.0000 3.0000 0.0 0 0 256.4997 35.4925" />
</g>
<g style="fill:none; 
stroke:#000000; stroke-width:0.1000; stroke-opacity:1; 
stroke-linecap:round; stroke-linejoin:round;">
<path d="M147.0625 80.3712 A0.4999 0.4999 0.0 0 0 146.5625 80.8712" />
</g>
<g style="fill:none; 
stroke:#000000; stroke-width:0.0500; stroke-opacity:1; 
stroke-linecap:round; stroke-linejoin:round;">
<path d="M220.1256 31.8551 A19.9995 19.9995 0.0 0 0 218.0192 31.7561" />
</g>
<g style="fill:none; 
stroke:#000000; stroke-width:0.1000; stroke-opacity:1; 
stroke-linecap:round; stroke-linejoin:round;">
<path d="M155.0625 80.8712
L155.0625 100.0625
" />
</g>
<g style="fill:none; 
stroke:#000000; stroke-width:0.0500; stroke-opacity:1; 
stroke-linecap:round; stroke-linejoin:round;">
<path d="M268.7061 92.3207
L259.1560 37.9585
" />
<path d="M34.4491 96.2738
L82.8836 122.2983
" />
<path d="M152.4165 134.9344
L152.3512 134.9446
" />
<path d="M88.9023 124.3810
L149.2250 134.9375
" />
<path d="M152.4165 134.9344
L152.4000 134.9375
" />
</g>
<g style="fill:none; 
stroke:#000000; stroke-width:0.1000; stroke-opacity:1; 
stroke-linecap:round; stroke-linejoin:round;">
<path d="M155.0625 80.8712 A0.5000 0.5000 0.0 0 0 154.5625 80.3712" />
</g>
<g style="fill:none; 
stroke:#000000; stroke-width:0.0500; stroke-opacity:1; 
stroke-linecap:round; stroke-linejoin:round;">
<path d="M32.9132 93.1188 A3.0000 3.0000 0.0 0 0 34.4491 96.2738" />
<path d="M32.9132 93.1188
L42.4651 38.0113
" />
<path d="M45.1818 35.5332
L81.8119 32.6028
" />
</g>
<g style="fill:none; 
stroke:#000000; stroke-width:0.1000; stroke-opacity:1; 
stroke-linecap:round; stroke-linejoin:round;">
<path d="M154.5625 80.3712
L147.0625 80.3712
" />
<path d="M146.5625 100.0625 A0.5000 0.5000 0.0 0 0 147.0625 100.5625" />
</g>
<g style="fill:none; 
stroke:#000000; stroke-width:0.0500; stroke-opacity:1; 
stroke-linecap:round; stroke-linejoin:round;">
<path d="M267.1713 95.4825
L217.2661 122.2972
" />
<path d="M214.3758 123.3170 A10.0000 10.0000 0.0 0 0 217.2661 122.2972" />
<path d="M149.2699 134.9445
L149.2250 134.9375
" />
<path d="M45.1818 35.5332 A3.0000 3.0000 0.0 0 0 42.4651 38.0113" />
<path d="M83.2905 32.5394
L218.0192 31.7561
" />
<path d="M214.3758 123.3170
L152.4000 134.9375
" />
<path d="M82.8836 122.2983 A20.0001 20.0001 0.0 0 0 88.9023 124.3810" />
</g>
<g style="fill:none; 
stroke:#000000; stroke-width:0.1000; stroke-opacity:1; 
stroke-linecap:round; stroke-linejoin:round;">
<path d="M154.5625 100.5625 A0.5001 0.5001 0.0 0 0 155.0625 100.0625" />
<path d="M147.0625 100.5625
L154.5625 100.5625
" />
<path d="M146.5625 80.8712
L146.5625 100.0625
" />
</g>
<g style="fill:none; 
stroke:#000000; stroke-width:0.0500; stroke-opacity:1; 
stroke-linecap:round; stroke-linejoin:round;">
<path d="M267.1713 95.4825 A3.0000 3.0000 0.0 0 0 268.7061 92.3207" />
<path d="M149.2699 134.9445 A9.9998 9.9998 0.0 0 0 152.3512 134.9446" />
</g> 
</svg>
