<?xml version="1.0" standalone="no"?>
 <!DOCTYPE svg PUBLIC "-//W3C//DTD SVG 1.1//EN" 
 "http://www.w3.org/Graphics/SVG/1.1/DTD/svg11.dtd"> 
<svg
  xmlns:svg="http://www.w3.org/2000/svg"
  xmlns="http://www.w3.org/2000/svg"
  xmlns:xlink="http://www.w3.org/1999/xlink"
  version="1.1"
  width="297.0022mm" height="210.0072mm" viewBox="0.0000 0.0000 297.0022 210.0072">
<title>SVG Image created as Le Chisoffre-Edge_Cuts.svg date 2025/06/17 22:50:57 </title>
  <desc>Image generated by PCBNEW </desc>
<g style="fill:#000000; fill-opacity:1.0000;stroke:#000000; stroke-opacity:1.0000;
stroke-linecap:round; stroke-linejoin:round;"
 transform="translate(0 0) scale(1 1)">
</g>
<g style="fill:none; 
stroke:#000000; stroke-width:0.0500; stroke-opacity:1; 
stroke-linecap:round; stroke-linejoin:round;">
<path d="M256.4997 35.4925
L220.1256 31.8551
" />
<path d="M83.2905 32.5394 A19.9998 19.9998 0.0 0 0 81.8119 32.6028" />
<path d="M259.1560 37.9585 A3.0000 3.0000 0.0 0 0 256.4997 35.4925" />
</g>
<g style="fill:none; 
stroke:#000000; stroke-width:0.1000; stroke-opacity:1; 
stroke-linecap:round; stroke-linejoin:round;">
<path d="M147.0625 80.3712 A0.4999 0.4999 0.0 0 0 146.5625 80.8712" />
</g>
<g style="fill:none; 
stroke:#000000; stroke-width:0.0500; stroke-opacity:1; 
stroke-linecap:round; stroke-linejoin:round;">
<path d="M220.1256 31.8551 A19.9995 19.9995 0.0 0 0 218.0192 31.7561" />
</g>
<g style="fill:none; 
stroke:#000000; stroke-width:0.1000; stroke-opacity:1; 
stroke-linecap:round; stroke-linejoin:round;">
<path d="M155.0625 80.8712
L155.0625 100.0625
" />
</g>
<g style="fill:none; 
stroke:#000000; stroke-width:0.0500; stroke-opacity:1; 
stroke-linecap:round; stroke-linejoin:round;">
<path d="M268.7061 92.3207
L259.1560 37.9585
" />
<path d="M34.4491 96.2738
L82.8836 122.2983
" />
<path d="M152.4165 134.9344
L152.3512 134.9446
" />
<path d="M88.9023 124.3810
L149.2250 134.9375
" />
<path d="M152.4165 134.9344
L152.4000 134.9375
" />
</g>
<g style="fill:none; 
stroke:#000000; stroke-width:0.1000; stroke-opacity:1; 
stroke-linecap:round; stroke-linejoin:round;">
<path d="M155.0625 80.8712 A0.5000 0.5000 0.0 0 0 154.5625 80.3712" />
</g>
<g style="fill:none; 
stroke:#000000; stroke-width:0.0500; stroke-opacity:1; 
stroke-linecap:round; stroke-linejoin:round;">
<path d="M32.9132 93.1188 A3.0000 3.0000 0.0 0 0 34.4491 96.2738" />
<path d="M32.9132 93.1188
L42.4651 38.0113
" />
<path d="M45.1818 35.5332
L81.8119 32.6028
" />
</g>
<g style="fill:none; 
stroke:#000000; stroke-width:0.1000; stroke-opacity:1; 
stroke-linecap:round; stroke-linejoin:round;">
<path d="M154.5625 80.3712
L147.0625 80.3712
" />
<path d="M146.5625 100.0625 A0.5000 0.5000 0.0 0 0 147.0625 100.5625" />
</g>
<g style="fill:none; 
stroke:#000000; stroke-width:0.0500; stroke-opacity:1; 
stroke-linecap:round; stroke-linejoin:round;">
<path d="M267.1713 95.4825
L217.2661 122.2972
" />
<path d="M214.3758 123.3170 A10.0000 10.0000 0.0 0 0 217.2661 122.2972" />
<path d="M149.2699 134.9445
L149.2250 134.9375
" />
<path d="M45.1818 35.5332 A3.0000 3.0000 0.0 0 0 42.4651 38.0113" />
<path d="M83.2905 32.5394
L218.0192 31.7561
" />
<path d="M214.3758 123.3170
L152.4000 134.9375
" />
<path d="M82.8836 122.2983 A20.0001 20.0001 0.0 0 0 88.9023 124.3810" />
</g>
<g style="fill:none; 
stroke:#000000; stroke-width:0.1000; stroke-opacity:1; 
stroke-linecap:round; stroke-linejoin:round;">
<path d="M154.5625 100.5625 A0.5001 0.5001 0.0 0 0 155.0625 100.0625" />
<path d="M147.0625 100.5625
L154.5625 100.5625
" />
<path d="M146.5625 80.8712
L146.5625 100.0625
" />
</g>
<g style="fill:none; 
stroke:#000000; stroke-width:0.0500; stroke-opacity:1; 
stroke-linecap:round; stroke-linejoin:round;">
<path d="M267.1713 95.4825 A3.0000 3.0000 0.0 0 0 268.7061 92.3207" />
<path d="M149.2699 134.9445 A9.9998 9.9998 0.0 0 0 152.3512 134.9446" />
</g> 
</svg>
