%TF.GenerationSoftware,KiCad,Pcbnew,8.0.8*%
%TF.CreationDate,2025-03-23T01:31:30+01:00*%
%TF.ProjectId,Le Chisoffre,4c652043-6869-4736-9f66-6672652e6b69,rev?*%
%TF.SameCoordinates,Original*%
%TF.FileFunction,Paste,Bot*%
%TF.FilePolarity,Positive*%
%FSLAX46Y46*%
G04 Gerber Fmt 4.6, Leading zero omitted, Abs format (unit mm)*
G04 Created by KiCad (PCBNEW 8.0.8) date 2025-03-23 01:31:30*
%MOMM*%
%LPD*%
G01*
G04 APERTURE LIST*
G04 Aperture macros list*
%AMRoundRect*
0 Rectangle with rounded corners*
0 $1 Rounding radius*
0 $2 $3 $4 $5 $6 $7 $8 $9 X,Y pos of 4 corners*
0 Add a 4 corners polygon primitive as box body*
4,1,4,$2,$3,$4,$5,$6,$7,$8,$9,$2,$3,0*
0 Add four circle primitives for the rounded corners*
1,1,$1+$1,$2,$3*
1,1,$1+$1,$4,$5*
1,1,$1+$1,$6,$7*
1,1,$1+$1,$8,$9*
0 Add four rect primitives between the rounded corners*
20,1,$1+$1,$2,$3,$4,$5,0*
20,1,$1+$1,$4,$5,$6,$7,0*
20,1,$1+$1,$6,$7,$8,$9,0*
20,1,$1+$1,$8,$9,$2,$3,0*%
G04 Aperture macros list end*
%ADD10RoundRect,0.250000X0.347537X-0.243348X0.243348X0.347537X-0.347537X0.243348X-0.243348X-0.347537X0*%
%ADD11RoundRect,0.140000X0.170000X-0.140000X0.170000X0.140000X-0.170000X0.140000X-0.170000X-0.140000X0*%
%ADD12RoundRect,0.250000X0.243348X-0.347537X0.347537X0.243348X-0.243348X0.347537X-0.347537X-0.243348X0*%
%ADD13RoundRect,0.200000X-0.275000X0.200000X-0.275000X-0.200000X0.275000X-0.200000X0.275000X0.200000X0*%
%ADD14RoundRect,0.250000X0.300000X-0.300000X0.300000X0.300000X-0.300000X0.300000X-0.300000X-0.300000X0*%
%ADD15R,0.900000X0.300000*%
%ADD16R,0.250000X1.650000*%
%ADD17R,0.600000X1.450000*%
%ADD18R,0.300000X1.450000*%
%ADD19RoundRect,0.250000X-0.625000X0.375000X-0.625000X-0.375000X0.625000X-0.375000X0.625000X0.375000X0*%
%ADD20RoundRect,0.140000X-0.140000X-0.170000X0.140000X-0.170000X0.140000X0.170000X-0.140000X0.170000X0*%
%ADD21RoundRect,0.135000X0.135000X0.185000X-0.135000X0.185000X-0.135000X-0.185000X0.135000X-0.185000X0*%
%ADD22RoundRect,0.150000X0.150000X-0.450000X0.150000X0.450000X-0.150000X0.450000X-0.150000X-0.450000X0*%
%ADD23RoundRect,0.140000X0.140000X0.170000X-0.140000X0.170000X-0.140000X-0.170000X0.140000X-0.170000X0*%
%ADD24RoundRect,0.250000X0.292217X0.292217X-0.292217X0.292217X-0.292217X-0.292217X0.292217X-0.292217X0*%
%ADD25RoundRect,0.050000X0.387500X0.050000X-0.387500X0.050000X-0.387500X-0.050000X0.387500X-0.050000X0*%
%ADD26RoundRect,0.050000X0.050000X0.387500X-0.050000X0.387500X-0.050000X-0.387500X0.050000X-0.387500X0*%
%ADD27R,1.700000X1.000000*%
%ADD28RoundRect,0.135000X-0.185000X0.135000X-0.185000X-0.135000X0.185000X-0.135000X0.185000X0.135000X0*%
%ADD29RoundRect,0.150000X0.150000X-0.512500X0.150000X0.512500X-0.150000X0.512500X-0.150000X-0.512500X0*%
%ADD30RoundRect,0.135000X0.185000X-0.135000X0.185000X0.135000X-0.185000X0.135000X-0.185000X-0.135000X0*%
%ADD31R,1.400000X1.200000*%
%ADD32RoundRect,0.150000X0.150000X-0.587500X0.150000X0.587500X-0.150000X0.587500X-0.150000X-0.587500X0*%
%ADD33RoundRect,0.140000X-0.170000X0.140000X-0.170000X-0.140000X0.170000X-0.140000X0.170000X0.140000X0*%
%ADD34R,0.300000X1.600000*%
%ADD35R,1.800000X2.200000*%
%ADD36RoundRect,0.135000X-0.135000X-0.185000X0.135000X-0.185000X0.135000X0.185000X-0.135000X0.185000X0*%
G04 APERTURE END LIST*
D10*
%TO.C,D28*%
X221737759Y-84101334D03*
X221251545Y-81343872D03*
%TD*%
%TO.C,D35*%
X207889548Y-115268805D03*
X207403334Y-112511343D03*
%TD*%
D11*
%TO.C,C15*%
X156368750Y-54141250D03*
X156368750Y-53181250D03*
%TD*%
D10*
%TO.C,D16*%
X182099465Y-78710554D03*
X181613251Y-75953092D03*
%TD*%
D12*
%TO.C,D32*%
X100060307Y-117137466D03*
X100546521Y-114380004D03*
%TD*%
D13*
%TO.C,R7*%
X150812500Y-48387500D03*
X150812500Y-50037500D03*
%TD*%
D10*
%TO.C,D40*%
X189119806Y-118558515D03*
X188633592Y-115801053D03*
%TD*%
%TO.C,D27*%
X204168051Y-94163144D03*
X203681837Y-91405682D03*
%TD*%
D12*
%TO.C,D25*%
X122542392Y-99339802D03*
X123028606Y-96582340D03*
%TD*%
D13*
%TO.C,R8*%
X149225000Y-48387500D03*
X149225000Y-50037500D03*
%TD*%
D12*
%TO.C,D2*%
X72876624Y-51894633D03*
X73362838Y-49137171D03*
%TD*%
%TO.C,D4*%
X110397800Y-58510629D03*
X110884014Y-55753167D03*
%TD*%
%TO.C,D11*%
X49981039Y-72037370D03*
X50467253Y-69279908D03*
%TD*%
D11*
%TO.C,C4*%
X147968732Y-52116199D03*
X147968732Y-51156199D03*
%TD*%
D14*
%TO.C,D41*%
X140493750Y-99825000D03*
X140493750Y-97025000D03*
%TD*%
D12*
%TO.C,D31*%
X82457518Y-107263262D03*
X82943732Y-104505800D03*
%TD*%
D15*
%TO.C,IC1*%
X158562500Y-48462500D03*
X158562500Y-48962500D03*
X158562500Y-49462500D03*
X158562500Y-49962500D03*
X155762500Y-49962500D03*
X155762500Y-49462500D03*
X155762500Y-48962500D03*
X155762500Y-48462500D03*
D16*
X157162500Y-49212500D03*
%TD*%
D10*
%TO.C,D10*%
X254627738Y-51220517D03*
X254141524Y-48463055D03*
%TD*%
%TO.C,D8*%
X215121764Y-46580159D03*
X214635550Y-43822697D03*
%TD*%
D17*
%TO.C,J1*%
X147562500Y-38100000D03*
X148362500Y-38100000D03*
D18*
X149562500Y-38100000D03*
X150562500Y-38100000D03*
X151062500Y-38100000D03*
X152062500Y-38100000D03*
D17*
X153262500Y-38100000D03*
X154062500Y-38100000D03*
X154062500Y-38100000D03*
X153262500Y-38100000D03*
D18*
X152562500Y-38100000D03*
X151562500Y-38100000D03*
X150062500Y-38100000D03*
X149062500Y-38100000D03*
D17*
X148362500Y-38100000D03*
X147562500Y-38100000D03*
%TD*%
D10*
%TO.C,D39*%
X169311857Y-122028731D03*
X168825643Y-119271269D03*
%TD*%
D19*
%TO.C,F1*%
X146050000Y-40668750D03*
X146050000Y-43468750D03*
%TD*%
D10*
%TO.C,D6*%
X178791467Y-59949967D03*
X178305253Y-57192505D03*
%TD*%
D20*
%TO.C,C16*%
X143982500Y-45143750D03*
X144942500Y-45143750D03*
%TD*%
D21*
%TO.C,R10*%
X143385000Y-83543750D03*
X142365000Y-83543750D03*
%TD*%
D10*
%TO.C,D18*%
X218429761Y-65340746D03*
X217943547Y-62583284D03*
%TD*%
D12*
%TO.C,D15*%
X125850390Y-80579214D03*
X126336604Y-77821752D03*
%TD*%
D22*
%TO.C,U4*%
X162875000Y-82162500D03*
X160975000Y-82162500D03*
X161925000Y-79762500D03*
%TD*%
D23*
%TO.C,C20*%
X162405248Y-78331937D03*
X161445248Y-78331937D03*
%TD*%
D24*
%TO.C,U3*%
X151880000Y-58581250D03*
X151880000Y-57306250D03*
X150605000Y-58581250D03*
X150605000Y-57306250D03*
D25*
X154680000Y-55343750D03*
X154680000Y-55743750D03*
X154680000Y-56143750D03*
X154680000Y-56543750D03*
X154680000Y-56943750D03*
X154680000Y-57343750D03*
X154680000Y-57743750D03*
X154680000Y-58143750D03*
X154680000Y-58543750D03*
X154680000Y-58943750D03*
X154680000Y-59343750D03*
X154680000Y-59743750D03*
X154680000Y-60143750D03*
X154680000Y-60543750D03*
D26*
X153842500Y-61381250D03*
X153442500Y-61381250D03*
X153042500Y-61381250D03*
X152642500Y-61381250D03*
X152242500Y-61381250D03*
X151842500Y-61381250D03*
X151442500Y-61381250D03*
X151042500Y-61381250D03*
X150642500Y-61381250D03*
X150242500Y-61381250D03*
X149842500Y-61381250D03*
X149442500Y-61381250D03*
X149042500Y-61381250D03*
X148642500Y-61381250D03*
D25*
X147805000Y-60543750D03*
X147805000Y-60143750D03*
X147805000Y-59743750D03*
X147805000Y-59343750D03*
X147805000Y-58943750D03*
X147805000Y-58543750D03*
X147805000Y-58143750D03*
X147805000Y-57743750D03*
X147805000Y-57343750D03*
X147805000Y-56943750D03*
X147805000Y-56543750D03*
X147805000Y-56143750D03*
X147805000Y-55743750D03*
X147805000Y-55343750D03*
D26*
X148642500Y-54506250D03*
X149042500Y-54506250D03*
X149442500Y-54506250D03*
X149842500Y-54506250D03*
X150242500Y-54506250D03*
X150642500Y-54506250D03*
X151042500Y-54506250D03*
X151442500Y-54506250D03*
X151842500Y-54506250D03*
X152242500Y-54506250D03*
X152642500Y-54506250D03*
X153042500Y-54506250D03*
X153442500Y-54506250D03*
X153842500Y-54506250D03*
%TD*%
D23*
%TO.C,C11*%
X145743796Y-58948805D03*
X144783796Y-58948805D03*
%TD*%
%TO.C,C19*%
X159230000Y-83543750D03*
X158270000Y-83543750D03*
%TD*%
D10*
%TO.C,D36*%
X225426177Y-105019390D03*
X224939963Y-102261928D03*
%TD*%
%TO.C,D19*%
X238348148Y-68598955D03*
X237861934Y-65841493D03*
%TD*%
D12*
%TO.C,D38*%
X142631893Y-123616231D03*
X143118107Y-120858769D03*
%TD*%
D27*
%TO.C,SW1*%
X160362500Y-43968750D03*
X166662500Y-43968750D03*
X160362500Y-40168750D03*
X166662500Y-40168750D03*
%TD*%
D28*
%TO.C,R12*%
X152400000Y-69056250D03*
X152400000Y-70076250D03*
%TD*%
D11*
%TO.C,C2*%
X155127910Y-67155957D03*
X155127910Y-66195957D03*
%TD*%
D23*
%TO.C,C17*%
X144942500Y-51100000D03*
X143982500Y-51100000D03*
%TD*%
D10*
%TO.C,D7*%
X197518975Y-56454363D03*
X197032761Y-53696901D03*
%TD*%
D20*
%TO.C,C18*%
X158270000Y-82550000D03*
X159230000Y-82550000D03*
%TD*%
D12*
%TO.C,D13*%
X89487013Y-67397013D03*
X89973227Y-64639551D03*
%TD*%
D10*
%TO.C,D17*%
X200826973Y-75214951D03*
X200340759Y-72457489D03*
%TD*%
D11*
%TO.C,C8*%
X146940809Y-52126373D03*
X146940809Y-51166373D03*
%TD*%
D12*
%TO.C,D12*%
X69568626Y-70655221D03*
X70054840Y-67897759D03*
%TD*%
%TO.C,D1*%
X53289037Y-53276783D03*
X53775251Y-50519321D03*
%TD*%
D29*
%TO.C,U1*%
X151762500Y-44793750D03*
X150812500Y-44793750D03*
X149862500Y-44793750D03*
X149862500Y-42518750D03*
X150812500Y-42518750D03*
X151762500Y-42518750D03*
%TD*%
D28*
%TO.C,R13*%
X150812500Y-69056250D03*
X150812500Y-70076250D03*
%TD*%
D20*
%TO.C,C1*%
X155482331Y-47306956D03*
X156442331Y-47306956D03*
%TD*%
D23*
%TO.C,C9*%
X145954723Y-54044548D03*
X144994723Y-54044548D03*
%TD*%
D12*
%TO.C,D23*%
X86179016Y-86157601D03*
X86665230Y-83400139D03*
%TD*%
D28*
%TO.C,R3*%
X148431250Y-40765000D03*
X148431250Y-41785000D03*
%TD*%
D20*
%TO.C,C12*%
X156690046Y-58948805D03*
X157650046Y-58948805D03*
%TD*%
D10*
%TO.C,D29*%
X241689226Y-87547149D03*
X241203012Y-84789687D03*
%TD*%
D30*
%TO.C,R9*%
X157956250Y-94456250D03*
X157956250Y-93436250D03*
%TD*%
D23*
%TO.C,C21*%
X162405000Y-83743750D03*
X161445000Y-83743750D03*
%TD*%
D31*
%TO.C,Y1*%
X151300000Y-65825000D03*
X153500000Y-65825000D03*
X153500000Y-67525000D03*
X151300000Y-67525000D03*
%TD*%
D27*
%TO.C,SWR1*%
X141262500Y-40168750D03*
X134962500Y-40168750D03*
X141262500Y-43968750D03*
X134962500Y-43968750D03*
%TD*%
D23*
%TO.C,C14*%
X145955013Y-52993014D03*
X144995013Y-52993014D03*
%TD*%
D12*
%TO.C,D21*%
X46673041Y-90797958D03*
X47159255Y-88040496D03*
%TD*%
%TO.C,D14*%
X107089802Y-77271217D03*
X107576016Y-74513755D03*
%TD*%
D28*
%TO.C,R5*%
X143668750Y-41558750D03*
X143668750Y-42578750D03*
%TD*%
D12*
%TO.C,D22*%
X66260629Y-89415809D03*
X66746843Y-86658347D03*
%TD*%
D28*
%TO.C,R4*%
X153193750Y-40765000D03*
X153193750Y-41785000D03*
%TD*%
D11*
%TO.C,C3*%
X149682815Y-67155000D03*
X149682815Y-66195000D03*
%TD*%
D10*
%TO.C,D26*%
X185407463Y-97471142D03*
X184921249Y-94713680D03*
%TD*%
D32*
%TO.C,U2*%
X145412500Y-48562500D03*
X143512500Y-48562500D03*
X144462500Y-46687500D03*
%TD*%
D33*
%TO.C,C10*%
X148609539Y-66212358D03*
X148609539Y-67172358D03*
%TD*%
D34*
%TO.C,J2*%
X153562500Y-73406250D03*
X153062500Y-73406250D03*
X152562500Y-73406250D03*
X152062500Y-73406250D03*
X151562500Y-73406250D03*
X151062500Y-73406250D03*
X150562500Y-73406250D03*
X150062500Y-73406250D03*
X149562500Y-73406250D03*
X149062500Y-73406250D03*
X148562500Y-73406250D03*
X148062500Y-73406250D03*
D35*
X155462500Y-76806250D03*
X146162500Y-76806250D03*
%TD*%
D10*
%TO.C,D9*%
X235040150Y-49838367D03*
X234553936Y-47080905D03*
%TD*%
D12*
%TO.C,D24*%
X103781804Y-96031804D03*
X104268018Y-93274342D03*
%TD*%
D20*
%TO.C,C7*%
X143982500Y-50106250D03*
X144942500Y-50106250D03*
%TD*%
D12*
%TO.C,D37*%
X118491255Y-121466809D03*
X118977469Y-118709347D03*
%TD*%
%TO.C,D5*%
X129158387Y-61818627D03*
X129644601Y-59061165D03*
%TD*%
D11*
%TO.C,C13*%
X152221837Y-49690534D03*
X152221837Y-48730534D03*
%TD*%
D30*
%TO.C,R11*%
X149225000Y-70076250D03*
X149225000Y-69056250D03*
%TD*%
D36*
%TO.C,R6*%
X151890000Y-64293750D03*
X152910000Y-64293750D03*
%TD*%
D12*
%TO.C,D3*%
X92795011Y-48636426D03*
X93281225Y-45878964D03*
%TD*%
D33*
%TO.C,C6*%
X147622780Y-66204935D03*
X147622780Y-67164935D03*
%TD*%
D10*
%TO.C,D20*%
X257935735Y-69981104D03*
X257449521Y-67223642D03*
%TD*%
D30*
%TO.C,R2*%
X157956250Y-42578750D03*
X157956250Y-41558750D03*
%TD*%
D11*
%TO.C,C5*%
X153293750Y-49692500D03*
X153293750Y-48732500D03*
%TD*%
D10*
%TO.C,D30*%
X261276813Y-88929298D03*
X260790599Y-86171836D03*
%TD*%
M02*
