M48
; DRILL file {KiCad 8.0.8} date 2025-03-23T01:31:38+0100
; FORMAT={-:-/ absolute / inch / decimal}
; #@! TF.CreationDate,2025-03-23T01:31:38+01:00
; #@! TF.GenerationSoftware,Kicad,Pcbnew,8.0.8
; #@! TF.FileFunction,Plated,1,2,PTH
FMAT,2
INCH
; #@! TA.AperFunction,Plated,PTH,ViaDrill
T1C0.0118
; #@! TA.AperFunction,Plated,PTH,ComponentDrill
T2C0.0138
; #@! TA.AperFunction,Plated,PTH,ComponentDrill
T3C0.0236
; #@! TA.AperFunction,Plated,PTH,ComponentDrill
T4C0.0276
; #@! TA.AperFunction,Plated,PTH,ComponentDrill
T5C0.0394
; #@! TA.AperFunction,Plated,PTH,ComponentDrill
T6C0.0600
; #@! TA.AperFunction,Plated,PTH,ComponentDrill
T7C0.1200
%
G90
G05
T1
X5.1951Y-3.125
X5.25Y-2.375
X5.4062Y-2.5625
X5.4375Y-1.6562
X5.4678Y-2.5625
X5.4993Y-2.5625
X5.5308Y-2.5625
X5.5312Y-3.875
X5.5623Y-2.5625
X5.6168Y-1.9118
X5.625Y-2.6562
X5.6284Y-1.7773
X5.6562Y-1.5938
X5.6562Y-1.7188
X5.6681Y-2.3209
X5.6802Y-2.0865
X5.6805Y-2.1279
X5.7352Y-2.4606
X5.7376Y-1.9727
X5.7376Y-2.0118
X5.7689Y-1.9119
X5.785Y-1.9815
X5.7894Y-2.5272
X5.7925Y-2.0863
X5.812Y-2.6768
X5.8253Y-2.8125
X5.8256Y-1.983
X5.8438Y-1.6875
X5.8438Y-2.75
X5.851Y-2.6768
X5.875Y-2.8125
X5.8934Y-2.6768
X5.9062Y-2.1875
X5.9062Y-2.7188
X5.9062Y-2.9688
X5.9065Y-2.8125
X5.9071Y-2.7502
X5.9375Y-1.3438
X5.9387Y-2.0938
X5.9562Y-2.0442
X5.9688Y-2.7188
X5.9696Y-2.7502
X5.993Y-1.89
X6.0Y-1.7188
X6.0312Y-1.6875
X6.0312Y-2.7188
X6.0314Y-2.9522
X6.0353Y-1.8907
X6.0458Y-2.8315
X6.0872Y-1.8625
X6.1073Y-2.6768
X6.1477Y-3.811
X6.1562Y-2.0625
X6.1928Y-1.8621
X6.2371Y-2.3207
X6.25Y-3.6786
X6.2962Y-3.289
X6.2975Y-3.2496
X6.3125Y-3.4016
X6.3125Y-3.5
X6.3125Y-3.5984
X6.3736Y-2.5637
X6.375Y-3.1875
X6.4062Y-2.5625
X6.4226Y-3.297
X6.4232Y-3.0836
X6.4375Y-1.6562
X6.4688Y-2.5625
X6.6562Y-2.375
X6.7194Y-3.1244
T2
X5.9042Y-2.2311
X5.9042Y-2.2812
X5.9042Y-2.3314
X5.9544Y-2.2311
X5.9544Y-2.2812
X5.9544Y-2.3314
X6.0046Y-2.2311
X6.0046Y-2.2812
X6.0046Y-2.3314
T4
X5.7264Y-3.3116
X5.7264Y-3.3817
X5.7264Y-3.4517
X5.7264Y-3.5218
X5.7264Y-3.5919
X5.7264Y-3.662
X5.7264Y-3.7321
X5.7264Y-3.8021
X6.1476Y-3.2766
X6.1476Y-3.3466
X6.1476Y-3.4167
X6.1476Y-3.4868
X6.1476Y-3.5569
X6.1476Y-3.6269
X6.1476Y-3.697
X6.1476Y-3.7671
T5
X5.6462Y-3.4016
X5.6462Y-3.5984
X5.6875Y-2.5557
X5.6875Y-2.6557
X5.6875Y-2.7557
X6.2446Y-3.4016
X6.2446Y-3.5
X6.2446Y-3.5984
T6
X1.6045Y-3.3127
X1.7347Y-2.5741
X1.865Y-1.8354
X1.8681Y-3.2576
X1.9983Y-2.519
X2.1285Y-1.7804
X2.3757Y-3.2582
X2.5059Y-2.5196
X2.6361Y-1.781
X2.6392Y-3.2032
X2.7695Y-2.4646
X2.8997Y-1.726
X3.0133Y-3.9609
X3.1598Y-3.13
X3.2769Y-3.9058
X3.2901Y-2.3914
X3.4203Y-1.6528
X3.4234Y-3.0749
X3.5536Y-2.3363
X3.6839Y-1.5977
X3.7063Y-4.3496
X3.8529Y-3.5187
X3.9699Y-4.2946
X3.9831Y-2.7801
X4.1133Y-2.0415
X4.1164Y-3.4636
X4.2467Y-2.725
X4.3769Y-1.9864
X4.4442Y-4.4813
X4.5915Y-3.649
X4.7078Y-4.4262
X4.7217Y-2.9103
X4.8139Y-4.5456
X4.8519Y-2.1717
X4.855Y-3.5939
X4.9853Y-2.8553
X5.0774Y-4.4905
X5.1155Y-2.1167
X5.1963Y-4.8233
X5.4598Y-4.7683
X5.65Y-6.2437
X5.9Y-6.1437
X6.3822Y-4.539
X6.611Y-4.3971
X6.7304Y-2.1937
X6.768Y-4.5674
X6.8607Y-2.9323
X6.9593Y-2.0518
X6.9909Y-3.6709
X6.9968Y-4.4255
X7.0895Y-2.7904
X7.1371Y-4.5011
X7.2197Y-3.529
X7.3659Y-4.3592
X7.4677Y-2.0561
X7.598Y-2.7947
X7.6966Y-1.9142
X7.7295Y-3.5407
X7.8268Y-2.6528
X7.876Y-4.3716
X7.9583Y-3.3988
X8.1049Y-4.2297
X8.1607Y-1.6673
X8.291Y-2.4059
X8.3896Y-1.5254
X8.4212Y-3.1445
X8.5198Y-2.264
X8.5664Y-3.9681
X8.6501Y-3.0026
X8.7953Y-3.8262
X8.9449Y-1.7956
X9.0752Y-2.5342
X9.1738Y-1.6537
X9.2067Y-3.2802
X9.304Y-2.3923
X9.4355Y-3.1383
X9.7161Y-1.85
X9.8463Y-2.5886
X9.9449Y-1.7081
X9.9779Y-3.3346
X10.0752Y-2.4467
X10.2067Y-3.1927
T7
X4.5303Y-4.3179
X5.4536Y-4.4807
X6.4237Y-4.4504
X7.3469Y-4.2876
T3
G00X5.7674Y-1.2876
M15
G01X5.7674Y-1.3112
M16
G05
G00X5.7674Y-1.4423
M15
G01X5.7674Y-1.4856
M16
G05
G00X6.1076Y-1.2876
M15
G01X6.1076Y-1.3112
M16
G05
G00X6.1076Y-1.4423
M15
G01X6.1076Y-1.4856
M16
G05
M30
