<?xml version="1.0" encoding="UTF-8" standalone="no"?>
<!-- Created with Inkscape (http://www.inkscape.org/) -->

<svg
   version="1.1"
   id="svg1"
   width="640"
   height="640"
   viewBox="0 0 640 640"
   sodipodi:docname="iso.svg"
   inkscape:version="1.4 (e7c3feb1, 2024-10-09)"
   xmlns:inkscape="http://www.inkscape.org/namespaces/inkscape"
   xmlns:sodipodi="http://sodipodi.sourceforge.net/DTD/sodipodi-0.dtd"
   xmlns="http://www.w3.org/2000/svg"
   xmlns:svg="http://www.w3.org/2000/svg">
  <defs
     id="defs1" />
  <sodipodi:namedview
     id="namedview1"
     pagecolor="#ffffff"
     bordercolor="#000000"
     borderopacity="0.25"
     inkscape:showpageshadow="2"
     inkscape:pageopacity="0.0"
     inkscape:pagecheckerboard="0"
     inkscape:deskcolor="#d1d1d1"
     inkscape:zoom="6.2913986"
     inkscape:cx="334.50432"
     inkscape:cy="168.56347"
     inkscape:window-width="1728"
     inkscape:window-height="1052"
     inkscape:window-x="0"
     inkscape:window-y="65"
     inkscape:window-maximized="0"
     inkscape:current-layer="g1" />
  <g
     inkscape:groupmode="layer"
     inkscape:label="Image"
     id="g1">
    <path
       style="fill:#1a1a1a;stroke-width:0.226219;stroke-linecap:round;stroke-linejoin:round"
       d="m 315.14712,152.71197 c -0.12208,-0.0397 -0.23811,-0.0597 -0.35452,-0.0499 l 7.9e-4,0.003 c -0.8149,0.0775 -1.63237,1.56461 -4.21542,6.08413 -4.67028,8.17153 -7.20415,13.72037 -6.31279,13.82317 0.17764,0.0189 0.36132,0.24227 0.40997,0.49221 0.0537,0.27477 0.22374,0.41786 0.42931,0.3651 0.26986,-0.0692 0.31295,0.15042 0.20712,1.06133 -0.17877,1.54715 0.0824,1.475 1.2522,-0.34394 3.16025,-4.91509 7.18182,-11.57533 7.22721,-11.96867 0.0302,-0.25171 0.84688,-1.69829 1.81833,-3.21365 2.61301,-4.07573 2.61562,-4.09074 0.71497,-5.49275 -0.49379,-0.36435 -0.85372,-0.64759 -1.17755,-0.75927 z"
       id="path57" />
    <path
       id="path51"
       style="fill:#1a1a1a;stroke-width:0.226219;stroke-linecap:round;stroke-linejoin:round"
       d="M 333.17969 149.87109 L 330.96875 150.22852 C 325.22164 151.15847 317.30793 155.38628 317.04492 157.66602 C 316.8567 159.29847 317.99011 159.97133 321.74805 160.45703 C 325.43359 160.93344 325.46593 160.8132 320.70898 164.00781 C 314.28915 168.31915 311.86372 170.48799 313.27148 170.65039 C 313.39507 170.66549 313.50674 170.57479 313.52148 170.45117 C 313.53658 170.32758 313.64777 170.2391 313.76758 170.25195 C 313.90214 170.26705 313.86342 170.48275 313.66992 170.80469 C 313.1737 171.62799 314.47758 173.04865 315.53906 172.8418 C 315.87128 172.7772 316.14528 172.96409 316.52539 173.51367 C 317.21368 174.50825 317.03845 174.56472 319.45508 172.56055 C 320.61422 171.59923 323.3835 169.3321 325.60938 167.52148 C 327.83522 165.71082 330.04248 163.81194 330.51367 163.30273 C 330.68677 163.11564 330.79787 163.01773 330.91016 162.91602 L 330.79297 163.12695 C 329.67419 165.42256 328.50001 168.7618 328.80664 169.44922 C 330.5944 173.45745 334.63673 172.72901 339 167.60938 C 340.52206 165.82359 341.5596 164.17793 342.11719 162.71484 L 342.10156 162.66992 L 342.2793 162.18555 L 342.44531 161.68359 C 342.83751 160.00891 342.5004 158.62283 341.41211 157.60742 C 341.0557 157.27558 340.66212 156.65619 340.53906 156.23047 C 339.89563 154.00546 337.59554 154.40931 334.80859 157.23828 C 334.50245 157.54858 334.20162 157.827 333.9668 158.02539 C 333.31495 158.79025 332.71448 159.62096 332.31445 160.25195 L 332.12109 160.76758 L 331.64453 161.61133 L 331.44141 161.03516 C 331.03836 159.89722 330.3079 159.41159 328.11328 158.81836 C 325.84991 158.20653 324.55845 157.67326 324.59375 157.36719 C 324.64405 156.93258 330.33126 153.78801 333.41211 152.49023 C 335.04694 151.8016 335.12194 151.57218 334.01953 150.60352 L 333.17969 149.87109 z M 339.34961 159.10742 C 339.38361 159.10542 339.41311 159.11195 339.44141 159.12305 L 339.44141 159.125 C 339.56727 159.1711 339.6231 159.32156 339.58984 159.61133 C 339.3952 161.30097 337.10777 164.80935 335.07031 166.54102 C 333.63601 167.76003 333.30872 167.74149 333.63867 166.45508 C 334.25836 164.03867 338.29675 159.13515 339.34961 159.10938 L 339.34961 159.10742 z " />
    <path
       style="fill:#1a1a1a;stroke-width:0.226219;stroke-linecap:round;stroke-linejoin:round"
       d="m 329.10461,142.20077 c -0.0227,-0.0302 -0.0771,-0.0378 -0.16441,-0.0302 -0.2313,0.0189 -0.6881,0.16516 -1.3683,0.4326 l -1.12736,0.44202 -0.91483,-0.68716 c -0.42251,-0.31785 -0.92413,-0.48631 -1.51521,-0.50105 -1.77268,-0.045 -4.35485,1.29007 -8.07096,4.13231 -1.61854,1.23795 -1.61166,1.14059 -0.20296,3.0596 l 1.16315,1.58453 0.81029,-0.44568 c 0.44652,-0.24529 1.42776,-0.89095 2.17932,-1.43395 0.75148,-0.54293 2.97313,-2.0386 4.93757,-3.32451 3.02578,-1.98066 4.43309,-3.03882 4.27348,-3.23036 z"
       id="path49" />
  </g>
</svg>
