<?xml version="1.0" encoding="UTF-8" standalone="no"?>
<!-- Created with Inkscape (http://www.inkscape.org/) -->

<svg
   version="1.1"
   id="svg1"
   width="640"
   height="640"
   viewBox="0 0 640 640"
   sodipodi:docname="le-chisoffre.svg"
   inkscape:version="1.4 (e7c3feb1, 2024-10-09)"
   xmlns:inkscape="http://www.inkscape.org/namespaces/inkscape"
   xmlns:sodipodi="http://sodipodi.sourceforge.net/DTD/sodipodi-0.dtd"
   xmlns="http://www.w3.org/2000/svg"
   xmlns:svg="http://www.w3.org/2000/svg">
  <defs
     id="defs1" />
  <sodipodi:namedview
     id="namedview1"
     pagecolor="#ffffff"
     bordercolor="#000000"
     borderopacity="0.25"
     inkscape:showpageshadow="2"
     inkscape:pageopacity="0.0"
     inkscape:pagecheckerboard="0"
     inkscape:deskcolor="#d1d1d1"
     inkscape:zoom="6.5746642"
     inkscape:cx="311.87905"
     inkscape:cy="150.34988"
     inkscape:window-width="1728"
     inkscape:window-height="1080"
     inkscape:window-x="0"
     inkscape:window-y="37"
     inkscape:window-maximized="0"
     inkscape:current-layer="g1" />
  <g
     inkscape:groupmode="layer"
     inkscape:label="Image"
     id="g1">
    <path
       id="path11"
       style="fill:#1a1a1a;stroke-width:0.17018;stroke-linecap:round;stroke-linejoin:round"
       d="m 301.5983,96.798655 c -0.50137,0.06686 -0.68108,0.317427 -0.88679,0.467664 -0.27438,0.200306 -0.50541,0.416968 -0.76018,0.675068 -0.50953,0.516206 -1.08784,1.194921 -1.74534,2.025543 -1.31502,1.66124 -2.92378,3.91647 -4.54036,6.4017 -0.46875,0.72067 -0.90988,1.37582 -1.23112,1.83408 -0.0707,0.10099 -0.10545,0.14502 -0.16289,0.22469 -0.24264,0.0972 -0.44884,0.22268 -0.62953,0.34203 -0.39169,0.25866 -0.70511,0.55486 -0.98252,0.88415 -0.2774,0.32918 -0.52484,0.65311 -0.69434,1.20486 -0.0847,0.27589 -0.17272,0.64445 -0.034,1.15837 0.0265,0.0949 0.0763,0.19086 0.12547,0.28572 -0.47578,1.01392 -0.86135,1.97921 -1.05399,2.82427 -0.12547,0.55016 -0.20748,1.04764 -0.12925,1.64897 0.0389,0.30046 0.11905,0.64861 0.37076,1.02341 0.21806,0.32465 0.62336,0.60783 1.04635,0.75417 0.0654,0.15911 0.1353,0.31709 0.23734,0.48028 -0.84389,0.45533 -1.70007,0.92575 -2.57797,1.44254 -4.26402,2.51024 -8.64024,5.51713 -10.98956,7.97987 -2.93418,3.07579 -4.84158,6.35774 -5.54117,9.56762 -0.69956,3.20988 -0.10696,6.42115 1.95608,8.8221 0.19652,0.22865 0.41161,0.52034 0.56671,0.76184 0.15495,0.2415 0.25246,0.53486 0.18972,0.30462 0.11754,0.43194 0.46139,1.07194 0.88513,1.47043 0.42374,0.39853 0.87919,0.69453 1.60176,1.16601 1.39802,0.91229 2.15714,1.43917 3.09748,1.76764 0.94034,0.32842 1.7941,0.29101 2.86713,0.23999 1.37508,-0.0654 1.5857,0.0899 1.30293,-0.0805 1.05663,0.63697 1.57936,0.33031 2.20439,0.20219 0.62502,-0.12812 1.29371,-0.34392 2.01454,-0.62287 1.30395,-0.50459 2.73553,-1.23101 4.0255,-2.04683 0.23357,0.33108 0.51955,0.62896 0.86721,0.8592 0.0635,0.0423 0.64744,0.52284 0.91604,0.79707 0.0733,0.0748 0.14815,0.14248 0.22034,0.21391 -0.0643,0.0393 -0.12397,0.0703 -0.20069,0.1285 -0.13152,0.099 -0.31822,0.16515 -0.56074,0.67106 -0.12132,0.25284 -0.24339,0.71853 -0.0937,1.21189 0.14967,0.49335 0.52299,0.82446 0.77477,0.96789 0.50364,0.28685 0.69903,0.22751 0.86354,0.23129 0.65799,0.0151 0.94023,-0.10242 1.51964,-0.25699 0.19313,-0.0514 0.41324,-0.0986 0.57405,-0.12548 0.161,-0.0264 0.42068,0.0113 0.0227,-0.034 0.62933,0.0726 0.94302,-0.0933 1.23909,-0.24264 0.0378,-0.0189 0.0695,-0.045 0.10582,-0.065 0.1217,0.008 0.23924,0.008 0.33486,3.4e-4 0.46678,-0.0378 0.76762,-0.13984 1.20655,-0.27627 0.19653,-0.0612 0.38595,-0.10393 0.52186,-0.13001 -0.0888,-0.008 -0.23395,-0.0423 -0.52617,-0.19502 0.23962,0.1251 0.40999,0.16441 0.56071,0.18633 0.008,-10e-4 0.0189,-0.004 0.0265,-0.008 0.0665,-0.0113 0.11225,-0.0151 0.0813,-0.0113 -0.0113,5.3e-4 -0.0457,0.0151 -0.0824,0.0265 0.17914,0.0227 0.31898,0.0113 0.43175,0.003 0.17537,-0.0113 0.30197,-0.0442 0.42979,-0.076 0.0189,0.034 0.0189,0.0574 0.0382,0.0922 0.21732,0.36736 0.76748,0.7742 1.282,0.83361 0.64823,0.0748 1.20939,-0.23469 1.51699,-0.56338 0.15647,-0.16705 0.27022,-0.34544 0.35186,-0.5318 0.38712,-0.30197 0.54611,-0.5793 0.66441,-0.87582 0.0881,-0.0465 0.19615,-0.10583 0.44407,-0.19729 0.63081,-0.23318 1.71556,-0.53595 3.24439,-0.88947 0.72514,-0.1678 2.35842,-0.60605 3.78951,-1.01078 1.38517,-0.39173 3.07367,-0.81748 3.41257,-0.88278 0.48451,-0.0933 0.9937,-0.19993 1.50702,-0.52983 0.51334,-0.32994 0.80987,-0.72152 1.13278,-1.14273 l 0.66709,-0.87053 a 1.6424019,1.6424019 0 0 0 0.29895,-1.30259 c 0.29252,-0.20258 0.50965,-0.32427 0.26909,-0.23054 l -0.12396,-0.0862 a 1.6424019,1.6424019 0 0 0 0.62219,-0.21127 l 0.36471,-0.32653 c 0.76573,1.19166 1.5382,2.10804 2.57499,2.69097 0.78848,0.44336 1.68286,0.55772 2.56897,0.48096 0.21883,0.2192 0.44827,0.3375 0.65511,0.42578 0.0684,0.49275 0.25171,0.97787 0.67643,1.41299 0.34355,0.35186 0.88993,0.62877 1.45316,0.64748 0.56324,0.0189 1.06918,-0.1954 1.43721,-0.468 -0.28118,0.20862 0.0151,0.003 0.28686,-0.0964 0.27211,-0.0998 0.63096,-0.21316 0.96392,-0.29971 0.78422,-0.20408 1.28891,-0.2895 1.83476,-0.56437 0.27627,0.31633 0.57934,0.51173 0.81831,0.63055 -0.22714,-0.113 0.3356,0.28572 0.46569,0.44438 l 0.51819,0.63187 a 1.6424019,1.6424019 0 0 0 2.39879,0.15155 l 0.49026,-0.46399 a 1.6424019,1.6424019 0 0 0 3.4e-4,-3.4e-4 c 0.0189,-0.0189 0.003,-0.008 0.0113,-0.0151 0.0265,-0.008 0.24642,-0.048 0.73758,-0.076 l 1.2933,-0.0733 a 1.6424019,1.6424019 0 0 0 1.39133,-0.93731 l 0.84525,-1.78654 v -3.4e-4 c 0.23205,-0.49037 0.36093,-0.74559 0.56274,-1.16767 -0.004,0.0227 -0.004,0.0302 -0.008,0.0529 -0.12887,0.60973 -0.28269,0.86015 -0.1969,1.62168 0.0431,0.38081 0.31293,0.94598 0.6129,1.22353 0.0971,0.0899 0.16478,0.13039 0.23961,0.18292 0.15533,0.46789 0.45106,0.90444 0.95727,1.16831 0.32729,0.17045 0.7064,0.18066 1.07957,0.12775 0.17272,0.13416 0.34203,0.2706 0.52817,0.39222 0.274,0.17914 0.55688,0.3443 0.84823,0.48693 0.29139,0.14286 0.52507,0.28383 1.0623,0.34619 0.37416,0.0431 1.2391,-0.0945 1.70646,-0.54612 0.46739,-0.45152 0.55197,-0.79695 0.68572,-1.1414 0.47662,-1.2275 1.30611,-3.04412 2.06043,-4.58522 0.24301,0.49184 0.54721,0.94933 0.9197,1.33849 0.33826,0.35375 1.07784,1.164 1.57981,1.73374 1.45093,1.6467 3.34344,2.64434 5.37133,2.71822 2.02789,0.0737 4.07089,-0.71445 6.04038,-2.13692 0.78293,-0.56543 1.42792,-1.27602 1.92717,-2.0345 0.46747,-0.71018 0.85924,-1.4165 0.86751,-2.40945 0.0113,-0.0113 0.0151,-0.0113 0.034,-0.0408 0.1542,-0.23432 0.57971,-0.77235 1.33486,-1.66787 0.90134,-1.06895 1.4221,-1.6803 1.79916,-2.34331 0.18859,-0.33145 0.40825,-0.72813 0.36774,-1.37939 -0.0227,-0.37453 -0.19653,-0.71101 -0.39786,-0.99548 0.004,-0.28685 -0.0113,-0.68248 -0.3545,-1.17398 0.0427,-0.10847 0.0892,-0.20673 0.12396,-0.33863 0.068,-0.257 0.0658,-0.62987 -0.002,-0.99015 0.13039,-0.0427 0.0699,-0.0265 0.23016,-0.0737 l 1.55853,-0.45171 a 1.6424019,1.6424019 0 0 0 0.97557,-0.77446 l 1.01543,-1.81182 v -3.4e-4 c 0.55957,-0.99809 0.87458,-1.50528 1.08985,-2.1771 0.19124,-0.59702 -0.003,-1.46008 -0.19237,-1.90687 -0.008,0.0378 -0.008,0.0113 -0.0151,0.10355 0.008,-0.0688 -0.0151,-0.13681 -0.0151,-0.20597 -0.0113,-0.0265 -0.0189,-0.0865 -0.034,-0.10658 0.0189,0.0302 0.0151,0.0113 0.0265,0.0227 -0.034,-0.87526 -0.60386,-1.73249 -1.21585,-2.12328 -0.68021,-0.43436 -1.40623,-0.62582 -2.27381,-0.77643 -1.73525,-0.30121 -4.06832,-0.34241 -7.11667,-0.18443 l -2.00759,0.10393 -0.24906,-0.31406 a 1.6424019,1.6424019 0 0 0 -3.4e-4,-3.4e-4 l -0.77515,-0.97753 a 1.6424019,1.6424019 0 0 0 -1.21351,-0.62023 l -1.57814,-0.0703 c -0.89684,-0.0401 -2.09679,-0.0714 -2.76645,-0.071 -0.4779,3.4e-4 -0.63346,-0.0302 -0.59563,-0.0189 0.0378,0.0113 0.0544,0.0393 -0.21958,-0.16515 -1.03792,-0.77394 -2.14697,-0.90735 -3.43418,-1.02073 -0.16705,-0.0151 -0.34846,-0.008 -0.51917,-0.0151 0.0918,-0.26531 0.14853,-0.57011 0.0933,-0.98051 -0.0711,-0.52847 -0.44646,-1.06801 -0.81933,-1.32523 -0.37302,-0.25738 -0.70311,-0.33259 -0.99181,-0.37643 -0.69287,-0.10544 -1.28158,-0.0151 -2.02124,0.13833 -5.6067,1.15708 -8.58543,1.78242 -10.51725,2.38118 -1.93182,0.59876 -2.99064,1.39261 -3.82542,2.27849 -0.0302,0.0302 -0.0446,0.045 -0.11716,0.10394 a 1.6424019,1.6424019 0 0 0 -0.52284,0.75949 l -0.90976,2.76112 c -0.034,-0.034 -0.0401,-0.0265 -0.0786,-0.0809 -0.20711,-0.29705 -0.48981,-0.78342 -0.99514,-1.28067 -0.50534,-0.49728 -1.43438,-1.02813 -2.45998,-0.91804 -0.0741,0.008 -0.14097,0.034 -0.21354,0.048 -0.43073,-0.87874 -1.39439,-1.90098 -2.84785,-2.16946 -0.38905,-0.0718 -0.74438,-0.18595 -1.24878,-0.0453 -0.3356,-0.0302 -0.67495,-0.034 -1.0194,-0.008 0.0631,-0.0571 0.1576,-0.14475 0.21127,-0.19351 0.50409,-0.45363 0.9855,-0.68274 1.27968,-1.6566 0.14702,-0.48693 0.0665,-1.07893 -0.0714,-1.42859 -0.13794,-0.34959 -0.28269,-0.55198 -0.41879,-0.75784 -0.034,-0.051 -0.0518,-0.0869 -0.0797,-0.13492 -0.0189,-0.18784 -0.065,-0.39978 -0.17461,-0.64087 -0.2226,-0.49116 -0.79101,-0.92586 -1.22284,-1.0533 -0.8637,-0.25473 -1.26809,-0.0627 -1.8517,0.0677 -0.39407,0.0881 -0.63598,0.14021 -0.88746,0.19501 -0.10318,-0.0491 -0.21165,-0.0994 -0.32994,-0.17158 -0.53708,-0.32843 -1.25251,-0.56093 -1.97566,-0.55443 -0.72314,0.008 -1.41714,0.20106 -2.16583,0.51252 -0.87892,0.36546 -1.9568,0.97764 -3.20149,1.74039 -0.0412,-0.1474 -0.0726,-0.28837 -0.11602,-0.4494 -0.1954,-0.72262 -0.35753,-1.34621 -0.81797,-2.04017 l -3.4e-4,-6.8e-4 -0.42181,-0.63584 a 1.6424019,1.6424019 0 0 0 -1.55222,-0.72394 l -0.87152,0.0979 c -0.15117,0.0189 -0.18367,0.0113 -0.25813,0.0189 0.33825,-0.27325 0.65236,-0.55228 0.93071,-0.83796 0.28609,-0.29366 0.54029,-0.58784 0.75915,-0.96922 0.12775,-0.22222 0.26267,-0.50877 0.32163,-0.85919 0.0816,-0.0941 0.16402,-0.19313 0.31671,-0.33486 0.25397,-0.23583 0.45938,-0.435 0.6415,-0.63421 0.18217,-0.19917 0.36018,-0.26909 0.57103,-0.89544 0.10544,-0.31331 0.18329,-1.0948 -0.32049,-1.67588 -0.18066,-0.20824 -0.36093,-0.32616 -0.53512,-0.41312 0.42204,-1.65537 -0.15836,-3.4686 -1.39734,-4.78168 -1.08649,-1.15158 -2.71301,-1.46605 -4.25052,-1.23347 0.55416,-0.6498 0.99204,-1.19959 1.27802,-1.83176 0.21883,-0.48368 0.29063,-1.41495 -0.0499,-2.008261 -0.34052,-0.593313 -0.66905,-0.749604 -0.88913,-0.91339 -0.61992,-0.461304 -1.3544,-0.8123 -2.15683,-1.181289 -0.40122,-0.184508 -0.79764,-0.353898 -1.15936,-0.491263 -0.36168,-0.137341 -0.59098,-0.251969 -1.10882,-0.311758 -0.25133,-0.0291 -0.45443,-0.02721 -0.62155,-0.0049 z m 0.43308,1.636323 c 0.5822,0.06723 2.92835,1.145986 3.63328,1.670552 0.8406,0.62554 0.82061,0.66995 -1.5981,3.53257 -2.41675,2.86034 -3.8879,4.66118 -3.90116,4.77601 -0.034,0.3084 0.58311,-0.0462 2.08272,-1.19325 2.94,-2.2489 5.7459,-2.76926 7.11399,-1.31923 1.12462,1.19203 1.40252,2.94828 0.64513,4.07403 -0.46524,0.69151 -0.002,1.37882 0.76249,1.13176 0.73009,-0.23583 0.65568,-0.0151 -0.29101,0.86487 -0.52469,0.48765 -0.86215,0.93278 -0.82299,1.0852 0.27475,1.0699 -4.5751,4.35495 -6.75068,4.5726 l -0.57072,0.0571 0.91139,0.7033 c 0.50118,0.38689 0.95557,0.72163 1.01011,0.74389 0.0544,0.0227 0.4613,-0.32125 0.90375,-0.76317 1.24957,-1.24832 1.48449,-1.32439 2.68266,-0.86551 0.81392,0.3118 1.15516,0.36358 1.86768,0.28346 l 0.87148,-0.0983 0.42182,0.63652 c 0.40314,0.60746 0.91838,2.51236 0.84623,3.12972 -0.0189,0.16062 -0.32578,0.71834 -0.68202,1.23914 l -0.64782,0.94661 0.72227,-0.47563 c 5.65996,-3.72712 7.21342,-4.37282 8.55052,-3.55516 0.46905,0.28685 0.97322,0.49664 1.12046,0.46633 0.1474,-0.0302 0.73758,-0.16062 1.31159,-0.28874 1.02526,-0.22903 1.30074,-0.14777 1.25044,0.36886 -0.008,0.0797 0.15004,0.39291 0.35072,0.69601 0.48606,0.73459 0.45371,0.84121 -0.51849,1.71609 -0.45942,0.41342 -1.25652,1.14322 -1.77161,1.62138 -0.51509,0.47816 -1.66424,1.49689 -2.55371,2.26387 -1.53736,1.32564 -1.57701,1.37591 -0.80303,1.01974 2.84555,-1.30947 5.85444,-2.06912 7.22003,-1.82244 0.0227,0.004 0.0416,6.8e-4 0.0627,0.004 0.11451,-0.0624 0.33447,-0.0729 0.70266,-0.004 1.98756,0.36698 1.95608,2.42774 1.95608,2.42774 0,0 -2.99752,3.61057 -0.15836,0.77311 2.83928,-2.83746 3.34408,0.8335 4.40706,1.16268 0.68735,0.21278 1.12221,1.08233 1.34613,1.67387 l 1.81182,-5.49895 c 0.085,-0.0692 0.17499,-0.14437 0.27514,-0.25095 1.54447,-1.63896 2.27271,-1.86496 13.47913,-4.1777 0.6414,-0.13227 1.12682,-0.1712 1.44288,-0.1232 0.52677,0.0801 0.58361,0.4017 0.11149,0.93331 -0.15911,0.17914 -0.25926,0.44165 -0.22298,0.58334 0.0393,0.15269 -0.2415,0.51354 -0.68905,0.8858 -0.10431,0.0869 -0.26455,0.23017 -0.4005,0.34884 1.23351,-0.10431 2.47461,-0.13304 3.5402,-0.0393 1.15278,0.10167 2.09595,0.32767 2.5969,0.70134 0.61978,0.46214 0.78943,0.51055 1.79788,0.50987 0.61248,-3.4e-4 1.82418,0.0302 2.69229,0.0695 l 1.57815,0.0703 0.77511,0.97756 0.77514,0.97787 2.85315,-0.14777 c 5.96933,-0.30953 9.06292,0.22752 8.91053,1.54693 -0.0227,0.19388 0.054,0.51338 0.16932,0.70961 0.30877,0.52393 0.26078,0.6728 -0.85122,2.65643 l -1.01544,1.81182 -1.55853,0.45171 c -1.4919,0.43239 -1.76102,0.58768 -1.44719,0.83561 0.0782,0.0616 0.085,0.2604 0.0151,0.44105 -0.0703,0.18065 -0.0533,0.44283 0.0378,0.58232 0.12586,0.19313 0.062,0.43399 -0.26795,1.01015 -0.2381,0.4161 -0.43489,0.7725 -0.43708,0.79173 -0.002,0.0189 0.20559,0.0559 0.46168,0.0816 0.3937,0.0397 0.46501,0.12623 0.46365,0.56074 -8.3e-4,0.2827 0.099,0.58686 0.22185,0.67639 0.40961,0.29857 0.16818,0.72303 -1.6117,2.83391 -1.52565,1.80929 -1.76387,2.17218 -1.74202,2.64774 0.0401,0.87072 -0.95924,2.38825 -2.12759,3.2321 -3.53233,2.55117 -6.77857,2.43288 -9.21799,-0.33561 -0.51886,-0.58886 -1.25036,-1.3911 -1.62568,-1.78321 -0.49638,-0.5186 -0.75289,-0.99193 -0.93997,-1.73604 -0.3545,-1.40932 -0.66335,-2.23504 -0.87185,-2.32903 -0.24188,-0.10922 -2.80598,5.0734 -3.88522,7.85289 -0.2226,0.57359 -0.34203,0.68837 -0.6731,0.65016 -0.51565,-0.0597 -1.97456,-1.01279 -2.13356,-1.39401 -0.10695,-0.25624 -0.15193,-0.24831 -0.36659,0.0612 -0.26418,0.38081 -0.71097,0.14777 -0.65447,-0.34127 0.0151,-0.13039 -0.16251,-0.33599 -0.39521,-0.45636 -0.41826,-0.21693 -0.42019,-0.23205 -0.16327,-1.44723 0.24339,-1.15096 0.2381,-1.23698 -0.0801,-1.36075 -0.4491,-0.17461 -0.34694,-1.06019 0.36433,-3.16627 0.29101,-0.8615 0.5968,-1.76957 0.67972,-2.01825 0.14777,-0.44335 0.14021,-0.45016 -0.39884,-0.32956 -0.92174,0.20673 -1.3699,0.94571 -4.20997,6.94751 l -0.84525,1.78688 -1.2933,0.0733 c -1.0875,0.062 -1.37118,0.14739 -1.78324,0.5375 l -0.49026,0.46399 -0.51819,-0.63187 c -0.28496,-0.3477 -0.73746,-0.7406 -1.00478,-0.87349 -0.59914,-0.29781 -0.61679,-0.65647 -0.11262,-2.26885 0.0302,-0.0941 0.0382,-0.13682 0.0627,-0.21807 l 1.34518,-3.09318 -0.0227,0.034 c 0,0 0.24264,-0.53947 -0.2483,-0.31029 -0.44335,0.35186 -1.08758,1.54164 -2.3955,4.08764 -0.58633,1.14136 -0.49366,1.08097 -2.42638,1.58415 -0.77711,0.2022 -1.59387,0.50178 -1.81515,0.66577 -0.56498,0.41868 -1.07625,-0.10507 -0.97322,-0.99714 0.0669,-0.57745 0.0435,-0.60814 -0.51619,-0.67277 -0.70666,-0.0816 -0.76395,-0.15457 -0.51985,-0.98051 -0.0782,0.0265 -0.14248,0.0457 -0.23923,0.0813 -2.1608,0.79759 -3.45644,0.0692 -5.22605,-2.93826 -0.40412,-0.68679 -0.65394,-0.93509 -1.1394,-0.36509 l -1.23414,1.10516 c 0,0 0.001,-0.008 0.001,-0.008 -0.1731,0.0677 -0.45798,0.27174 -0.89579,0.61456 -1.01059,0.79113 -1.01585,0.79907 -0.69865,1.12281 l 0.31974,0.32654 -0.66744,0.87053 c -0.60265,0.78622 -0.76188,0.88838 -1.64692,1.05894 -0.53898,0.10393 -2.13583,0.51588 -3.54855,0.91539 -1.41272,0.39956 -3.08346,0.84533 -3.71272,0.99084 -3.11963,0.72136 -4.49932,1.23131 -4.69358,1.73438 -0.10242,0.26569 -0.31179,0.56452 -0.46501,0.66445 -0.15306,0.0998 -0.29101,0.28685 -0.30575,0.41478 -0.0151,0.12812 -0.10431,0.22412 -0.19917,0.21316 -0.0994,-0.0113 -0.10658,-0.19388 -0.0189,-0.43043 0.0956,-0.25284 0.0831,-0.41876 -0.034,-0.4321 -0.10318,-0.0113 -0.17461,-0.13568 -0.15836,-0.27513 0.0427,-0.37 -0.37188,-0.35791 -1.11982,0.034 -0.3613,0.18859 -0.75103,0.29403 -0.86619,0.23394 -0.11527,-0.0601 -0.67484,0.034 -1.24374,0.2124 -0.80792,0.25133 -1.06128,0.2706 -1.15637,0.0896 -0.0922,-0.17574 -0.19728,-0.14739 -0.43244,0.11716 -0.17082,0.19237 -0.45072,0.33334 -0.62189,0.31331 -0.1712,-0.0189 -0.71494,0.0718 -1.20822,0.20295 -1.04355,0.27816 -1.46238,0.26834 -0.93932,-0.0227 0.20144,-0.11187 0.44895,-0.25511 0.55043,-0.31785 0.10128,-0.0627 0.4065,-0.18367 0.67809,-0.26871 0.27135,-0.085 0.5511,-0.2638 0.62087,-0.39721 0.0699,-0.13341 0.18481,-0.19728 0.25548,-0.14135 0.15798,0.1251 0.89348,-0.0907 1.85638,-0.54411 0.39854,-0.18783 0.95327,-0.31898 1.23279,-0.29177 0.42574,0.0412 0.51615,-0.0189 0.55674,-0.37075 0.0404,-0.35148 0.19501,-0.4542 0.94597,-0.63089 1.003,-0.23583 1.53955,-2.16859 0.63119,-2.2735 -0.0964,-0.0113 -0.87364,-0.88645 -1.72705,-1.94509 -0.85342,-1.05867 -1.55687,-1.87973 -1.56322,-1.82478 -0.008,0.0548 -0.42782,1.03807 -0.9363,2.18473 -0.50847,1.14669 -1.05821,2.53621 -1.22186,3.08784 -0.57042,1.92301 -0.84211,2.07211 -1.86696,1.02576 -0.35828,-0.36584 -0.89019,-0.8233 -1.1823,-1.01676 -0.35601,-0.23583 -0.61252,-0.61245 -0.77711,-1.14174 l -0.24528,-0.78974 -1.2431,0.83029 c -2.51108,1.67758 -6.19213,3.1019 -6.90525,2.67204 -0.30991,-0.1867 -0.80928,-0.22072 -2.22895,-0.15344 -2.13303,0.10166 -2.19747,0.079 -4.98908,-1.74266 -1.41409,-0.92273 -1.65075,-1.1453 -1.79954,-1.69217 -0.0941,-0.34657 -0.58705,-1.11404 -1.09552,-1.70581 -3.41431,-3.97361 -2.02048,-10.36986 3.52757,-16.18571 4.17157,-4.37294 17.45947,-12.19574 20.18196,-11.88138 0.60413,0.0699 2.67196,-0.24528 2.69097,-0.41013 0.008,-0.0737 -0.0877,-0.14551 -0.21391,-0.16025 -0.42155,-0.0487 -1.58835,-1.33142 -1.84969,-2.03351 -0.1421,-0.38168 -0.27362,-0.72764 -0.29214,-0.76884 -0.0189,-0.0412 -1.26499,0.9134 -2.77008,2.12128 -3.1299,2.51183 -3.67561,2.6576 -4.23057,1.13078 -0.082,-0.22525 -0.25926,-0.4324 -0.39422,-0.4607 -0.13492,-0.0265 -0.33674,-0.0711 -0.44838,-0.0949 -0.72465,-0.15419 -0.22941,-2.32675 1.11249,-4.88073 0.0994,-0.18934 0.0227,-0.30726 -0.28194,-0.42143 -0.60489,-0.22827 0.79019,-1.88435 1.52497,-1.81016 0.0692,0.008 0.90719,-1.18814 1.86201,-2.65608 3.18471,-4.896 6.35592,-8.9022 6.98904,-8.829092 z m 0.2226,1.235133 c -0.40447,-0.04709 -0.7248,0.412659 -2.44569,2.619509 -4.27978,5.48845 -8.54183,12.75003 -7.82394,13.32989 0.57813,0.46698 1.05686,0.28686 2.58096,-0.97087 1.73551,-1.4323 4.74376,-4.19369 4.5882,-4.21164 -0.0574,-0.008 -0.9341,0.52809 -1.94844,1.18827 -1.0143,0.66018 -1.92074,1.21744 -2.01424,1.23811 -0.9174,0.20296 6.93979,-10.53964 8.77058,-11.99137 0.41796,-0.33141 0.30122,-0.4306 -1.21982,-1.031718 -0.20862,-0.08243 -0.35261,-0.1545 -0.48761,-0.170181 z m 4.90862,6.635699 c -1.15603,-0.0204 -2.65824,0.45685 -4.00955,1.60374 -3.49208,2.96389 -4.49346,7.75535 -1.57047,7.51484 0.14286,-0.0113 0.54101,-0.0378 0.88512,-0.0537 1.24923,-0.0646 3.82195,-1.65823 5.35568,-3.31752 0.77084,-0.83395 0.64102,-0.85179 -0.84427,-0.11716 -2.75737,1.36348 -4.45196,1.68174 -4.76304,0.89477 -0.30764,-0.77791 0.0189,-1.06249 1.61541,-1.4063 1.61375,-0.3477 3.38433,-1.14031 4.14081,-1.85404 1.83952,-1.73552 1.20145,-2.99188 -0.33712,-3.22577 -0.14966,-0.0227 -0.30764,-0.0355 -0.47264,-0.0386 z m -0.26909,1.50203 c 0.63346,0.0333 0.44525,0.79905 -0.46565,1.37374 -0.89813,0.56664 -3.0832,1.35686 -3.05062,1.10319 0.065,-0.50776 2.34785,-2.25361 3.19453,-2.44335 0.12435,-0.028 0.2313,-0.0383 0.32163,-0.0336 z m 4.35291,4.84118 c 0.002,0.008 10e-4,0.0113 0.003,0.0189 4.9e-4,-8e-5 -10e-4,7e-5 -6.8e-4,0 -0.002,-0.008 -8.7e-4,-0.0113 -0.003,-0.0189 z m 0.003,0.0265 c 1.5e-4,-7e-5 4.9e-4,8e-5 6.8e-4,0 0.0488,0.19767 0.0624,0.34544 0.0605,0.46736 -0.004,-0.14588 -0.0189,-0.2997 -0.0612,-0.46736 z m -20.34251,0.4996 c 8.3e-4,4.9e-4 0.002,10e-4 0.003,0.002 -1.1e-4,3.4e-4 -1.5e-4,6.8e-4 -3.4e-4,0.001 -6.8e-4,-5.3e-4 -0.002,-0.002 -0.002,-0.003 z m 16.03779,5.62125 c -0.69634,0.065 -1.63748,1.30649 -4.61545,5.84927 -3.34091,5.09641 -4.72775,7.68693 -7.09472,13.25343 -0.32502,0.76448 -0.59895,0.5463 -0.38092,-0.30349 l 0.2022,-0.78875 -1.70313,1.1075 c -1.0629,0.69095 -1.79432,1.05996 -1.94508,0.9812 -0.13303,-0.0695 -0.70753,0.0911 -1.2767,0.35677 -3.39923,1.58861 -6.85189,2.41195 -7.87813,1.87796 -2.83236,-1.47376 -0.75788,-5.68335 5.26527,-10.68411 0.95497,-0.79283 1.81674,-1.38411 1.93084,-1.32455 0.11338,0.0593 0.32918,-0.0151 0.4796,-0.16856 0.2551,-0.25775 0.24868,-0.26153 -0.0941,-0.0616 -0.34014,0.19879 -0.3477,0.19501 -0.10318,-0.0525 0.14551,-0.14701 0.32881,-0.21693 0.40685,-0.15533 0.0782,0.0616 0.65391,-0.18745 1.27935,-0.55341 0.62541,-0.36622 1.36461,-0.75209 1.64296,-0.85757 0.27816,-0.10544 0.47537,-0.25775 0.43742,-0.33863 -0.11867,-0.25322 1.67085,-1.35399 1.8447,-1.13475 0.0416,0.0525 -0.339,0.29857 -0.84589,0.5471 -1.63578,0.80141 -0.86048,0.62805 1.07492,-0.24037 1.03237,-0.4632 2.68187,-1.11117 3.66552,-1.44023 2.16073,-0.72281 3.76416,-2.03862 3.11211,-2.55367 -0.18557,-0.14664 -0.17121,-0.21732 0.0926,-0.44873 0.97254,-0.85345 0.66713,-2.00181 -0.707,-2.65809 -3.67882,-1.75698 -19.66873,7.07831 -24.37262,13.46719 -0.84321,1.14518 -0.788,1.54273 0.0813,0.58629 0.36282,-0.39895 0.68905,-0.72178 0.72526,-0.71759 0.0949,0.0113 -0.1353,0.29404 -0.9812,1.20686 -0.41062,0.44325 -0.7508,0.84382 -0.75613,0.89016 -0.004,0.0465 -0.22185,0.33031 -0.48096,0.63084 -1.43974,1.67093 -2.13167,6.05997 -1.23282,7.81929 0.13341,0.26116 0.21088,0.5892 0.17196,0.72961 -0.0809,0.29214 1.28278,1.24144 1.58181,1.10119 0.10393,-0.0488 0.0748,0.0745 -0.0658,0.27702 -0.90455,1.30426 3.3744,3.2058 5.91174,2.62718 0.38754,-0.0884 0.87212,-0.14135 1.07659,-0.11754 0.42642,0.0491 2.71603,-0.42026 3.20285,-0.65681 0.28761,-0.13946 0.27665,-0.15382 -0.0892,-0.11867 -0.67911,0.0654 -0.18329,-0.19426 1.53627,-0.80534 2.54865,-0.90584 4.28817,-2.27816 5.09578,-4.01953 1.10009,-2.372 1.3843,-2.4302 0.70364,-0.14437 -0.66831,2.24448 -0.75739,2.75238 -0.48924,2.78334 0.13077,0.0151 0.22412,0.14135 0.20786,0.2808 -0.0386,0.3341 0.12964,0.3409 0.42945,0.0151 0.21542,-0.23281 0.24831,-0.20182 0.29706,0.27967 0.0302,0.29782 0.1542,0.64457 0.27476,0.7708 0.12056,0.12623 0.18972,0.50598 0.15344,0.84359 -0.0518,0.48126 0.12245,0.20975 0.80636,-1.25576 2.40363,-5.15077 3.03312,-6.20166 4.77434,-7.96986 2.86188,-2.90629 2.93641,-2.87537 1.21185,0.50155 -1.86363,3.64935 -1.91477,3.94663 -0.90175,5.24068 0.9971,1.27372 0.91842,1.27969 1.63865,-0.12245 1.75018,-3.40697 3.12586,-5.89598 4.75174,-8.59644 l 1.80585,-2.99906 -0.31747,-0.42681 c -1.37696,-1.85241 -1.6312,-1.80399 -4.87407,0.92734 -1.29984,1.09484 -2.38164,1.90415 -2.40378,1.79856 -0.0892,-0.42533 3.91393,-6.96943 6.20826,-10.14866 1.6701,-2.31424 2.48844,-3.51691 2.6494,-3.89356 0.23319,-0.54585 -0.25548,-0.72356 -0.82496,-0.30008 -0.4508,0.33523 -0.45824,0.33485 -0.41848,-0.0113 0.034,-0.28609 -0.0654,-0.36281 -0.53546,-0.41712 -0.31671,-0.0378 -0.79113,-0.14022 -1.05433,-0.23054 -0.0949,-0.034 -0.18897,-0.0476 -0.28836,-0.0382 z m 11.59985,1.95408 c -1.33354,-0.034 -3.27685,0.97095 -6.07262,3.10878 -1.21771,0.93112 -1.21276,0.85761 -0.15306,2.3014 l 0.8745,1.19159 0.61093,-0.33523 c 0.33599,-0.18443 1.0739,-0.66951 1.6393,-1.07791 0.56539,-0.40839 2.23714,-1.53366 3.71506,-2.50083 2.60155,-1.7026 3.61185,-2.49925 3.09083,-2.45201 -0.17385,0.0151 -0.5177,0.1251 -1.02942,0.32616 l -0.84824,0.33296 -0.68803,-0.5175 c -0.31784,-0.23924 -0.69487,-0.36622 -1.1394,-0.37756 z m 31.08078,0.68372 c 0.0113,4.9e-4 0.008,0.0189 -0.0189,0.0495 -0.0227,0.0227 -0.034,0.0484 -0.0537,0.0726 0.0265,-0.0756 0.0578,-0.12245 0.0711,-0.12207 z m -2.17244,2.07207 -0.6149,0.0113 c -0.66283,0.0113 -5.37874,1.06415 -7.49722,1.67221 -1.7899,0.51373 -4.08812,2.58504 -3.00673,2.70991 0.33333,0.0386 0.29441,0.17989 -0.34619,1.26638 -0.51944,0.88044 -3.0702,5.85021 -3.55819,6.9325 l -0.2192,0.48663 -0.0302,-0.0813 c -0.54363,1.36982 -1.58363,3.79065 -2.5451,5.99786 -0.14096,0.4745 -0.21542,0.83252 -0.13454,0.89643 0.16894,0.13341 0.15269,0.30386 -0.0881,0.91271 -0.50564,1.27965 -0.31557,1.43234 0.42979,0.34506 0.39286,-0.57314 0.39989,-0.57564 0.3545,-0.11943 -0.0265,0.25624 0.034,0.47503 0.13115,0.48625 0.55208,0.0639 1.15005,-0.83599 5.12665,-7.7166 l 0.83527,-1.44519 1.50403,-0.54211 c 0.50258,-0.18103 0.85266,-0.30537 1.10584,-0.38459 l 0.0151,-0.0302 0.75349,-0.26304 0.23885,-0.0899 c -0.35072,0.48145 -0.37075,1.06237 0.0563,1.40002 0.10015,0.079 0.034,0.34203 -0.18104,0.72394 -1.02069,1.80849 -3.18323,7.27967 -3.10677,7.86018 0.0578,0.43806 0.36697,0.57007 0.41247,0.17611 0.0151,-0.13945 0.13531,-0.24112 0.26456,-0.22638 0.27967,0.034 0.41187,0.79782 0.21391,1.2388 -0.3477,0.77393 0.39385,0.28269 0.92772,-0.61426 0.32124,-0.53992 0.65613,-1.29167 0.74419,-1.67021 0.22789,-0.98063 0.35186,-1.22141 0.48296,-0.942 0.0658,0.13983 0.4042,-0.34241 0.89378,-1.27236 1.01532,-1.92872 1.35928,-2.71425 1.24942,-2.85284 -0.0488,-0.0612 6.8e-4,-0.19653 0.10922,-0.30046 0.10885,-0.10393 0.18821,-0.29479 0.17612,-0.42378 -0.0113,-0.12925 0.0714,-0.20446 0.18594,-0.16742 0.22865,0.0741 4.6429,-1.49081 5.44677,-1.9308 0.54003,-0.29554 0.75711,-1.01275 0.43107,-1.42395 -0.13833,-0.17422 -0.0816,-0.32842 0.25019,-0.68372 0.8855,-0.94748 0.42979,-1.14435 -1.63797,-0.7073 -1.92501,0.40692 -1.87645,0.45832 -1.02008,-1.07459 0.92904,-1.66306 0.97688,-1.69077 3.61699,-2.11129 2.83285,-0.45126 2.94664,-0.44045 2.13888,0.19992 -0.76823,0.60916 -0.87798,1.02897 -0.28723,1.09723 l 0.41581,0.048 -0.71763,1.25573 c -0.39486,0.69064 -0.95202,1.76972 -1.23777,2.39849 -0.59434,1.30781 -0.69631,1.43154 -1.63699,1.97834 -0.77352,0.44963 -0.8889,0.80349 -0.47896,1.46979 0.27816,0.45212 0.27665,0.46509 -0.18367,1.5007 -1.23113,2.76834 -1.78318,5.00961 -1.21386,4.92892 0.3307,-0.0469 0.35413,0.003 0.22488,0.47729 -0.1988,0.72859 -0.11565,1.0349 0.22184,0.81502 0.21391,-0.13946 0.25133,-0.0684 0.21051,0.4022 -0.0487,0.56131 -0.0431,0.55764 0.31029,-0.19993 0.19804,-0.42468 0.44143,-0.7632 0.54143,-0.7525 0.10015,0.0113 0.82854,-1.31185 1.61903,-2.93928 2.49936,-5.1454 2.20794,-4.9675 4.18605,-2.55601 1.65022,2.01174 1.64009,2.00751 1.92913,0.78376 0.20749,-0.87885 0.18897,-1.05074 -0.23961,-2.16349 l -0.44471,-1.15437 c 0.74906,0.0189 1.88842,-0.3031 2.72854,-0.58232 -0.5601,0.54638 -0.77292,0.94427 -0.71831,1.35909 0.0302,0.24188 -0.16175,0.83112 -0.4703,1.43094 -2.1579,4.19633 -1.78552,6.30883 1.26771,7.19309 0.63538,0.18405 1.20444,0.39721 1.26506,0.47363 0.46539,0.58693 3.58203,-0.55247 5.51056,-2.01455 1.33668,-1.01339 1.51873,-1.30614 0.6804,-1.09355 -0.65519,0.16629 -0.5674,0.008 0.41047,-0.7462 0.4686,-0.36093 0.81502,-0.73493 0.76982,-0.8313 -0.0454,-0.0964 0.30046,-0.53478 0.76879,-0.97421 1.8478,-1.73427 1.73457,-1.80566 -0.87514,-0.55042 -5.738,2.75983 -7.42401,3.01399 -7.68705,1.15837 -0.10167,-0.71864 1.10323,-2.84718 1.67289,-2.95458 5.03489,-0.9493 10.06173,-3.06672 7.87847,-3.31884 -0.23961,-0.0265 -0.23205,-0.0571 0.0567,-0.22109 0.46698,-0.26531 -2.16674,-0.42374 -4.15679,-0.2502 -0.80901,0.0707 -1.48835,0.1096 -1.50966,0.0869 -0.20522,-0.21807 2.00706,-2.25945 2.40211,-2.21636 0.70916,0.0775 4.74199,-0.41921 4.88602,-0.6016 0.0703,-0.0888 0.58293,-0.27438 1.13944,-0.41248 0.92776,-0.23016 1.35138,-0.52866 0.8366,-0.58965 -0.11603,-0.0151 0.0703,-0.15496 0.41448,-0.31369 0.55284,-0.25511 0.59638,-0.31633 0.37227,-0.52352 -0.22374,-0.20673 -0.18104,-0.26342 0.36206,-0.47963 0.81876,-0.32616 0.80096,-0.5129 -0.0593,-0.61226 -0.65931,-0.076 -0.68402,-0.0964 -0.35186,-0.29214 0.34884,-0.2056 0.34846,-0.21127 -0.0151,-0.25851 -0.76717,-0.0998 -4.77336,-0.17839 -5.52156,-0.10809 -0.42865,0.0401 -1.12579,0.0695 -1.54923,0.065 -0.88985,-0.0113 -1.88287,0.0911 -2.79566,0.23773 -0.20409,-0.99503 -0.70882,-1.48903 -0.77413,-1.54954 -0.23016,-0.42128 -0.95462,-0.70307 -2.14089,-0.75118 -1.29269,-0.0525 -2.00317,-0.0113 -4.33461,0.24944 -0.37877,0.0423 -0.39634,0.008 -0.23583,-0.45935 0.14702,-0.42748 -0.41017,-0.71494 -1.33952,-0.87915 -2.78799,-0.4926 -8.92788,0.12585 -9.47026,1.41329 -0.27816,0.66014 -0.41735,0.76452 -1.82743,1.36877 -1.21075,0.51879 -1.6142,0.86142 -1.6925,1.47243 0.0949,0.062 0.25397,0.10507 0.49827,0.12132 0.91033,0.0601 1.20107,0.31369 1.24242,0.57869 0.0733,0.0541 0.0529,0.18973 -0.054,0.44275 l -0.0389,-0.0435 c -0.0888,0.16629 -0.20484,0.29139 -0.20484,0.29139 l 0.0404,-0.004 -1.2614,1.31193 c -0.048,0.0302 -0.13303,0.10431 -0.15042,0.10242 -0.20371,-0.0227 0.16743,-1.04242 0.48361,-1.32784 0.34845,-0.31444 0.35337,-0.4598 0.0189,-0.49861 -0.22676,-0.0265 -0.23167,-0.0722 -0.0302,-0.26455 0.37415,-0.35791 0.15042,-0.45489 -0.55674,-0.24151 -0.35223,0.1062 -0.91313,0.27552 -1.24643,0.37643 l -0.60594,0.1833 0.31898,-0.5222 -0.0302,0.004 0.10922,-0.13643 0.37492,-0.6149 c 0.76275,-1.24972 0.7903,-1.27357 1.858,-1.58979 1.19484,-0.35374 3.2425,-1.68245 3.14967,-2.04383 -0.034,-0.12585 0.0605,-0.30688 0.20598,-0.40186 0.1455,-0.0949 0.23281,-0.24112 0.1935,-0.32465 -0.0635,-0.1353 0.58671,-0.66856 1.99463,-1.63634 z m -37.55428,1.36873 c -0.0956,-0.0151 -2.21946,3.0293 -2.24059,3.21214 -0.0151,0.14551 1.2736,1.30097 1.36873,1.22553 0.0472,-0.0378 0.36471,-0.4025 0.70534,-0.81104 0.34052,-0.40851 0.82046,-0.81555 1.06627,-0.9044 0.24565,-0.0888 0.45359,-0.22109 0.46202,-0.29404 0.0189,-0.17271 -1.23324,-2.40759 -1.36177,-2.42838 z m 15.53956,1.90358 -1.66322,0.26909 c -4.32347,0.69914 -10.27734,3.87803 -10.47542,5.59299 -0.14172,1.22806 0.71026,1.73434 3.53725,2.09999 2.77253,0.35867 2.79842,0.26947 -0.78044,2.67238 -4.82986,3.2428 -6.65702,4.87374 -5.59801,4.99604 0.093,0.0113 0.17763,-0.0567 0.18859,-0.14966 0.0113,-0.093 0.0941,-0.16024 0.18519,-0.15004 0.10128,0.0113 0.0726,0.17272 -0.0729,0.41482 -0.3734,0.61929 0.60775,1.68945 1.40629,1.53393 0.24982,-0.0488 0.45598,0.0918 0.74189,0.50522 0.51773,0.74827 0.38621,0.7909 2.20434,-0.7166 0.87209,-0.72311 2.95549,-2.42892 4.63012,-3.79084 1.6746,-1.36189 3.33494,-2.78988 3.68944,-3.17292 0.13001,-0.14059 0.21429,-0.21467 0.29895,-0.29101 l -0.0896,0.15873 c -0.84189,1.72679 -1.72467,4.2396 -1.49405,4.75673 1.34458,3.01547 4.38616,2.46607 7.66906,-1.38502 1.1451,-1.34329 1.92505,-2.57956 2.34463,-3.68014 l -0.0113,-0.034 0.13341,-0.36433 0.12472,-0.37794 c 0.29517,-1.25981 0.0412,-2.30261 -0.77745,-3.06656 -0.26795,-0.24982 -0.56286,-0.71608 -0.65545,-1.03638 -0.4838,-1.67384 -2.21617,-1.36914 -4.313,0.75882 -0.23016,0.23356 -0.45431,0.44241 -0.63085,0.59166 -0.49052,0.57529 -0.94313,1.20055 -1.24412,1.67519 l -0.14513,0.38758 -0.3579,0.6355 -0.15344,-0.43406 c -0.30311,-0.85606 -0.85229,-1.22213 -2.50318,-1.66859 -1.70264,-0.46044 -2.67302,-0.86033 -2.64645,-1.09053 0.0378,-0.32691 4.31594,-2.6935 6.6337,-3.66952 1.22988,-0.51789 1.28502,-0.68943 0.45568,-1.41828 z m -33.83393,0.79673 c 0.0151,0.0151 -0.0461,0.0782 -0.17045,0.19766 -0.15042,0.14475 -0.44131,0.32918 -0.64683,0.40983 -0.34014,0.13379 -0.34884,0.12321 -0.10053,-0.11603 0.15041,-0.14475 0.44131,-0.32918 0.64683,-0.40983 0.17007,-0.0669 0.257,-0.0975 0.27098,-0.0816 z m 41.25041,0.87348 c 0.13833,0.0427 0.12623,0.045 0.17763,0.0673 l -0.001,0.004 c -0.0609,-0.0227 -0.11149,-0.0514 -0.17612,-0.0714 z m -21.24861,0.42911 c -0.61305,0.0582 -1.22806,1.17787 -3.17159,4.57759 -3.514,6.14692 -5.42061,10.32084 -4.75008,10.39824 0.13341,0.0151 0.27211,0.18179 0.30877,0.36962 0.0401,0.20673 0.16743,0.3152 0.322,0.27551 0.20296,-0.0522 0.23546,0.11338 0.15609,0.79771 -0.13454,1.16385 0.0616,1.11019 0.94163,-0.25813 2.37781,-3.69726 5.40462,-8.708 5.43879,-9.00392 0.0227,-0.18935 0.6378,-1.2772 1.36876,-2.41709 1.96602,-3.06585 1.9675,-3.0773 0.53781,-4.13219 -0.37152,-0.274 -0.64249,-0.48682 -0.88615,-0.57072 -0.0915,-0.0302 -0.17876,-0.045 -0.26607,-0.0378 z m -14.49154,0.79139 c -0.29063,0.0446 -0.82023,0.23886 -1.66292,0.55145 -2.9316,1.0877 -6.73223,4.18438 -8.38437,6.83144 -1.12886,1.80872 -0.99515,1.93163 1.33452,1.22617 2.23681,-0.67729 4.3348,-1.795 4.7175,-2.51379 0.26531,-0.49808 0.50164,-0.67983 1.12848,-0.86687 0.76792,-0.22903 0.81331,-0.28005 1.42459,-1.59145 0.34732,-0.74499 0.90863,-1.85517 1.24741,-2.46693 0.39982,-0.72197 0.59453,-1.08494 0.40851,-1.16336 -0.0465,-0.0189 -0.11678,-0.0227 -0.21391,-0.008 z m 62.44312,0.93566 c 0.10884,0.0113 0.17196,0.16213 0.17423,0.33787 0.2226,3.03263 -3.90184,3.03066 -3.90184,3.03066 0,0 -0.034,0.0438 -0.0556,0.0692 -0.26682,-0.0265 -0.5807,-0.0189 -1.03671,0.0378 -0.66494,0.0839 -1.2391,0.11414 -1.27603,0.0673 -0.0529,-0.0669 1.71368,-2.9813 1.89592,-3.12771 0.0752,-0.0605 3.95278,-0.4437 4.19999,-0.41516 z m -29.47939,3.12341 c 0.0265,-5e-4 0.0487,0.002 0.0695,0.0113 0.0949,0.034 0.13756,0.14929 0.11224,0.36736 -0.14664,1.27107 -1.869,3.90996 -3.40194,5.21244 -1.07912,0.91691 -1.32387,0.90183 -1.07557,-0.0658 0.46641,-1.81772 3.50365,-5.50425 4.29569,-5.52356 z m 41.68949,1.92119 c 0.0265,0.0408 0.0151,0.0393 0.0378,0.0741 -3.4e-4,10e-4 -3.4e-4,0.002 -6.8e-4,0.004 -0.0151,-0.0227 -0.0227,-0.0552 -0.0378,-0.0779 z m 0.23961,0.48459 c 0.003,0.0302 -0.008,0.0881 -0.0113,0.11678 -0.003,-0.0151 -0.004,-0.0265 -0.008,-0.0416 0.008,-0.0265 0.0151,-0.0499 0.0227,-0.0752 z m -0.0503,0.2226 c -0.0265,0.0608 -0.0302,0.0986 -0.0722,0.20258 0.0265,-0.0661 0.0378,-0.1319 0.0567,-0.19729 0.008,-0.003 0.008,-0.002 0.0151,-0.004 z m -0.15571,1.98367 c 0.35941,0.26191 0.40091,0.38523 0.41346,0.46566 -0.13984,-0.18935 -0.2895,-0.37529 -0.41346,-0.46566 z m -34.38405,4.35854 c 0.0151,0.008 0.0227,0.0302 0.0302,0.062 0.0264,0.12661 -0.0412,0.30159 -0.1508,0.38855 -0.13984,0.11112 -0.1542,0.042 -0.0484,-0.23054 0.0646,-0.16629 0.12888,-0.24603 0.16856,-0.21995 z m -28.19472,1.69746 c -0.18405,0.0264 -0.36017,0.32086 -0.71694,0.91339 -0.69056,1.14662 -1.83287,3.17409 -1.8444,3.27364 -0.0151,0.1232 0.11414,0.0865 2.41777,-0.69665 1.2609,-0.42866 2.48655,-0.83067 2.72389,-0.89314 0.41369,-0.10884 0.39781,-0.13417 -0.38557,-0.61324 -0.4494,-0.27475 -1.09189,-0.84627 -1.42792,-1.27005 -0.39025,-0.49214 -0.5827,-0.73871 -0.76683,-0.71395 z m -10.11407,9.41444 c 0.008,0.0113 -0.0639,0.0522 -0.12774,0.0956 0.0302,-0.0302 0.062,-0.0522 0.0922,-0.0858 0.0151,-0.0151 0.0302,-0.0189 0.034,-0.0113 z" />
    <path
       d="m 282.45891,157.11309 v 1.07428 h -0.4875 v -2.77786 h 0.78886 q 0.26418,0 0.45738,0.062 0.19502,0.062 0.32276,0.17196 0.12774,0.10809 0.18972,0.25888 0.062,0.1508 0.062,0.32805 0,0.0692 -0.0189,0.16138 -0.0189,0.0922 -0.062,0.19161 -0.0442,0.0975 -0.12246,0.19313 -0.0779,0.0941 -0.2003,0.17007 -0.12056,0.0744 -0.29063,0.12056 -0.16856,0.0461 -0.3971,0.0461 z m 0,-0.3564 0.24641,-0.002 q 0.13455,0 0.24642,-0.034 0.11149,-0.034 0.19161,-0.0994 0.0797,-0.0658 0.12245,-0.16138 0.0442,-0.0956 0.0442,-0.21807 0,-0.0975 -0.0302,-0.18254 -0.0302,-0.0869 -0.0994,-0.1508 -0.0692,-0.0658 -0.18255,-0.1028 -0.11149,-0.0389 -0.27816,-0.0389 h -0.26077 z m 5.03281,1.4306 H 287.006 v -2.77786 h 0.78709 q 0.26606,0 0.45911,0.0533 0.19313,0.0533 0.31898,0.15231 0.12774,0.0994 0.18783,0.24112 0.062,0.14173 0.062,0.32087 0,0.11716 -0.0302,0.24112 -0.0265,0.12245 -0.1028,0.23394 -0.0726,0.11187 -0.19842,0.20371 -0.12585,0.0922 -0.31897,0.14891 l 0.84559,1.1824 h -0.54778 l -0.74276,-1.13633 q -0.0442,0 -0.1009,-0.002 -0.0567,-0.002 -0.13115,-0.0151 z m 0.002,-1.50505 q 0.0548,0.008 0.11149,0.008 0.0567,0.002 0.11527,0.002 0.1455,0 0.26077,-0.034 0.11527,-0.034 0.19502,-0.0975 0.0797,-0.0639 0.12056,-0.15419 0.0423,-0.0922 0.0423,-0.20749 0,-0.11527 -0.0265,-0.1969 -0.0302,-0.0816 -0.0994,-0.13304 -0.0711,-0.0533 -0.19161,-0.0778 -0.11867,-0.0265 -0.30121,-0.0265 h -0.22525 z m 7.13518,0.0586 q 0,0.20938 -0.0427,0.40243 -0.0408,0.19312 -0.12056,0.36168 -0.0779,0.16667 -0.19162,0.3031 -0.11149,0.13644 -0.25359,0.23395 -0.14021,0.0975 -0.30651,0.15079 -0.16667,0.0533 -0.3545,0.0533 -0.30121,0 -0.53712,-0.1062 -0.23394,-0.1062 -0.3971,-0.2997 -0.16138,-0.19313 -0.24641,-0.46267 -0.085,-0.27136 -0.085,-0.59918 0,-0.31557 0.0888,-0.57967 0.0888,-0.26418 0.25359,-0.45557 0.16478,-0.19161 0.40061,-0.29781 0.23773,-0.1062 0.53361,-0.1062 0.27665,0 0.507,0.0975 0.23205,0.0956 0.39884,0.27665 0.16667,0.18065 0.25888,0.44142 0.0941,0.26078 0.0941,0.58675 z m -0.51406,0.0442 q 0,-0.23923 -0.0533,-0.43432 -0.0514,-0.19691 -0.14891,-0.33674 -0.0975,-0.13984 -0.23583,-0.21618 -0.13832,-0.0779 -0.31028,-0.0779 -0.16856,0 -0.3084,0.0726 -0.13832,0.0726 -0.23923,0.20937 -0.0994,0.13455 -0.15609,0.32616 -0.0548,0.19161 -0.0548,0.42722 0,0.23923 0.0461,0.4432 0.048,0.2022 0.14021,0.3511 0.0941,0.14891 0.23205,0.23206 0.13833,0.0835 0.31898,0.0835 0.18065,0 0.32276,-0.0888 0.14361,-0.0903 0.24301,-0.23924 0.0994,-0.15079 0.1508,-0.34581 0.0533,-0.19501 0.0533,-0.40594 z m 5.80569,-1.01755 h -0.85444 v 2.41976 h -0.4875 v -2.41976 h -0.8527 v -0.35829 h 2.19464 z m 5.63195,0.97322 q 0,0.20937 -0.0427,0.40242 -0.0408,0.19313 -0.12056,0.36169 -0.0779,0.16667 -0.19161,0.3031 -0.11187,0.13644 -0.2536,0.23394 -0.14021,0.0975 -0.3065,0.1508 -0.16667,0.0533 -0.35451,0.0533 -0.30121,0 -0.53712,-0.1062 -0.23394,-0.1062 -0.39709,-0.2997 -0.16138,-0.19313 -0.24642,-0.46267 -0.085,-0.27136 -0.085,-0.59918 0,-0.31558 0.0888,-0.57968 0.0888,-0.26417 0.2536,-0.45556 0.16478,-0.19161 0.40061,-0.29781 0.23772,-0.1062 0.5336,-0.1062 0.27665,0 0.507,0.0975 0.23206,0.0956 0.39884,0.27665 0.16667,0.18065 0.25888,0.44143 0.0941,0.26078 0.0941,0.58674 z m -0.51407,0.0442 q 0,-0.23924 -0.0533,-0.43433 -0.0514,-0.1969 -0.14891,-0.33674 -0.0975,-0.13983 -0.23583,-0.21618 -0.13832,-0.0779 -0.31028,-0.0779 -0.16856,0 -0.3084,0.0726 -0.13832,0.0726 -0.23923,0.20938 -0.0994,0.13454 -0.15609,0.32616 -0.0548,0.19161 -0.0548,0.42721 0,0.23924 0.0461,0.44321 0.048,0.20219 0.14021,0.3511 0.0941,0.14891 0.23206,0.23205 0.13832,0.0835 0.31897,0.0835 0.18066,0 0.32276,-0.0888 0.14362,-0.0903 0.24301,-0.23923 0.0994,-0.1508 0.1508,-0.34581 0.0533,-0.19502 0.0533,-0.40594 z m 5.80569,-1.01756 h -0.85444 v 2.41977 h -0.4875 v -2.41977 h -0.85269 v -0.35828 h 2.19463 z m 3.79896,2.41977 v -1.24091 l -0.85798,-1.53695 h 0.53889 l 0.59563,1.15584 0.55311,-1.15584 h 0.53712 l -0.87927,1.5086 v 1.26926 z m 5.00443,-1.07428 v 1.07428 h -0.4875 v -2.77786 h 0.78887 q 0.26417,0 0.45737,0.062 0.19502,0.062 0.32276,0.17196 0.12774,0.10809 0.18972,0.25889 0.062,0.15079 0.062,0.32804 0,0.0692 -0.0189,0.16138 -0.0189,0.0922 -0.062,0.19162 -0.0442,0.0975 -0.12245,0.19312 -0.0779,0.0941 -0.20031,0.17007 -0.12056,0.0745 -0.29063,0.12056 -0.16856,0.0461 -0.3971,0.0461 z m 0,-0.35639 0.24642,-0.002 q 0.13492,0 0.24641,-0.034 0.11187,-0.034 0.19161,-0.0994 0.0797,-0.0658 0.12245,-0.16138 0.0442,-0.0956 0.0442,-0.21807 0,-0.0975 -0.0302,-0.18254 -0.0302,-0.0869 -0.0994,-0.1508 -0.0692,-0.0658 -0.18254,-0.10279 -0.11187,-0.0389 -0.27816,-0.0389 h -0.26078 z m 6.12123,-0.9874 h -1.08664 v 0.76049 h 0.86505 v 0.3579 h -0.86505 v 0.93955 h 1.13275 v 0.35979 h -1.62025 v -2.77786 h 1.57414 z m 9.57279,0 h -1.08667 v 0.76049 h 0.86505 v 0.3579 h -0.86505 v 0.93955 h 1.13274 v 0.35979 h -1.62024 v -2.77786 h 1.57417 z m 3.97626,-0.35979 q 0.38288,0 0.6488,0.10809 0.26758,0.10809 0.43606,0.29441 0.16856,0.18443 0.24452,0.43077 0.0763,0.24453 0.0763,0.5194 0,0.19161 -0.0302,0.37226 -0.0302,0.17914 -0.1028,0.33674 -0.0692,0.1576 -0.18065,0.29064 -0.11149,0.13114 -0.27136,0.22676 -0.15797,0.0941 -0.36697,0.14701 -0.20749,0.0514 -0.47151,0.0514 H 338.621 v -2.77786 z m -0.21089,0.35828 v 2.06168 h 0.14891 q 0.20559,0 0.37937,-0.0658 0.17536,-0.0658 0.3031,-0.19842 0.12774,-0.13303 0.19842,-0.33523 0.0726,-0.20219 0.0726,-0.47332 0,-0.18973 -0.0495,-0.36698 -0.048,-0.17914 -0.1576,-0.31747 -0.10809,-0.13832 -0.28345,-0.22147 -0.17536,-0.0831 -0.42899,-0.0831 z m 4.91932,2.41977 v -2.77786 h 0.4875 v 2.77786 z m 5.82341,-2.41977 h -0.85444 v 2.41977 h -0.48749 v -2.41977 h -0.85266 v -0.35828 h 2.19459 z m 3.14132,2.41977 v -2.77786 h 0.4875 v 2.77786 z m 6.31624,-1.44655 q 0,0.20938 -0.0427,0.40243 -0.0408,0.19312 -0.12057,0.36168 -0.0779,0.16667 -0.19161,0.30311 -0.11149,0.13643 -0.25359,0.23394 -0.14022,0.0975 -0.30651,0.15079 -0.16667,0.0533 -0.3545,0.0533 -0.30122,0 -0.53712,-0.1062 -0.23394,-0.1062 -0.3971,-0.2997 -0.16138,-0.19312 -0.24641,-0.46267 -0.085,-0.27135 -0.085,-0.59918 0,-0.31557 0.0888,-0.57967 0.0888,-0.26418 0.25359,-0.45557 0.16478,-0.19161 0.40065,-0.29781 0.23734,-0.1062 0.53357,-0.1062 0.27665,0 0.507,0.0975 0.23205,0.0956 0.39887,0.27665 0.16667,0.18065 0.25889,0.44143 0.0941,0.26077 0.0941,0.58674 z m -0.5141,0.0442 q 0,-0.23923 -0.0533,-0.43432 -0.0514,-0.19691 -0.14891,-0.33674 -0.0975,-0.13984 -0.23583,-0.21618 -0.13832,-0.0779 -0.31028,-0.0779 -0.16856,0 -0.3084,0.0726 -0.13832,0.0726 -0.23923,0.20937 -0.0994,0.13455 -0.15609,0.32616 -0.0548,0.19162 -0.0548,0.42722 0,0.23923 0.0461,0.4432 0.048,0.2022 0.13983,0.35111 0.0941,0.1489 0.23243,0.23205 0.13833,0.0835 0.31898,0.0835 0.18065,0 0.32276,-0.0888 0.14361,-0.0903 0.24301,-0.23924 0.0994,-0.15079 0.1508,-0.34581 0.0533,-0.19501 0.0533,-0.40594 z m 4.26877,-0.58678 v 1.989 h -0.48749 v -2.77786 h 0.46089 l 1.18063,1.99784 v -1.99784 h 0.4875 l 0.008,2.77786 h -0.46146 z"
       id="text10"
       style="font-weight:bold;font-size:21.3333px;font-family:'Euphemia UCAS';-inkscape-font-specification:'Euphemia UCAS Bold';text-align:center;letter-spacing:16.49px;word-spacing:0px;text-anchor:middle;fill:#1a1a1a;stroke-width:0.17018"
       aria-label="PROTOTYPE EDITION" />
  </g>
</svg>
